<svg width="18" height="19" viewBox="0 0 18 19" fill="none" xmlns="http://www.w3.org/2000/svg">
<path d="M13.1605 10.0602C13.1605 7.81037 14.9885 6.68547 15.1291 6.61516C14.0745 5.06842 12.3871 4.8575 11.8247 4.8575C10.4186 4.71689 9.08273 5.70118 8.37966 5.70118C7.6766 5.70118 6.5517 4.8575 5.42679 4.92781C3.95036 4.92781 2.54423 5.84179 1.77086 7.17761C0.153811 9.91956 1.34902 13.9973 2.89576 16.2471C3.66913 17.372 4.58312 18.5672 5.70802 18.4969C6.83292 18.4266 7.25476 17.7939 8.66089 17.7939C9.99671 17.7939 10.4185 18.4969 11.6138 18.4969C12.809 18.4969 13.5823 17.372 14.3557 16.3174C15.2697 15.0519 15.6212 13.8567 15.6212 13.7864C15.5509 13.6458 13.2308 12.7318 13.1605 10.0602Z" fill="#0A0A0A"/>
<path d="M10.9108 3.38256C11.5435 2.60919 11.9654 1.5546 11.8247 0.5C10.9108 0.570306 9.85616 1.13276 9.1531 1.83582C8.59065 2.46858 8.0985 3.59348 8.23911 4.57777C9.29371 4.71839 10.278 4.15593 10.9108 3.38256Z" fill="#0A0A0A"/>
</svg>
