<svg width="260" height="39" viewBox="0 0 260 39" fill="none" xmlns="http://www.w3.org/2000/svg">
<path d="M2.7161 38.7827C1.9513 38.7827 1.30802 38.5187 0.78624 37.9978C0.264462 37.4769 0 36.8346 0 36.0711C0 35.3076 0.264462 34.7011 0.78624 34.1802L29.5555 5.45883H0V0.0356787H36.0955C36.8603 0.0356787 37.5036 0.299701 38.0254 0.820609C38.5472 1.34152 38.8116 1.98373 38.8116 2.74726C38.8116 3.51078 38.5472 4.11732 38.0254 4.63823L9.25618 33.3595H38.8116V38.7827H2.7161ZM0 1.56986C0 1.14172 0.150114 0.777781 0.443167 0.485216C0.743368 0.185515 1.10073 0.0428214 1.52959 0.0428214H3.8883C4.31716 0.0428214 4.68171 0.192651 4.97476 0.485216C5.27496 0.784916 5.41789 1.14172 5.41789 1.56986V3.92465C5.41789 4.3528 5.26781 4.71673 4.97476 5.0093C4.67456 5.309 4.31716 5.45169 3.8883 5.45169H1.52959C1.10073 5.45169 0.73622 5.30186 0.443167 5.0093C0.142967 4.7096 0 4.3528 0 3.92465V1.56986Z" fill="#BCEB0F"/>
<path d="M133.339 38.854L152.745 0.106931H156.069C158.234 4.43832 160.343 8.65554 162.394 12.7729C163.273 14.5068 164.181 16.3193 165.11 18.196C166.04 20.0727 166.962 21.9209 167.884 23.7262C168.798 25.5315 169.678 27.2727 170.514 28.9353C171.35 30.5979 172.101 32.0964 172.765 33.4308H211.577V38.854H169.442L160.829 21.6568C158.828 17.6822 156.683 13.4151 154.396 8.8482C154.039 9.56177 153.66 10.3324 153.252 11.1673C152.895 11.8809 152.48 12.7158 152.002 13.6648C151.523 14.6139 151.015 15.6414 150.465 16.7332L142.102 33.4308H159.042C159.993 35.3574 160.9 37.1628 161.758 38.854H133.339ZM172.758 10.7748C172.808 9.27635 173.123 7.87776 173.702 6.57905C174.288 5.28035 175.074 4.1529 176.061 3.18958C177.047 2.22626 178.205 1.46985 179.527 0.920398C180.849 0.370946 182.257 0.0997887 183.758 0.0997887H211.563V5.52294H183.758C182.994 5.52294 182.279 5.66566 181.614 5.95109C180.949 6.23652 180.356 6.62898 179.842 7.12848C179.327 7.62798 178.927 8.21311 178.626 8.87674C178.326 9.54036 178.183 10.2539 178.183 11.0175V22.1849H172.751V10.7677L172.758 10.7748ZM180.799 18.2674C180.799 17.8606 180.949 17.511 181.243 17.2113C181.536 16.9116 181.9 16.7689 182.329 16.7689H184.723C185.131 16.7689 185.481 16.9187 185.781 17.2113C186.081 17.511 186.224 17.8606 186.224 18.2674V20.6578C186.224 21.086 186.074 21.4499 185.781 21.7425C185.488 22.035 185.131 22.1849 184.723 22.1849H182.329C181.9 22.1849 181.536 22.035 181.243 21.7425C180.942 21.4428 180.799 21.086 180.799 20.6578V18.2674ZM206.173 16.7689V22.192H180.799V16.7689H206.173Z" fill="#BCEB0F"/>
<path d="M133.339 5.49451C132.553 5.49451 131.824 5.63723 131.138 5.92266C130.451 6.20809 129.865 6.60055 129.351 7.10005C128.836 7.59955 128.436 8.18468 128.136 8.84831C127.835 9.51193 127.692 10.2255 127.692 10.989V38.8184H123.868L94.313 9.31213V38.8184H88.8808V0.0713573H92.7048L122.26 29.5776V11.0961C122.26 9.59756 122.553 8.17756 123.132 6.82891C123.718 5.48739 124.505 4.31712 125.505 3.31811C126.506 2.31911 127.678 1.52703 129.022 0.949038C130.366 0.363908 131.802 0.0785 133.325 0.0785" fill="#BCEB0F"/>
<path d="M255.85 38.747H252.025L215.894 0H222.613L259.766 38.8327" fill="#BCEB0F"/>
<path d="M222.47 38.8184H215.894L249.202 0L255.864 0.0142854" fill="#BCEB0F"/>
<path d="M90.4175 38.8183C89.9887 38.8183 89.6241 38.6684 89.3311 38.3759C89.0309 38.0762 88.8879 37.7194 88.8879 37.2913V34.9365C88.8879 34.5083 89.038 34.1444 89.3311 33.8518C89.6313 33.5521 89.9887 33.4094 90.4175 33.4094H92.7762C93.2051 33.4094 93.5696 33.5593 93.8627 33.8518C94.1629 34.1515 94.3058 34.5083 94.3058 34.9365V37.2913C94.3058 37.7194 94.1557 38.0833 93.8627 38.3759C93.5625 38.6756 93.2051 38.8183 92.7762 38.8183H90.4175Z" fill="#BCEB0F"/>
<path d="M43.0375 33.4024H81.8492V38.8256H42.9947V33.3165C43.009 33.3452 43.0233 33.3738 43.0375 33.4024Z" fill="#BCEB0F"/>
<path d="M76.4456 22.1636H51.0715V16.7405H76.4456V22.1636Z" fill="#BCEB0F"/>
<path d="M81.8349 5.49451H54.0306C53.2658 5.49451 52.551 5.63723 51.8863 5.92266C51.2216 6.20809 50.6283 6.60055 50.1137 7.10005C49.5991 7.59955 49.1988 8.18468 48.8986 8.84831C48.5984 9.51193 48.4554 10.2255 48.4554 10.989L48.4697 33.4024H43.0375L43.0232 10.7393L43.0304 10.7465C43.0805 9.24796 43.395 7.84936 43.9739 6.55066C44.56 5.25195 45.3463 4.12451 46.3326 3.16118C47.319 2.19786 48.4769 1.44142 49.7992 0.891966C51.1215 0.342523 52.5296 0.0713573 54.0306 0.0713573H81.8349V5.49451Z" fill="#BCEB0F"/>
<path d="M54.9955 16.7405C55.4029 16.7405 55.7532 16.8903 56.0534 17.1829C56.3536 17.4826 56.4965 17.8322 56.4965 18.239V20.6294C56.4965 21.0576 56.3465 21.4215 56.0534 21.7141C55.7604 22.0067 55.4029 22.1564 54.9955 22.1564H52.6011C52.1722 22.1564 51.8077 22.0066 51.5147 21.7141C51.2145 21.4144 51.0715 21.0576 51.0715 20.6294V18.239C51.0715 17.8322 51.2216 17.4826 51.5147 17.1829C51.8077 16.8832 52.1722 16.7405 52.6011 16.7405H54.9955Z" fill="#BCEB0F"/>
</svg>
