<svg width="18" height="19" viewBox="0 0 18 19" fill="none" xmlns="http://www.w3.org/2000/svg">
<path d="M0.369242 0.242188C0.147697 0.463733 0 0.832973 0 1.27606V17.4489C0 17.892 0.147697 18.2612 0.369242 18.4827L0.443091 18.5566L9.6003 9.47324V9.25169L0.369242 0.242188Z" fill="url(#paint0_linear_3307_45169)"/>
<path d="M12.6333 12.4998L9.60547 9.47199V9.25044L12.6333 6.22266L12.7071 6.2965L16.3257 8.36426C17.3596 8.95505 17.3596 9.91508 16.3257 10.5059L12.6333 12.4998C12.7071 12.4998 12.6333 12.4998 12.6333 12.4998Z" fill="url(#paint1_linear_3307_45169)"/>
<path d="M12.6999 12.502L9.59824 9.40039L0.367188 18.4837C0.73643 18.853 1.25337 18.853 1.918 18.5576L12.6999 12.502Z" fill="url(#paint2_linear_3307_45169)"/>
<path d="M12.6999 6.29833L1.918 0.242759C1.25337 -0.126483 0.73643 -0.0526358 0.367188 0.316606L9.59824 9.39997L12.6999 6.29833Z" fill="url(#paint3_linear_3307_45169)"/>
<defs>
<linearGradient id="paint0_linear_3307_45169" x1="8.77343" y1="17.6121" x2="-3.504" y2="5.18956" gradientUnits="userSpaceOnUse">
<stop stop-color="#00A0FF"/>
<stop offset="0.0066" stop-color="#00A1FF"/>
<stop offset="0.2601" stop-color="#00BEFF"/>
<stop offset="0.5122" stop-color="#00D2FF"/>
<stop offset="0.7604" stop-color="#00DFFF"/>
<stop offset="1" stop-color="#00E3FF"/>
</linearGradient>
<linearGradient id="paint1_linear_3307_45169" x1="17.6665" y1="9.36117" x2="-0.24542" y2="9.36117" gradientUnits="userSpaceOnUse">
<stop stop-color="#FFE000"/>
<stop offset="0.4087" stop-color="#FFBD00"/>
<stop offset="0.7754" stop-color="#FFA500"/>
<stop offset="1" stop-color="#FF9C00"/>
</linearGradient>
<linearGradient id="paint2_linear_3307_45169" x1="4.82596" y1="13.7871" x2="-11.8232" y2="-3.05868" gradientUnits="userSpaceOnUse">
<stop stop-color="#FF3A44"/>
<stop offset="1" stop-color="#C31162"/>
</linearGradient>
<linearGradient id="paint3_linear_3307_45169" x1="-8.12261" y1="17.8105" x2="-0.687997" y2="10.288" gradientUnits="userSpaceOnUse">
<stop stop-color="#32A071"/>
<stop offset="0.0685" stop-color="#2DA771"/>
<stop offset="0.4762" stop-color="#15CF74"/>
<stop offset="0.8009" stop-color="#06E775"/>
<stop offset="1" stop-color="#00F076"/>
</linearGradient>
</defs>
</svg>
