<svg width="78" height="82" viewBox="0 0 78 82" fill="none" xmlns="http://www.w3.org/2000/svg">
<rect width="78" height="82" rx="6" fill="#0A0A0A"/>
<rect x="2.86914" y="3" width="72" height="76" rx="3.61538" fill="#0A0A0A"/>
<g clip-path="url(#clip0_2627_50083)">
<path d="M33.8784 70.145V63.8825H37.0096V67.0138H40.1416V70.145H37.0096V73.2763H30.7472V70.145H33.8784Z" fill="white"/>
<path d="M43.2729 73.2763H40.1416V70.145H43.2729V73.2763Z" fill="white"/>
<path d="M49.5353 73.2763H46.4041V70.145H49.5353V73.2763Z" fill="white"/>
<path d="M68.3228 73.2763H65.1915V70.145H68.3228V73.2763Z" fill="white"/>
<path d="M55.7978 70.145H52.6666V67.0138H55.7978V70.145Z" fill="white"/>
<path d="M62.0603 67.0138V60.7513H65.1915V63.8825H71.454V67.0138H65.1915V70.145H58.929V67.0138H62.0603Z" fill="white"/>
<path d="M52.6666 67.0138H49.5353V63.8825H52.6666V67.0138Z" fill="white"/>
<path d="M58.929 67.0138H55.7978V63.8825H52.6666V57.6201H55.7978V54.4888H65.1915V57.6201H58.929V67.0138Z" fill="white"/>
<path d="M68.3228 60.7513H65.1915V57.6201H68.3228V60.7513Z" fill="white"/>
<path d="M55.7978 51.3576V54.4888H49.5353V51.3576H46.4041V54.4888H49.5353V57.6201H46.4041V63.8825H43.2729V57.6201H40.1416V60.7513H33.8784V54.4888H37.0096V52.2508C37.5222 52.3178 38.0448 52.3537 38.5756 52.3537C39.1065 52.3537 39.6291 52.3178 40.1416 52.2508V54.4888H43.2729V51.3941C44.9515 50.6761 46.4333 49.5864 47.6125 48.2263H49.5353V45.1805C49.5478 45.1521 49.5603 45.1237 49.5725 45.0951H52.6666V51.3576H55.7978Z" fill="white"/>
<path d="M68.3228 54.4888H65.1915V45.0951H68.3228V54.4888Z" fill="white"/>
<path d="M30.7472 49.434C31.6533 50.2198 32.679 50.8708 33.793 51.3576H30.7472V49.434Z" fill="white"/>
<path d="M62.0603 51.3576H58.929V45.0951H55.7978V35.7007H58.929V32.5694H68.3228V35.7007H65.1915V38.8319H68.3228V41.9639H65.1915V45.0951H62.0603V51.3576Z" fill="white"/>
<path d="M8.8285 48.2263H5.69727V38.8319H8.8285V35.7007H15.091V38.8319H11.9597V41.9639H8.8285V48.2263Z" fill="white"/>
<path d="M21.3535 48.2263H18.2222V41.9639H21.3535V48.2263Z" fill="white"/>
<path d="M27.6159 45.1805V48.2263H24.4847V45.0951H27.5787C27.5909 45.1237 27.6035 45.1521 27.6159 45.1805Z" fill="white"/>
<path d="M71.454 45.0951H68.3228V41.9639H71.454V45.0951Z" fill="white"/>
<path d="M18.2222 41.9639H15.091V38.8319H18.2222V41.9639Z" fill="white"/>
<path d="M26.722 38.8319C26.655 39.3444 26.6199 39.8671 26.6199 40.3979C26.6199 40.9287 26.655 41.4514 26.722 41.9639H24.4847V38.8319H26.722Z" fill="white"/>
<path d="M24.4847 35.7007V38.8319H18.2222V35.7007H24.4847Z" fill="white"/>
<path d="M52.6666 38.8319H50.4292C50.1181 36.4536 49.1086 34.295 47.6125 32.5694H52.6666V38.8319Z" fill="white"/>
<path d="M8.8285 35.7007H5.69727V32.5694H8.8285V35.7007Z" fill="white"/>
<path d="M27.6159 35.6146C27.6034 35.6432 27.591 35.6719 27.5787 35.7007H24.4847V32.5694H27.6159V35.6146Z" fill="white"/>
<path d="M33.8784 29.401C32.7315 29.8915 31.6763 30.5554 30.7472 31.361V26.307H33.8784V29.401Z" fill="white"/>
<path d="M40.1416 28.5443C39.6291 28.4772 39.1064 28.4421 38.5756 28.4421C38.0448 28.4421 37.5222 28.4772 37.0096 28.5443V26.307H40.1416V28.5443Z" fill="white"/>
<path d="M37.0096 26.307H33.8784V23.1757H37.0096V26.307Z" fill="white"/>
<path d="M21.3535 67.0138H11.9597V57.6201H21.3535V67.0138Z" fill="white"/>
<path fill-rule="evenodd" clip-rule="evenodd" d="M27.6159 73.2763H5.69727V51.3576H27.6159V73.2763ZM24.4847 70.145V54.4888H8.8285V70.145H24.4847Z" fill="white"/>
<path fill-rule="evenodd" clip-rule="evenodd" d="M40.1416 16.9132H43.2729V20.0445H46.4041V31.361C45.4749 30.5554 44.4198 29.8915 43.2729 29.401V23.1757H37.0096V20.0445H30.7472V10.6508H37.0096V7.51953H43.2729V10.6508H40.1416V16.9132ZM33.8784 13.782V16.9132H37.0096V13.782H33.8784Z" fill="white"/>
<path d="M21.3535 23.1757H11.9597V13.782H21.3535V23.1757Z" fill="white"/>
<path fill-rule="evenodd" clip-rule="evenodd" d="M27.6159 29.4382H5.69727V7.51953H27.6159V29.4382ZM24.4847 26.307V10.6508H8.8285V26.307H24.4847Z" fill="white"/>
<path d="M65.1915 23.1757H55.7978V13.782H65.1915V23.1757Z" fill="white"/>
<path fill-rule="evenodd" clip-rule="evenodd" d="M71.454 29.4382H49.5353V7.51953H71.454V29.4382ZM68.3228 26.307V10.6508H52.6666V26.307H68.3228Z" fill="white"/>
<path d="M47.5424 40.3979C47.5424 45.3501 43.5279 49.3647 38.5756 49.3647C33.6234 49.3647 29.6088 45.3501 29.6088 40.3979C29.6088 35.4457 33.6234 31.4311 38.5756 31.4311C43.5279 31.4311 47.5424 35.4457 47.5424 40.3979Z" fill="white"/>
<g clip-path="url(#clip1_2627_50083)">
<path d="M36.7547 39.7263C36.8554 39.9272 36.9593 40.1372 37.0657 40.3547C37.1721 40.5722 37.2777 40.7864 37.3833 40.9956C37.488 41.2048 37.5886 41.4067 37.6844 41.5993C37.7801 41.792 37.8661 41.9656 37.9422 42.1202H42.3863V42.7487H37.5617L36.5754 40.7558C36.3462 40.2952 36.1007 39.8006 35.8388 39.2714C35.7979 39.3541 35.7545 39.4434 35.7078 39.5402C35.6669 39.6229 35.6196 39.7197 35.5647 39.8297C35.5099 39.9397 35.4517 40.0587 35.3887 40.1852L34.4311 42.1202H36.3709C36.4797 42.3435 36.5836 42.5527 36.6819 42.7487H33.4277L35.6497 38.2585H36.0304C36.2784 38.7604 36.5198 39.2492 36.7547 39.7263Z" fill="#0A0A0A"/>
<path d="M42.9923 42.6348L42.8807 42.7446L42.9923 42.6128V42.6348Z" fill="#0A0A0A"/>
<path d="M41.7677 40.8179H38.8621V40.1893H41.7677V40.8179Z" fill="#0A0A0A"/>
<path d="M42.3847 38.8861H39.201C39.1134 38.8861 39.0315 38.9027 38.9554 38.9358C38.8793 38.9688 38.8114 39.0143 38.7525 39.0722C38.6936 39.1301 38.6477 39.1979 38.6134 39.2747C38.579 39.3516 38.5626 39.4344 38.5626 39.5229V40.8171H37.9406V39.4939L37.9414 39.4947C37.9471 39.3211 37.9832 39.159 38.0495 39.0085C38.1166 38.858 38.2066 38.7274 38.3196 38.6157C38.4325 38.5041 38.5651 38.4164 38.7165 38.3527C38.8679 38.289 39.0291 38.2577 39.201 38.2577H42.3847V38.8861Z" fill="#0A0A0A"/>
<path d="M42.9923 38.3672L42.8807 38.2461H42.9923V38.3672Z" fill="#0A0A0A"/>
</g>
</g>
<defs>
<clipPath id="clip0_2627_50083">
<rect width="65.9808" height="65.9808" fill="white" transform="translate(5.69727 7.51953)"/>
</clipPath>
<clipPath id="clip1_2627_50083">
<rect width="11.4775" height="11.4775" fill="white" transform="translate(32.5957 34.418)"/>
</clipPath>
</defs>
</svg>
