<svg width="40" height="40" viewBox="0 0 40 40" fill="none" xmlns="http://www.w3.org/2000/svg">
<g clip-path="url(#clip0_1883_45749)">
<path d="M20 38.75C30.3553 38.75 38.75 30.3553 38.75 20C38.75 9.64466 30.3553 1.25 20 1.25C9.64466 1.25 1.25 9.64466 1.25 20C1.25 30.3553 9.64466 38.75 20 38.75Z" fill="#FAA300"/>
<path d="M25.7725 20C26.462 19.4077 26.9754 18.6372 27.2568 17.7729C27.5381 16.9085 27.5765 15.9835 27.3678 15.0988C27.1591 14.2141 26.7112 13.4038 26.0732 12.7563C25.4352 12.1089 24.6315 11.6492 23.75 11.4275V10C23.75 9.66848 23.6183 9.35054 23.3839 9.11612C23.1495 8.8817 22.8315 8.75 22.5 8.75C22.1685 8.75 21.8505 8.8817 21.6161 9.11612C21.3817 9.35054 21.25 9.66848 21.25 10V11.25H18.75V10C18.75 9.66848 18.6183 9.35054 18.3839 9.11612C18.1495 8.8817 17.8315 8.75 17.5 8.75C17.1685 8.75 16.8505 8.8817 16.6161 9.11612C16.3817 9.35054 16.25 9.66848 16.25 10V11.25H15C14.6685 11.25 14.3505 11.3817 14.1161 11.6161C13.8817 11.8505 13.75 12.1685 13.75 12.5C13.75 12.8315 13.8817 13.1495 14.1161 13.3839C14.3505 13.6183 14.6685 13.75 15 13.75H16.25V26.25H15C14.6685 26.25 14.3505 26.3817 14.1161 26.6161C13.8817 26.8505 13.75 27.1685 13.75 27.5C13.75 27.8315 13.8817 28.1495 14.1161 28.3839C14.3505 28.6183 14.6685 28.75 15 28.75H16.25V30C16.25 30.3315 16.3817 30.6495 16.6161 30.8839C16.8505 31.1183 17.1685 31.25 17.5 31.25C17.8315 31.25 18.1495 31.1183 18.3839 30.8839C18.6183 30.6495 18.75 30.3315 18.75 30V28.75H21.25V30C21.25 30.3315 21.3817 30.6495 21.6161 30.8839C21.8505 31.1183 22.1685 31.25 22.5 31.25C22.8315 31.25 23.1495 31.1183 23.3839 30.8839C23.6183 30.6495 23.75 30.3315 23.75 30V28.5725C24.6315 28.3508 25.4352 27.8911 26.0732 27.2437C26.7112 26.5962 27.1591 25.7859 27.3678 24.9012C27.5765 24.0165 27.5381 23.0915 27.2568 22.2271C26.9754 21.3628 26.462 20.5923 25.7725 20ZM25 16.25C25 16.913 24.7366 17.5489 24.2678 18.0178C23.7989 18.4866 23.163 18.75 22.5 18.75H18.75V13.75H22.5C23.163 13.75 23.7989 14.0134 24.2678 14.4822C24.7366 14.9511 25 15.587 25 16.25ZM22.5 26.25H18.75V21.25H22.5C23.163 21.25 23.7989 21.5134 24.2678 21.9822C24.7366 22.4511 25 23.087 25 23.75C25 24.413 24.7366 25.0489 24.2678 25.5178C23.7989 25.9866 23.163 26.25 22.5 26.25Z" fill="#FFEA94"/>
</g>
<rect x="0.625" y="0.625" width="38.75" height="38.75" rx="19.375" stroke="white" stroke-width="1.25"/>
<defs>
<clipPath id="clip0_1883_45749">
<rect width="40" height="40" rx="20" fill="white"/>
</clipPath>
</defs>
</svg>
