<svg width="75" height="40" viewBox="0 0 75 40" fill="none" xmlns="http://www.w3.org/2000/svg">
<g clip-path="url(#clip0_2868_52429)">
<path d="M20 38.75C30.3553 38.75 38.75 30.3553 38.75 20C38.75 9.64466 30.3553 1.25 20 1.25C9.64466 1.25 1.25 9.64466 1.25 20C1.25 30.3553 9.64466 38.75 20 38.75Z" fill="#FAA300"/>
<path d="M25.7725 20C26.462 19.4077 26.9754 18.6372 27.2568 17.7729C27.5381 16.9085 27.5765 15.9835 27.3678 15.0988C27.1591 14.2141 26.7112 13.4038 26.0732 12.7563C25.4352 12.1089 24.6315 11.6492 23.75 11.4275V10C23.75 9.66848 23.6183 9.35054 23.3839 9.11612C23.1495 8.8817 22.8315 8.75 22.5 8.75C22.1685 8.75 21.8505 8.8817 21.6161 9.11612C21.3817 9.35054 21.25 9.66848 21.25 10V11.25H18.75V10C18.75 9.66848 18.6183 9.35054 18.3839 9.11612C18.1495 8.8817 17.8315 8.75 17.5 8.75C17.1685 8.75 16.8505 8.8817 16.6161 9.11612C16.3817 9.35054 16.25 9.66848 16.25 10V11.25H15C14.6685 11.25 14.3505 11.3817 14.1161 11.6161C13.8817 11.8505 13.75 12.1685 13.75 12.5C13.75 12.8315 13.8817 13.1495 14.1161 13.3839C14.3505 13.6183 14.6685 13.75 15 13.75H16.25V26.25H15C14.6685 26.25 14.3505 26.3817 14.1161 26.6161C13.8817 26.8505 13.75 27.1685 13.75 27.5C13.75 27.8315 13.8817 28.1495 14.1161 28.3839C14.3505 28.6183 14.6685 28.75 15 28.75H16.25V30C16.25 30.3315 16.3817 30.6495 16.6161 30.8839C16.8505 31.1183 17.1685 31.25 17.5 31.25C17.8315 31.25 18.1495 31.1183 18.3839 30.8839C18.6183 30.6495 18.75 30.3315 18.75 30V28.75H21.25V30C21.25 30.3315 21.3817 30.6495 21.6161 30.8839C21.8505 31.1183 22.1685 31.25 22.5 31.25C22.8315 31.25 23.1495 31.1183 23.3839 30.8839C23.6183 30.6495 23.75 30.3315 23.75 30V28.5725C24.6315 28.3508 25.4352 27.8911 26.0732 27.2437C26.7112 26.5962 27.1591 25.7859 27.3678 24.9012C27.5765 24.0165 27.5381 23.0915 27.2568 22.2271C26.9754 21.3628 26.462 20.5923 25.7725 20ZM25 16.25C25 16.913 24.7366 17.5489 24.2678 18.0178C23.7989 18.4866 23.163 18.75 22.5 18.75H18.75V13.75H22.5C23.163 13.75 23.7989 14.0134 24.2678 14.4822C24.7366 14.9511 25 15.587 25 16.25ZM22.5 26.25H18.75V21.25H22.5C23.163 21.25 23.7989 21.5134 24.2678 21.9822C24.7366 22.4511 25 23.087 25 23.75C25 24.413 24.7366 25.0489 24.2678 25.5178C23.7989 25.9866 23.163 26.25 22.5 26.25Z" fill="#FFEA94"/>
</g>
<rect x="0.625" y="0.625" width="38.75" height="38.75" rx="19.375" stroke="white" stroke-width="1.25"/>
<g clip-path="url(#clip1_2868_52429)">
<path d="M55.0078 38.75C65.3632 38.75 73.7578 30.3553 73.7578 20C73.7578 9.64466 65.3632 1.25 55.0078 1.25C44.6525 1.25 36.2578 9.64466 36.2578 20C36.2578 30.3553 44.6525 38.75 55.0078 38.75Z" fill="#6A82FF"/>
<g clip-path="url(#clip2_2868_52429)">
<g clip-path="url(#clip3_2868_52429)">
<path d="M43.2698 29.6262H66.7685C67.8732 29.6262 68.7688 28.7306 68.7688 27.6259V12.3714C68.7688 11.2667 67.8732 10.3711 66.7685 10.3711H43.2698C42.1651 10.3711 41.2695 11.2667 41.2695 12.3714V27.6259C41.2695 28.7306 42.1651 29.6262 43.2698 29.6262Z" fill="#8497FD"/>
<path d="M49.2945 10.373H48.1953V29.6239H49.2945V10.373Z" fill="#EFE8E8"/>
<path d="M68.7695 17.6191H41.2695V18.7183H68.7695V17.6191Z" fill="#EFE8E8"/>
<path d="M48.7368 18.7211H45.604C44.3664 18.7211 43.3594 17.7142 43.3594 16.4765C43.3594 15.4599 43.9889 14.6156 44.9631 14.3253C45.9374 14.035 46.9264 14.3974 47.4828 15.2481L49.1971 17.8702C49.3076 18.0392 49.3166 18.2552 49.2205 18.4328C49.1245 18.6104 48.9387 18.7211 48.7368 18.7211ZM45.6234 15.329C45.5017 15.329 45.384 15.3477 45.2773 15.3795C44.8818 15.4972 44.4594 15.8473 44.4594 16.4765C44.4594 17.1076 44.9728 17.6211 45.604 17.6211H47.72L46.5621 15.8501C46.3108 15.4657 45.9523 15.329 45.6234 15.329Z" fill="#EFE8E8"/>
<path d="M51.878 18.7211H48.7453C48.5434 18.7211 48.3576 18.6104 48.2616 18.4327C48.1654 18.2551 48.1745 18.0391 48.2849 17.8701L49.9992 15.2481C50.5556 14.3971 51.5444 14.0352 52.519 14.3252C53.4931 14.6155 54.1227 15.4598 54.1227 16.4764C54.1227 17.7141 53.1157 18.7211 51.878 18.7211ZM49.7621 17.621H51.878C52.5093 17.621 53.0227 17.1075 53.0227 16.4764C53.0227 15.8472 52.6002 15.4971 52.2048 15.3794C51.8097 15.2617 51.2642 15.3234 50.92 15.8501L49.7621 17.621Z" fill="#EFE8E8"/>
<path d="M45.6597 21.3563C45.5046 21.3563 45.3504 21.2911 45.2416 21.164C45.0441 20.9334 45.0709 20.5862 45.3017 20.3885L48.381 17.7515C48.6115 17.5538 48.9589 17.5806 49.1564 17.8115C49.354 18.0422 49.3271 18.3893 49.0964 18.587L46.017 21.224C45.9135 21.3128 45.7862 21.3563 45.6597 21.3563Z" fill="#EFE8E8"/>
<path d="M51.8243 21.3562C51.6977 21.3562 51.5705 21.3127 51.467 21.2239L48.3876 18.5869C48.1569 18.3892 48.13 18.042 48.3275 17.8114C48.5251 17.5808 48.8725 17.5537 49.103 17.7514L52.1823 20.3884C52.4131 20.5861 52.4399 20.9332 52.2424 21.1639C52.1336 21.2909 51.9794 21.3562 51.8243 21.3562Z" fill="#EFE8E8"/>
<path d="M65.4962 26.9658H62.0113C61.6879 26.9658 61.4258 26.7036 61.4258 26.3802V24.6949C61.4258 24.3715 61.6879 24.1094 62.0113 24.1094H65.4962C65.8196 24.1094 66.0817 24.3715 66.0817 24.6949V26.3802C66.0817 26.7036 65.8196 26.9658 65.4962 26.9658Z" fill="#FCDD5E"/>
</g>
</g>
</g>
<rect x="35.625" y="0.625" width="38.75" height="38.75" rx="19.375" stroke="white" stroke-width="1.25"/>
<defs>
<clipPath id="clip0_2868_52429">
<rect width="40" height="40" rx="20" fill="white"/>
</clipPath>
<clipPath id="clip1_2868_52429">
<rect x="35" width="40" height="40" rx="20" fill="white"/>
</clipPath>
<clipPath id="clip2_2868_52429">
<rect width="27.5" height="27.5" fill="white" transform="translate(41.2578 6.25)"/>
</clipPath>
<clipPath id="clip3_2868_52429">
<rect width="27.5" height="27.5" fill="white" transform="translate(41.2656 6.25)"/>
</clipPath>
</defs>
</svg>
