<svg width="145" height="40" viewBox="0 0 145 40" fill="none" xmlns="http://www.w3.org/2000/svg">
<g clip-path="url(#clip0_2868_52400)">
<path d="M20 38.75C30.3553 38.75 38.75 30.3553 38.75 20C38.75 9.64466 30.3553 1.25 20 1.25C9.64466 1.25 1.25 9.64466 1.25 20C1.25 30.3553 9.64466 38.75 20 38.75Z" fill="#FAA300"/>
<path d="M25.7725 20C26.462 19.4077 26.9754 18.6372 27.2568 17.7729C27.5381 16.9085 27.5765 15.9835 27.3678 15.0988C27.1591 14.2141 26.7112 13.4038 26.0732 12.7563C25.4352 12.1089 24.6315 11.6492 23.75 11.4275V10C23.75 9.66848 23.6183 9.35054 23.3839 9.11612C23.1495 8.8817 22.8315 8.75 22.5 8.75C22.1685 8.75 21.8505 8.8817 21.6161 9.11612C21.3817 9.35054 21.25 9.66848 21.25 10V11.25H18.75V10C18.75 9.66848 18.6183 9.35054 18.3839 9.11612C18.1495 8.8817 17.8315 8.75 17.5 8.75C17.1685 8.75 16.8505 8.8817 16.6161 9.11612C16.3817 9.35054 16.25 9.66848 16.25 10V11.25H15C14.6685 11.25 14.3505 11.3817 14.1161 11.6161C13.8817 11.8505 13.75 12.1685 13.75 12.5C13.75 12.8315 13.8817 13.1495 14.1161 13.3839C14.3505 13.6183 14.6685 13.75 15 13.75H16.25V26.25H15C14.6685 26.25 14.3505 26.3817 14.1161 26.6161C13.8817 26.8505 13.75 27.1685 13.75 27.5C13.75 27.8315 13.8817 28.1495 14.1161 28.3839C14.3505 28.6183 14.6685 28.75 15 28.75H16.25V30C16.25 30.3315 16.3817 30.6495 16.6161 30.8839C16.8505 31.1183 17.1685 31.25 17.5 31.25C17.8315 31.25 18.1495 31.1183 18.3839 30.8839C18.6183 30.6495 18.75 30.3315 18.75 30V28.75H21.25V30C21.25 30.3315 21.3817 30.6495 21.6161 30.8839C21.8505 31.1183 22.1685 31.25 22.5 31.25C22.8315 31.25 23.1495 31.1183 23.3839 30.8839C23.6183 30.6495 23.75 30.3315 23.75 30V28.5725C24.6315 28.3508 25.4352 27.8911 26.0732 27.2437C26.7112 26.5962 27.1591 25.7859 27.3678 24.9012C27.5765 24.0165 27.5381 23.0915 27.2568 22.2271C26.9754 21.3628 26.462 20.5923 25.7725 20ZM25 16.25C25 16.913 24.7366 17.5489 24.2678 18.0178C23.7989 18.4866 23.163 18.75 22.5 18.75H18.75V13.75H22.5C23.163 13.75 23.7989 14.0134 24.2678 14.4822C24.7366 14.9511 25 15.587 25 16.25ZM22.5 26.25H18.75V21.25H22.5C23.163 21.25 23.7989 21.5134 24.2678 21.9822C24.7366 22.4511 25 23.087 25 23.75C25 24.413 24.7366 25.0489 24.2678 25.5178C23.7989 25.9866 23.163 26.25 22.5 26.25Z" fill="#FFEA94"/>
</g>
<rect x="0.625" y="0.625" width="38.75" height="38.75" rx="19.375" stroke="white" stroke-width="1.25"/>
<g clip-path="url(#clip1_2868_52400)">
<path d="M55.0078 38.75C65.3632 38.75 73.7578 30.3553 73.7578 20C73.7578 9.64466 65.3632 1.25 55.0078 1.25C44.6525 1.25 36.2578 9.64466 36.2578 20C36.2578 30.3553 44.6525 38.75 55.0078 38.75Z" fill="#6A82FF"/>
<g clip-path="url(#clip2_2868_52400)">
<g clip-path="url(#clip3_2868_52400)">
<path d="M43.2698 29.6262H66.7685C67.8732 29.6262 68.7688 28.7306 68.7688 27.6259V12.3714C68.7688 11.2667 67.8732 10.3711 66.7685 10.3711H43.2698C42.1651 10.3711 41.2695 11.2667 41.2695 12.3714V27.6259C41.2695 28.7306 42.1651 29.6262 43.2698 29.6262Z" fill="#8497FD"/>
<path d="M49.2945 10.373H48.1953V29.6239H49.2945V10.373Z" fill="#EFE8E8"/>
<path d="M68.7695 17.6191H41.2695V18.7183H68.7695V17.6191Z" fill="#EFE8E8"/>
<path d="M48.7368 18.7211H45.604C44.3664 18.7211 43.3594 17.7142 43.3594 16.4765C43.3594 15.4599 43.9889 14.6156 44.9631 14.3253C45.9374 14.035 46.9264 14.3974 47.4828 15.2481L49.1971 17.8702C49.3076 18.0392 49.3166 18.2552 49.2205 18.4328C49.1245 18.6104 48.9387 18.7211 48.7368 18.7211ZM45.6234 15.329C45.5017 15.329 45.384 15.3477 45.2773 15.3795C44.8818 15.4972 44.4594 15.8473 44.4594 16.4765C44.4594 17.1076 44.9728 17.6211 45.604 17.6211H47.72L46.5621 15.8501C46.3108 15.4657 45.9523 15.329 45.6234 15.329Z" fill="#EFE8E8"/>
<path d="M51.878 18.7211H48.7453C48.5434 18.7211 48.3576 18.6104 48.2616 18.4327C48.1654 18.2551 48.1745 18.0391 48.2849 17.8701L49.9992 15.2481C50.5556 14.3971 51.5444 14.0352 52.519 14.3252C53.4931 14.6155 54.1227 15.4598 54.1227 16.4764C54.1227 17.7141 53.1157 18.7211 51.878 18.7211ZM49.7621 17.621H51.878C52.5093 17.621 53.0227 17.1075 53.0227 16.4764C53.0227 15.8472 52.6002 15.4971 52.2048 15.3794C51.8097 15.2617 51.2642 15.3234 50.92 15.8501L49.7621 17.621Z" fill="#EFE8E8"/>
<path d="M45.6597 21.3563C45.5046 21.3563 45.3504 21.2911 45.2416 21.164C45.0441 20.9334 45.0709 20.5862 45.3017 20.3885L48.381 17.7515C48.6115 17.5538 48.9589 17.5806 49.1564 17.8115C49.354 18.0422 49.3271 18.3893 49.0964 18.587L46.017 21.224C45.9135 21.3128 45.7862 21.3563 45.6597 21.3563Z" fill="#EFE8E8"/>
<path d="M51.8243 21.3562C51.6977 21.3562 51.5705 21.3127 51.467 21.2239L48.3876 18.5869C48.1569 18.3892 48.13 18.042 48.3275 17.8114C48.5251 17.5808 48.8725 17.5537 49.103 17.7514L52.1823 20.3884C52.4131 20.5861 52.4399 20.9332 52.2424 21.1639C52.1336 21.2909 51.9794 21.3562 51.8243 21.3562Z" fill="#EFE8E8"/>
<path d="M65.4962 26.9658H62.0113C61.6879 26.9658 61.4258 26.7036 61.4258 26.3802V24.6949C61.4258 24.3715 61.6879 24.1094 62.0113 24.1094H65.4962C65.8196 24.1094 66.0817 24.3715 66.0817 24.6949V26.3802C66.0817 26.7036 65.8196 26.9658 65.4962 26.9658Z" fill="#FCDD5E"/>
</g>
</g>
</g>
<rect x="35.625" y="0.625" width="38.75" height="38.75" rx="19.375" stroke="white" stroke-width="1.25"/>
<g clip-path="url(#clip4_2868_52400)">
<path d="M90 38.75C100.355 38.75 108.75 30.3553 108.75 20C108.75 9.64466 100.355 1.25 90 1.25C79.6447 1.25 71.25 9.64466 71.25 20C71.25 30.3553 79.6447 38.75 90 38.75Z" fill="#3C8EFF"/>
<path d="M84 26.0645V21.0645H82V26.0645H84ZM87 18.0645H93V16.0645H87V18.0645ZM96 21.0645V26.0645H98V21.0645H96ZM93 29.0645H87V31.0645H93V29.0645ZM96 26.0645C96 27.0356 95.9979 27.6633 95.9357 28.1258C95.8774 28.5595 95.7832 28.6955 95.7071 28.7716L97.1213 30.1858C97.631 29.6762 97.8297 29.0478 97.9179 28.3923C98.0021 27.7655 98 26.979 98 26.0645H96ZM93 31.0645C93.9145 31.0645 94.701 31.0666 95.3278 30.9824C95.9833 30.8942 96.6117 30.6955 97.1213 30.1858L95.7071 28.7716C95.631 28.8477 95.495 28.9419 95.0613 29.0002C94.5988 29.0624 93.9711 29.0645 93 29.0645V31.0645ZM93 18.0645C93.9711 18.0645 94.5988 18.0666 95.0613 18.1288C95.495 18.1871 95.631 18.2813 95.7071 18.3574L97.1213 16.9431C96.6117 16.4335 95.9833 16.2347 95.3278 16.1466C94.701 16.0623 93.9145 16.0645 93 16.0645V18.0645ZM98 21.0645C98 20.15 98.0021 19.3635 97.9179 18.7367C97.8297 18.0812 97.631 17.4528 97.1213 16.9431L95.7071 18.3574C95.7832 18.4335 95.8774 18.5695 95.9357 19.0032C95.9979 19.4657 96 20.0934 96 21.0645H98ZM84 21.0645C84 20.0934 84.0021 19.4657 84.0643 19.0032C84.1226 18.5695 84.2168 18.4335 84.2929 18.3574L82.8787 16.9431C82.369 17.4528 82.1703 18.0812 82.0821 18.7367C81.9979 19.3635 82 20.15 82 21.0645H84ZM87 16.0645C86.0855 16.0645 85.299 16.0623 84.6722 16.1466C84.0167 16.2347 83.3883 16.4335 82.8787 16.9431L84.2929 18.3574C84.369 18.2813 84.505 18.1871 84.9387 18.1288C85.4012 18.0666 86.0289 18.0645 87 18.0645V16.0645ZM82 26.0645C82 26.979 81.9979 27.7655 82.0821 28.3923C82.1703 29.0478 82.369 29.6762 82.8787 30.1858L84.2929 28.7716C84.2168 28.6955 84.1226 28.5595 84.0643 28.1258C84.0021 27.6633 84 27.0356 84 26.0645H82ZM87 29.0645C86.0289 29.0645 85.4012 29.0624 84.9387 29.0002C84.505 28.9419 84.369 28.8477 84.2929 28.7716L82.8787 30.1858C83.3883 30.6955 84.0167 30.8942 84.6722 30.9824C85.299 31.0666 86.0855 31.0645 87 31.0645V29.0645ZM91 17.0645V14.0645H89V17.0645H91ZM92 21.0645V23.0645H94V21.0645H92ZM86 21.0645V23.0645H88V21.0645H86ZM85.2929 25.7716L86 26.4787L87.4142 25.0645L86.7071 24.3574L85.2929 25.7716ZM87.4142 27.0645H92.5858V25.0645H87.4142V27.0645ZM94 26.4787L94.7071 25.7716L93.2929 24.3574L92.5858 25.0645L94 26.4787ZM92.5858 27.0645C93.1162 27.0645 93.6249 26.8538 94 26.4787L92.5858 25.0645V27.0645ZM86 26.4787C86.3751 26.8538 86.8838 27.0645 87.4142 27.0645V25.0645L86 26.4787ZM79 21.0645V27.0645H81V21.0645H79ZM99 21.0645V27.0645H101V21.0645H99ZM91 12.0645C91 12.6167 90.5523 13.0645 90 13.0645V15.0645C91.6569 15.0645 93 13.7213 93 12.0645H91ZM90 13.0645C89.4477 13.0645 89 12.6167 89 12.0645H87C87 13.7213 88.3431 15.0645 90 15.0645V13.0645ZM89 12.0645C89 11.5122 89.4477 11.0645 90 11.0645V9.06445C88.3431 9.06445 87 10.4076 87 12.0645H89ZM90 11.0645C90.5523 11.0645 91 11.5122 91 12.0645H93C93 10.4076 91.6569 9.06445 90 9.06445V11.0645Z" fill="#BCD8FF"/>
</g>
<rect x="70.625" y="0.625" width="38.75" height="38.75" rx="19.375" stroke="white" stroke-width="1.25"/>
<g clip-path="url(#clip5_2868_52400)">
<path d="M124.992 38.75C135.348 38.75 143.742 30.3553 143.742 20C143.742 9.64466 135.348 1.25 124.992 1.25C114.637 1.25 106.242 9.64466 106.242 20C106.242 30.3553 114.637 38.75 124.992 38.75Z" fill="#BCEB0F"/>
<g clip-path="url(#clip6_2868_52400)">
<path fill-rule="evenodd" clip-rule="evenodd" d="M119.865 6.98242H131.881L126.445 15.9386H134.566L121.355 36.7676L123.786 23.011H115.398L119.865 6.98242Z" fill="#EDFFAB"/>
</g>
</g>
<rect x="105.625" y="0.625" width="38.75" height="38.75" rx="19.375" stroke="white" stroke-width="1.25"/>
<defs>
<clipPath id="clip0_2868_52400">
<rect width="40" height="40" rx="20" fill="white"/>
</clipPath>
<clipPath id="clip1_2868_52400">
<rect x="35" width="40" height="40" rx="20" fill="white"/>
</clipPath>
<clipPath id="clip2_2868_52400">
<rect width="27.5" height="27.5" fill="white" transform="translate(41.2578 6.25)"/>
</clipPath>
<clipPath id="clip3_2868_52400">
<rect width="27.5" height="27.5" fill="white" transform="translate(41.2656 6.25)"/>
</clipPath>
<clipPath id="clip4_2868_52400">
<rect x="70" width="40" height="40" rx="20" fill="white"/>
</clipPath>
<clipPath id="clip5_2868_52400">
<rect x="105" width="40" height="40" rx="20" fill="white"/>
</clipPath>
<clipPath id="clip6_2868_52400">
<rect width="31.25" height="31.25" fill="white" transform="translate(109.367 6.25)"/>
</clipPath>
</defs>
</svg>
