<svg width="186" height="90" viewBox="0 0 186 90" fill="none" xmlns="http://www.w3.org/2000/svg">
<rect width="186" height="90" fill="#F0F2F4"/>
<path fill-rule="evenodd" clip-rule="evenodd" d="M79.7915 72.8911C80.7132 72.8911 81.3868 73.0886 81.8122 73.4836C82.2376 73.8786 82.4505 74.493 82.451 75.3266V79.795H81.0685V75.5157C81.0685 74.5734 80.5463 74.1023 79.5019 74.1023C79.0508 74.0985 78.608 74.2246 78.225 74.4658C78.2913 74.7477 78.3224 75.0369 78.3177 75.3266V79.795H76.9352V75.5157C76.9352 74.5734 76.413 74.1023 75.3687 74.1023C74.8921 74.1027 74.4195 74.1894 73.9732 74.3582V79.795H72.5913V73.5912C73.0488 73.3611 73.5331 73.1901 74.0328 73.0823C74.5658 72.9565 75.111 72.8912 75.6582 72.8874C76.5205 72.8874 77.1613 73.0571 77.5805 73.3963C78.2708 73.0627 79.0264 72.89 79.7915 72.8911ZM87.1879 80C86.134 80 85.3419 79.6949 84.8115 79.0847C84.2812 78.4744 84.0158 77.5863 84.0154 76.4201C84.0154 74.0601 85.0693 72.8804 87.1771 72.8809C88.2392 72.8809 89.0378 73.1836 89.5729 73.7889C90.108 74.3943 90.3758 75.2714 90.3762 76.4201C90.3762 77.5678 90.0998 78.4514 89.547 79.0708C88.9942 79.6903 88.2078 80 87.1879 80ZM87.1742 78.8018C88.3858 78.8018 88.9913 78.0079 88.9908 76.4201C88.9908 75.6305 88.8471 75.0406 88.5597 74.6505C88.2722 74.2603 87.8114 74.065 87.1771 74.0645C86.5366 74.0645 86.0782 74.2642 85.8018 74.6636C85.5253 75.063 85.3871 75.6485 85.3871 76.4201C85.3871 77.1912 85.5296 77.7811 85.8147 78.1897C86.0997 78.5983 86.5529 78.8043 87.1742 78.8018ZM94.9917 72.894C95.9747 72.894 96.7206 73.1945 97.2294 73.7955C97.7381 74.3965 97.9932 75.2479 97.9947 76.3496C97.9947 77.6776 97.6897 78.6174 97.0799 79.169C96.4701 79.7206 95.6949 79.9976 94.7546 80C92.8676 80 91.9241 79.4887 91.9241 78.466V70.3341H93.2937V73.3113C93.5691 73.1781 93.8583 73.0764 94.156 73.0081C94.4293 72.9371 94.7096 72.9008 94.9917 72.894ZM94.6489 78.7749C95.3675 78.7749 95.8705 78.5641 96.158 78.1424C96.4454 77.7207 96.5891 77.142 96.5891 76.4063C96.5891 75.6531 96.4377 75.0789 96.135 74.6839C95.8322 74.2889 95.3826 74.0916 94.7862 74.0921C94.5263 74.0939 94.2677 74.1276 94.0159 74.1924C93.7638 74.254 93.5218 74.352 93.2973 74.4833V78.1184C93.2949 78.5547 93.7454 78.7754 94.6489 78.7749ZM99.5568 70.6867H101.031V71.9655H99.5568V70.6867ZM99.5964 73.0823H100.979L100.992 79.7979H99.5964V73.0823ZM102.938 79.7979V70.4824H104.307V79.795L102.938 79.7979ZM108.939 72.8751C109.966 72.8751 110.718 73.2143 111.196 73.8929C111.675 74.5715 111.909 75.5203 111.901 76.7393H107.264C107.309 77.4033 107.501 77.9081 107.839 78.2537C108.178 78.5992 108.658 78.7718 109.281 78.7713C110.026 78.7721 110.76 78.5823 111.413 78.2195V79.5383C110.729 79.8461 109.945 80 109.061 80C108.069 80 107.29 79.6927 106.724 79.0781C106.158 78.4635 105.875 77.5911 105.875 76.4608C105.875 75.3034 106.143 74.4176 106.678 73.8035C107.213 73.1894 107.967 72.8799 108.939 72.8751ZM108.899 74.0383C108.434 74.0383 108.07 74.1641 107.807 74.4156C107.544 74.6672 107.373 75.0932 107.293 75.6938H110.492C110.43 75.1194 110.272 74.7002 110.018 74.436C109.764 74.1718 109.391 74.0393 108.899 74.0383ZM95.6952 18.6718C94.1704 18.2903 92.9967 18.0993 92.1741 18.0988C86.0382 18.0988 81.0634 23.1154 81.0634 29.3017C81.0634 35.4881 86.0403 40.5053 92.1741 40.5053C98.308 40.5053 103.286 35.4888 103.286 29.3017C103.286 28.3979 103.178 27.4974 102.965 26.6197L111.799 24.2125C112.514 26.9648 112.649 29.8387 112.196 32.6474C111.742 35.4561 110.709 38.1369 109.165 40.5155L94.5376 67.953H80.9865L90.6155 49.9953C90.668 49.8964 90.5135 49.6783 90.3841 49.6667C80.0948 48.7215 72.0352 39.9971 72.0352 29.3759C72.0352 18.1221 81.0821 9.00001 92.2431 9.00001C94.2862 8.99774 96.3179 9.30831 98.2692 9.92116L95.6952 18.6718Z" fill="#9E9E9E"/>
<g clip-path="url(#clip0_3038_55406)">
<path fill-rule="evenodd" clip-rule="evenodd" d="M79.772 72.8911C80.6937 72.8911 81.3673 73.0886 81.7927 73.4836C82.2181 73.8786 82.431 74.493 82.4315 75.3266V79.795H81.0489V75.5157C81.0489 74.5734 80.5267 74.1023 79.4824 74.1023C79.0313 74.0985 78.5884 74.2246 78.2055 74.4658C78.2717 74.7477 78.3029 75.0369 78.2982 75.3266V79.795H76.9156V75.5157C76.9156 74.5734 76.3935 74.1023 75.3491 74.1023C74.8726 74.1027 74.4 74.1894 73.9536 74.3582V79.795H72.5718V73.5912C73.0293 73.3611 73.5136 73.1901 74.0133 73.0823C74.5463 72.9565 75.0914 72.8912 75.6387 72.8874C76.501 72.8874 77.1417 73.0571 77.5609 73.3963C78.2513 73.0627 79.0069 72.89 79.772 72.8911ZM87.1684 80C86.1144 80 85.3223 79.6949 84.792 79.0847C84.2617 78.4744 83.9963 77.5863 83.9958 76.4201C83.9958 74.0601 85.0497 72.8804 87.1576 72.8809C88.2197 72.8809 89.0182 73.1836 89.5533 73.7889C90.0884 74.3943 90.3562 75.2714 90.3567 76.4201C90.3567 77.5678 90.0803 78.4514 89.5275 79.0708C88.9746 79.6903 88.1883 80 87.1684 80ZM87.1547 78.8018C88.3662 78.8018 88.9718 78.0079 88.9713 76.4201C88.9713 75.6305 88.8276 75.0406 88.5401 74.6505C88.2527 74.2603 87.7919 74.065 87.1576 74.0645C86.5171 74.0645 86.0586 74.2642 85.7822 74.6636C85.5058 75.063 85.3676 75.6485 85.3676 76.4201C85.3676 77.1912 85.5101 77.7811 85.7952 78.1897C86.0802 78.5983 86.5334 78.8043 87.1547 78.8018ZM94.9722 72.894C95.9552 72.894 96.7011 73.1945 97.2098 73.7955C97.7186 74.3965 97.9737 75.2479 97.9751 76.3496C97.9751 77.6776 97.6702 78.6174 97.0604 79.169C96.4505 79.7206 95.6754 79.9976 94.735 80C92.848 80 91.9045 79.4887 91.9045 78.466V70.3341H93.2742V73.3113C93.5496 73.1781 93.8388 73.0764 94.1365 73.0081C94.4097 72.9371 94.6901 72.9008 94.9722 72.894ZM94.6294 78.7749C95.348 78.7749 95.851 78.5641 96.1384 78.1424C96.4259 77.7207 96.5696 77.142 96.5696 76.4063C96.5696 75.6531 96.4182 75.0789 96.1154 74.6839C95.8127 74.2889 95.3631 74.0916 94.7667 74.0921C94.5068 74.0939 94.2481 74.1276 93.9963 74.1924C93.7443 74.254 93.5023 74.352 93.2778 74.4833V78.1184C93.2754 78.5547 93.7259 78.7754 94.6294 78.7749ZM99.5373 70.6867H101.012V71.9655H99.5373V70.6867ZM99.5768 73.0823H100.959L100.972 79.7979H99.5768V73.0823ZM102.918 79.7979V70.4824H104.288V79.795L102.918 79.7979ZM108.919 72.8751C109.946 72.8751 110.699 73.2143 111.177 73.8929C111.655 74.5715 111.89 75.5203 111.881 76.7393H107.245C107.289 77.4033 107.481 77.9081 107.82 78.2537C108.158 78.5992 108.639 78.7718 109.261 78.7713C110.007 78.7721 110.74 78.5823 111.394 78.2195V79.5383C110.709 79.8461 109.925 80 109.041 80C108.05 80 107.271 79.6927 106.704 79.0781C106.138 78.4635 105.855 77.5911 105.856 76.4608C105.856 75.3034 106.123 74.4176 106.658 73.8035C107.194 73.1894 107.947 72.8799 108.919 72.8751ZM108.88 74.0383C108.414 74.0383 108.05 74.1641 107.787 74.4156C107.524 74.6672 107.353 75.0932 107.274 75.6938H110.473C110.411 75.1194 110.253 74.7002 109.998 74.436C109.744 74.1718 109.371 74.0393 108.88 74.0383ZM95.6757 18.6718C94.1508 18.2903 92.9771 18.0993 92.1546 18.0988C86.0186 18.0988 81.0439 23.1154 81.0439 29.3017C81.0439 35.4881 86.0208 40.5053 92.1546 40.5053C98.2884 40.5053 103.266 35.4888 103.266 29.3017C103.266 28.3979 103.159 27.4974 102.946 26.6197L111.779 24.2125C112.495 26.9648 112.63 29.8387 112.176 32.6474C111.723 35.4561 110.69 38.1369 109.145 40.5155L94.518 67.953H80.967L90.596 49.9953C90.6485 49.8964 90.494 49.6783 90.3646 49.6667C80.0752 48.7215 72.0156 39.9971 72.0156 29.3759C72.0156 18.1221 81.0626 9.00001 92.2236 9.00001C94.2667 8.99774 96.2984 9.30831 98.2496 9.92116L95.6757 18.6718Z" fill="#9E9E9E"/>
<path d="M92.1133 23.9062C95.0377 23.9062 97.4236 26.307 97.4238 29.2881C97.4238 32.2694 95.0378 34.6709 92.1133 34.6709C89.1888 34.6708 86.8027 32.2693 86.8027 29.2881C86.803 26.3071 89.1889 23.9063 92.1133 23.9062Z" fill="#9E9E9E" stroke="#9E9E9E" stroke-width="1.55819"/>
<path d="M102.638 25.0826C101.583 22.4104 99.5492 20.2532 96.9609 19.0605L102.638 25.0826ZM106.514 23.4017C105.024 19.6956 102.206 16.6949 98.6245 14.9993L106.514 23.4017ZM110.251 22.1417C108.353 17.2559 104.621 13.3288 99.8698 11.2188L110.251 22.1417Z" fill="#9E9E9E"/>
<path d="M110.251 22.1417C108.353 17.2559 104.621 13.3288 99.8698 11.2188M102.638 25.0826C101.583 22.4104 99.5492 20.2532 96.9609 19.0605L102.638 25.0826ZM106.514 23.4017C105.024 19.6956 102.206 16.6949 98.6245 14.9993L106.514 23.4017Z" stroke="#9E9E9E" stroke-width="0.779093" stroke-linecap="round"/>
</g>
<defs>
<clipPath id="clip0_3038_55406">
<rect width="42.1562" height="59.9062" fill="white" transform="translate(72.0352 9)"/>
</clipPath>
</defs>
</svg>
