<svg width="186" height="90" viewBox="0 0 186 90" fill="none" xmlns="http://www.w3.org/2000/svg">
<rect width="186" height="90" fill="#F0F2F4"/>
<g clip-path="url(#clip0_3038_55436)">
<path d="M84.3645 20.2274C85.4787 20.9442 86.5376 21.6244 87.5948 22.3073C88.1364 22.6577 88.6871 22.9947 89.21 23.3729C89.5417 23.6126 89.8049 23.579 90.1327 23.3616C91.5841 22.3986 93.0595 21.4732 94.5031 20.4981C94.8884 20.2378 95.1562 20.2725 95.5215 20.517C96.9339 21.4623 98.3752 22.3606 99.786 23.3083C100.177 23.571 100.465 23.5984 100.871 23.3228C102.241 22.3925 103.638 21.505 105.032 20.6103C105.201 20.5016 105.373 20.2584 105.59 20.3909C105.768 20.4996 105.673 20.7546 105.674 20.943C105.679 23.5855 105.667 26.2279 105.688 28.87C105.691 29.3599 105.56 29.5074 105.078 29.5066C98.3435 29.4913 91.6088 29.4937 84.8746 29.5034C84.4788 29.5038 84.3059 29.4181 84.3086 28.9599C84.3263 26.1633 84.3173 23.3668 84.3193 20.5703C84.3193 20.4894 84.34 20.4087 84.3646 20.2273L84.3645 20.2274Z" fill="#9E9E9E"/>
<path d="M150.053 49.6992C149.502 51.7161 147.914 52.9329 145.889 52.8913C144.03 52.8533 142.428 51.4703 141.976 49.5173C141.851 48.9795 141.791 48.4356 141.801 48.0544C141.802 45.5926 142.85 43.8371 144.586 43.2212C147.239 42.2796 149.756 43.9146 150.207 46.8865C150.351 47.8309 150.307 48.7733 150.054 49.6992H150.053ZM155.811 37.8003C154.149 37.825 152.486 37.8287 150.824 37.7988C150.354 37.7903 150.251 37.9591 150.273 38.4016C150.306 39.0562 150.282 39.7138 150.282 40.556C149.675 39.7243 149.131 39.1452 148.455 38.7056C144.94 36.4175 139.989 37.4985 137.549 41.0904C135.138 44.6401 134.985 50.5098 137.207 54.1914C139.299 57.6563 143.207 59.1918 146.775 57.9564C148.162 57.4759 149.298 56.6338 150.248 55.3091C150.248 56.5796 150.311 57.682 150.235 58.7748C150.061 61.2771 148.647 62.6163 146.232 62.5949C144.589 62.5799 143.139 62.1354 142.432 60.386C142.302 60.0664 142.074 60.1281 141.852 60.1278C140.232 60.1237 138.612 60.1508 136.992 60.1119C136.443 60.0982 136.356 60.2733 136.454 60.7832C137.001 63.6202 138.552 65.633 141.059 66.8877C142.93 67.7457 148.706 69.2273 153.07 65.9062C155.432 63.882 156.304 61.1652 156.32 58.1148C156.352 51.5298 156.326 44.9447 156.34 38.3596C156.34 37.9321 156.238 37.7942 155.811 37.8003H155.811ZM43.1373 51.0228C42.9195 52.0177 42.1638 52.7234 41.0698 52.8858C39.399 53.1347 37.716 52.9424 36.0397 53.0041C35.7214 53.0158 35.7089 52.8235 35.71 52.5843C35.7139 51.7934 35.7115 51.0025 35.7115 50.2118C35.7115 49.4432 35.7186 48.6741 35.7077 47.9055C35.7034 47.6008 35.7394 47.4164 36.1149 47.4234C37.6026 47.4512 39.0933 47.3938 40.5776 47.4699C42.49 47.5684 43.5575 49.1012 43.1374 51.0228H43.1373ZM36.0968 37.5626C37.5396 37.6134 38.9883 37.4679 40.4281 37.6547C41.7943 37.8314 42.5921 38.7292 42.6254 40.0975C42.6618 41.5896 41.9977 42.4842 40.5939 42.7331C39.0759 43.0027 37.5393 42.7954 36.0123 42.8536C35.6784 42.8666 35.7107 42.6334 35.7112 42.4114C35.7119 41.6869 35.7115 40.9619 35.7115 40.2373C35.7112 39.4905 35.7186 38.7437 35.7077 37.9969C35.7029 37.7043 35.7702 37.5507 36.0968 37.5625V37.5626ZM44.9092 45.0197C44.9565 44.7792 45.1445 44.8108 45.2697 44.7573C49.8615 42.7986 49.5482 36.6152 46.6867 34.3716C45.0245 33.0683 43.1382 32.5935 41.1242 32.5721C37.5009 32.5337 33.8772 32.5681 30.2547 32.5451C29.767 32.5418 29.652 32.6885 29.6528 33.177C29.6676 41.259 29.668 49.3409 29.6523 57.4228C29.6516 57.9344 29.8116 58.0419 30.2739 58.0395C33.9183 58.0213 37.5626 58.0301 41.2071 58.0282C42.2768 58.0274 43.3348 57.9147 44.3689 57.6249C49.2614 56.2545 50.0917 51.6076 48.8069 48.4976C48.0665 46.7048 46.7309 45.5471 44.9091 45.0198L44.9092 45.0197ZM63.3192 45.9215C62.2342 45.8932 61.1477 45.9121 60.062 45.9121C58.9759 45.9121 57.8901 45.9097 56.8044 45.9134C56.5486 45.9146 56.3656 45.9311 56.4278 45.5331C56.7003 43.7966 58.2096 42.5322 60.0964 42.5015C62.0353 42.4695 63.4562 43.5881 63.7749 45.3574C63.8548 45.8008 63.7621 45.9332 63.3193 45.9216L63.3192 45.9215ZM64.1257 38.1975C62.0102 37.3388 59.805 37.2794 57.5908 37.7971C54.7888 38.4525 52.6752 40.0525 51.4046 42.7402C50.2289 45.2266 50.0517 47.8491 50.5727 50.5332C51.0005 52.7385 51.9717 54.6563 53.7 56.0526C56.7731 58.5347 60.2289 58.9138 63.846 57.6675C66.6237 56.7106 68.4566 54.692 69.3886 51.8082C69.5165 51.4118 69.5017 51.2748 69.0432 51.2804C67.2104 51.3034 65.3772 51.2991 63.5441 51.2816C63.2214 51.2784 63.0579 51.3943 62.9042 51.676C62.547 52.3303 62.0163 52.7893 61.3151 53.0261C58.986 53.8122 56.9021 52.5376 56.3971 50.0556C56.284 49.5012 56.4233 49.4009 56.931 49.4078C58.9765 49.4344 61.0233 49.4187 63.0692 49.4187C65.1367 49.4182 67.205 49.3972 69.2719 49.4332C69.7882 49.4421 69.9506 49.2565 69.9478 48.7732C69.9435 48.1125 70.0046 47.449 69.958 46.7923C69.6701 42.7337 67.8808 39.7219 64.1257 38.1974L64.1257 38.1975ZM134.155 46.322C134.157 45.57 134.095 44.8259 133.969 44.0881C133.104 39.0007 129.191 36.968 124.929 37.7701C123.254 38.0857 121.878 38.9444 120.667 40.417C120.667 39.5834 120.645 38.9489 120.676 38.3172C120.695 37.913 120.578 37.7948 120.179 37.8003C118.496 37.8242 116.812 37.8213 115.129 37.8019C114.749 37.7975 114.62 37.8844 114.621 38.3075C114.635 44.7144 114.635 51.1213 114.622 57.5281C114.621 57.9508 114.762 58.0409 115.138 58.0369C116.779 58.0192 118.421 58.0029 120.06 58.0442C120.603 58.0579 120.68 57.8498 120.677 57.3641C120.659 54.1052 120.664 50.847 120.672 47.5885C120.673 47.0615 120.702 46.5306 120.773 46.0092C120.879 45.2345 121.152 44.518 121.686 43.9429C122.762 42.7828 124.108 42.6291 125.525 42.9682C126.882 43.2927 127.65 44.2719 127.977 45.6386C128.095 46.1303 128.152 46.6311 128.151 47.1423C128.144 50.5773 128.155 54.0119 128.138 57.4465C128.136 57.8974 128.239 58.049 128.698 58.0405C130.317 58.0114 131.937 58.0101 133.556 58.0409C134.034 58.0502 134.166 57.9176 134.163 57.4181C134.142 53.7197 134.148 50.0208 134.155 46.3219L134.155 46.322ZM82.0158 52.7249C81.4201 52.7452 80.8225 52.7362 80.2261 52.729C78.9502 52.7128 78.473 52.2513 78.4645 50.9441C78.4476 48.4563 78.4676 45.9677 78.4516 43.4799C78.4493 43.0767 78.5627 42.945 78.9569 42.9554C79.9367 42.9813 80.9171 42.9461 81.8969 42.9725C82.2893 42.983 82.4093 42.8589 82.4027 42.4516C82.3807 41.0647 82.3832 39.677 82.4015 38.29C82.4066 37.9247 82.3159 37.793 81.9439 37.8023C80.9645 37.8269 79.9829 37.7846 79.004 37.8221C78.5401 37.8398 78.4403 37.6766 78.4498 37.2269C78.4771 35.8403 78.4458 34.4525 78.4673 33.0657C78.4732 32.6567 78.3469 32.5436 77.9578 32.5484C76.2743 32.5686 74.591 32.5699 72.9076 32.548C72.5036 32.5427 72.4086 32.681 72.414 33.0762C72.4351 34.5072 72.4133 35.9385 72.4285 37.3695C72.4319 37.7001 72.3671 37.8419 72.0123 37.8189C71.5031 37.7861 70.9891 37.8306 70.4791 37.8038C70.1342 37.7857 70.0446 37.9218 70.0508 38.2589C70.0692 39.1832 70.0462 40.1082 70.0606 41.0328C70.0704 41.6454 69.815 42.4267 70.1604 42.8254C70.5183 43.2372 71.2881 42.9091 71.8751 42.9636C71.8962 42.9656 71.9185 42.9673 71.9389 42.9636C72.3472 42.8845 72.4363 43.0816 72.4301 43.4748C72.4094 44.8395 72.4223 46.2046 72.4223 47.8586C72.4829 49.3061 72.3257 51.0459 72.549 52.7812C72.8698 55.2714 74.2691 56.9557 76.6139 57.6568C78.4123 58.195 80.2514 57.9728 82.0763 58.0334C82.3852 58.0436 82.4189 57.8723 82.418 57.6221C82.4142 56.1248 82.4087 54.6275 82.422 53.1303C82.4247 52.809 82.3171 52.7149 82.016 52.7249H82.0158ZM105.398 33.0824C105.48 32.947 105.694 32.8186 105.579 32.633C105.477 32.4658 105.264 32.5607 105.104 32.5603C103.142 32.5543 101.182 32.5688 99.2218 32.5466C98.7904 32.5418 98.5442 32.6711 98.3079 33.0639C95.9388 37.0044 93.5487 40.9312 91.1515 44.8536C90.9541 45.1769 90.9396 45.3995 91.1456 45.7362C93.5467 49.6558 95.9365 53.5829 98.304 57.5234C98.5425 57.9198 98.7909 58.0512 99.2192 58.0383C100.177 58.0104 101.137 58.0298 102.096 58.0293C103.098 58.0293 104.1 58.0338 105.101 58.0249C105.26 58.0238 105.473 58.1243 105.571 57.9466C105.673 57.762 105.469 57.6302 105.385 57.4916C103.118 53.7447 100.872 49.9843 98.5495 46.2742C98.0767 45.518 98.1255 45.021 98.5695 44.305C100.876 40.5838 103.132 36.8299 105.398 33.0826L105.398 33.0824ZM89.7881 32.5459C88.1697 32.5722 86.5504 32.5766 84.9317 32.5444C84.4295 32.5342 84.2871 32.67 84.2898 33.2014C84.3129 37.2288 84.3027 41.2567 84.3023 45.2844C84.3023 49.3123 84.3104 53.3401 84.2917 57.3679C84.2894 57.8727 84.3916 58.0557 84.9215 58.0436C86.5391 58.0052 88.1592 58.0149 89.7779 58.0392C90.2223 58.0456 90.3548 57.9114 90.3541 57.4451C90.3411 49.3455 90.3416 41.2458 90.3533 33.1461C90.3541 32.6934 90.2441 32.5387 89.7881 32.5459ZM112.074 37.7979C110.435 37.8301 108.794 37.8233 107.155 37.8007C106.749 37.7949 106.611 37.8904 106.611 38.3373C106.625 44.7183 106.624 51.0985 106.614 57.4791C106.613 57.8969 106.711 58.0485 107.148 58.0409C108.787 58.0125 110.427 58.011 112.066 58.0409C112.541 58.0496 112.679 57.9236 112.675 57.4209C112.652 54.2531 112.664 51.0843 112.664 47.9165C112.664 44.7479 112.652 41.5796 112.676 38.4118C112.68 37.909 112.549 37.7887 112.074 37.7979H112.074Z" fill="#9E9E9E"/>
</g>
<defs>
<clipPath id="clip0_3038_55436">
<rect width="130" height="49" fill="white" transform="translate(28 20.2273)"/>
</clipPath>
</defs>
</svg>
