<svg width="186" height="90" viewBox="0 0 186 90" fill="none" xmlns="http://www.w3.org/2000/svg">
<rect width="186" height="90" fill="#F0F2F4"/>
<path d="M93.3375 73.9867C109.4 73.9867 122.421 61.0059 122.421 44.9933C122.421 28.9808 109.4 16 93.3375 16C77.2751 16 64.2539 28.9808 64.2539 44.9933C64.2539 61.0059 77.2751 73.9867 93.3375 73.9867Z" fill="#9E9E9E"/>
<path fill-rule="evenodd" clip-rule="evenodd" d="M105.201 52.0029C100.976 52.0029 97.5508 48.4908 97.5508 44.159C97.5508 39.8272 100.976 36.3159 105.201 36.3159C109.426 36.3159 112.852 39.8272 112.852 44.159C112.852 48.4908 109.427 52.0029 105.201 52.0029ZM105.255 49.5148C107.892 49.5148 110.033 47.1169 110.033 44.159C110.033 41.2012 107.892 38.8055 105.255 38.8055C102.618 38.8055 100.478 41.2033 100.478 44.1605C100.478 47.1176 102.618 49.5148 105.255 49.5148Z" fill="white"/>
<path fill-rule="evenodd" clip-rule="evenodd" d="M89.4023 30H94.9151V51.915H91.8887V32.4037H89.4023V30Z" fill="white"/>
<path fill-rule="evenodd" clip-rule="evenodd" d="M85.313 36.5613H88.1744V54.8627C88.1744 56.5304 86.4147 58.2673 84.6999 59.0149C83.8892 59.368 82.3932 59.5777 80.212 59.6441V57.8235C82.3455 57.5863 83.7854 57.1132 84.532 56.4041C84.9628 55.8073 85.232 55.11 85.3137 54.3793V49.0026C84.5489 50.6204 83.5857 51.693 82.4241 52.2202C81.2167 52.8697 78.7592 52.7629 77.756 52.2202C76.7527 51.6776 75.2811 50.2488 74.6065 48.1208C74.4197 47.5334 73.955 45.935 74.0035 44.2414C74.047 42.6286 74.5826 40.922 75.0278 40.2206C75.7922 39.0227 76.9974 37.5225 78.8229 36.8955C79.7147 36.589 81.3675 36.4788 83.7813 36.565V38.3755C81.9876 38.2547 80.8686 38.3151 80.4241 38.5566C79.7574 38.9174 78.2525 39.3626 77.756 42.6322C77.2594 45.9018 77.7705 48.5775 79.3448 49.4153C79.8841 49.704 80.8382 50.0453 81.7198 49.7444C83.4136 49.1671 85.0076 47.1083 85.1292 45.7135C85.2517 44.2982 85.313 41.2475 85.313 36.5613Z" fill="white"/>
</svg>
