<svg width="166" height="80" viewBox="0 0 166 80" fill="none" xmlns="http://www.w3.org/2000/svg">
<rect width="165.333" height="80" fill="#F0F2F4"/>
<path d="M46.1362 16.8887C47.1181 17.3796 48.2493 17.2942 49.2952 17.6144C54.4392 19.1512 57.5341 22.737 58.8788 27.7316C59.9887 31.8083 58.9001 35.757 57.342 39.5777C56.0186 42.822 54.2684 45.8315 51.8992 48.4782C50.6612 49.8656 49.1671 50.5486 47.2675 50.2712C45.6666 50.0364 44.5567 48.9478 44.4287 47.3256C44.2366 44.9137 44.6848 42.5445 44.9836 40.1753C45.1544 38.852 46.0722 37.9982 47.0327 37.2084C48.5054 35.9918 50.2343 35.1167 51.7498 33.9855C52.4755 33.4519 53.1798 32.8756 53.3719 31.7443C52.6035 31.8937 52.0699 32.2779 51.515 32.6408C50.4691 33.3238 49.4019 34.0922 48.292 34.7752C45.4746 36.5254 42.9559 36.312 40.3946 34.2202C39.1353 33.1957 38.0681 31.9151 36.7234 31.0186C36.4459 30.8265 36.0831 30.4423 35.7842 30.6771C35.4214 30.9546 35.7416 31.3815 35.8696 31.723C36.0831 32.3633 36.5953 32.7688 37.0862 33.153C37.7479 33.6866 38.4096 34.2202 39.1139 34.6898C41.0776 35.9918 42.2942 37.7207 42.6144 40.0899C42.9346 42.3951 43.2974 44.7216 42.7211 47.0268C41.9741 50.1217 39.0286 51.1249 36.4886 49.1826C35.4427 48.3929 34.6103 47.3683 33.8846 46.2798C31.2166 42.203 29.7438 37.7207 29.3809 32.8969C29.1889 30.2289 29.5517 27.5822 30.6616 25.1276C32.668 20.688 36.4246 18.4895 40.9282 17.3156C41.4618 17.1875 42.0381 17.2515 42.5077 16.8887C43.7243 16.8887 44.9409 16.8887 46.1362 16.8887ZM31.2166 32.2566C31.1525 33.9214 31.43 35.7997 31.9209 37.6567C32.9028 41.3706 34.4609 44.7643 37.2783 47.4751C37.94 48.1154 38.7298 48.5423 39.6689 48.2008C40.5867 47.8806 40.8428 47.0695 41.0349 46.2157C41.5259 44.0173 41.1417 41.8615 40.6934 39.7271C40.416 38.4678 39.7329 37.4646 38.6871 36.6962C37.6412 35.9278 36.574 35.1381 35.5708 34.3056C34.7597 33.6439 34.1407 32.8329 33.8846 31.787C33.6285 30.7411 33.7352 29.7166 34.6316 28.9695C35.4854 28.2652 36.3605 28.6707 37.193 29.1403C38.495 29.8447 39.4981 30.8905 40.5867 31.851C43.8097 34.7325 45.2825 34.7965 48.7616 32.1925C49.9569 31.2961 51.1521 30.421 52.6035 29.9514C53.3293 29.7166 54.0976 29.5672 54.6953 30.2075C55.2929 30.8692 55.485 31.6803 55.2075 32.5767C54.9728 33.3024 54.5459 33.9001 53.9909 34.4123C53.3079 35.074 52.5182 35.629 51.7071 36.1626C50.5545 36.931 49.3592 37.614 48.292 38.5105C47.6944 39.0227 47.0113 39.535 46.8619 40.3034C46.435 42.4165 46.1362 44.5509 46.2003 46.7067C46.2429 48.2221 47.4596 48.8838 48.9323 48.3929C49.8074 48.1154 50.4905 47.5391 51.0241 46.8134C53.564 43.4623 55.5917 39.8551 56.723 35.7784C57.47 33.089 57.9183 30.3569 57.0218 27.6462C55.2716 22.4809 51.7925 19.5354 46.2003 18.9164C39.2847 18.148 30.8537 22.3742 31.2166 32.2566Z" fill="#9E9E9E"/>
<path d="M135.774 60.1998C132.039 64.5541 124.91 63.6576 121.986 59.9224C119.488 56.7421 119.211 53.1776 120.769 49.5704C122.263 46.1126 125.166 44.5972 128.88 44.4691C130.395 44.4264 131.825 44.7039 133.191 45.3656C134.28 45.8778 135.219 46.5822 135.795 47.6707C135.795 47.9482 135.795 48.247 135.795 48.5245C134.493 49.8479 134.109 49.8692 132.466 48.7593C130.801 47.6494 129.029 47.3506 127.13 48.0336C124.889 48.8447 123.757 50.5522 123.48 52.7934C123.181 55.3333 123.8 57.6385 126.169 59.0046C128.218 60.2212 130.353 60.0931 132.38 58.7911C134.152 57.6385 134.75 57.6812 135.795 59.1326C135.774 59.4955 135.774 59.837 135.774 60.1998Z" fill="#9E9E9E"/>
<path d="M79.2334 53.0045C79.8737 53.3674 80.4287 53.6235 80.8982 53.9864C83.2034 55.8006 83.1821 59.4505 80.8982 61.2648C79.6389 62.268 78.1662 62.7162 76.5653 62.7375C74.4096 62.7802 72.2325 62.7589 70.0767 62.7375C68.6893 62.7375 68.0703 62.1399 68.0703 60.7525C68.0703 56.0781 68.0703 51.4251 68.0703 46.7507C68.0703 45.5127 68.4972 44.851 69.6498 44.787C72.4032 44.6589 75.1993 44.4668 77.91 45.0004C79.8524 45.3846 81.2611 46.4945 81.6239 48.5649C81.9868 50.5713 80.9623 51.916 79.2334 53.0045ZM74.4949 54.8828C73.7266 54.8828 72.9368 54.9042 72.1684 54.8615C71.6562 54.8401 71.4854 55.0109 71.5067 55.5232C71.5281 56.6544 71.5281 57.7857 71.5067 58.8956C71.4854 59.4078 71.6562 59.5786 72.1684 59.5572C73.7266 59.5359 75.2847 59.5786 76.8215 59.5359C78.2089 59.4932 79.148 58.4687 79.1267 57.1667C79.1053 55.9287 78.1662 54.9682 76.8215 54.8828C76.0531 54.8401 75.2847 54.8828 74.4949 54.8828ZM74.1534 51.6812C74.7938 51.6812 75.4341 51.7025 76.0744 51.6812C77.3551 51.6385 78.1235 50.8914 78.1021 49.7389C78.1021 48.6076 77.3978 47.9459 76.0958 47.9032C74.9645 47.8606 73.8119 47.9673 72.702 47.8819C71.7202 47.7965 71.4427 48.1167 71.4854 49.0985C71.5494 51.6812 71.5067 51.6812 74.1534 51.6812Z" fill="#9E9E9E"/>
<path d="M101.931 53.689C101.931 51.3839 101.931 49.1 101.931 46.7948C101.931 45.5569 102.508 44.7885 103.724 44.7671C106.115 44.7031 108.548 44.511 110.917 45.0659C114.973 46.0478 117.321 48.9506 117.534 53.1554C117.747 57.5737 115.634 60.9461 111.814 62.2481C110.17 62.8031 108.484 62.7817 106.777 62.7604C105.816 62.739 104.856 62.7604 103.895 62.7604C102.593 62.739 101.953 62.0774 101.931 60.7967C101.91 58.4061 101.931 56.0369 101.931 53.689ZM105.368 53.7531C105.368 54.6282 105.368 55.5247 105.368 56.3998C105.368 59.7081 105.368 59.7081 108.676 59.516C111.707 59.3453 113.735 57.531 114.034 54.6709C114.396 51.3839 112.902 48.9079 110.064 48.2036C108.783 47.8834 107.46 48.0968 106.158 48.0115C105.453 47.9688 105.346 48.2676 105.346 48.8866C105.389 50.5087 105.368 52.1309 105.368 53.7531Z" fill="#9E9E9E"/>
<path d="M85.7401 53.6856C85.7401 51.3804 85.7401 49.0966 85.7401 46.7914C85.7401 45.4681 86.3164 44.7637 87.6184 44.7424C90.7347 44.6783 93.8723 44.6783 96.9885 44.7424C98.1838 44.7637 98.7815 45.4467 98.7601 46.4286C98.7388 47.4104 98.0984 47.9653 96.8818 47.9867C94.6407 48.008 92.4209 48.0294 90.1797 47.9867C89.4113 47.9653 89.0698 48.1148 89.1552 48.9685C89.2406 49.9504 88.835 51.2524 89.3473 51.85C89.9236 52.533 91.2896 51.9994 92.2928 52.0848C92.7197 52.1061 93.1466 52.0848 93.5734 52.1061C94.4913 52.1488 95.0249 52.6611 95.1102 53.5362C95.1956 54.4327 94.726 55.009 93.8509 55.2224C92.6983 55.4785 91.5244 55.3505 90.3505 55.3078C89.39 55.2651 89.0271 55.5212 89.1338 56.5031C89.2619 57.4849 88.7496 58.7442 89.3259 59.3632C89.9236 60.0035 91.2042 59.534 92.1861 59.5553C93.915 59.598 95.6652 59.5553 97.3941 59.5767C98.4613 59.5767 99.1443 60.1956 99.1443 61.1348C99.1657 62.0739 98.4826 62.757 97.4581 62.757C94.1284 62.7783 90.7987 62.7783 87.4476 62.757C86.3377 62.757 85.7188 62.0739 85.7188 60.9213C85.7188 58.4881 85.7401 56.0762 85.7401 53.6856Z" fill="#9E9E9E"/>
<path d="M64.1119 53.8399C64.1119 56.1237 64.1119 58.4289 64.1119 60.7128C64.1119 62.1215 63.4929 62.9539 62.4684 62.9753C61.4012 62.9966 60.6328 62.0788 60.6328 60.7128C60.6328 56.017 60.6328 51.3213 60.6328 46.6255C60.6328 45.0674 61.8281 44.1709 63.1301 44.7045C63.9412 45.0461 64.1333 45.7291 64.1333 46.5188C64.1119 48.9734 64.1119 51.4067 64.1119 53.8399Z" fill="#9E9E9E"/>
<path d="M41.8453 51.9648C44.492 52.0929 46.8612 52.1996 49.209 52.5411C50.5324 52.7332 51.2154 53.2882 51.2368 54.27C51.2794 55.8495 50.7885 56.4685 49.2944 56.7887C46.3489 57.429 43.3821 57.1302 40.4152 56.8954C39.476 56.81 38.5156 56.874 37.5764 56.5966C36.6373 56.3191 35.9756 55.8495 35.8902 54.825C35.8048 53.7578 36.4665 52.6692 37.491 52.349C39.0065 51.8581 40.5859 52.0075 41.8453 51.9648ZM49.5506 54.7396C49.145 54.3341 48.7608 54.3127 48.3766 54.2487C45.4311 53.8858 42.4642 53.7151 39.476 53.8218C39.0492 53.8431 38.6436 53.9285 38.2167 53.9926C37.9179 54.0566 37.6404 54.27 37.6831 54.5475C37.7258 54.7609 38.0673 54.8036 38.3235 54.8463C41.2049 55.1878 44.1078 55.3799 47.0106 55.2092C47.8217 55.1878 48.6968 55.2305 49.5506 54.7396Z" fill="#9E9E9E"/>
<path d="M42.9573 62.7398C41.6126 62.8465 40.0545 62.569 38.4963 62.5263C37.0022 62.4623 36.1485 61.6512 36.1271 60.3705C36.0844 58.7697 36.6821 58.1294 38.3256 57.8306C39.8197 57.5531 41.2924 57.8519 42.7865 57.8946C45.049 57.98 47.3115 58.2148 49.5527 58.4922C50.8333 58.663 51.2389 59.2606 51.1535 60.4132C51.0681 61.6725 50.5986 62.1635 49.3392 62.3129C47.2688 62.569 45.2411 62.7825 42.9573 62.7398ZM49.2112 60.2211C47.8025 60.0931 46.4151 59.9223 45.0064 59.8369C42.936 59.7089 40.8442 59.4741 38.7525 59.5381C38.3042 59.5381 37.9414 59.6875 37.8987 60.1358C37.856 60.6267 38.3042 60.6267 38.6457 60.6907C38.9232 60.7334 39.2007 60.7974 39.4782 60.7974C41.8047 60.7974 44.1526 60.8615 46.4791 60.7761C47.3969 60.7334 48.3787 60.7547 49.2112 60.2211Z" fill="#9E9E9E"/>
<path d="M44.7231 32.8169C42.61 32.7955 41.1586 31.4722 41.1799 29.5512C41.2013 27.6089 42.8234 26.1574 44.9152 26.2001C46.8575 26.2215 48.3729 27.6729 48.3516 29.5085C48.3516 31.4295 46.7935 32.8382 44.7231 32.8169ZM44.8298 30.9813C45.7689 30.9813 46.516 30.2982 46.4947 29.4445C46.4733 28.6761 45.7903 28.0784 44.9152 28.0784C43.976 28.0784 43.0582 28.8041 43.0369 29.5939C42.9942 30.3623 43.7839 30.9813 44.8298 30.9813Z" fill="#9E9E9E"/>
</svg>
