<svg width="186" height="90" viewBox="0 0 186 90" fill="none" xmlns="http://www.w3.org/2000/svg">
<rect width="186" height="90" fill="#F0F2F4"/>
<g clip-path="url(#clip0_3038_55413)">
<circle cx="93" cy="45" r="32" fill="#9E9E9E"/>
<g clip-path="url(#clip1_3038_55413)">
<g clip-path="url(#clip2_3038_55413)">
<path d="M248.643 42.7864C252.867 45.6767 254.201 49.6786 252.645 54.1252C251.089 58.2383 246.642 60.4616 240.417 60.017L238.86 52.5689C240.861 51.4573 244.53 52.2354 243.418 48.6781C242.973 47.4553 240.306 47.0107 237.86 45.899L236.192 60.1281H227.633L231.19 27.1121C236.637 27.1121 241.862 26.7786 246.975 27.1121C249.977 27.3345 252.311 29.2243 253.089 32.3369C253.868 35.5607 253.534 38.6733 250.866 41.1189L248.643 42.7864ZM238.193 38.8956C240.528 38.2286 242.306 37.784 243.974 37.117C244.196 37.0058 244.307 35.0048 243.974 34.8937C242.529 33.3374 241.084 33.115 239.083 33.115L238.193 38.8956ZM118.024 44.7874L115.467 67.7985H107.13L110.465 37.2281C115.69 37.2281 120.914 37.0058 126.028 37.3393C129.585 37.6728 131.697 40.3408 132.698 43.6757C134.921 52.0131 128.918 59.9058 120.47 59.35L119.136 52.7912C124.138 51.1238 125.694 49.6786 124.916 47.0107C124.36 44.7874 122.693 44.2315 118.024 44.7874ZM95.2352 34.5602C93.6789 34.5602 92.4561 34.3379 91.5668 34.7825C90.5663 35.4495 89.4547 36.6723 89.3435 37.784C89.1212 38.3398 90.7886 39.4514 91.9003 39.8961C92.6785 40.2296 93.7901 40.0073 94.6794 40.0073C102.683 40.1184 107.352 47.0107 104.684 54.4587C102.683 59.7946 97.6809 63.0184 91.4556 62.9073L89.5658 54.4587C90.8998 54.3476 92.2338 54.5699 93.1231 54.0141C94.2348 53.3471 94.9018 52.1243 95.7911 51.1238C94.6794 50.4568 93.7901 49.5675 92.6785 49.0116C92.0115 48.6781 91.011 48.9005 90.1217 48.9005C83.2294 48.567 79.1163 44.1204 79.4498 37.6728C79.7833 31.4476 85.7862 25.4447 91.678 25.7782C92.345 25.8893 93.4566 26.6675 93.5678 27.3345C94.3459 29.5578 94.6794 31.8922 95.2352 34.5602ZM278.88 56.4597C274.767 60.684 267.874 61.9068 262.539 59.5723C260.521 58.6921 258.832 57.1972 257.715 55.3008C256.597 53.4043 256.106 51.2033 256.313 49.0116C256.647 40.1184 264.873 34.2267 273.433 36.6723C278.657 38.2286 281.992 44.4539 280.214 49.4563C279.991 50.1233 278.657 50.6791 277.768 50.6791L265.206 50.7903L264.873 52.0131C266.318 52.5689 268.208 53.7917 269.208 53.2359C273.766 51.1238 275.878 54.7922 278.88 56.4597ZM271.876 45.232L272.321 44.1204C271.209 43.6757 270.098 42.6752 268.986 42.7864C267.874 42.8976 266.763 43.898 265.651 44.565L266.207 45.4544H269.653L271.876 45.232ZM160.6 47.233C160.6 54.4587 154.375 60.684 147.149 60.7951C141.035 60.7951 136.144 56.015 136.033 49.901C135.922 42.6752 142.592 36.0053 149.817 36.2277C156.042 36.3388 160.6 41.0078 160.6 47.233ZM147.594 52.5689C150.484 52.5689 152.93 50.1233 152.819 47.7888C152.485 45.4544 151.04 44.0092 148.706 44.0092C146.371 44.0092 144.148 46.3437 144.148 48.6781C144.259 51.1238 145.593 52.3466 147.594 52.5689ZM203.732 37.3393L204.51 36.8947C211.625 36.3388 211.625 36.3388 213.292 43.3422C213.404 44.3427 213.737 45.232 214.182 47.0107C215.516 44.1204 216.627 42.1194 217.294 39.8961C218.073 37.3393 219.407 36.3388 222.074 36.7835C223.408 37.0058 224.965 36.7835 226.966 36.7835L225.632 40.2296C222.186 48.2335 218.517 56.015 215.405 64.1301C214.182 67.3539 212.403 68.5767 209.179 68.0208H205.844C205.956 67.3539 205.844 66.798 206.067 66.4645C209.29 61.6844 208.29 56.682 206.956 51.5684C205.733 46.7883 204.733 42.1194 203.732 37.3393ZM181.388 37.0058L186.168 36.7835C186.279 30.7806 191.504 31.8922 195.173 30.1136V36.45C197.062 36.7835 199.619 36.5612 200.508 37.6728C201.731 39.3403 201.731 41.8971 202.287 44.4539H194.172C193.616 48.6781 192.949 52.6801 192.838 56.7932C192.616 59.5723 191.838 60.4616 189.17 60.2393C187.613 60.017 186.168 60.2393 184.056 60.2393L185.501 45.232C181.388 43.7869 182.833 40.0073 181.388 37.0058ZM295.221 36.6723C300.001 37.2281 300.001 37.2281 300.89 44.4539H294.221L292.442 59.9058H284.216L285.105 49.3451C285.216 47.4553 286.661 45.3432 283.438 43.7869C282.215 43.2311 282.326 39.6738 281.659 37.2281C282.771 37.117 283.771 37.117 284.66 36.8947C285.327 36.7835 286.439 36.2277 286.439 36.0053C286.884 34.2267 286.884 33.3374 287.773 32.6704C288.996 31.7811 290.997 31.6699 292.553 31.1141L295.221 30.3359V36.6723ZM180.165 44.0092L179.387 44.3427C172.606 43.5646 172.05 46.0102 171.717 52.1243L170.716 60.017L167.715 60.1281H162.379C162.935 54.9034 163.268 49.7898 164.38 45.1209C165.603 39.6738 171.828 35.8942 177.275 36.8947C177.942 37.0058 178.72 37.784 178.942 38.451L180.165 44.0092ZM87.2314 58.683C87.3425 61.4621 84.8969 63.9077 82.1178 63.9077C79.4498 63.9077 77.1154 61.5733 77.0042 58.9053C76.893 56.2374 79.0052 53.9029 81.7843 53.7917C84.6746 53.5694 87.1202 55.9039 87.2314 58.683ZM107.797 29.8913C107.908 32.7815 105.574 35.2272 102.794 35.2272C100.127 35.2272 97.9032 33.0039 97.792 30.2248C97.6809 27.3345 99.9042 25 102.794 25C105.574 25 107.686 27.1121 107.797 29.8913Z" fill="white"/>
<rect x="106.812" y="36.4653" width="11.4665" height="32.1063" fill="#9E9E9E"/>
</g>
</g>
</g>
<defs>
<clipPath id="clip0_3038_55413">
<rect width="64" height="64" fill="white" transform="translate(61 13)"/>
</clipPath>
<clipPath id="clip1_3038_55413">
<rect width="35.8396" height="38.8262" fill="white" transform="translate(76.6367 25)"/>
</clipPath>
<clipPath id="clip2_3038_55413">
<rect width="223.997" height="43.2432" fill="white" transform="translate(77 25)"/>
</clipPath>
</defs>
</svg>
