<svg width="56" height="56" viewBox="0 0 56 56" fill="none" xmlns="http://www.w3.org/2000/svg">
<path d="M28 0.195312C43.3562 0.195312 55.8047 12.6437 55.8047 28C55.8047 43.3562 43.3562 55.8047 28 55.8047C12.6437 55.8047 0.195312 43.3562 0.195312 28C0.195312 12.6437 12.6437 0.195312 28 0.195312Z" fill="#BCEB0F" stroke="white" stroke-width="0.389744"/>
<rect width="39.1448" height="39.1448" transform="translate(8.46484 8.25)" fill="#BCEB0F"/>
<path d="M23.6926 24.2574C24.0359 24.9426 24.3905 25.6589 24.7533 26.4005C25.1162 27.1422 25.4762 27.8728 25.8362 28.5864C26.1935 29.2999 26.5367 29.9883 26.8633 30.6454C27.1898 31.3025 27.4831 31.8945 27.7426 32.4219H42.8996V34.5655H26.4447L23.081 27.7684C22.2994 26.1975 21.462 24.5108 20.5688 22.7059C20.4293 22.9879 20.2812 23.2926 20.1221 23.6225C19.9825 23.9045 19.821 24.2349 19.634 24.61C19.447 24.9851 19.2486 25.391 19.0337 25.8225L15.7676 32.4219H22.3834C22.7546 33.1833 23.1091 33.897 23.4441 34.5655H12.3457L19.924 19.2512H21.2223C22.0681 20.9631 22.8915 22.6301 23.6926 24.2574Z" fill="#0A0A0A"/>
<path d="M44.9664 34.1769L44.5856 34.5514L44.9664 34.1019V34.1769Z" fill="#0A0A0A"/>
<path d="M40.7896 27.9801H30.8801V25.8366H40.7896V27.9801Z" fill="#0A0A0A"/>
<path d="M42.8941 21.3917H32.0357C31.7371 21.3917 31.4578 21.4484 31.1982 21.5612C30.9387 21.674 30.707 21.8291 30.5061 22.0265C30.3052 22.2239 30.1489 22.4551 30.0316 22.7173C29.9144 22.9795 29.8585 23.2617 29.8585 23.5634V27.9774H27.7372V23.4648L27.7399 23.4676C27.7594 22.8753 27.8823 22.3226 28.1084 21.8093C28.3373 21.296 28.6444 20.8503 29.0296 20.4696C29.4148 20.0889 29.867 19.7897 30.3834 19.5725C30.8997 19.3554 31.4496 19.2485 32.0357 19.2485H42.8941V21.3917Z" fill="#0A0A0A"/>
<path d="M44.9664 19.6221L44.5856 19.209H44.9664V19.6221Z" fill="#0A0A0A"/>
</svg>
