<svg width="26" height="26" viewBox="0 0 26 26" fill="none" xmlns="http://www.w3.org/2000/svg">
<path fill-rule="evenodd" clip-rule="evenodd" d="M24.1869 0H1.41312C0.63232 0 0 0.63232 0 1.41312V24.1869C0 24.9677 0.63232 25.6 1.41312 25.6H13.673V15.6864H10.3373V11.8234H13.673V8.9728C13.673 5.66528 15.6928 3.8656 18.6432 3.8656C20.0563 3.8656 21.2698 3.97056 21.6243 4.01792V7.47392H19.5789C17.9738 7.47392 17.664 8.2368 17.664 9.35552V11.8221H21.4899L20.9907 15.6851H17.6627V25.6H24.1869C24.9677 25.6 25.6 24.9677 25.6 24.1869V1.41312C25.6 0.63232 24.9677 0 24.1869 0Z" fill="white"/>
</svg>
