<svg width="32" height="32" viewBox="0 0 32 32" fill="none" xmlns="http://www.w3.org/2000/svg">
<path d="M25.7514 3.2002H6.24704C5.43894 3.20095 4.66415 3.5223 4.09274 4.09371C3.52132 4.66513 3.19997 5.43992 3.19922 6.24802V25.7524C3.19922 27.4349 4.56597 28.8002 6.24704 28.8002H25.7514C26.5595 28.7994 27.3343 28.4781 27.9057 27.9067C28.4771 27.3353 28.7985 26.5605 28.7992 25.7524V6.24802C28.7985 5.43992 28.4771 4.66513 27.9057 4.09371C27.3343 3.5223 26.5595 3.20095 25.7514 3.2002ZM23.3166 14.3689C22.4195 14.456 21.5169 14.2722 20.7253 13.8413C20.0576 13.4813 19.4905 12.9601 19.0755 12.3252V19.3566C19.0755 20.3845 18.7707 21.3892 18.1997 22.2438C17.6286 23.0984 16.817 23.7645 15.8674 24.1579C14.9178 24.5512 13.8729 24.6541 12.8648 24.4536C11.8568 24.2531 10.9308 23.7581 10.204 23.0313C9.47721 22.3045 8.98226 21.3786 8.78174 20.3705C8.58122 19.3624 8.68413 18.3175 9.07747 17.3679C9.4708 16.4183 10.1369 15.6067 10.9915 15.0357C11.8461 14.4646 12.8509 14.1598 13.8787 14.1598C13.9868 14.1598 14.092 14.1698 14.1987 14.1755V16.7369C14.092 16.7241 13.9882 16.7042 13.8787 16.7042C13.1752 16.7042 12.5006 16.9836 12.0031 17.4811C11.5057 17.9785 11.2262 18.6532 11.2262 19.3566C11.2262 20.0601 11.5057 20.7348 12.0031 21.2322C12.5006 21.7296 13.1752 22.0091 13.8787 22.0091C15.3436 22.0091 16.6378 20.8557 16.6378 19.3908L16.6634 7.44695H19.1139C19.226 8.51138 19.7086 9.50257 20.4773 10.2473C21.246 10.9921 22.252 11.4432 23.3194 11.5216V14.3689" fill="white"/>
</svg>
