<svg width="32" height="32" viewBox="0 0 32 32" fill="none" xmlns="http://www.w3.org/2000/svg">
<path d="M13.4392 19.841L20.0824 16.001L13.4392 12.161V19.841ZM28.236 9.81862C28.4024 10.4202 28.5176 11.2266 28.5944 12.2506C28.684 13.2746 28.7224 14.1578 28.7224 14.9258L28.7992 16.001C28.7992 18.8042 28.5944 20.865 28.236 22.1834C27.916 23.3354 27.1736 24.0778 26.0216 24.3978C25.42 24.5642 24.3192 24.6794 22.6296 24.7562C20.9656 24.8458 19.4424 24.8842 18.0344 24.8842L15.9992 24.961C10.636 24.961 7.29522 24.7562 5.97682 24.3978C4.82482 24.0778 4.08242 23.3354 3.76242 22.1834C3.59602 21.5818 3.48082 20.7754 3.40402 19.7514C3.31442 18.7274 3.27602 17.8442 3.27602 17.0762L3.19922 16.001C3.19922 13.1978 3.40402 11.137 3.76242 9.81862C4.08242 8.66662 4.82482 7.92422 5.97682 7.60422C6.57842 7.43782 7.67922 7.32262 9.36882 7.24582C11.0328 7.15622 12.556 7.11782 13.964 7.11782L15.9992 7.04102C21.3624 7.04102 24.7032 7.24582 26.0216 7.60422C27.1736 7.92422 27.916 8.66662 28.236 9.81862Z" fill="white"/>
</svg>
