<svg width="32" height="32" viewBox="0 0 32 32" fill="none" xmlns="http://www.w3.org/2000/svg">
<g clip-path="url(#clip0_2210_51402)">
<circle cx="16" cy="16" r="16" fill="#BCEB0F"/>
<path d="M18.828 9.33398H13.1746C11.3346 9.33398 10.668 10.0007 10.668 11.874V20.1273C10.668 22.0007 11.3346 22.6673 13.1746 22.6673H18.8213C20.668 22.6673 21.3346 22.0007 21.3346 20.1273V11.874C21.3346 10.0007 20.668 9.33398 18.828 9.33398ZM16.0013 20.8673C15.3613 20.8673 14.8346 20.3407 14.8346 19.7007C14.8346 19.0607 15.3613 18.534 16.0013 18.534C16.6413 18.534 17.168 19.0607 17.168 19.7007C17.168 20.3407 16.6413 20.8673 16.0013 20.8673ZM17.3346 12.1673H14.668C14.3946 12.1673 14.168 11.9407 14.168 11.6673C14.168 11.394 14.3946 11.1673 14.668 11.1673H17.3346C17.608 11.1673 17.8346 11.394 17.8346 11.6673C17.8346 11.9407 17.608 12.1673 17.3346 12.1673Z" fill="#292D32"/>
</g>
<defs>
<clipPath id="clip0_2210_51402">
<rect width="32" height="32" fill="white"/>
</clipPath>
</defs>
</svg>
