<svg width="32" height="32" viewBox="0 0 32 32" fill="none" xmlns="http://www.w3.org/2000/svg">
<g clip-path="url(#clip0_2210_51301)">
<circle cx="16" cy="16" r="16" fill="#BCEB0F"/>
<path d="M11.3327 18C10.6527 18 10.026 18.26 9.55268 18.6867C9.44602 18.78 9.34602 18.88 9.25935 18.9933C8.88602 19.4533 8.66602 20.0333 8.66602 20.6667C8.66602 22.14 9.86602 23.3333 11.3327 23.3333C11.9727 23.3333 12.5527 23.1067 13.0127 22.74C13.386 22.4267 13.6793 22.02 13.8393 21.5533C13.946 21.28 13.9993 20.98 13.9993 20.6667C13.9993 19.2 12.806 18 11.3327 18ZM12.9327 20.1533C12.9327 20.34 12.786 20.48 12.606 20.48C12.426 20.48 12.2793 20.34 12.2793 20.1533V20.0867C12.2793 20.0133 12.226 19.9533 12.1527 19.9533H10.8193C10.886 20.08 10.8727 20.2333 10.766 20.34C10.706 20.4 10.626 20.4333 10.5327 20.4333C10.4527 20.4333 10.366 20.4 10.306 20.34L9.82602 19.86C9.79935 19.8333 9.77268 19.7933 9.75268 19.7533C9.72602 19.6733 9.72602 19.5867 9.75268 19.5067C9.77268 19.4733 9.79268 19.4267 9.82602 19.4L10.306 18.9267C10.4327 18.7933 10.6393 18.7933 10.7593 18.9267C10.866 19.0267 10.8793 19.1867 10.8127 19.3067H12.1527C12.5793 19.3067 12.926 19.6533 12.926 20.0867V20.1533H12.9327ZM12.1327 22.5067C12.046 22.5067 11.9593 22.48 11.8993 22.4133C11.7927 22.3133 11.7793 22.1533 11.846 22.0333H10.506C10.0793 22.0333 9.73268 21.6867 9.73268 21.2533V21.1867C9.73268 21 9.87935 20.86 10.0593 20.86C10.2393 20.86 10.386 21 10.386 21.1867V21.2533C10.386 21.3267 10.4393 21.3867 10.5127 21.3867H11.8527C11.786 21.26 11.7993 21.1067 11.906 21C12.0327 20.8733 12.2393 20.8733 12.3593 21L12.8393 21.48C12.866 21.5067 12.8927 21.5467 12.9127 21.5867C12.9393 21.6667 12.9393 21.7533 12.9127 21.8333C12.8927 21.8667 12.866 21.9067 12.8393 21.9333L12.3593 22.4067C12.2993 22.4733 12.2127 22.5067 12.1327 22.5067Z" fill="#0A0A0A"/>
<path d="M17.8993 10.6339V13.1672H16.8993V10.6339C16.8993 10.4539 16.7393 10.3672 16.6327 10.3672C16.5993 10.3672 16.566 10.3739 16.5327 10.3872L11.246 12.3805C10.8927 12.5139 10.666 12.8472 10.666 13.2272V13.6739C10.0593 14.1272 9.66602 14.8539 9.66602 15.6739V13.2272C9.66602 12.4339 10.1527 11.7272 10.8927 11.4472L16.186 9.44719C16.3327 9.39385 16.486 9.36719 16.6327 9.36719C17.2993 9.36719 17.8993 9.90719 17.8993 10.6339Z" fill="#0A0A0A"/>
<path d="M22.3331 17.6673V18.334C22.3331 18.514 22.1931 18.6607 22.0065 18.6673H21.0331C20.6798 18.6673 20.3598 18.4073 20.3331 18.0607C20.3131 17.854 20.3931 17.6607 20.5265 17.5273C20.6465 17.4007 20.8131 17.334 20.9931 17.334H21.9998C22.1931 17.3407 22.3331 17.4873 22.3331 17.6673Z" fill="#0A0A0A"/>
<path d="M20.986 16.6327H21.666C22.0327 16.6327 22.3327 16.3327 22.3327 15.966V15.6727C22.3327 14.2927 21.206 13.166 19.826 13.166H12.1727C11.606 13.166 11.086 13.3527 10.666 13.6727C10.0593 14.126 9.66602 14.8527 9.66602 15.6727V16.8593C9.66602 17.1127 9.93268 17.2727 10.1727 17.1927C10.546 17.066 10.9393 16.9993 11.3327 16.9993C13.3527 16.9993 14.9993 18.646 14.9993 20.666C14.9993 21.146 14.8727 21.6727 14.6727 22.1393C14.566 22.3793 14.7327 22.666 14.9927 22.666H19.826C21.206 22.666 22.3327 21.5393 22.3327 20.1593V20.0327C22.3327 19.666 22.0327 19.366 21.666 19.366H21.086C20.446 19.366 19.8327 18.9727 19.666 18.3527C19.5327 17.846 19.6927 17.3527 20.026 17.0327C20.2727 16.7793 20.6127 16.6327 20.986 16.6327ZM17.3327 16.4993H13.9993C13.726 16.4993 13.4993 16.2727 13.4993 15.9993C13.4993 15.726 13.726 15.4993 13.9993 15.4993H17.3327C17.606 15.4993 17.8327 15.726 17.8327 15.9993C17.8327 16.2727 17.606 16.4993 17.3327 16.4993Z" fill="#0A0A0A"/>
</g>
<defs>
<clipPath id="clip0_2210_51301">
<rect width="32" height="32" fill="white"/>
</clipPath>
</defs>
</svg>
