<svg width="32" height="32" viewBox="0 0 32 32" fill="none" xmlns="http://www.w3.org/2000/svg">
<g clip-path="url(#clip0_2210_51307)">
<circle cx="16" cy="16" r="16" fill="#BCEB0F"/>
<path d="M20.5391 12.1676H21.4457C21.3191 11.9876 21.1857 11.821 21.0457 11.6543L20.5391 12.1676Z" fill="#0A0A0A"/>
<path d="M20.3473 10.9469C20.1807 10.8069 20.014 10.6735 19.834 10.5469V11.4535L20.3473 10.9469Z" fill="#0A0A0A"/>
<path d="M21.0524 11.6543L23.019 9.6876C23.2124 9.49427 23.2124 9.17427 23.019 8.98094C22.8257 8.7876 22.5057 8.7876 22.3124 8.98094L20.3457 10.9476C20.599 11.1676 20.8324 11.4076 21.0524 11.6543Z" fill="#0A0A0A"/>
<path d="M19.8332 10C19.8332 9.72667 19.6065 9.5 19.3332 9.5C19.0665 9.5 18.8532 9.71333 18.8398 9.97333C19.1865 10.14 19.5198 10.3267 19.8332 10.5467V10Z" fill="#0A0A0A"/>
<path d="M22.5006 12.666C22.5006 12.3927 22.2739 12.166 22.0006 12.166H21.4473C21.6673 12.4793 21.8606 12.8127 22.0206 13.1593C22.2873 13.146 22.5006 12.9327 22.5006 12.666Z" fill="#0A0A0A"/>
<path d="M16.5 17.8326H16.7C16.96 17.8326 17.1667 17.5992 17.1667 17.3126C17.1667 16.9526 17.0667 16.8992 16.84 16.8192L16.5 16.6992V17.8326Z" fill="#0A0A0A"/>
<path d="M22.0273 13.1607C22.0207 13.1607 22.014 13.1673 22.0007 13.1673H19.334C19.2673 13.1673 19.2073 13.154 19.1407 13.1273C19.0207 13.074 18.9207 12.9807 18.8673 12.854C18.8473 12.794 18.834 12.734 18.834 12.6673V10.0007C18.834 9.99398 18.8407 9.98732 18.8407 9.97398C17.974 9.56732 17.014 9.33398 16.0007 9.33398C12.3207 9.33398 9.33398 12.3207 9.33398 16.0007C9.33398 19.6807 12.3207 22.6673 16.0007 22.6673C19.6807 22.6673 22.6673 19.6807 22.6673 16.0007C22.6673 14.9873 22.434 14.0273 22.0273 13.1607ZM17.1673 15.8807C17.594 16.0273 18.1673 16.3407 18.1673 17.3207C18.1673 18.154 17.5073 18.8407 16.7007 18.8407H16.5007V19.0073C16.5007 19.2807 16.274 19.5073 16.0007 19.5073C15.7273 19.5073 15.5007 19.2807 15.5007 19.0073V18.8407H15.4473C14.5607 18.8407 13.834 18.094 13.834 17.174C13.834 16.894 14.0607 16.6673 14.334 16.6673C14.6073 16.6673 14.834 16.894 14.834 17.1673C14.834 17.534 15.1073 17.834 15.4473 17.834H15.5007V16.354L14.834 16.1207C14.4073 15.974 13.834 15.6607 13.834 14.6807C13.834 13.8473 14.494 13.1607 15.3007 13.1607H15.5007V13.0007C15.5007 12.7273 15.7273 12.5007 16.0007 12.5007C16.274 12.5007 16.5007 12.7273 16.5007 13.0007V13.1673H16.554C17.4407 13.1673 18.1673 13.914 18.1673 14.834C18.1673 15.1073 17.9407 15.334 17.6673 15.334C17.394 15.334 17.1673 15.1073 17.1673 14.834C17.1673 14.4673 16.894 14.1673 16.554 14.1673H16.5007V15.6473L17.1673 15.8807Z" fill="#0A0A0A"/>
<path d="M14.834 14.686C14.834 15.046 14.934 15.0993 15.1607 15.1793L15.5007 15.2993V14.166H15.3007C15.0473 14.166 14.834 14.3993 14.834 14.686Z" fill="#0A0A0A"/>
</g>
<defs>
<clipPath id="clip0_2210_51307">
<rect width="32" height="32" fill="white"/>
</clipPath>
</defs>
</svg>
