<svg width="64" height="64" viewBox="0 0 64 64" fill="none" xmlns="http://www.w3.org/2000/svg">
<circle cx="32" cy="32" r="32" fill="#BCEB0F"/>
<path d="M31.9993 18.666C24.6393 18.666 18.666 24.6393 18.666 31.9993C18.666 39.3594 24.6393 45.3327 31.9993 45.3327C39.3594 45.3327 45.3327 39.3594 45.3327 31.9993C45.3327 24.6393 39.3594 18.666 31.9993 18.666ZM21.3327 31.9993C21.3327 31.186 21.4393 30.386 21.6127 29.626L27.986 35.9993V37.3327C27.986 38.7993 29.186 39.9993 30.6527 39.9993V42.5727C25.4127 41.906 21.3327 37.426 21.3327 31.9993ZM39.8527 39.1993C39.506 38.1193 38.5194 37.3327 37.3193 37.3327H35.986V33.3327C35.986 32.5993 35.386 31.9993 34.6527 31.9993H26.6527V29.3327H29.3193C30.0527 29.3327 30.6527 28.7327 30.6527 27.9993V25.3327H33.3193C34.786 25.3327 35.986 24.1327 35.986 22.666V22.1193C39.8927 23.6927 42.666 27.5327 42.666 31.9993C42.666 34.7727 41.586 37.306 39.8527 39.1993Z" fill="#0A0A0A"/>
</svg>
