<svg width="28" height="28" viewBox="0 0 28 28" fill="none" xmlns="http://www.w3.org/2000/svg">
<path d="M14.6816 27.8066C21.9304 27.8066 27.8066 21.9304 27.8066 14.6816C27.8066 7.4329 21.9304 1.55664 14.6816 1.55664C7.4329 1.55664 1.55664 7.4329 1.55664 14.6816C1.55664 21.9304 7.4329 27.8066 14.6816 27.8066Z" fill="#FAA300"/>
<path d="M18.2165 14.6816C18.6992 14.267 19.0586 13.7277 19.2555 13.1227C19.4525 12.5176 19.4793 11.8701 19.3332 11.2508C19.1871 10.6315 18.8736 10.0643 18.427 9.61106C17.9804 9.15784 17.4179 8.83607 16.8008 8.68089V7.68164C16.8008 7.44958 16.7086 7.22702 16.5445 7.06292C16.3804 6.89883 16.1578 6.80664 15.9258 6.80664C15.6937 6.80664 15.4712 6.89883 15.3071 7.06292C15.143 7.22702 15.0508 7.44958 15.0508 7.68164V8.55664H13.3008V7.68164C13.3008 7.44958 13.2086 7.22702 13.0445 7.06292C12.8804 6.89883 12.6578 6.80664 12.4258 6.80664C12.1937 6.80664 11.9712 6.89883 11.8071 7.06292C11.643 7.22702 11.5508 7.44958 11.5508 7.68164V8.55664H10.6758C10.4437 8.55664 10.2212 8.64883 10.0571 8.81292C9.89297 8.97702 9.80078 9.19958 9.80078 9.43164C9.80078 9.6637 9.89297 9.88626 10.0571 10.0504C10.2212 10.2145 10.4437 10.3066 10.6758 10.3066H11.5508V19.0566H10.6758C10.4437 19.0566 10.2212 19.1488 10.0571 19.3129C9.89297 19.477 9.80078 19.6996 9.80078 19.9316C9.80078 20.1637 9.89297 20.3863 10.0571 20.5504C10.2212 20.7145 10.4437 20.8066 10.6758 20.8066H11.5508V21.6816C11.5508 21.9137 11.643 22.1363 11.8071 22.3004C11.9712 22.4645 12.1937 22.5566 12.4258 22.5566C12.6578 22.5566 12.8804 22.4645 13.0445 22.3004C13.2086 22.1363 13.3008 21.9137 13.3008 21.6816V20.8066H15.0508V21.6816C15.0508 21.9137 15.143 22.1363 15.3071 22.3004C15.4712 22.4645 15.6937 22.5566 15.9258 22.5566C16.1578 22.5566 16.3804 22.4645 16.5445 22.3004C16.7086 22.1363 16.8008 21.9137 16.8008 21.6816V20.6824C17.4179 20.5272 17.9804 20.2054 18.427 19.7522C18.8736 19.299 19.1871 18.7318 19.3332 18.1125C19.4793 17.4932 19.4525 16.8457 19.2555 16.2406C19.0586 15.6356 18.6992 15.0963 18.2165 14.6816ZM17.6758 12.0566C17.6758 12.5208 17.4914 12.9659 17.1632 13.2941C16.835 13.6223 16.3899 13.8066 15.9258 13.8066H13.3008V10.3066H15.9258C16.3899 10.3066 16.835 10.491 17.1632 10.8192C17.4914 11.1474 17.6758 11.5925 17.6758 12.0566ZM15.9258 19.0566H13.3008V15.5566H15.9258C16.3899 15.5566 16.835 15.741 17.1632 16.0692C17.4914 16.3974 17.6758 16.8425 17.6758 17.3066C17.6758 17.7708 17.4914 18.2159 17.1632 18.5441C16.835 18.8723 16.3899 19.0566 15.9258 19.0566Z" fill="#FFEA94"/>
</svg>
