<svg width="20" height="20" viewBox="0 0 20 20" fill="none" xmlns="http://www.w3.org/2000/svg">
<path d="M19.1673 13.3086C19.1673 16.5336 16.559 19.1419 13.334 19.1419L14.209 17.6836" stroke="#0A0A0A" stroke-width="1.25" stroke-linecap="round" stroke-linejoin="round"/>
<path d="M0.833984 6.64193C0.833984 3.41693 3.44232 0.808594 6.66732 0.808594L5.79232 2.26693" stroke="#0A0A0A" stroke-width="1.25" stroke-linecap="round" stroke-linejoin="round"/>
<path d="M5.51758 10.8926H7.85925C8.37591 10.8926 8.80091 11.3592 8.80091 11.8342C8.80091 12.3509 8.38425 12.7759 7.85925 12.7759H5.51758V10.8926Z" stroke="#0A0A0A" stroke-width="1.25" stroke-miterlimit="10" stroke-linecap="round" stroke-linejoin="round"/>
<path d="M5.51758 12.7754H8.20091C8.79258 12.7754 9.27591 13.1921 9.27591 13.7171C9.27591 14.2337 8.79258 14.6587 8.20091 14.6587H5.51758V12.7754Z" stroke="#0A0A0A" stroke-width="1.25" stroke-miterlimit="10" stroke-linecap="round" stroke-linejoin="round"/>
<path d="M7.01758 14.6504V15.5837" stroke="#0A0A0A" stroke-width="1.25" stroke-miterlimit="10" stroke-linecap="round" stroke-linejoin="round"/>
<path d="M7.01758 9.95898V10.8923" stroke="#0A0A0A" stroke-width="1.25" stroke-miterlimit="10" stroke-linecap="round" stroke-linejoin="round"/>
<path d="M12.3751 12.7765C12.3751 15.6181 10.0751 17.9181 7.23347 17.9181C4.3918 17.9181 2.0918 15.6181 2.0918 12.7765C2.0918 9.9348 4.3918 7.63477 7.23347 7.63477C7.3668 7.63477 7.4918 7.64312 7.63347 7.65145C10.1585 7.84312 12.1751 9.85978 12.3668 12.3848C12.3668 12.5098 12.3751 12.6348 12.3751 12.7765Z" stroke="#0A0A0A" stroke-width="1.25" stroke-miterlimit="10" stroke-linecap="round" stroke-linejoin="round"/>
<path d="M17.9161 7.22564C17.9161 10.0673 15.6161 12.3673 12.7745 12.3673H12.3661C12.1745 9.84234 10.1578 7.82563 7.63281 7.63396V7.22564C7.63281 4.38397 9.93281 2.08398 12.7745 2.08398C15.6161 2.08398 17.9161 4.38397 17.9161 7.22564Z" stroke="#0A0A0A" stroke-width="1.25" stroke-miterlimit="10" stroke-linecap="round" stroke-linejoin="round"/>
</svg>
