<svg width="32" height="32" viewBox="0 0 32 32" fill="none" xmlns="http://www.w3.org/2000/svg">
<g clip-path="url(#clip0_2210_51397)">
<circle cx="16" cy="16" r="16" fill="#BCEB0F"/>
<path d="M12.6673 9.33398H12.0007C10.0007 9.33398 9.33398 10.5273 9.33398 12.0007V12.6673V22.0007C9.33398 22.554 9.96065 22.8673 10.4007 22.534L11.5407 21.6807C11.8073 21.4807 12.1807 21.5073 12.4207 21.7473L13.5273 22.8607C13.7873 23.1207 14.214 23.1207 14.474 22.8607L15.594 21.7407C15.8273 21.5073 16.2007 21.4807 16.4607 21.6807L17.6007 22.534C18.0407 22.8607 18.6673 22.5473 18.6673 22.0007V10.6673C18.6673 9.93398 19.2673 9.33398 20.0007 9.33398H12.6673ZM11.9807 17.3407C11.614 17.3407 11.314 17.0407 11.314 16.674C11.314 16.3073 11.614 16.0073 11.9807 16.0073C12.3473 16.0073 12.6473 16.3073 12.6473 16.674C12.6473 17.0407 12.3473 17.3407 11.9807 17.3407ZM11.9807 14.674C11.614 14.674 11.314 14.374 11.314 14.0073C11.314 13.6407 11.614 13.3407 11.9807 13.3407C12.3473 13.3407 12.6473 13.6407 12.6473 14.0073C12.6473 14.374 12.3473 14.674 11.9807 14.674ZM16.0007 17.174H14.0007C13.7273 17.174 13.5007 16.9473 13.5007 16.674C13.5007 16.4007 13.7273 16.174 14.0007 16.174H16.0007C16.274 16.174 16.5007 16.4007 16.5007 16.674C16.5007 16.9473 16.274 17.174 16.0007 17.174ZM16.0007 14.5073H14.0007C13.7273 14.5073 13.5007 14.2807 13.5007 14.0073C13.5007 13.734 13.7273 13.5073 14.0007 13.5073H16.0007C16.274 13.5073 16.5007 13.734 16.5007 14.0073C16.5007 14.2807 16.274 14.5073 16.0007 14.5073Z" fill="#292D32"/>
<path d="M20.006 9.33398V10.334C20.446 10.334 20.866 10.514 21.1727 10.814C21.4927 11.1407 21.666 11.5607 21.666 12.0007V13.614C21.666 14.1073 21.446 14.334 20.946 14.334H19.666V10.674C19.666 10.4873 19.8193 10.334 20.006 10.334V9.33398ZM20.006 9.33398C19.266 9.33398 18.666 9.93398 18.666 10.674V15.334H20.946C21.9993 15.334 22.666 14.6673 22.666 13.614V12.0007C22.666 11.2673 22.366 10.6007 21.886 10.114C21.3993 9.63398 20.7393 9.34065 20.006 9.33398C20.0127 9.33398 20.006 9.33398 20.006 9.33398Z" fill="#292D32"/>
</g>
<defs>
<clipPath id="clip0_2210_51397">
<rect width="32" height="32" fill="white"/>
</clipPath>
</defs>
</svg>
