<svg width="32" height="32" viewBox="0 0 32 32" fill="none" xmlns="http://www.w3.org/2000/svg">
<g clip-path="url(#clip0_2210_51318)">
<circle cx="16" cy="16" r="16" fill="#BCEB0F"/>
<path d="M14.0007 19.6667H10.334M12.334 16H9.33398M14.0007 12.3333H10.6673M19.334 10L14.9364 16.1567C14.7417 16.4292 14.6444 16.5654 14.6486 16.679C14.6523 16.7779 14.6997 16.8701 14.7781 16.9305C14.868 17 15.0355 17 15.3704 17H18.6673L18.0007 22L22.3983 15.8433C22.5929 15.5708 22.6902 15.4346 22.686 15.321C22.6824 15.2221 22.6349 15.1299 22.5566 15.0695C22.4666 15 22.2992 15 21.9643 15H18.6673L19.334 10Z" stroke="#0A0A0A" stroke-width="1.33333" stroke-linecap="round" stroke-linejoin="round"/>
</g>
<defs>
<clipPath id="clip0_2210_51318">
<rect width="32" height="32" fill="white"/>
</clipPath>
</defs>
</svg>
