<svg width="32" height="32" viewBox="0 0 32 32" fill="none" xmlns="http://www.w3.org/2000/svg">
<g clip-path="url(#clip0_2210_51408)">
<circle cx="16" cy="16" r="16" fill="#BCEB0F"/>
<path d="M17.8993 10.6339V13.1672H16.8993V10.6339C16.8993 10.4539 16.7393 10.3672 16.6327 10.3672C16.5993 10.3672 16.566 10.3739 16.5327 10.3872L11.246 12.3805C10.8927 12.5139 10.666 12.8472 10.666 13.2272V13.6739C10.0593 14.1272 9.66602 14.8539 9.66602 15.6739V13.2272C9.66602 12.4339 10.1527 11.7272 10.8927 11.4472L16.186 9.44719C16.3327 9.39385 16.486 9.36719 16.6327 9.36719C17.2993 9.36719 17.8993 9.90719 17.8993 10.6339Z" fill="#292D32"/>
<path d="M22.3331 17.6673V18.334C22.3331 18.514 22.1931 18.6607 22.0065 18.6673H21.0331C20.6798 18.6673 20.3598 18.4073 20.3331 18.0607C20.3131 17.854 20.3931 17.6607 20.5265 17.5273C20.6465 17.4007 20.8131 17.334 20.9931 17.334H21.9998C22.1931 17.3407 22.3331 17.4873 22.3331 17.6673Z" fill="#292D32"/>
<path d="M20.986 16.6327H21.666C22.0327 16.6327 22.3327 16.3327 22.3327 15.966V15.6727C22.3327 14.2927 21.206 13.166 19.826 13.166H12.1727C11.606 13.166 11.086 13.3527 10.666 13.6727C10.0593 14.126 9.66602 14.8527 9.66602 15.6727V20.1593C9.66602 21.5393 10.7927 22.666 12.1727 22.666H19.826C21.206 22.666 22.3327 21.5393 22.3327 20.1593V20.0327C22.3327 19.666 22.0327 19.366 21.666 19.366H21.086C20.446 19.366 19.8327 18.9727 19.666 18.3527C19.526 17.846 19.6927 17.3593 20.026 17.0327C20.2727 16.7793 20.6127 16.6327 20.986 16.6327ZM17.3327 16.4993H12.666C12.3927 16.4993 12.166 16.2727 12.166 15.9993C12.166 15.726 12.3927 15.4993 12.666 15.4993H17.3327C17.606 15.4993 17.8327 15.726 17.8327 15.9993C17.8327 16.2727 17.606 16.4993 17.3327 16.4993Z" fill="#292D32"/>
</g>
<defs>
<clipPath id="clip0_2210_51408">
<rect width="32" height="32" fill="white"/>
</clipPath>
</defs>
</svg>
