<svg width="32" height="32" viewBox="0 0 32 32" fill="none" xmlns="http://www.w3.org/2000/svg">
<path opacity="0.4" d="M21.586 2.66602H10.4127C5.55935 2.66602 2.66602 5.55935 2.66602 10.4127V21.5727C2.66602 26.4394 5.55935 29.3327 10.4127 29.3327H21.5727C26.426 29.3327 29.3193 26.4394 29.3193 21.586V10.4127C29.3327 5.55935 26.4394 2.66602 21.586 2.66602Z" fill="#E6E6E6"/>
<path d="M21.3327 14.9993H16.9993V10.666C16.9993 10.1193 16.546 9.66602 15.9993 9.66602C15.4527 9.66602 14.9993 10.1193 14.9993 10.666V14.9993H10.666C10.1193 14.9993 9.66602 15.4527 9.66602 15.9993C9.66602 16.546 10.1193 16.9993 10.666 16.9993H14.9993V21.3327C14.9993 21.8793 15.4527 22.3327 15.9993 22.3327C16.546 22.3327 16.9993 21.8793 16.9993 21.3327V16.9993H21.3327C21.8793 16.9993 22.3327 16.546 22.3327 15.9993C22.3327 15.4527 21.8793 14.9993 21.3327 14.9993Z" fill="#667085"/>
</svg>
