<svg width="18" height="18" viewBox="0 0 18 18" fill="none" xmlns="http://www.w3.org/2000/svg">
<path d="M16.1722 8.51328L8.58242 1.926C8.52416 1.87578 8.44983 1.84766 8.37149 1.84766H6.59358C6.44492 1.84766 6.37662 2.03248 6.48912 2.12891L13.5244 8.23605H1.76814C1.67974 8.23605 1.60742 8.30837 1.60742 8.39676V9.60212C1.60742 9.69051 1.67974 9.76284 1.76814 9.76284H13.5224L6.48711 15.87C6.37461 15.9684 6.44291 16.1512 6.59157 16.1512H8.42974C8.46791 16.1512 8.50608 16.1372 8.53421 16.1111L16.1722 9.4856C16.2417 9.42513 16.2975 9.35043 16.3357 9.26656C16.3739 9.1827 16.3937 9.09161 16.3937 8.99944C16.3937 8.90728 16.3739 8.81619 16.3357 8.73232C16.2975 8.64845 16.2417 8.57376 16.1722 8.51328Z" fill="white"/>
</svg>
