<svg width="186" height="90" viewBox="0 0 186 90" fill="none" xmlns="http://www.w3.org/2000/svg">
<rect width="186" height="90" fill="#F0F2F4"/>
<g clip-path="url(#clip0_3038_55423)">
<path d="M68.6593 48.378C68.351 48.457 68.1981 48.6621 68.1421 48.9704C67.8784 50.4393 67.5675 51.9006 67.5051 53.3963C67.4566 54.0931 67.519 54.7931 67.6898 55.4704C68.0121 56.617 68.7409 57.4068 69.9028 57.6362C72.0265 58.0566 73.9796 57.6833 75.4217 55.9354C76.5059 54.6193 76.9505 53.1045 76.2638 51.4203C76.1912 51.242 76.1517 51.0585 76.3912 51.0101C77.1671 50.8534 77.9468 50.6279 78.7341 50.9553C79.6374 51.3375 80.082 52.0484 80.0922 52.9937C80.1088 54.7416 79.3278 56.1367 77.9939 57.2055C76.3798 58.5012 74.5108 59.2567 72.475 59.6147C71.0277 59.8695 69.5715 59.8313 68.123 59.6809C66.0629 59.4669 64.1239 58.8847 62.469 57.5686C60.6854 56.1558 59.8458 54.2562 59.6878 52.042C59.6318 51.2687 59.6789 50.489 59.591 49.6966C59.326 50.3336 59.0687 50.9706 58.7947 51.6076C57.8533 53.7785 56.6022 55.7252 54.709 57.2081C53.4747 58.1803 52.0287 58.848 50.4883 59.1573C50.392 59.1705 50.295 59.1773 50.1978 59.1777C49.9991 59.0809 49.8003 59.1841 49.6003 59.1841C45.5744 59.1739 41.549 59.1739 37.524 59.1841C37.0399 59.1841 36.5571 59.1943 36.0156 59.1573C36.1061 59.0235 36.1914 58.9114 36.1532 58.7751C37.3113 56.8514 37.7126 54.6907 38.1343 52.5325C38.7713 49.238 39.4401 45.9472 40.0912 42.6539C40.309 41.5532 40.5128 40.4499 40.7282 39.3479C40.7509 39.2896 40.7688 39.2295 40.7817 39.1683C41.1613 37.3108 41.5401 35.4533 41.9181 33.5958C42.1125 32.9802 42.116 32.3202 41.9283 31.7026C41.8671 31.3943 41.8009 31.086 41.7435 30.7777C41.6862 30.4286 41.8556 30.3598 42.1767 30.3624C44.4928 30.3738 46.8102 30.3624 49.1264 30.3624C49.6729 30.3624 49.6729 30.3624 49.6907 30.9025C49.6889 30.9997 49.6812 31.0967 49.6678 31.193C49.2525 33.3164 48.8359 35.4397 48.418 37.563C48.2906 38.1886 48.1798 38.8154 48.0486 39.5071C48.4817 39.2447 48.8448 39.0205 49.2117 38.8026C50.8335 37.8369 52.5241 37.135 54.4759 37.2675C56.8111 37.428 58.5349 38.493 59.5362 40.6385C60.2586 42.1876 60.4089 43.8336 60.3006 45.5153C60.2828 45.8083 60.2675 46.1014 60.2509 46.3931C60.4553 45.9882 60.639 45.5732 60.8013 45.1497C61.3351 43.8922 62.0829 42.7635 62.9047 41.6793C62.9494 41.6419 62.992 41.6019 63.0321 41.5596C64.3746 39.9875 66.1019 38.7905 68.0453 38.0854C70.2048 37.2701 72.5235 36.9649 74.8204 37.1936C76.0141 37.321 77.1302 37.6968 78.2105 38.2013L78.2169 38.2089C79.0654 38.6982 79.8845 39.2281 80.5559 39.9556C81.6185 41.1098 82.0695 42.5036 82.151 44.0324C82.2099 45.3421 82.092 46.6538 81.8006 47.9321C81.7624 48.1066 81.7459 48.3067 81.5089 48.3462C81.4748 48.3202 81.4356 48.3018 81.3939 48.2919C81.3522 48.282 81.3089 48.281 81.2668 48.2888H68.8211C68.7626 48.292 68.7044 48.2984 68.6466 48.3079L68.6593 48.378ZM68.8874 46.4479L68.8644 46.5078C68.8957 46.5196 68.9282 46.5277 68.9613 46.532H73.7311C73.805 46.532 73.8789 46.532 73.9222 46.453C74.3235 46.3256 74.2458 45.9523 74.3121 45.6606C74.7021 43.9843 74.9194 42.2724 74.9605 40.5518C74.9771 39.5683 74.3235 38.9275 73.3476 38.8956C71.9717 38.8459 71.0201 39.4944 70.4022 40.6792C69.5282 42.3533 69.0772 44.1611 68.7332 46.0033C68.7001 46.1804 68.709 46.3422 68.8874 46.4479ZM45.3681 57.2463C45.6012 57.2463 45.8331 57.2463 46.0662 57.2463C46.1526 57.2413 46.2381 57.2263 46.321 57.2017C48.5174 56.6157 50.0526 55.3009 50.7125 53.0944C51.4578 50.6101 51.975 48.071 52.4604 45.5242C52.6913 44.2939 52.5983 43.0246 52.1903 41.8411C52.1138 41.5668 51.9555 41.3224 51.7366 41.1403C51.5176 40.9582 51.2484 40.8472 50.9647 40.8219C50.1214 40.7073 49.3977 40.9799 48.7811 41.5545C47.6625 42.5953 47.0625 43.9177 46.7631 45.3841C46.2904 47.6964 45.8445 50.0126 45.3923 52.3287C45.0942 53.8575 44.8088 55.3786 44.5005 56.9011C44.4482 57.1661 44.5005 57.2692 44.7807 57.2527C44.9757 57.2361 45.1719 57.2463 45.3681 57.2463Z" fill="#9E9E9E"/>
<path d="M107.528 59.7461C106.254 59.8327 104.992 59.9219 103.717 59.8352C101.413 59.6785 99.1876 59.2365 97.1415 58.1153C96.3542 57.6847 95.6408 57.1458 95.2076 56.3241C94.5477 55.0718 94.8802 53.5443 95.8319 52.4244C97.59 50.3593 101.437 49.9962 103.824 51.8269C104.108 52.0385 104.365 52.2851 104.588 52.5607C104.836 52.8728 104.822 53.0512 104.515 53.306C104.208 53.5608 103.878 53.7965 103.624 54.1201C102.504 55.5431 103.104 57.4898 104.842 57.9879C106.359 58.4224 107.624 58.0504 108.704 56.8554C110.696 54.6501 111.905 52.0575 112.654 49.2216C112.822 48.5846 112.952 47.9361 113.08 47.2902C113.123 47.0813 113.199 46.7959 113.01 46.6749C112.856 46.5755 112.661 46.7857 112.501 46.8965C110.948 47.9922 109.269 48.8228 107.405 49.2254C105.142 49.7133 102.894 49.735 100.688 48.8967C98.1314 47.9298 96.2688 45.3028 96.1988 42.5751C96.1861 41.1787 96.4128 39.7903 96.8689 38.4703C96.902 38.3671 96.9237 38.2589 96.9504 38.1531C96.9976 38.0563 97.0511 37.9607 97.0906 37.8601C97.5642 36.6534 98.2426 35.5376 99.0958 34.5617C100.802 32.6176 102.976 31.3997 105.366 30.5155C106.818 29.9977 108.335 29.6838 109.873 29.5829C111.777 29.4326 113.656 29.5333 115.509 30.0378C116.408 30.3061 117.279 30.6642 118.106 31.1066C118.145 31.1506 118.188 31.1907 118.234 31.2264C119.219 31.8431 120.101 32.6114 120.847 33.503C121.551 34.326 122.062 35.2675 122.512 36.2472C122.611 36.5695 122.706 36.8944 122.814 37.2155C123.048 37.9085 123.088 38.6398 123.242 39.3494C123.25 39.6127 123.258 39.876 123.267 40.1393V41.2387C123.267 41.4833 123.253 41.7279 123.246 41.9725C123.186 42.4439 123.141 42.9179 123.061 43.3854C122.941 44.0938 122.797 44.7983 122.663 45.5041C122.655 45.5104 122.649 45.5197 122.647 45.5301C122.646 45.5405 122.648 45.5512 122.653 45.5601C122.585 45.677 122.544 45.8076 122.534 45.9423L122.511 46.0825C122.219 46.9165 121.927 47.7514 121.634 48.5871C121.427 48.9602 121.246 49.3476 121.094 49.7465L121.103 49.7376L121.052 49.8318C121.048 49.8339 121.044 49.8367 121.041 49.8403C121.037 49.8439 121.035 49.848 121.033 49.8525C121.032 49.857 121.031 49.8618 121.032 49.8666C121.032 49.8713 121.033 49.876 121.035 49.8802C120.815 50.215 120.623 50.5679 120.462 50.9351C120.285 51.1584 120.137 51.4022 120.019 51.6613L118.983 53.1264C118.758 53.348 118.558 53.5931 118.385 53.8577L117.703 54.5953C117.698 54.5948 117.693 54.5952 117.688 54.5966C117.684 54.598 117.679 54.6003 117.676 54.6034C117.672 54.6065 117.669 54.6103 117.667 54.6146C117.665 54.6189 117.663 54.6236 117.663 54.6284C117.515 54.7419 117.386 54.8783 117.281 55.0323L115.743 56.3649C114.84 56.9999 113.904 57.588 112.94 58.1268L111.618 58.7179C111.141 58.8695 110.666 59.0237 110.19 59.1728C109.332 59.4352 108.424 59.555 107.528 59.7461ZM115.32 36.874C115.325 35.9044 115.221 34.9373 115.009 33.991C114.763 32.8864 114.217 31.9781 113.098 31.5704C112.218 31.2557 111.315 31.3156 110.431 31.5959C109.117 32.0048 108.248 32.9387 107.519 34.0432C106.486 35.6077 105.908 37.3403 105.549 39.1685C105.211 40.8884 105.166 42.5892 105.63 44.2887C105.933 45.4085 106.672 46.3156 107.923 46.4545C109.495 46.6239 110.87 46.1474 111.973 45.0531C114.245 42.8108 115.284 40.0399 115.32 36.8689V36.874Z" fill="#9E9E9E"/>
<path d="M84.245 42.2683L84.2769 42.1282C84.4043 41.4708 84.5457 40.8147 84.6591 40.1535C84.7253 39.7815 84.5941 39.6439 84.2195 39.6859C83.9404 39.7171 83.6591 39.7248 83.3787 39.7089C83.1481 39.6936 83.1137 39.5929 83.2029 39.3967C83.2713 39.254 83.371 39.1286 83.4946 39.0298C84.0335 38.5648 84.6527 38.2132 85.2196 37.7877C86.4758 36.8475 87.4313 35.6219 88.4225 34.4256C89.6468 32.9528 90.9577 31.5756 92.6457 30.6189C93.6076 30.0736 94.6064 29.6201 95.7275 29.5207C95.9096 29.5016 96.0932 29.5016 96.2753 29.5207C96.4346 29.5398 96.6919 29.513 96.7072 29.6978C96.7216 29.8082 96.7043 29.9205 96.6574 30.0215C96.6105 30.1226 96.5359 30.2082 96.4422 30.2685C96.2639 30.3738 96.0898 30.4868 95.9199 30.6074C94.4688 31.6266 93.6789 33.0904 93.1566 34.7301C92.9102 35.5257 92.7057 36.3337 92.5438 37.1507C92.4572 37.5711 92.461 37.5724 92.9056 37.5724C93.67 37.5724 94.423 37.5724 95.181 37.5724C95.553 37.5724 95.6167 37.6564 95.5428 38.0093C95.4358 38.5189 95.3351 39.0387 95.2281 39.5522C95.2077 39.6452 95.1963 39.7509 95.074 39.7789C94.1962 39.7789 93.3184 39.7789 92.4406 39.7789C92.3336 39.7789 92.1858 39.7063 92.1285 39.8796C91.8877 40.0821 91.8928 40.3815 91.8393 40.644C91.3501 43.1512 90.866 45.6567 90.3869 48.1606C90.0914 49.697 89.8251 51.2386 89.4735 52.7635C89.3971 53.096 89.29 53.4222 89.2187 53.756C89.0365 54.6006 89.4811 55.1714 90.3436 55.2224C90.9067 55.2555 91.4316 55.0835 91.9565 54.9217C92.1998 54.8478 92.317 54.8478 92.2432 55.1688C91.6151 57.8888 89.1588 59.8444 86.4032 59.74C84.7151 59.675 83.2793 59.0698 82.3875 57.527C81.7913 56.4964 81.7824 55.4033 82.0053 54.2592C82.7697 50.3238 83.4921 46.3833 84.2297 42.4441C84.2384 42.3859 84.2435 42.3272 84.245 42.2683Z" fill="#9E9E9E"/>
<path d="M119.731 65.3382L119.518 65.3242C119.304 65.244 119.078 65.198 118.85 65.1878L118.819 65.1713H118.786C118.658 65.0439 118.377 65.1585 118.344 64.8846L118.424 64.8082L118.525 64.7318C118.529 64.7333 118.534 64.7338 118.539 64.7333C118.544 64.7327 118.548 64.7311 118.552 64.7285C118.556 64.7259 118.56 64.7225 118.562 64.7184C118.565 64.7144 118.566 64.7098 118.567 64.705C118.666 64.6161 118.765 64.5273 118.865 64.4387C119.051 64.3345 119.206 64.1817 119.313 63.9967C119.474 63.8853 119.603 63.7332 119.687 63.5559H119.68C119.7 63.5527 119.719 63.542 119.731 63.5259C119.744 63.5098 119.75 63.4895 119.748 63.4692C120.071 63.1041 120.32 62.679 120.48 62.2182C120.523 62.1599 120.561 62.0981 120.594 62.0334C121.164 60.632 121.358 59.1364 121.643 57.6636L121.66 57.5273C121.822 56.9459 121.943 56.3537 122.022 55.7552C122.096 55.6978 122.079 55.6176 122.074 55.5399L122.097 55.3233C122.278 54.6446 122.42 53.9559 122.521 53.2607L122.529 53.1855C122.624 52.9271 122.677 52.6546 122.683 52.3791C122.787 52.1493 122.838 51.8989 122.832 51.6465C123.072 50.6745 123.273 49.6948 123.418 48.7036L123.435 48.6883L123.426 48.6667C123.656 47.7073 123.861 46.7429 124 45.7645C124.009 45.7573 124.015 45.7471 124.017 45.7358C124.019 45.7246 124.016 45.713 124.011 45.7033C124.251 44.7545 124.444 43.7939 124.586 42.8254C124.595 42.8183 124.601 42.8081 124.603 42.7968C124.605 42.7855 124.603 42.7738 124.597 42.7642C124.689 42.5268 124.738 42.2749 124.743 42.0202C124.775 41.917 124.814 41.8151 124.84 41.7094C125.081 40.7004 125.151 39.6977 124.741 38.7104C124.692 38.3396 124.426 38.0479 124.358 37.6823L124.442 37.5854L125.179 37.5332H131.13H132.232C132.528 37.5332 132.7 37.6542 132.666 37.9766C132.539 38.2454 132.539 38.5422 132.476 38.8263C132.29 39.7678 132.12 40.7118 131.942 41.6559C131.934 41.6639 131.928 41.6748 131.926 41.6867C131.925 41.6986 131.927 41.7107 131.934 41.7208C131.839 41.9568 131.789 42.2082 131.787 42.4623C131.502 43.6535 131.294 44.86 131.071 46.0639L131.052 46.2817C130.912 46.7385 130.816 47.2079 130.767 47.6831L130.76 47.7557C130.675 47.9665 130.629 48.191 130.624 48.4182L130.609 48.5456C130.422 49.257 130.278 49.979 130.178 50.7076C130.178 50.7344 130.178 50.7598 130.169 50.7866C130.028 51.2647 129.931 51.7547 129.88 52.2504C129.871 52.2581 129.865 52.2687 129.863 52.2804C129.861 52.2921 129.863 52.304 129.87 52.3141C129.781 52.5269 129.735 52.755 129.735 52.9855L129.727 53.0581C129.434 54.248 129.228 55.4545 129.007 56.6597L128.992 56.8049C128.87 57.2393 128.778 57.6816 128.717 58.1286C128.709 58.2 128.703 58.27 128.695 58.3414C128.44 59.2867 128.313 60.2524 128.118 61.2142C128.109 61.2203 128.102 61.2295 128.1 61.2402C128.097 61.2508 128.099 61.262 128.104 61.2716C128.029 61.3857 127.985 61.5174 127.976 61.6538C127.972 61.6558 127.968 61.6588 127.964 61.6625C127.961 61.6662 127.958 61.6705 127.956 61.6753C127.954 61.68 127.954 61.685 127.954 61.6901C127.954 61.6952 127.955 61.7001 127.957 61.7047C127.004 63.7253 125.171 64.4897 123.19 65.0311C122.68 65.1687 122.171 65.2324 121.65 65.3305L120.758 65.3662H120.336L119.731 65.3382Z" fill="#9E9E9E"/>
<path d="M153.324 41.9869C153.324 42.4719 153.326 42.9581 153.33 43.4456C152.978 46.0726 152.412 48.6614 151.929 51.2642C151.713 52.4108 151.507 53.5689 151.292 54.7193C151.037 56.0736 151.2 57.4227 151.312 58.7732C151.349 59.228 151.312 59.2828 150.844 59.2828C148.851 59.2828 146.858 59.2853 144.866 59.2904C144.585 59.2904 144.304 59.3057 144.023 59.3134C143.537 59.1949 143.469 59.1121 143.42 58.6012C143.407 58.456 143.385 58.3118 143.355 58.1693C143.265 57.7731 143.15 57.7043 142.808 57.9145C142.069 58.3553 141.329 58.7948 140.557 59.1771L140.484 59.1962L140.194 59.3236L138.792 59.7567H138.759L138.73 59.7733C138.453 59.7842 138.178 59.83 137.912 59.9096L137.482 59.9313H136.671L136.024 59.9058C135.757 59.8255 135.481 59.7797 135.202 59.7695L135.173 59.7529L135.14 59.7593C134.567 59.5631 133.981 59.4 133.448 59.0942C132.337 58.4647 131.497 57.4478 131.089 56.2379C131.077 56.0111 131.029 55.7877 130.945 55.5767L130.934 55.4302C130.896 54.7626 130.992 54.104 131.085 53.4466C131.089 53.444 131.093 53.4405 131.096 53.4365C131.099 53.4324 131.101 53.4278 131.102 53.4229C131.103 53.418 131.103 53.413 131.102 53.4081C131.101 53.4032 131.099 53.3985 131.096 53.3943C131.301 52.8223 131.464 52.2363 131.745 51.691C132.243 50.7215 132.96 49.9329 133.736 49.1876L133.826 49.1201L133.89 49.0564L135.365 48.0231L136.281 47.5721C137.247 47.0957 138.276 46.7861 139.278 46.4001C139.281 46.4024 139.286 46.4039 139.29 46.4044C139.294 46.4049 139.299 46.4044 139.303 46.4029C139.307 46.4014 139.31 46.399 139.313 46.3958C139.316 46.3927 139.319 46.3889 139.32 46.3848C139.368 46.3843 139.417 46.3779 139.464 46.3657C141.168 45.7707 142.874 45.1796 144.545 44.4903C145.181 44.2348 145.698 43.7497 145.993 43.1309C146.402 42.2876 146.4 41.4034 146.159 40.5192C146.057 40.146 145.777 39.9077 145.411 39.7701C144.911 39.5932 144.373 39.5528 143.853 39.6529C142.878 39.8109 142.365 40.4555 142.39 41.4467C142.399 41.7385 142.46 42.0277 142.485 42.3194C142.524 42.7819 142.347 43.1259 141.912 43.3246C140.977 43.7539 140.031 44.1553 138.99 44.2317C137.706 44.326 136.61 43.9501 135.904 42.8086C134.914 41.2072 134.728 39.4707 135.122 37.6515C135.178 37.3903 135.308 37.3253 135.535 37.468C136.334 37.97 137.225 38.0923 138.14 38.0617C139.9 37.9881 141.653 37.8103 143.392 37.5291C145.057 37.2743 146.723 37.2068 148.396 37.4744C149.296 37.638 150.182 37.8706 151.047 38.17C152.005 38.6796 152.711 39.4147 153.037 40.4797C153.186 40.9741 153.228 41.4849 153.324 41.9869ZM145.261 46.4829C144.56 46.7593 143.899 46.9746 143.31 47.3568C141.929 48.2643 140.742 49.4365 139.817 50.8056C138.964 52.0452 138.457 53.3638 138.703 54.904C138.854 55.8443 139.614 56.6507 140.498 56.7284C141.105 56.7819 141.612 56.4876 142.115 56.2188C143.013 55.7283 143.669 55.0276 143.835 53.9817C144.114 52.2184 144.506 50.4769 144.839 48.7238C144.974 47.9913 145.114 47.2625 145.261 46.4829Z" fill="#9E9E9E"/>
<path d="M127.622 21.9966C128.512 21.8134 129.421 21.7428 130.329 21.7864C130.576 22.2451 130.669 22.8642 130.786 23.4796C129.734 23.8974 128.726 24.3153 128.073 24.7013C127.377 24.3446 126.995 24.2605 126.186 23.756C126.453 23.1203 126.939 22.5343 127.622 21.9966ZM135.318 24.9816C135.769 25.9231 136.21 26.8659 136.388 27.829C135.964 28.466 135.523 29.1756 135.165 29.4929C134.585 29.1514 133.891 28.5934 133.216 28.0915C133.231 27.0035 133.272 26.197 133.302 25.2887C134.023 25.1077 134.718 24.96 135.318 24.9816ZM123.47 29.4941C123.204 28.1178 123.374 26.6929 123.955 25.4173L124.118 25.4619C123.896 26.4212 123.728 27.3729 123.95 28.2392C123.707 28.6141 123.584 29.054 123.597 29.5005L123.47 29.4941ZM127.823 27.8023C128.715 28.3488 129.585 28.8813 130.426 29.405C130.351 30.3949 130.032 31.2905 129.772 32.2078C128.847 32.5033 127.82 32.2995 126.842 32.311C126.117 31.2828 126.004 30.4152 125.72 29.5081C126.345 28.8545 127.049 28.2814 127.817 27.8023H127.823ZM135.044 32.7951C134.071 33.8452 132.79 34.559 131.385 34.8335L131.084 34.6972C131.441 34.4513 131.701 34.0347 131.915 33.5365C132.645 33.4907 133.631 32.8091 134.571 32.2409C134.75 32.4043 134.907 32.5906 135.038 32.7951H135.044ZM127.391 34.3876C126.492 33.9923 125.689 33.4058 125.039 32.669C125.485 33.0754 125.855 33.4334 126.381 33.4652C126.434 33.7187 126.695 34.0054 127.385 34.3876H127.391Z" fill="#9E9E9E"/>
</g>
<defs>
<clipPath id="clip0_3038_55423">
<rect x="33" y="20" width="120.867" height="49" fill="white"/>
</clipPath>
</defs>
</svg>
