<svg width="927" height="240" viewBox="0 0 927 240" fill="none" xmlns="http://www.w3.org/2000/svg">
<path d="M93.9844 93L171 152.5L290.001 152.5L475.5 220L677.5 152.5L778.499 96L881.5 123" stroke="#CACACA" stroke-dasharray="4 4"/>
<path d="M471 184.195C486.356 184.195 498.805 196.644 498.805 212C498.805 227.356 486.356 239.805 471 239.805C455.644 239.805 443.195 227.356 443.195 212C443.195 196.644 455.644 184.195 471 184.195Z" fill="#BCEB0F" stroke="white" stroke-width="0.389744"/>
<rect width="39.1448" height="39.1448" transform="translate(451.465 192.25)" fill="#BCEB0F"/>
<path d="M466.693 208.257C467.036 208.943 467.39 209.659 467.753 210.401C468.116 211.142 468.476 211.873 468.836 212.586C469.194 213.3 469.537 213.988 469.863 214.645C470.19 215.302 470.483 215.895 470.743 216.422H485.9V218.565H469.445L466.081 211.768C465.299 210.198 464.462 208.511 463.569 206.706C463.429 206.988 463.281 207.293 463.122 207.623C462.983 207.905 462.821 208.235 462.634 208.61C462.447 208.985 462.249 209.391 462.034 209.822L458.768 216.422H465.383C465.755 217.183 466.109 217.897 466.444 218.565H455.346L462.924 203.251H464.222C465.068 204.963 465.892 206.63 466.693 208.257Z" fill="#0A0A0A"/>
<path d="M487.966 218.177L487.586 218.551L487.966 218.102V218.177Z" fill="#0A0A0A"/>
<path d="M483.79 211.98H473.88V209.837H483.79V211.98Z" fill="#0A0A0A"/>
<path d="M485.894 205.392H475.036C474.737 205.392 474.458 205.448 474.198 205.561C473.939 205.674 473.707 205.829 473.506 206.027C473.305 206.224 473.149 206.455 473.032 206.717C472.914 206.98 472.858 207.262 472.858 207.563V211.977H470.737V207.465L470.74 207.468C470.759 206.875 470.882 206.323 471.108 205.809C471.337 205.296 471.644 204.85 472.03 204.47C472.415 204.089 472.867 203.79 473.383 203.573C473.9 203.355 474.45 203.249 475.036 203.249H485.894V205.392Z" fill="#0A0A0A"/>
<path d="M487.966 203.622L487.586 203.209H487.966V203.622Z" fill="#0A0A0A"/>
<path d="M291.961 119.396C307.238 119.397 319.618 131.775 319.618 147.048C319.618 162.318 307.236 174.698 291.961 174.698C276.684 174.698 264.301 162.318 264.301 147.048C264.301 131.775 276.684 119.396 291.961 119.396Z" fill="white" stroke="white" stroke-width="0.601658"/>
<g clip-path="url(#clip0_2608_49921)">
<path d="M292 173.143C306.497 173.143 318.249 161.414 318.249 146.945C318.249 132.477 306.497 120.748 292 120.748C277.502 120.748 265.75 132.477 265.75 146.945C265.75 161.414 277.502 173.143 292 173.143Z" fill="#FAA300"/>
<path d="M297.464 146.945C298.429 146.117 299.148 145.041 299.542 143.833C299.936 142.626 299.99 141.333 299.698 140.097C299.405 138.861 298.778 137.729 297.885 136.824C296.992 135.92 295.867 135.277 294.633 134.968V132.973C294.633 132.51 294.448 132.066 294.12 131.738C293.792 131.411 293.347 131.227 292.883 131.227C292.419 131.227 291.973 131.411 291.645 131.738C291.317 132.066 291.133 132.51 291.133 132.973V134.72H287.633V132.973C287.633 132.51 287.448 132.066 287.12 131.738C286.792 131.411 286.347 131.227 285.883 131.227C285.419 131.227 284.974 131.411 284.645 131.738C284.317 132.066 284.133 132.51 284.133 132.973V134.72H282.383C281.919 134.72 281.474 134.904 281.145 135.231C280.817 135.559 280.633 136.003 280.633 136.466C280.633 136.929 280.817 137.373 281.145 137.701C281.474 138.028 281.919 138.212 282.383 138.212H284.133V155.677H282.383C281.919 155.677 281.474 155.861 281.145 156.189C280.817 156.516 280.633 156.961 280.633 157.424C280.633 157.887 280.817 158.331 281.145 158.659C281.474 158.986 281.919 159.17 282.383 159.17H284.133V160.917C284.133 161.38 284.317 161.824 284.645 162.152C284.974 162.479 285.419 162.663 285.883 162.663C286.347 162.663 286.792 162.479 287.12 162.152C287.448 161.824 287.633 161.38 287.633 160.917V159.17H291.133V160.917C291.133 161.38 291.317 161.824 291.645 162.152C291.973 162.479 292.419 162.663 292.883 162.663C293.347 162.663 293.792 162.479 294.12 162.152C294.448 161.824 294.633 161.38 294.633 160.917V158.922C295.867 158.613 296.992 157.97 297.885 157.066C298.778 156.161 299.405 155.029 299.698 153.793C299.99 152.557 299.936 151.264 299.542 150.057C299.148 148.849 298.429 147.773 297.464 146.945ZM296.383 141.705C296.383 142.632 296.014 143.52 295.358 144.175C294.701 144.83 293.811 145.198 292.883 145.198H287.633V138.212H292.883C293.811 138.212 294.701 138.58 295.358 139.236C296.014 139.891 296.383 140.779 296.383 141.705ZM292.883 155.677H287.633V148.691H292.883C293.811 148.691 294.701 149.059 295.358 149.714C296.014 150.37 296.383 151.258 296.383 152.184C296.383 153.111 296.014 153.999 295.358 154.654C294.701 155.309 293.811 155.677 292.883 155.677Z" fill="#FFEA94"/>
</g>
<path d="M883.001 92.3008C898.3 92.3008 910.699 104.701 910.699 120C910.699 135.297 898.298 147.699 883.001 147.699C867.702 147.699 855.301 135.297 855.301 120C855.301 104.701 867.702 92.3009 883.001 92.3008Z" fill="white" stroke="white" stroke-width="0.602526"/>
<g clip-path="url(#clip1_2608_49921)">
<path d="M882.766 147.441C897.801 147.441 909.99 135.274 909.99 120.265C909.99 105.255 897.801 93.0879 882.766 93.0879C867.731 93.0879 855.543 105.255 855.543 120.265C855.543 135.274 867.731 147.441 882.766 147.441Z" fill="#F0F0F0"/>
<path d="M855.543 120.265C855.543 131.951 862.931 141.912 873.297 145.752V94.7793C862.931 98.6191 855.543 108.581 855.543 120.265Z" fill="#6DA544"/>
<path d="M909.989 120.265C909.989 108.581 902.601 98.6191 892.234 94.7793V145.752C902.601 141.912 909.989 131.951 909.989 120.265Z" fill="#6DA544"/>
</g>
<path d="M680.001 120.301C695.3 120.301 707.699 132.701 707.699 148C707.699 163.297 695.298 175.699 680.001 175.699C664.702 175.699 652.301 163.297 652.301 148C652.301 132.701 664.702 120.301 680.001 120.301Z" fill="white" stroke="white" stroke-width="0.602526"/>
<g clip-path="url(#clip2_2608_49921)">
<path d="M679.981 175.441C695.016 175.441 707.205 163.274 707.205 148.265C707.205 133.255 695.016 121.088 679.981 121.088C664.946 121.088 652.758 133.255 652.758 148.265C652.758 163.274 664.946 175.441 679.981 175.441Z" fill="#F0F0F0"/>
<path d="M678.797 148.265H707.204C707.204 145.812 706.876 143.436 706.266 141.176H678.797V148.265Z" fill="#D80027"/>
<path d="M678.797 134.086H703.208C701.542 131.371 699.411 128.971 696.927 126.996H678.797V134.086Z" fill="#D80027"/>
<path d="M679.981 175.441C686.388 175.441 692.277 173.231 696.927 169.533H663.035C667.685 173.231 673.574 175.441 679.981 175.441Z" fill="#D80027"/>
<path d="M656.753 162.443H703.209C704.547 160.264 705.584 157.882 706.267 155.354H653.695C654.378 157.882 655.415 160.264 656.753 162.443Z" fill="#D80027"/>
<path d="M665.368 125.332H667.849L665.541 127.005L666.423 129.714L664.115 128.04L661.808 129.714L662.569 127.374C660.538 129.064 658.757 131.043 657.289 133.249H658.084L656.615 134.314C656.386 134.695 656.167 135.082 655.957 135.475L656.658 137.63L655.349 136.681C655.024 137.369 654.727 138.073 654.459 138.791L655.232 141.165H658.084L655.777 142.839L656.658 145.547L654.35 143.873L652.968 144.876C652.83 145.986 652.758 147.117 652.758 148.265H679.981C679.981 133.255 679.981 131.486 679.981 121.088C674.603 121.088 669.59 122.645 665.368 125.332ZM666.423 145.547L664.115 143.873L661.808 145.547L662.689 142.839L660.382 141.165H663.234L664.115 138.457L664.997 141.165H667.849L665.541 142.839L666.423 145.547ZM665.541 134.922L666.423 137.63L664.115 135.957L661.808 137.63L662.689 134.922L660.382 133.249H663.234L664.115 130.541L664.997 133.249H667.849L665.541 134.922ZM676.188 145.547L673.88 143.873L671.573 145.547L672.454 142.839L670.147 141.165H672.999L673.88 138.457L674.762 141.165H677.614L675.306 142.839L676.188 145.547ZM675.306 134.922L676.188 137.63L673.88 135.957L671.573 137.63L672.454 134.922L670.147 133.249H672.999L673.88 130.541L674.762 133.249H677.614L675.306 134.922ZM675.306 127.005L676.188 129.714L673.88 128.04L671.573 129.714L672.454 127.005L670.147 125.332H672.999L673.88 122.624L674.762 125.332H677.614L675.306 127.005Z" fill="#0052B4"/>
</g>
<path d="M88.001 57.3008C103.3 57.3008 115.699 69.7008 115.699 85C115.699 100.297 103.298 112.699 88.001 112.699C72.7024 112.699 60.3008 100.297 60.3008 85C60.3008 69.7009 72.7024 57.3009 88.001 57.3008Z" fill="white" stroke="white" stroke-width="0.602526"/>
<g clip-path="url(#clip3_2608_49921)">
<path fill-rule="evenodd" clip-rule="evenodd" d="M71.2141 88.2961C71.125 88.3733 70.997 88.3861 70.8944 88.3284C70.4452 87.9555 70.3638 87.7833 70.1196 87.4282C69.3758 88.1838 68.8501 88.4097 67.8885 88.4097C66.7495 88.4096 65.8633 87.7078 65.8633 86.3043C65.8633 85.208 66.462 84.4632 67.3004 84.0973C68.0344 83.7757 69.0596 83.7171 69.8441 83.6287V83.4541C69.8441 83.1325 69.8692 82.7523 69.68 82.4738C69.5147 82.225 69.201 82.1235 68.9206 82.1235C68.4044 82.1235 67.9447 82.3876 67.832 82.9341C67.8178 83.0616 67.7195 83.1635 67.5925 83.1828L66.292 83.0406C66.2271 83.0314 66.1689 82.9959 66.1309 82.9425C66.0928 82.8893 66.0783 82.8227 66.0908 82.7585C66.3915 81.1708 67.8285 80.6914 69.1159 80.6914C69.7746 80.6914 70.6344 80.866 71.1519 81.3633C71.8093 81.9778 71.7506 82.7979 71.7506 83.6886V85.7915C71.7506 86.4252 72.014 86.7025 72.262 87.0433C72.3483 87.1628 72.3673 87.3123 72.262 87.4019C71.9854 87.6327 71.4943 88.0582 71.2248 88.2985L71.2141 88.2961ZM69.8501 85.0036C69.8501 85.5296 69.8621 85.9684 69.5975 86.4382C69.3819 86.8184 69.0405 87.0527 68.6598 87.0527C68.1413 87.0527 67.8382 86.6581 67.8382 86.0723C67.8382 84.9223 68.8717 84.713 69.8501 84.713V85.0059V85.0036Z" fill="#232F3E"/>
<path fill-rule="evenodd" clip-rule="evenodd" d="M74.9139 88.2471H73.5618C73.4364 88.2405 73.3345 88.1435 73.3223 88.0187V81.0846C73.3268 80.9456 73.4417 80.8357 73.581 80.837H74.842C74.9712 80.8441 75.0744 80.9472 75.0815 81.0761V81.9812H75.1066C75.4348 81.1048 76.054 80.6972 76.8875 80.6972C77.721 80.6972 78.2636 81.105 78.6431 81.9812C78.8966 81.3067 79.4946 80.8212 80.2076 80.7111C80.9206 80.6008 81.6378 80.8829 82.0838 81.4492C82.5137 82.0327 82.4251 82.8838 82.4251 83.6227V87.9971C82.4239 88.0649 82.3956 88.1293 82.3466 88.1762C82.2976 88.223 82.232 88.2485 82.1641 88.2471H80.812C80.6789 88.2401 80.5742 88.1313 80.5725 87.9983V84.3233C80.5725 84.0316 80.5976 83.3023 80.5342 83.025C80.4337 82.5588 80.1306 82.4271 79.739 82.4271C79.38 82.4382 79.0622 82.6614 78.9306 82.9951C78.7916 83.3466 78.8036 83.9288 78.8036 84.3233V87.9972C78.8024 88.0647 78.7743 88.129 78.7255 88.176C78.6767 88.2228 78.6114 88.2484 78.5437 88.2472H77.1881C77.0554 88.2397 76.9509 88.1311 76.9487 87.9985V84.3234C76.9487 83.55 77.0684 82.4105 76.1103 82.4105C75.1522 82.4105 75.1761 83.5187 75.1761 84.3234V87.9974C75.1749 88.0651 75.1465 88.1295 75.0976 88.1765C75.0486 88.2233 74.9829 88.2488 74.9151 88.2473" fill="#232F3E"/>
<path fill-rule="evenodd" clip-rule="evenodd" d="M89.9915 87.0433C89.7437 86.7025 89.4801 86.4252 89.4801 85.7927V83.6886C89.4801 82.7967 89.5436 81.9778 88.8814 81.3633C88.3628 80.866 87.5029 80.6914 86.8455 80.6914C85.5581 80.6914 84.121 81.1696 83.8191 82.7585C83.8064 82.8231 83.8208 82.8901 83.8591 82.9438C83.8974 82.9974 83.9561 83.0328 84.0215 83.0418L85.333 83.1828C85.4598 83.1632 85.5578 83.0614 85.5725 82.9341C85.6863 82.3878 86.1438 82.1235 86.6599 82.1235C86.9389 82.1235 87.2587 82.2262 87.4192 82.475C87.6096 82.7523 87.5845 83.1325 87.5845 83.4541V83.625C86.8 83.7122 85.7738 83.7709 85.0408 84.0925C84.1929 84.4583 83.5977 85.2031 83.5977 86.3007C83.5977 87.7031 84.4839 88.4048 85.6227 88.4048C86.5808 88.4048 87.1101 88.1788 87.8526 87.4232C88.0994 87.7819 88.1796 87.9505 88.6286 88.3235C88.7313 88.3808 88.8587 88.3684 88.9483 88.2923C89.2178 88.0533 89.7087 87.6265 89.9855 87.3957C90.1017 87.3135 90.0826 87.1676 89.9915 87.0433ZM87.3329 86.4371C87.1185 86.8161 86.776 87.0504 86.3964 87.0504C85.8779 87.0504 85.5749 86.6558 85.5749 86.0713C85.5749 84.92 86.6084 84.7119 87.5868 84.7119V85.0036C87.5868 85.531 87.5963 85.9685 87.3329 86.4371Z" fill="#232F3E"/>
<path fill-rule="evenodd" clip-rule="evenodd" d="M91.1381 82.0498V81.0588C91.135 80.9912 91.1607 80.9254 91.2088 80.8778C91.2569 80.8302 91.323 80.8052 91.3908 80.809H95.8375C95.9051 80.8067 95.9707 80.832 96.0191 80.8793C96.0675 80.9265 96.0945 80.9913 96.0938 81.0589V81.909C96.0938 82.0512 95.9741 82.2378 95.7597 82.5319L93.4555 85.8148C94.3106 85.7945 95.2147 85.9224 95.9919 86.3588C96.1355 86.4353 96.2269 86.5826 96.2314 86.7449V87.8066C96.2314 87.9524 96.0722 88.1209 95.9032 88.0337C94.4282 87.2769 92.6773 87.28 91.205 88.042C91.0505 88.1245 90.8888 87.9583 90.8888 87.8125V86.8022C90.8747 86.5641 90.9322 86.3271 91.0541 86.122L93.7236 82.2963H91.3955C91.3276 82.299 91.2618 82.2736 91.2131 82.2265C91.1645 82.1793 91.1373 82.1142 91.138 82.0465" fill="#232F3E"/>
<path fill-rule="evenodd" clip-rule="evenodd" d="M99.9391 82.0953C98.9415 82.0953 98.878 83.451 98.878 84.2974C98.878 85.1439 98.8661 86.9515 99.9259 86.9515C100.986 86.9515 101.025 85.493 101.025 84.6035C101.025 84.02 101 83.3195 100.823 82.7659C100.671 82.2878 100.368 82.0953 99.9391 82.0953ZM99.9259 80.6797C101.934 80.6797 103.021 82.4013 103.021 84.5891C103.021 86.7041 101.823 88.3814 99.9259 88.3814C97.9558 88.3814 96.8828 86.6598 96.8828 84.5163C96.8828 82.3727 97.969 80.6797 99.9259 80.6797Z" fill="#232F3E"/>
<path fill-rule="evenodd" clip-rule="evenodd" d="M105.641 88.2318H104.292C104.159 88.2248 104.054 88.116 104.053 87.983V81.0489C104.067 80.9173 104.18 80.8185 104.313 80.8218H105.568C105.682 80.8254 105.78 80.9045 105.807 81.0153V82.0758H105.834C106.212 81.1278 106.743 80.6758 107.677 80.6758C108.283 80.6758 108.874 80.8946 109.256 81.4923C109.61 82.0471 109.61 82.9807 109.61 83.6514V88.0139C109.59 88.1412 109.479 88.2342 109.35 88.2315H107.989C107.867 88.2263 107.766 88.1346 107.75 88.0139V84.2491C107.75 83.4911 107.838 82.3817 106.903 82.3817C106.556 82.3976 106.25 82.6145 106.12 82.9364C105.931 83.3596 105.906 83.7829 105.906 84.2515V87.9828C105.9 88.1235 105.783 88.2342 105.642 88.2315" fill="#232F3E"/>
<path fill-rule="evenodd" clip-rule="evenodd" d="M92.9744 90.9639C90.4343 92.8349 86.7469 93.8331 83.5804 93.8331C79.3443 93.8547 75.2527 92.2964 72.1075 89.4634C71.868 89.2494 72.0812 88.9565 72.3674 89.1226C75.6344 91.0199 79.6727 92.1629 83.8476 92.1629C86.8567 92.1465 89.833 91.537 92.6056 90.3696C93.0343 90.1878 93.3948 90.6518 92.9745 90.9673M94.0306 89.7635C94.3564 90.1783 93.6713 91.8904 93.3636 92.6543C93.2702 92.8851 93.4701 92.9783 93.6798 92.8038C95.0415 91.6657 95.3936 89.2817 95.1169 88.9374C94.8403 88.5932 92.4583 88.3014 91.0044 89.3211C90.7805 89.4777 90.8188 89.6941 91.0678 89.6642C91.8858 89.5661 93.7086 89.3474 94.0331 89.7635" fill="#FF9900"/>
</g>
<defs>
<clipPath id="clip0_2608_49921">
<rect x="264" y="119" width="55.9994" height="55.8874" rx="27.9437" fill="white"/>
</clipPath>
<clipPath id="clip1_2608_49921">
<rect width="54.4468" height="54.3533" fill="white" transform="translate(855.543 93.0879)"/>
</clipPath>
<clipPath id="clip2_2608_49921">
<rect width="54.4468" height="54.3533" fill="white" transform="translate(652.758 121.088)"/>
</clipPath>
<clipPath id="clip3_2608_49921">
<rect width="46.1373" height="13.1594" fill="white" transform="translate(65.1172 80.6758)"/>
</clipPath>
</defs>
</svg>
