<svg width="186" height="90" viewBox="0 0 186 90" fill="none" xmlns="http://www.w3.org/2000/svg">
<rect width="186" height="90" fill="#F0F2F4"/>
<path d="M154.35 39.7147H151.655C151.182 39.7147 150.689 40.1878 150.689 40.1878L140.488 53.5763C140.303 53.8642 140.015 53.8642 139.809 53.5763L130.287 40.1878C130.287 40.1878 129.896 39.7147 129.238 39.7147H111.14C110.852 39.7147 110.564 39.4268 110.564 39.1389V34.7172C110.564 34.0385 110.091 33.5655 109.413 33.5655H81.5867C77.2473 33.7506 75.4169 34.1413 73.5042 35.293C71.6739 36.3419 70.7072 37.6993 70.7072 39.3446C70.7072 41.0721 72.1469 42.7997 74.9439 44.4449C75.7048 44.918 78.3167 46.1725 82.7384 48.2085C85.5354 49.5659 87.0779 50.6148 86.975 51.6636C86.7899 53.3912 85.2475 53.9671 81.5867 53.9671H64.7431C64.3523 53.9671 63.9821 53.8642 63.9821 53.5763C63.9821 53.3912 64.085 53.2884 64.2701 53.1855C68.0337 50.8821 69.2676 47.9001 69.2676 45.1031C69.2676 39.8176 64.9282 33.5449 47.6115 33.5449H32.4955C31.8168 33.5449 31.3438 34.0179 31.3438 34.6966V55.3038C31.3438 55.9825 31.8168 56.4555 32.4955 56.4555H47.6115C48.1874 56.4555 48.7632 56.4555 49.2568 56.4555H87.0779C90.533 56.4555 93.2477 55.8797 95.1603 54.728C96.9907 53.6791 97.8545 52.3218 97.8545 50.6765C97.8545 48.9489 96.4149 47.3036 93.6179 45.5761C92.9392 45.1031 90.245 43.8485 85.8233 41.8125C83.0263 40.558 81.5867 39.5091 81.5867 38.6453C81.5867 36.9178 83.4171 36.054 87.0779 36.054H99.87C100.158 36.054 100.446 36.3419 100.446 36.6298V51.5402C100.446 53.7614 101.885 56.3527 106.307 56.3527H141.434C142.298 56.3527 142.689 55.7769 142.689 55.7769L154.72 39.9821C154.637 40.0849 154.843 39.7147 154.35 39.7147ZM45.3081 53.9465H41.5445C41.2566 53.9465 40.9687 53.6586 40.9687 53.3706V36.527C40.9687 36.2391 41.2566 35.9512 41.5445 35.9512H45.3081C54.5423 35.9512 59.3548 39.7147 59.3548 44.8974C59.3548 50.2035 54.4395 53.9465 45.3081 53.9465ZM129.609 54.0493H113.361C111.14 54.0493 110.564 53.3706 110.564 51.6431V42.594C110.564 42.3061 110.852 42.121 111.14 42.121H120.58C120.868 42.121 121.259 42.3061 121.444 42.5117L129.917 53.5763C129.999 53.8642 129.917 54.0493 129.609 54.0493Z" fill="#9E9E9E"/>
</svg>
