<svg width="186" height="90" viewBox="0 0 186 90" fill="none" xmlns="http://www.w3.org/2000/svg">
<rect width="186" height="90" fill="#F0F2F4"/>
<path d="M42.2704 20.0202C75.9886 20.0202 109.687 20.0202 143.405 20C144.064 20 144.284 20.081 144.284 20.8501C144.244 36.8191 144.264 52.7679 144.264 68.7369C143.864 68.7369 143.465 68.7166 143.065 68.7166C109.867 68.7166 76.6877 68.7166 43.4889 68.7369C42.5101 68.7369 42.2305 68.5345 42.2305 67.5023C42.2904 51.6749 42.2704 35.8476 42.2704 20.0202ZM44.208 22.024C43.6687 22.2871 43.8684 22.7728 43.8684 23.1776C43.8684 33.6212 43.8684 44.0851 43.8684 54.5287C43.8684 54.7716 43.7286 55.0752 44.0482 55.3585C44.0482 54.9335 44.0482 54.5692 44.0482 54.2049C44.0482 44.247 44.0482 34.3094 44.0482 24.3515C44.0482 23.9265 43.9683 23.4812 44.1481 23.0562C44.1681 23.461 44.208 23.8658 44.208 24.2503C44.208 34.3903 44.228 44.5101 44.188 54.6501C44.188 55.5002 44.4277 55.6824 45.2268 55.6824C77.1871 55.6621 109.167 55.6621 141.128 55.6824C142.027 55.6824 142.266 55.48 142.266 54.5489C142.226 43.7208 142.246 32.8724 142.266 22.0442C142.007 21.3561 141.427 21.6394 140.968 21.6394C116.219 21.6192 91.4494 21.6192 66.7001 21.6192C59.5889 21.6192 52.4977 21.6192 45.3866 21.6192C44.987 21.6192 44.4877 21.437 44.248 21.9632L44.208 22.024ZM44.8272 66.8344C44.7673 66.8546 44.7074 66.8951 44.6475 66.9153C44.4477 67.0165 44.4677 67.0975 44.6874 67.1177C44.9471 67.1379 45.2268 67.1177 45.4864 67.1177C77.287 67.1177 109.088 67.1177 140.888 67.1177C141.188 67.1177 141.487 67.1177 141.787 67.0975C142.047 67.0975 142.206 66.9558 142.286 66.6927C142.286 64.102 142.226 61.5316 142.306 58.9409C142.326 57.9492 142.126 57.6051 141.048 57.6051C108.788 57.6456 76.5479 57.6254 44.2879 57.6254C43.7486 57.8075 43.8884 58.2528 43.8884 58.6373C43.8684 60.1755 43.8884 61.7137 43.8884 63.2519C43.8884 64.3449 43.8884 65.4581 43.8884 66.551C44.0882 65.9843 44.0682 65.4176 44.0882 64.8509C44.1481 62.7864 43.9683 60.722 44.188 58.6576C44.208 61.0863 44.228 63.5151 44.228 65.9438C44.188 66.4498 44.228 66.8344 44.8272 66.8344ZM44.5875 55.8848C44.5875 55.9252 44.6075 55.9455 44.6075 55.9859C77.0473 55.9859 109.487 55.9859 141.927 55.9859C141.927 55.9455 141.927 55.9252 141.927 55.8848C109.467 55.8848 77.0273 55.8848 44.5875 55.8848ZM45.7861 57.2813C45.7861 57.3218 45.7861 57.342 45.7661 57.3825C77.6865 57.3825 109.607 57.3825 141.527 57.3825C141.527 57.342 141.527 57.3218 141.527 57.2813C109.627 57.2813 77.7064 57.2813 45.7861 57.2813Z" fill="#9E9E9E"/>
<path d="M44.814 66.8226C45.1736 66.8024 45.5331 66.7821 45.9126 66.7821C77.4735 66.7821 109.034 66.7821 140.595 66.7821C140.955 66.7821 141.314 66.8226 141.694 66.8428L141.774 66.8833L141.854 66.8428C141.993 66.8024 142.133 66.7619 142.273 66.7012C142.213 66.9643 142.053 67.106 141.774 67.106C141.474 67.106 141.174 67.1262 140.875 67.1262C109.074 67.1262 77.2737 67.1262 45.4732 67.1262C45.2135 67.1262 44.9339 67.1262 44.6742 67.1262C44.4544 67.106 44.4345 67.025 44.6342 66.9238C44.6942 66.8833 44.7541 66.8428 44.814 66.8226Z" fill="#9E9E9E"/>
<path d="M142.284 22.0544C142.084 22.0139 141.865 21.9734 141.665 21.9329C141.265 21.8925 140.886 21.8317 140.486 21.8317C109.065 21.8317 77.6842 21.8317 46.2831 21.8317C45.8836 21.8317 45.5041 21.8925 45.1046 21.9127C44.8249 21.9329 44.5453 21.9532 44.2656 21.9734C44.5253 21.4472 45.0047 21.6293 45.4042 21.6293C52.5154 21.6293 59.6066 21.6293 66.7178 21.6293C91.4671 21.6293 116.236 21.6293 140.986 21.6496C141.425 21.6496 142.024 21.3662 142.284 22.0544Z" fill="#9E9E9E"/>
<path d="M44.5703 55.8823C77.0101 55.8823 109.47 55.8823 141.91 55.8823C141.91 55.9228 141.91 55.943 141.91 55.9835C109.47 55.9835 77.03 55.9835 44.5903 55.9835C44.5703 55.943 44.5703 55.9228 44.5703 55.8823Z" fill="#9E9E9E"/>
<path d="M45.7934 57.2822C77.7138 57.2822 109.614 57.2822 141.535 57.2822C141.535 57.3227 141.535 57.3429 141.535 57.3834C109.614 57.3834 77.6938 57.3834 45.7734 57.3834C45.7934 57.3632 45.7934 57.3227 45.7934 57.2822Z" fill="#9E9E9E"/>
<path d="M44.2162 22.0239C44.1963 22.368 44.1763 22.7121 44.1563 23.0764C43.9765 23.5014 44.0564 23.9467 44.0564 24.3717C44.0564 34.3296 44.0564 44.2672 44.0564 54.2251C44.0564 54.5894 44.0564 54.9537 44.0564 55.3787C43.7169 55.0954 43.8767 54.7918 43.8767 54.5489C43.8767 44.1053 43.8567 33.6414 43.8767 23.1978C43.8567 22.7728 43.6769 22.2668 44.2162 22.0239Z" fill="#9E9E9E"/>
<path d="M44.2702 57.6646C44.2303 58.0086 44.1903 58.3527 44.1703 58.6968C43.9506 60.7612 44.1304 62.8256 44.0705 64.8901C44.0505 65.4568 44.0705 66.0235 43.8707 66.5902C43.8707 65.4973 43.8707 64.3841 43.8707 63.2911C43.8707 61.7529 43.8707 60.2147 43.8707 58.6765C43.8907 58.292 43.7309 57.8265 44.2702 57.6646Z" fill="#9E9E9E"/>
<path d="M100.059 37.1816C100.199 36.959 100.02 36.7363 100.02 36.5137C100.079 36.4732 100.159 36.4328 100.219 36.3923C102.177 36.3923 104.134 36.4328 106.092 36.3923C106.731 36.3923 106.931 36.5744 106.931 37.2423C106.891 39.5901 106.931 41.9379 106.911 44.2655C106.891 44.9334 107.091 45.156 107.75 45.0953C108.609 45.0346 109.428 44.9334 110.247 44.6298C112.364 43.8404 113.982 42.5249 114.302 40.1366C114.581 37.9507 114.122 35.9268 112.244 34.51C111.805 34.1659 111.326 33.8421 110.726 33.8421C110.626 33.8218 110.507 33.7814 110.407 33.7611C108.169 33.5385 105.932 33.7004 103.695 33.6599C102.616 33.6397 101.518 33.6802 100.439 33.7004C100.379 33.7004 100.299 33.6802 100.239 33.6802C100.199 33.6195 100.139 33.579 100.099 33.5183C100.099 33.3563 100.079 33.1944 100.079 33.0123C100.119 31.3526 100.159 29.693 100.179 28.0333C103.895 28.0333 107.61 27.9726 111.326 28.0333C117.058 28.1345 120.554 32.648 121.113 37.7483C121.413 40.5414 121.013 43.2535 119.515 45.662C117.797 48.4146 115.081 49.5682 112.085 50.2159C110.826 50.479 109.528 50.5802 108.229 50.5802C105.573 50.56 102.916 50.5802 100.259 50.5802C100.179 50.5195 100.119 50.479 100.04 50.4183C100.04 50.1349 100.04 49.8516 100.04 49.5682C100.219 45.4394 100.139 41.3105 100.059 37.1816Z" fill="#9E9E9E"/>
<path d="M129.734 38.2348C129.754 38.8622 129.714 39.5099 129.794 40.1373C130.113 42.6268 131.412 43.9626 133.968 44.59C135.267 44.9138 136.585 44.9138 137.923 44.8734C138.383 44.8734 138.663 44.9138 138.643 45.5008C138.603 46.9783 138.623 48.4558 138.623 49.913C138.623 50.2571 138.663 50.5809 138.143 50.5809C136.026 50.5404 133.888 50.7226 131.791 50.4797C127.117 49.913 123.941 47.039 122.842 42.222C121.464 36.2311 123.641 30.8676 129.913 28.7222C130.093 28.6615 130.293 28.6412 130.493 28.621C130.672 28.7829 130.872 28.7222 131.052 28.6615C133.129 28.1352 135.247 28.2769 137.364 28.2364C138.043 28.2162 138.323 28.4793 138.303 29.1674C138.263 30.1592 138.283 31.1712 138.303 32.1831C138.323 33.4582 138.303 33.3975 137.025 33.519C135.986 33.6202 134.847 33.3166 133.948 34.1666C133.529 34.0654 133.149 34.0857 132.89 34.5309L132.83 34.5512C132.63 34.5309 132.45 34.5917 132.35 34.794L132.37 34.7738C132.27 34.8345 132.191 34.875 132.091 34.9357L132.031 34.956C131.771 34.9762 131.611 35.0976 131.511 35.3405H131.531C131.451 35.4012 131.392 35.462 131.312 35.5227H131.292C131.132 35.5429 131.012 35.6239 130.992 35.806C130.972 35.7858 130.952 35.7655 130.932 35.7453C130.952 35.7655 130.972 35.7858 130.992 35.806C130.932 35.8667 130.872 35.9275 130.792 36.0084C130.613 36.0489 130.533 36.1906 130.513 36.3525C129.714 36.737 129.674 37.4657 129.734 38.2348Z" fill="#9E9E9E"/>
<path d="M50.2325 36.5394C54.4872 36.5394 58.7419 36.5394 62.9767 36.5394C63.7956 36.7216 64.0553 37.2276 63.9954 38.0574C63.9355 39.0289 63.9554 40.0004 63.9954 40.9719C64.0154 41.5386 63.9554 41.8625 63.2164 41.8827C60.8793 41.9434 58.5422 42.0649 56.2051 41.8017C55.7456 41.741 55.2263 41.6398 55.2263 42.3887C55.2263 42.4292 55.2463 42.4494 55.2463 42.4899C55.4061 43.259 54.8867 44.3317 55.5059 44.7567C56.0652 45.1413 57.044 44.8782 57.8231 44.8782C59.9404 44.8984 62.0578 44.9186 64.1752 44.9389C63.9155 46.2342 63.9954 47.5295 63.9954 48.8451C63.9954 50.1607 63.9555 50.2214 62.6571 50.2214C58.4423 50.2214 54.2275 50.2214 50.0127 50.2214C49.5533 50.2214 49.0739 50.1809 48.6544 50.4238C48.6345 45.9711 48.6145 41.5386 48.5945 37.0859C48.5945 36.7823 48.5546 36.4383 49.0539 36.5597C49.4534 36.8026 49.833 36.8026 50.2325 36.5394Z" fill="#9E9E9E"/>
<path d="M99.0248 37.7248C98.885 38.7975 98.885 39.8702 99.0248 40.9429C98.9249 41.0846 98.9249 41.2061 99.0248 41.3477C98.9649 41.6108 98.925 41.874 98.865 42.1573C98.7252 42.1573 98.6053 42.1776 98.4655 42.1776C95.669 42.1776 92.8924 42.1776 90.0959 42.1776C89.9561 42.1573 89.8962 42.1978 89.9361 42.3597C89.9361 43.1086 89.9361 43.8372 89.9361 44.5861C89.9161 44.7277 89.9361 44.8289 90.0959 44.8087C92.7326 44.9909 95.3893 44.8694 98.0261 44.8694C98.7851 44.8694 98.9849 45.0718 98.9449 45.8207C98.865 47.3589 98.885 48.8971 98.865 50.4353C98.2857 50.2734 97.7065 50.2329 97.1072 50.2329C92.8725 50.2329 88.6377 50.2329 84.403 50.2329C83.9435 50.2329 83.4641 50.2734 83.1445 49.8281C83.1445 49.6864 83.1445 49.565 83.1445 49.4233C83.2244 49.3626 83.3243 49.2816 83.4042 49.2209C83.3243 49.1602 83.2244 49.0792 83.1445 49.0185C83.1445 47.4803 83.1445 45.9219 83.1445 44.3837C83.5241 43.5134 83.2644 42.6026 83.3043 41.712C84.7425 39.9714 86.1808 38.2308 87.599 36.5105C87.7588 36.5105 87.9386 36.4902 88.0984 36.4902C91.4942 36.4902 94.87 36.4902 98.2658 36.4902C98.4655 36.4902 98.6653 36.5105 98.865 36.5105C98.925 36.8545 98.9649 37.1986 99.0248 37.5427C99.0049 37.5629 98.9849 37.5832 98.9849 37.6034C98.9849 37.6439 99.0049 37.6844 99.0248 37.7248Z" fill="#9E9E9E"/>
<path d="M69.342 32.6868C70.4806 31.2701 71.6391 29.8331 72.7577 28.3961C72.9575 28.1329 73.1772 28.0317 73.4968 28.0317C75.6741 28.052 77.8514 28.0317 80.2485 28.0317C78.8702 29.7723 77.5918 31.351 76.3133 32.95C74.7752 34.8727 73.2372 36.8157 71.6791 38.7182C71.3195 39.1433 71.3195 39.3659 71.739 39.7505C72.3383 40.3172 72.8776 40.9648 73.4369 41.572C72.2184 43.3733 70.92 45.1139 69.5417 46.7938C68.3432 45.458 67.1247 44.1424 65.9262 42.8066C65.9262 40.8231 65.9262 38.8397 65.9062 36.8764V36.8967C65.9662 36.8157 66.0261 36.7348 66.086 36.6538C66.146 36.5728 66.2059 36.5121 66.2658 36.4312L66.3257 36.5121L66.2658 36.4514C66.4456 36.4109 66.5255 36.2895 66.5455 36.1073C66.6054 36.0264 66.6653 35.9454 66.7252 35.8645L66.7053 35.8847C66.925 35.8037 67.0648 35.6823 67.0648 35.4394L67.0448 35.4597C67.1247 35.3787 67.2046 35.2775 67.2845 35.1965V35.1358L67.3245 35.1156C67.7639 35.0549 67.9038 34.7513 67.9237 34.3667L67.9437 34.3262C68.1634 34.2655 68.2833 34.1238 68.3033 33.9012C68.3632 33.8203 68.4231 33.7393 68.4831 33.6786L68.4631 33.6988C68.523 33.6179 68.6029 33.5369 68.6628 33.4762L68.6429 33.4964C68.7028 33.4155 68.7627 33.3345 68.8426 33.2738C68.9025 33.1928 68.9625 33.1321 69.0424 33.0512L69.0823 33.0916L69.0424 33.0512C69.2421 32.9904 69.322 32.8488 69.342 32.6868Z" fill="#9E9E9E"/>
<path d="M48.655 33.4964C48.6351 31.857 48.6351 30.2176 48.5951 28.5782C48.5751 28.1127 48.7749 28.0317 49.1744 28.0317C54.1682 28.052 59.182 28.0722 64.1758 28.0722C63.7763 29.489 64.036 30.926 63.996 32.363C63.976 33.0714 63.7363 33.294 63.0572 33.294C58.2631 33.3547 53.4491 33.1119 48.655 33.4964Z" fill="#9E9E9E"/>
<path d="M69.5568 46.8274C70.9351 45.1475 72.2334 43.4069 73.4519 41.6056C76.4682 37.6993 79.4245 33.7324 82.301 29.7047C82.4208 29.563 82.5207 29.4213 82.6405 29.2797C82.7204 29.1582 82.8203 29.0165 82.9002 28.8951C83.0201 28.4701 83.3197 28.2474 83.6992 28.0855C83.7591 28.0653 83.7991 28.0855 83.859 28.1058C84.1986 28.5713 84.1187 29.0975 84.1187 29.6237C84.0787 30.9798 84.0388 32.3358 83.9988 33.6919C83.9589 34.0967 83.839 34.5015 83.9988 35.0277C84.5581 34.5419 85.0176 34.1372 85.477 33.7324C87.7742 31.9108 90.0513 30.069 92.2087 28.0855C92.2286 28.0653 92.2686 28.045 92.2886 28.0248C92.4084 28.0653 92.4683 28.0046 92.4883 27.8831C92.5482 27.8224 92.6281 27.7819 92.6881 27.7212C92.768 27.6605 92.8279 27.62 92.9078 27.5593C93.0276 27.4581 93.1475 27.3569 93.2673 27.2557C93.4072 27.1343 93.567 27.0128 93.7068 26.8914C94.1662 26.5271 94.6057 26.1628 95.0651 25.7985C95.185 25.7782 95.2649 25.7175 95.2649 25.5758C95.3248 25.3532 95.2449 25.2925 95.0451 25.3937L95.0651 25.4139C95.7243 25.7175 95.8641 24.9686 96.2636 24.7865C96.3036 24.746 96.3635 24.7055 96.4035 24.665C96.5433 24.665 96.6831 24.665 96.803 24.6853C96.8829 24.8067 96.9827 24.9484 97.0626 25.0698C96.8629 25.3329 96.6432 25.6163 96.4434 25.8794C96.2636 25.9199 96.2037 26.0616 96.1638 26.2235L96.1837 26.2032C96.0839 26.3044 96.0039 26.3854 95.9041 26.4866C95.5845 26.8712 95.2649 27.2759 94.9453 27.6605C94.7655 27.7415 94.6656 27.8629 94.6257 28.0653C93.2074 29.7452 91.8092 31.4251 90.3909 33.1252C90.1512 33.2466 90.0114 33.449 90.0314 33.7324C89.9315 33.7931 89.8516 33.8538 89.7517 33.9145C89.5919 33.9955 89.4721 34.1169 89.4321 34.2991C89.3722 34.38 89.2923 34.461 89.2323 34.5217C88.7729 35.0682 88.3335 35.6349 87.874 36.1814C87.7742 36.3028 87.6543 36.404 87.5544 36.5254C86.1162 38.266 84.678 40.0066 83.2598 41.727C83.1799 41.808 83.1 41.8889 83.04 41.9699C82.9202 42.1115 82.8203 42.2532 82.7005 42.3747C82.6405 42.4556 82.5606 42.5366 82.5007 42.6175C82.4008 42.7187 82.3209 42.8402 82.2211 42.9414L82.241 42.9211C82.1811 43.0021 82.1212 43.083 82.0612 43.164C81.7017 43.3866 81.482 43.7307 81.2622 44.095C81.0825 44.2165 80.9227 44.3581 80.8827 44.5808C80.8028 44.6617 80.7229 44.7427 80.643 44.8439C80.3234 45.2487 79.9838 45.6535 79.6642 46.0583C79.5044 46.1595 79.3446 46.2809 79.3047 46.4833C79.2647 46.5238 79.2248 46.5643 79.1848 46.625L79.1249 46.6857C78.3459 46.7666 78.4457 46.3011 78.5456 45.7951C78.9052 44.2367 79.2447 42.6783 79.5843 41.0996C79.6642 40.7353 79.844 40.3507 79.5244 39.865C78.1261 41.2008 76.7878 42.4759 75.4495 43.751C73.8714 45.2082 72.2934 46.6654 70.7353 48.1025C69.6766 49.0537 68.6179 50.0252 67.5592 50.9765C67.3395 51.1789 67.1797 51.6241 66.7802 51.2396C66.3807 50.855 66.8401 50.6526 66.9999 50.4098C67.8389 49.1954 68.6978 48.0013 69.5568 46.8274ZM70.5755 46.7059C71.1348 46.9488 71.3146 46.544 71.5743 46.3214C74.3109 43.7914 77.0475 41.2615 79.7841 38.7315C80.0238 38.5089 80.2036 38.1648 80.6031 38.4279C80.9626 38.6506 80.7629 38.9744 80.7029 39.2375C80.3833 40.7353 80.0438 42.2532 79.6842 43.751C79.6243 44.0141 79.3047 44.3581 79.6243 44.5403C79.9439 44.7225 80.1436 44.3177 80.3234 44.095C84.3584 39.2578 88.3934 34.4003 92.4084 29.5428C92.5882 29.3201 92.9477 29.138 92.708 28.6522C89.532 31.2834 86.4158 33.874 83.2398 36.4849C83.2398 34.1574 83.2398 32.012 83.2398 29.6642C78.9651 35.4325 74.7903 41.0388 70.5755 46.7059Z" fill="#9E9E9E"/>
<path d="M70.7188 48.0781C72.2968 46.6208 73.8748 45.1636 75.4329 43.7266C76.5915 44.9409 77.75 46.1553 78.9086 47.3697C78.9685 47.4911 79.0484 47.6328 79.1083 47.7542C79.1683 47.8352 79.2482 47.9162 79.3081 47.9971C79.368 48.0578 79.4279 48.1185 79.4879 48.1793C79.5678 48.24 79.6277 48.3209 79.7076 48.3817L79.6876 48.3614C79.7475 48.4221 79.8274 48.5031 79.8874 48.5638V48.5436C79.9473 48.6245 80.0272 48.6853 80.0871 48.7662C80.1071 48.9281 80.187 49.0698 80.3668 49.09L80.3868 49.1103C80.4467 49.171 80.5066 49.2317 80.5665 49.2924L80.5865 49.3127C80.6464 49.3734 80.7064 49.4341 80.7663 49.4746L80.8062 49.5151C80.8662 49.5758 80.9261 49.6163 80.986 49.677L81.026 49.7175C80.7863 50.2639 80.2869 50.183 79.8274 50.2032C77.5103 50.2437 75.1932 50.102 72.8761 50.2842L72.8561 50.2639C72.8561 50.102 72.7562 50.0211 72.6164 49.9806C72.5565 49.9604 72.5165 49.9199 72.5165 49.8592C72.4366 49.7782 72.3567 49.6972 72.2768 49.6163C71.7375 49.1103 71.2381 48.6043 70.7188 48.0781Z" fill="#9E9E9E"/>
<path d="M90.3984 33.0617C91.8167 31.3818 93.2149 29.7019 94.6332 28.0018C95.2324 28.0018 95.8317 28.0018 96.431 27.9815C96.4709 27.9815 96.4909 28.0018 96.5308 28.0018C97.2899 28.0422 98.3286 27.7589 98.7281 28.1637C99.2475 28.6899 98.8679 29.7424 98.8879 30.5722C98.9079 31.5437 98.848 32.5152 98.848 33.4867C98.788 33.5272 98.7081 33.5879 98.6482 33.6284C98.5883 33.6486 98.5084 33.6891 98.4484 33.7093C98.3086 33.6891 98.1888 33.6486 98.0489 33.6284C97.8492 33.1831 97.4497 33.3045 97.1101 33.2843C95.3922 33.2843 93.6744 33.2843 91.9765 33.2843C91.4172 33.2843 90.8778 33.345 90.3984 33.0617Z" fill="#9E9E9E"/>
<path d="M92.2325 28.0693C90.0552 30.0528 87.778 31.8946 85.5008 33.7162C85.0014 33.6959 84.522 33.6959 84.0226 33.6757C84.0626 32.3196 84.1025 30.9636 84.1425 29.6075C84.1625 29.0813 84.2224 28.5551 83.8828 28.0896C86.6594 28.0896 89.4559 28.0693 92.2325 28.0693Z" fill="#9E9E9E"/>
<path d="M45.082 21.9013C45.4815 21.8608 45.8611 21.8203 46.2606 21.8203C77.6616 21.8203 109.063 21.8203 140.444 21.8203C140.843 21.8203 141.223 21.881 141.622 21.9215C141.283 21.9417 140.963 21.9822 140.643 21.9822C109.182 21.9822 77.7215 21.9822 46.2606 21.9822C45.8611 21.962 45.4616 21.9215 45.082 21.9013Z" fill="#9E9E9E"/>
<path d="M48.6484 50.3946C49.0879 50.1517 49.5473 50.1922 50.0068 50.1922C54.2215 50.1922 58.4363 50.1922 62.6511 50.1922C63.9295 50.1922 63.9694 50.1517 63.9894 48.8159C63.9894 47.5206 63.9095 46.205 64.1692 44.9097C64.6286 45.2335 64.349 45.6788 64.349 46.0633C64.3889 47.3384 64.349 48.5933 64.3689 49.8684C64.3889 50.3541 64.2691 50.5767 63.7097 50.5767C58.8158 50.5565 53.9219 50.5565 49.028 50.5565C48.8881 50.5767 48.7084 50.6172 48.6484 50.3946Z" fill="#9E9E9E"/>
<path d="M48.6484 33.4997C53.4425 33.1151 58.2565 33.358 63.0705 33.3175C63.7497 33.3175 63.9894 33.0746 64.0094 32.3865C64.0493 30.9495 63.7697 29.5125 64.1892 28.0957C64.4688 28.1767 64.3689 28.3993 64.3689 28.5815C64.3689 30.0589 64.3689 31.5162 64.3689 32.9937C64.3689 33.3782 64.4089 33.7021 63.8296 33.7021C58.8358 33.6818 53.822 33.6818 48.8282 33.6818C48.7683 33.6818 48.7084 33.5604 48.6484 33.4997Z" fill="#9E9E9E"/>
<path d="M83.0921 49.8169C83.4117 50.2622 83.8911 50.2217 84.3505 50.2217C88.5852 50.2217 92.82 50.2217 97.0547 50.2217C97.654 50.2217 98.2533 50.2622 98.8126 50.4241C98.8525 50.4443 98.8925 50.4443 98.9324 50.4443C98.8925 50.505 98.8325 50.5658 98.7926 50.6265C93.5591 50.6265 88.3256 50.6265 83.0921 50.6265C83.0521 50.4241 83.0321 50.2419 82.9922 50.0395C83.0521 49.9586 83.0721 49.8776 83.0921 49.8169Z" fill="#9E9E9E"/>
<path d="M133.948 34.1658C134.847 33.3158 135.985 33.6194 137.024 33.5182C138.283 33.3967 138.322 33.4574 138.302 32.1824C138.283 31.1704 138.263 30.1786 138.302 29.1667C138.322 28.4583 138.063 28.2154 137.364 28.2356C135.246 28.2761 133.129 28.1142 131.051 28.6607C130.872 28.7011 130.672 28.7821 130.492 28.6202C131.471 28.1749 132.55 28.094 133.588 28.0535C135.047 28.013 136.505 28.0535 137.963 28.0332C138.482 28.013 138.642 28.1952 138.642 28.7214C138.622 30.1989 138.602 31.6764 138.642 33.1538C138.662 33.761 138.422 33.9027 137.883 33.8622C136.585 33.8015 135.266 33.923 133.948 34.1658Z" fill="#9E9E9E"/>
<path d="M55.2422 42.378C55.2422 41.6292 55.7416 41.7506 56.221 41.7911C58.5581 42.0542 60.8952 41.9328 63.2323 41.8721C63.9714 41.8518 64.0113 41.528 64.0113 40.9613C63.9913 39.9898 63.9514 39.0183 64.0113 38.0468C64.0712 37.2169 63.8116 36.711 62.9926 36.5288C64.3709 36.4276 64.3709 36.4276 64.3709 37.8039C64.3709 38.998 64.3509 40.2124 64.3908 41.4065C64.4108 41.9935 64.2111 42.1352 63.6518 42.1352C61.1748 42.1149 58.6979 42.1149 56.221 42.1352C55.9014 42.1554 55.5019 41.9732 55.2422 42.378Z" fill="#9E9E9E"/>
<path d="M72.8555 50.3011C75.1726 50.1392 77.4897 50.2606 79.8068 50.2201C80.2663 50.2201 80.7657 50.3011 81.0054 49.7344C81.265 49.9368 81.5247 50.1392 81.6645 50.5844C78.8281 50.5844 76.0315 50.5844 73.235 50.5844C73.0552 50.5844 72.9154 50.463 72.8555 50.3011Z" fill="#9E9E9E"/>
<path d="M90.3952 33.079C90.8746 33.3624 91.4139 33.3017 91.9332 33.3017C93.6511 33.3017 95.369 33.3017 97.0669 33.3017C97.4065 33.3017 97.8259 33.1802 98.0057 33.6457C95.8883 33.666 93.751 33.7065 91.6336 33.7267C91.3739 33.7267 91.1143 33.7267 90.8346 33.7267C90.6948 33.7267 90.555 33.7267 90.4351 33.7267C90.2953 33.7065 90.1555 33.6862 90.0156 33.666C90.0156 33.4029 90.1555 33.2005 90.3952 33.079Z" fill="#9E9E9E"/>
<path d="M65.9212 36.8784C65.9212 38.8619 65.9212 40.8454 65.9411 42.8086C65.6815 42.667 65.6016 42.4241 65.6016 42.1407C65.6016 40.6025 65.6016 39.0846 65.6016 37.5463C65.6016 37.263 65.6615 37.0201 65.9212 36.8784Z" fill="#9E9E9E"/>
<path d="M129.749 38.2463C129.689 37.4772 129.729 36.7485 130.548 36.3438C130.289 36.9712 130.009 37.6188 129.749 38.2463Z" fill="#9E9E9E"/>
<path d="M83.0156 41.9323C83.0955 41.8514 83.1754 41.7704 83.2354 41.6895C83.1954 42.58 83.4351 43.4908 83.0756 44.3611C83.0556 44.3004 83.0356 44.2194 83.0156 44.1587C83.0156 43.4098 83.0156 42.6812 83.0156 41.9323Z" fill="#9E9E9E"/>
<path d="M132.887 34.5407C133.126 34.0955 133.506 34.0955 133.945 34.1764C133.586 34.2979 133.246 34.4193 132.887 34.5407Z" fill="#9E9E9E"/>
<path d="M68.0094 34.3579C67.9894 34.7627 67.8496 35.0662 67.4102 35.1067C67.6099 34.8639 67.8097 34.621 68.0094 34.3579Z" fill="#9E9E9E"/>
<path d="M50.2298 36.5347C49.8303 36.7978 49.4308 36.7978 49.0312 36.5347C49.4507 36.5347 49.8502 36.5347 50.2298 36.5347Z" fill="#9E9E9E"/>
<path d="M83.0898 49.0088C83.1697 49.0695 83.2696 49.1505 83.3495 49.2112C83.2696 49.2719 83.1697 49.3529 83.0898 49.4136C83.0898 49.2719 83.0898 49.1505 83.0898 49.0088Z" fill="#9E9E9E"/>
<path d="M68.383 33.9062C68.363 34.1289 68.2432 34.2706 68.0234 34.3313C68.1433 34.1896 68.2631 34.0479 68.383 33.9062Z" fill="#9E9E9E"/>
<path d="M131.512 35.3279C131.612 35.085 131.791 34.9636 132.031 34.9434C131.871 35.0648 131.691 35.2065 131.512 35.3279Z" fill="#9E9E9E"/>
<path d="M67.1096 35.4465C67.0896 35.6894 66.9498 35.831 66.75 35.8918C66.8499 35.7501 66.9897 35.5882 67.1096 35.4465Z" fill="#9E9E9E"/>
<path d="M132.379 34.7854C132.479 34.583 132.659 34.5425 132.858 34.5425C132.699 34.6234 132.539 34.7044 132.379 34.7854Z" fill="#9E9E9E"/>
<path d="M69.3695 32.71C69.3495 32.8719 69.2696 33.0136 69.0898 33.054C69.1298 32.9124 69.1897 32.7707 69.3695 32.71Z" fill="#9E9E9E"/>
<path d="M72.625 50.001C72.7648 50.0415 72.8647 50.1224 72.8647 50.2843C72.7848 50.1831 72.7049 50.1022 72.625 50.001Z" fill="#9E9E9E"/>
<path d="M80.3929 49.1095C80.2132 49.0892 80.1333 48.9678 80.1133 48.7856C80.2132 48.8868 80.313 49.0083 80.3929 49.1095Z" fill="#9E9E9E"/>
<path d="M131 35.8063C131.02 35.6241 131.14 35.5432 131.3 35.5229C131.2 35.6039 131.1 35.7051 131 35.8063Z" fill="#9E9E9E"/>
<path d="M130.547 36.3504C130.567 36.1683 130.627 36.0468 130.827 36.0063C130.727 36.1278 130.627 36.2492 130.547 36.3504Z" fill="#9E9E9E"/>
<path d="M66.5687 36.0962C66.5487 36.2783 66.4688 36.3998 66.2891 36.4403C66.3889 36.3188 66.4688 36.2176 66.5687 36.0962Z" fill="#9E9E9E"/>
<path d="M66.2657 36.458C66.2058 36.539 66.1459 36.5997 66.0859 36.6806C66.1459 36.5997 66.2058 36.5187 66.2657 36.458Z" fill="#9E9E9E"/>
<path d="M66.086 36.6621C66.0261 36.7431 65.9662 36.824 65.9062 36.905C65.9662 36.824 66.0261 36.7431 66.086 36.6621Z" fill="#9E9E9E"/>
<path d="M66.7774 35.8789C66.7175 35.9599 66.6576 36.0408 66.5977 36.1218C66.6576 36.0408 66.7175 35.9599 66.7774 35.8789Z" fill="#9E9E9E"/>
<path d="M130.801 35.9856C130.861 35.9249 130.921 35.8642 131.001 35.7832C130.941 35.8642 130.861 35.9249 130.801 35.9856Z" fill="#9E9E9E"/>
<path d="M80.5704 49.2925C80.5105 49.2318 80.4506 49.1711 80.3906 49.1104C80.4705 49.1711 80.5105 49.2318 80.5704 49.2925Z" fill="#9E9E9E"/>
<path d="M67.3452 35.1982C67.2653 35.2792 67.1854 35.3804 67.1055 35.4614C67.1854 35.3804 67.2653 35.2994 67.3452 35.1982Z" fill="#9E9E9E"/>
<path d="M80.1333 48.7798C80.0734 48.6988 79.9935 48.6381 79.9336 48.5571C80.0135 48.6381 80.0734 48.719 80.1333 48.7798Z" fill="#9E9E9E"/>
<path d="M132.121 34.9144C132.221 34.8536 132.301 34.8132 132.401 34.7524C132.301 34.8132 132.221 34.8536 132.121 34.9144Z" fill="#9E9E9E"/>
<path d="M80.7735 49.4896C80.7136 49.4288 80.6537 49.3681 80.5938 49.3276C80.6537 49.3884 80.7136 49.4288 80.7735 49.4896Z" fill="#9E9E9E"/>
<path d="M79.9302 48.5881C79.8703 48.5274 79.7904 48.4465 79.7305 48.3857C79.7904 48.4465 79.8503 48.5274 79.9302 48.5881Z" fill="#9E9E9E"/>
<path d="M79.7236 48.384C79.6437 48.3233 79.5838 48.2424 79.5039 48.1816C79.5838 48.2424 79.6437 48.3233 79.7236 48.384Z" fill="#9E9E9E"/>
<path d="M79.3208 48.0041C79.2609 47.9231 79.181 47.8422 79.1211 47.7612C79.181 47.8422 79.2409 47.9231 79.3208 48.0041Z" fill="#9E9E9E"/>
<path d="M68.5274 33.6704C68.4675 33.7514 68.4076 33.8323 68.3477 33.893C68.4076 33.8323 68.4675 33.7514 68.5274 33.6704Z" fill="#9E9E9E"/>
<path d="M98.8677 33.7014C98.8078 33.6812 98.7279 33.6609 98.668 33.6407C98.7279 33.6002 98.8078 33.5395 98.8677 33.499C98.8677 33.5597 98.8677 33.6407 98.8677 33.7014Z" fill="#9E9E9E"/>
<path d="M68.6998 33.4736C68.6398 33.5546 68.5599 33.6355 68.5 33.6963C68.5799 33.6153 68.6398 33.5546 68.6998 33.4736Z" fill="#9E9E9E"/>
<path d="M68.8833 33.2314C68.8234 33.3124 68.7635 33.3934 68.6836 33.4541C68.7635 33.3934 68.8234 33.3124 68.8833 33.2314Z" fill="#9E9E9E"/>
<path d="M69.0826 33.0469C69.0226 33.1278 68.9627 33.1886 68.8828 33.2695C68.9627 33.1886 69.0226 33.1076 69.0826 33.0469Z" fill="#9E9E9E"/>
<path d="M82.698 42.8677L82.6771 42.8888L82.6562 42.8677H82.698Z" fill="#9E9E9E"/>
<path d="M80.9845 49.6922C80.9245 49.6315 80.8646 49.591 80.8047 49.5303C80.8646 49.591 80.9245 49.6315 80.9845 49.6922Z" fill="#9E9E9E"/>
<path d="M72.3008 49.6452C72.3807 49.7262 72.4606 49.8072 72.5405 49.8881C72.4606 49.8072 72.3807 49.7262 72.3008 49.6452Z" fill="#9E9E9E"/>
<path d="M131.336 35.501C131.416 35.4403 131.476 35.3796 131.556 35.3188C131.476 35.3796 131.396 35.4403 131.336 35.501Z" fill="#9E9E9E"/>
<path d="M126.724 61.9819C126.724 62.3462 126.704 62.7105 126.724 63.0748C126.744 63.3784 126.684 63.5808 126.305 63.5808C125.925 63.5808 125.785 63.4189 125.785 63.0343C125.805 62.2045 125.785 61.3747 125.805 60.5246C125.805 60.2615 125.665 59.8972 126.145 59.8365C126.504 59.796 126.764 59.8972 126.944 60.2615C127.183 60.727 127.463 61.152 127.903 61.5568C127.903 61.1318 127.923 60.727 127.903 60.302C127.883 59.9579 128.022 59.8365 128.362 59.8365C128.722 59.8365 128.821 59.9984 128.821 60.3222C128.821 61.1925 128.821 62.0628 128.821 62.9331C128.821 63.176 128.941 63.5201 128.542 63.5606C128.222 63.601 127.903 63.6415 127.703 63.2367C127.483 62.7712 127.183 62.3462 126.924 61.9009C126.844 61.9414 126.784 61.9616 126.724 61.9819Z" fill="#9E9E9E"/>
<path d="M93.4014 61.7426C93.4014 61.601 93.3614 61.4593 93.4014 61.3378C93.6211 60.8521 92.7821 59.9008 94.0406 59.8603C95.6186 59.7996 96.1579 60.1639 96.2778 61.4188C96.4376 63.1392 95.4987 63.9487 93.7609 63.5844C93.4013 63.5035 93.3614 63.3213 93.3814 63.038C93.4013 62.6129 93.3814 62.1677 93.4014 61.7426ZM94.2603 61.7629C94.5799 62.026 93.9607 62.7344 94.7597 62.7141C95.3589 62.7141 95.299 62.1474 95.299 61.7224C95.299 61.2974 95.3389 60.7307 94.7397 60.7307C93.9607 60.7307 94.52 61.4188 94.2603 61.7629Z" fill="#9E9E9E"/>
<path d="M77.9086 63.4377C76.4504 64.1057 76.6901 62.4055 75.951 62.1222C75.6714 62.446 75.8312 62.7901 75.8112 63.0937C75.7912 63.4175 75.7313 63.6199 75.3717 63.5794C75.0721 63.5592 74.8524 63.5187 74.8724 63.1342C74.8923 62.1627 74.8724 61.1912 74.8724 60.2197C74.8724 60.1185 74.8724 59.997 74.9323 59.9363C75.0921 59.7339 77.1096 59.8351 77.3493 60.078C77.8686 60.584 77.8487 61.1709 77.3892 61.6769C77.1495 61.94 77.1495 62.0412 77.3493 62.3043C77.569 62.6484 77.7088 63.033 77.9086 63.4377ZM76.1907 61.3733C76.4104 61.3328 76.6701 61.2924 76.6901 61.009C76.7101 60.7054 76.4704 60.6447 76.2307 60.6244C75.971 60.6042 75.7912 60.6447 75.7712 60.9685C75.7912 61.2923 75.9111 61.3935 76.1907 61.3733Z" fill="#9E9E9E"/>
<path d="M51.1065 61.1834C51.7457 60.3738 52.1052 59.4832 53.1839 59.9285C53.1839 59.9488 53.2239 60.0499 53.2039 60.0702C52.1452 60.9202 52.325 61.831 53.0241 62.8025C53.144 62.9847 53.5634 63.3288 53.144 63.5109C52.7844 63.6728 52.285 63.7336 52.0653 63.1668C51.9454 62.8228 51.7657 62.4989 51.6258 62.1751C51.2463 62.3977 51.0466 62.6811 51.0865 63.0859C51.1265 63.5109 50.9067 63.5716 50.5472 63.5919C50.1277 63.5919 50.0878 63.3692 50.0878 63.0252C50.1077 62.2156 50.0878 61.4262 50.0878 60.6167C50.0878 60.2726 49.9479 59.8678 50.5672 59.8476C51.1664 59.8476 51.0665 60.2119 51.0665 60.5762C51.0665 60.6976 51.0865 60.8191 51.1065 61.1834Z" fill="#9E9E9E"/>
<path d="M107.934 63.5397C107.494 63.56 107.394 63.479 106.036 62.1635C105.796 62.4468 105.916 62.8111 105.916 63.1147C105.916 63.4588 105.776 63.5802 105.437 63.5802C105.137 63.5802 104.938 63.5195 104.938 63.135C104.957 62.2039 104.938 61.2527 104.957 60.3216C104.957 60.2002 104.957 60.0383 105.037 59.9573C105.197 59.7347 107.175 59.8157 107.434 60.0788C107.954 60.5848 107.954 61.1515 107.474 61.6777C107.255 61.9206 107.195 62.042 107.414 62.3051C107.694 62.6492 107.854 63.054 107.934 63.5397ZM106.775 61.0705C106.795 60.686 106.555 60.6455 106.316 60.6252C106.096 60.605 105.916 60.6657 105.916 60.9288C105.916 61.192 105.936 61.4146 106.276 61.3741C106.496 61.3539 106.735 61.3134 106.775 61.0705Z" fill="#9E9E9E"/>
<path d="M46.8438 61.7018C46.8438 59.6779 46.9436 59.5969 49.041 59.86C49.2807 59.9005 49.4805 59.8802 49.5005 60.2243C49.5005 60.5886 49.3207 60.6291 49.0011 60.6898C48.6215 60.7506 47.9424 60.4065 47.9224 60.9529C47.9024 61.6006 48.5816 61.1756 48.9611 61.2565C49.2208 61.3173 49.4006 61.3577 49.3806 61.6816C49.3606 61.9244 49.2208 62.0256 48.9811 62.0256C48.7414 62.0256 48.5217 62.0256 48.282 62.0256C48.0023 62.0256 47.8425 62.1066 47.8625 62.4304C47.8625 62.7543 48.1022 62.734 48.3219 62.815C48.7214 62.9567 49.5204 62.39 49.4805 63.2198C49.4405 64.0294 48.6415 63.5639 48.2021 63.5841C46.8437 63.6246 46.8438 63.5841 46.8438 61.7018Z" fill="#9E9E9E"/>
<path d="M56.7409 61.7513C56.7209 63.0062 56.1216 63.6943 55.0829 63.6741C54.0242 63.6538 53.4649 62.9455 53.4849 61.6906C53.5049 60.4762 54.0642 59.8488 55.1029 59.8286C56.1815 59.8083 56.7608 60.4965 56.7409 61.7513ZM55.782 61.7108C55.782 61.2251 55.7221 60.6989 55.1029 60.6989C54.4837 60.6989 54.4437 61.2453 54.4437 61.7311C54.4237 62.2168 54.5236 62.7633 55.0829 62.7835C55.7421 62.8038 55.782 62.2371 55.782 61.7108Z" fill="#9E9E9E"/>
<path d="M121.938 61.7125C121.958 60.4981 122.577 59.7898 123.636 59.81C124.655 59.8302 125.214 60.4981 125.234 61.6923C125.234 62.9471 124.655 63.6555 123.616 63.6555C122.557 63.6555 121.918 62.9066 121.938 61.7125ZM124.275 61.7125C124.235 61.2875 124.235 60.741 123.616 60.7005C122.957 60.6601 122.957 61.2065 122.917 61.672C122.897 62.1983 122.957 62.7852 123.576 62.7852C124.175 62.8054 124.235 62.2387 124.275 61.7125Z" fill="#9E9E9E"/>
<path d="M116.499 61.3663C116.479 61.7711 116.479 62.1759 116.419 62.5605C116.299 63.37 115.739 63.6534 115 63.6534C114.281 63.6534 113.642 63.4308 113.562 62.6009C113.482 61.8318 113.502 61.0627 113.462 60.2936C113.442 59.9293 113.642 59.8484 113.962 59.8484C114.301 59.8484 114.441 59.9496 114.441 60.2936C114.421 60.7591 114.421 61.2247 114.441 61.6902C114.441 62.1557 114.361 62.7629 115.02 62.7426C115.6 62.7426 115.56 62.1759 115.56 61.7306C115.56 61.3056 115.56 60.8603 115.56 60.4353C115.56 60.152 115.48 59.8281 115.979 59.8281C116.459 59.8281 116.538 60.0508 116.499 60.4353C116.479 60.7389 116.499 61.0425 116.499 61.3461C116.479 61.3663 116.499 61.3663 116.499 61.3663Z" fill="#9E9E9E"/>
<path d="M58.8086 61.7434C58.8086 59.679 58.8086 59.679 60.926 59.8814C61.2056 59.9016 61.4453 59.8814 61.4253 60.2862C61.4054 60.6707 61.1856 60.691 60.886 60.691C60.8461 60.691 60.8061 60.691 60.7861 60.691C60.4665 60.8327 59.8273 60.3874 59.8473 60.9946C59.8473 61.5613 60.4865 61.1767 60.8261 61.2779C61.0458 61.3386 61.3055 61.2577 61.3055 61.622C61.3055 62.0066 61.0658 62.0268 60.7861 62.0268C60.5464 62.0268 60.3267 62.0268 60.087 62.047C59.8873 62.047 59.8074 62.1887 59.8074 62.3709C59.8074 62.5935 59.8273 62.7757 60.107 62.7959C60.1669 62.7959 60.2468 62.7757 60.3067 62.8161C60.6863 62.9983 61.4853 62.4113 61.4253 63.2816C61.3854 63.9496 60.6663 63.5852 60.2868 63.6055C58.8086 63.6257 58.8086 63.5852 58.8086 61.7434Z" fill="#9E9E9E"/>
<path d="M64.9646 61.7215C64.9646 59.6166 64.9646 59.6166 67.1219 59.8595C67.3416 59.8797 67.5813 59.8393 67.6013 60.2036C67.6013 60.5274 67.5014 60.7096 67.1419 60.6691C67.0819 60.6691 67.002 60.6488 66.9421 60.6691C66.6225 60.8108 66.0033 60.3453 66.0033 60.9727C66.0033 61.4787 66.5826 61.1751 66.9022 61.2358C67.1419 61.2763 67.4615 61.1751 67.4615 61.6001C67.4615 61.9847 67.2018 62.0049 66.9221 61.9847C66.7224 61.9847 66.5226 61.9847 66.3229 61.9847C66.0832 61.9847 65.9633 62.1061 65.9633 62.349C65.9633 62.5716 66.0432 62.7335 66.3029 62.7335C66.3628 62.7335 66.4427 62.7133 66.5027 62.7335C66.8822 62.9157 67.6812 62.3085 67.6013 63.199C67.5414 63.8669 66.8422 63.3812 66.4427 63.5229C66.3828 63.5431 66.3029 63.5229 66.243 63.5229C65.2243 63.7253 64.7848 63.3002 64.9845 62.268C64.9845 62.1263 64.9646 61.9239 64.9646 61.7215Z" fill="#9E9E9E"/>
<path d="M110.129 61.6339C110.129 61.5731 110.129 61.4922 110.129 61.4315C110.129 59.8123 110.548 59.4885 112.146 59.873C112.486 59.954 112.846 60.1361 112.806 60.5004C112.726 61.2088 112.786 61.8767 112.985 62.5851C113.125 63.0709 112.766 63.4554 112.206 63.5161C112.166 63.5161 112.146 63.5161 112.106 63.5161C110.149 63.8197 110.149 63.8197 110.129 61.6339ZM112.047 62.4232C112.007 62.1196 111.807 62.0387 111.567 62.0387C111.327 62.0387 111.108 62.0387 111.108 62.3827C111.108 62.6458 111.188 62.828 111.487 62.828C111.767 62.828 111.987 62.747 112.047 62.4232ZM111.447 61.31C111.707 61.3303 111.927 61.2493 111.927 60.966C111.927 60.7433 111.747 60.6421 111.527 60.6219C111.267 60.6016 111.068 60.6421 111.068 60.966C111.088 61.2291 111.208 61.3303 111.447 61.31Z" fill="#9E9E9E"/>
<path d="M99.777 59.8096C100.077 59.8096 100.376 59.8298 100.636 60.012C100.896 60.1941 101.135 60.4977 100.996 60.7608C100.856 61.0037 100.456 60.9835 100.197 60.8013C99.9368 60.6192 99.6572 60.1941 99.4374 60.7001C99.2776 61.0847 99.797 61.0847 100.037 61.1656C100.616 61.3478 101.115 61.5704 101.175 62.2586C101.235 62.7645 101.055 63.2098 100.616 63.4527C100.057 63.7765 99.4574 63.7563 98.8981 63.4527C98.5386 63.2705 98.199 62.8455 98.4587 62.4812C98.6984 62.1371 99.1378 62.1776 99.3775 62.6634C99.4974 62.9062 99.7371 62.9265 99.9967 62.8455C100.137 62.805 100.216 62.6836 100.216 62.5419C100.216 62.2586 99.9967 62.1574 99.777 62.0764C99.6572 62.0359 99.5373 61.9752 99.3975 61.955C98.7383 61.7526 98.3388 61.3478 98.4986 60.6192C98.6384 59.9715 99.1778 59.8096 99.777 59.8096Z" fill="#9E9E9E"/>
<path d="M136.906 61.6863C136.986 61.0387 137.066 60.3708 137.745 60.0064C138.285 59.7231 138.844 59.7231 139.343 60.0267C139.643 60.2088 140.022 60.5327 139.803 60.897C139.603 61.2411 139.223 61.2006 138.904 60.8363C138.644 60.5529 138.265 60.5934 138.065 60.9375C137.765 61.5042 137.725 62.1114 138.145 62.6173C138.464 62.9817 138.824 62.7995 139.004 62.4149C139.203 61.9494 139.523 62.2126 139.743 62.3137C140.082 62.4959 139.863 62.7793 139.743 62.9817C139.263 63.8722 137.825 63.8924 137.246 63.0221C137.006 62.6376 136.946 62.1721 136.906 61.6863Z" fill="#9E9E9E"/>
<path d="M130.956 61.7193C130.956 61.5777 130.956 61.4562 130.956 61.3146C130.956 59.7561 130.956 59.7763 132.534 59.8573C133.213 59.8978 133.592 60.2216 133.632 60.8895C133.672 61.5574 133.472 62.1444 132.713 62.1849C132.074 62.2051 131.834 62.448 131.934 63.0754C131.994 63.4599 131.834 63.6219 131.435 63.6016C131.035 63.6016 130.936 63.3992 130.956 63.0349C130.976 62.5896 130.956 62.1646 130.956 61.7193ZM132.673 61.0514C132.673 60.7276 132.454 60.6669 132.214 60.6466C131.934 60.6264 131.934 60.849 131.934 61.0514C131.934 61.2538 131.934 61.4765 132.234 61.4562C132.474 61.436 132.653 61.3146 132.673 61.0514Z" fill="#9E9E9E"/>
<path d="M79.9176 61.7673C79.8976 60.9982 80.0774 60.3708 80.7366 60.0064C81.2559 59.7231 81.8152 59.7231 82.3545 60.0267C82.6741 60.2088 83.0337 60.5327 82.834 60.8767C82.6542 61.2208 82.2547 61.2006 81.9151 60.8565C81.6354 60.5529 81.2559 60.5934 81.0761 60.9375C80.7965 61.4839 80.7366 62.1316 81.156 62.6376C81.4756 63.0221 81.8552 62.7793 82.0349 62.4149C82.2547 61.9494 82.5543 62.2125 82.7541 62.3137C83.1136 62.4757 82.8739 62.759 82.774 62.9817C82.3146 63.852 80.9563 63.9127 80.3171 63.1233C79.9975 62.7185 79.8776 62.2328 79.9176 61.7673Z" fill="#9E9E9E"/>
<path d="M68.0703 61.6746C68.1103 61.0472 68.1702 60.3186 68.9292 59.9745C69.4686 59.7316 70.0279 59.7114 70.5472 60.0757C70.8269 60.2579 71.1465 60.5614 70.9667 60.8853C70.747 61.2496 70.4074 61.2294 70.0678 60.865C69.8082 60.5614 69.4286 60.6019 69.2289 60.9662C68.9292 61.5329 68.8693 62.1604 69.3088 62.6461C69.6284 63.0104 69.968 62.808 70.1677 62.4235C70.3874 61.9985 70.707 62.2009 70.9268 62.3425C71.2663 62.5449 71.0067 62.8283 70.9068 63.0307C70.4274 63.901 68.9292 63.901 68.3899 63.0104C68.1502 62.6259 68.0903 62.2009 68.0703 61.6746Z" fill="#9E9E9E"/>
<path d="M72.9263 59.854C73.2858 59.854 73.6454 59.854 74.0249 59.854C74.2646 59.854 74.4044 59.935 74.3844 60.1981C74.3645 60.4207 74.4444 60.7648 74.1248 60.7243C73.2259 60.6433 73.4057 61.2505 73.4057 61.7565C73.4057 62.1816 73.3857 62.6268 73.4057 63.0519C73.4256 63.4566 73.2259 63.5578 72.8663 63.5578C72.5268 63.5578 72.4069 63.3959 72.4269 63.0721C72.4469 62.6471 72.4269 62.2018 72.4269 61.7768C72.4269 61.2505 72.5867 60.6433 71.7078 60.7243C71.3682 60.7445 71.4281 60.441 71.4081 60.2183C71.3882 59.9552 71.528 59.854 71.7477 59.854C72.1272 59.854 72.5268 59.854 72.9263 59.854Z" fill="#9E9E9E"/>
<path d="M117.927 62.1208C117.767 61.6553 118.387 60.6838 117.108 60.7243C116.869 60.7243 116.929 60.4207 116.929 60.2183C116.909 59.9552 117.028 59.854 117.268 59.854C118.027 59.854 118.786 59.854 119.565 59.854C119.825 59.854 119.885 60.0159 119.885 60.2588C119.885 60.4612 119.905 60.7445 119.645 60.7243C118.686 60.6433 118.906 61.3113 118.886 61.8577C118.886 62.222 118.866 62.5863 118.886 62.9709C118.906 63.3555 118.826 63.6186 118.367 63.5983C117.907 63.5983 117.927 63.315 117.927 63.0114C117.927 62.728 117.927 62.4649 117.927 62.1208Z" fill="#9E9E9E"/>
<path d="M102.959 59.854C103.318 59.854 103.678 59.854 104.057 59.854C104.277 59.854 104.457 59.9147 104.437 60.1778C104.417 60.4005 104.517 60.7445 104.177 60.7243C103.198 60.6636 103.458 61.3315 103.438 61.8577C103.418 62.2828 103.418 62.728 103.438 63.1531C103.438 63.4566 103.298 63.5578 103.019 63.5578C102.739 63.5578 102.479 63.5376 102.499 63.1531C102.519 62.728 102.519 62.2828 102.499 61.8577C102.479 61.3315 102.719 60.6433 101.76 60.7243C101.441 60.7445 101.501 60.4005 101.501 60.1778C101.501 59.8945 101.68 59.854 101.9 59.854C102.24 59.854 102.599 59.854 102.959 59.854Z" fill="#9E9E9E"/>
<path d="M86.4873 59.854C86.8269 59.854 87.1465 59.854 87.4861 59.854C87.7457 59.854 87.9455 59.8945 87.9255 60.2386C87.9055 60.4612 87.9455 60.785 87.6259 60.7445C86.8069 60.6636 86.9268 61.2101 86.9268 61.716C86.9268 62.1816 86.9268 62.6471 86.9268 63.1126C86.9268 63.4364 86.8469 63.6186 86.4673 63.5781C86.1877 63.5578 85.948 63.5174 85.948 63.1328C85.968 62.728 85.968 62.3232 85.948 61.9387C85.908 61.3922 86.2077 60.6433 85.1689 60.7243C84.9492 60.7445 84.9492 60.441 84.9492 60.2386C84.9492 59.9957 85.0291 59.854 85.2888 59.854C85.6883 59.854 86.0878 59.854 86.4873 59.854Z" fill="#9E9E9E"/>
<path d="M88.1836 59.909C89.1424 59.8483 89.1424 59.8483 89.8016 61.0019C90.261 60.5162 90.3609 59.4233 91.4595 59.9495C91.0001 61.0222 90.0613 61.9127 90.301 63.2485C90.3609 63.5926 90.0413 63.5521 89.8016 63.5521C89.5619 63.5521 89.2822 63.5319 89.3422 63.1878C89.5819 61.9127 88.683 61.0424 88.1836 59.909Z" fill="#9E9E9E"/>
<path d="M135.113 61.2464C135.113 61.4488 135.133 61.6512 135.113 61.8536C135.014 62.5013 135.253 62.7644 135.932 62.6834C136.252 62.6429 136.691 62.5215 136.672 63.1489C136.652 63.7156 136.252 63.5537 135.952 63.5537C134.135 63.6347 134.135 63.6347 134.135 61.8334C134.135 61.3678 134.155 60.9023 134.135 60.4166C134.115 59.9916 134.255 59.8094 134.694 59.8296C135.173 59.8296 135.113 60.1332 135.113 60.4368C135.113 60.7202 135.113 60.9833 135.113 61.2464Z" fill="#9E9E9E"/>
<path d="M61.9844 61.6756C61.9844 61.2101 61.9844 60.7445 61.9844 60.279C61.9844 59.9147 62.1841 59.854 62.4838 59.854C62.8034 59.854 62.9632 59.9754 62.9632 60.3195C62.9432 60.8457 63.0031 61.3922 62.9632 61.9184C62.9032 62.5256 63.103 62.7685 63.7222 62.7078C64.0218 62.6673 64.5013 62.5054 64.4813 63.1531C64.4613 63.7805 64.0019 63.5781 63.6823 63.5983C61.9844 63.6186 61.9844 63.5983 61.9844 61.6756Z" fill="#9E9E9E"/>
<path d="M97.8152 61.6364C97.8152 62.1019 97.7952 62.5674 97.8152 63.0329C97.8351 63.3972 97.7153 63.5794 97.3158 63.5996C96.9163 63.6198 96.8164 63.4377 96.8164 63.0531C96.8364 62.1626 96.8164 61.2518 96.8164 60.3613C96.8164 60.0577 96.8364 59.835 97.2359 59.8553C97.5755 59.8755 97.8152 59.916 97.7952 60.341C97.7952 60.7661 97.8152 61.2113 97.8152 61.6364Z" fill="#9E9E9E"/>
<path d="M84.4875 61.7323C84.4875 62.1978 84.4675 62.6634 84.4875 63.1289C84.5075 63.5134 84.3077 63.5741 83.9881 63.5741C83.7085 63.5741 83.4688 63.5539 83.4688 63.1491C83.4887 62.1776 83.4887 61.2061 83.4688 60.2346C83.4688 59.8298 83.7284 59.8501 84.0081 59.8298C84.3477 59.8096 84.4875 59.9715 84.4675 60.2953C84.4675 60.8013 84.4875 61.2668 84.4875 61.7323Z" fill="#9E9E9E"/>
<path d="M78.3158 61.6351C78.3158 61.2303 78.3357 60.8255 78.3158 60.4207C78.2958 60.0766 78.3557 59.854 78.7952 59.854C79.1747 59.854 79.3345 59.9552 79.3345 60.36C79.3145 61.2708 79.3145 62.1613 79.3345 63.0721C79.3545 63.4769 79.1547 63.5781 78.7952 63.5781C78.3757 63.5983 78.2958 63.3757 78.3158 63.0316C78.3158 62.5661 78.2958 62.1006 78.3158 61.6351C78.2958 61.6351 78.2958 61.6351 78.3158 61.6351Z" fill="#9E9E9E"/>
<path d="M108.396 61.7363C108.396 61.2708 108.416 60.8053 108.396 60.3398C108.396 60.0159 108.476 59.854 108.836 59.854C109.155 59.854 109.415 59.8742 109.415 60.3195C109.395 61.2505 109.395 62.1816 109.415 63.1126C109.435 63.5376 109.195 63.5983 108.856 63.5983C108.536 63.5983 108.376 63.4971 108.396 63.1328C108.396 62.6673 108.396 62.2018 108.396 61.7363Z" fill="#9E9E9E"/>
<path d="M121.388 61.697C121.388 62.1625 121.368 62.628 121.388 63.0935C121.408 63.4983 121.228 63.5995 120.869 63.5995C120.469 63.5995 120.369 63.4376 120.389 63.053C120.409 62.1625 120.409 61.2517 120.389 60.3611C120.369 59.9361 120.569 59.8754 120.928 59.8552C121.348 59.8349 121.408 60.0373 121.408 60.4016C121.368 60.8267 121.388 61.2517 121.388 61.697Z" fill="#9E9E9E"/>
<path d="M141.855 66.8426L141.775 66.8831L141.695 66.8426C141.755 66.7819 141.815 66.7819 141.855 66.8426Z" fill="#9E9E9E"/>
</svg>
