<svg width="186" height="90" viewBox="0 0 186 90" fill="none" xmlns="http://www.w3.org/2000/svg">
<rect width="186" height="90" fill="#F0F2F4"/>
<g clip-path="url(#clip0_3038_55366)">
<path d="M43.9288 24.002H45.0792C49.073 24.0888 53.0018 25.695 55.8235 28.5385C54.7816 29.602 53.7181 30.6222 52.6979 31.6858C51.1134 30.2532 49.2033 29.1462 47.1195 28.7555C44.0373 28.1043 40.7163 28.6904 38.1333 30.4486C35.3116 32.2936 33.4015 35.4192 32.9891 38.7619C32.5332 42.0611 33.4666 45.5341 35.6154 48.0954C37.6775 50.5915 40.8248 52.1543 44.0807 52.2629C47.1195 52.4365 50.2885 51.5032 52.5025 49.376C54.239 47.8783 55.0421 45.5992 55.3026 43.3852C51.6994 43.3852 48.0963 43.4069 44.4931 43.3852V38.9138H59.6654C60.4468 43.7108 59.3181 49.1155 55.6716 52.545C53.2405 54.9761 49.8761 56.4087 46.4466 56.6908C43.1256 57.0164 39.6961 56.387 36.7441 54.7807C33.2061 52.8923 30.3844 49.7016 28.9952 45.9465C27.6928 42.4953 27.6711 38.5882 28.8867 35.1153C29.9937 31.9463 32.1208 29.1462 34.8557 27.1927C37.4821 25.2609 40.6729 24.1973 43.9288 24.002Z" fill="#9E9E9E"/>
<path d="M130.973 25.1309H135.618V56.1267C134.077 56.1267 132.514 56.1484 130.973 56.105C130.994 45.7947 130.973 35.4628 130.973 25.1309Z" fill="#9E9E9E"/>
<path d="M70.0005 35.8761C72.8657 35.3335 75.9696 35.9413 78.3356 37.656C80.4844 39.1754 81.9821 41.563 82.438 44.1677C83.024 47.1848 82.286 50.4841 80.3325 52.8717C78.227 55.5416 74.7758 56.9741 71.4114 56.7571C68.3292 56.5834 65.3338 55.0423 63.5105 52.5245C61.4485 49.7461 60.9492 45.9259 62.0779 42.67C63.2066 39.1754 66.3974 36.5056 70.0005 35.8761ZM70.6517 40.0002C69.4796 40.3041 68.3943 40.977 67.6129 41.932C65.5075 44.4499 65.6377 48.5523 67.9602 50.8965C69.2843 52.2423 71.2812 52.8717 73.1262 52.5028C74.8409 52.1989 76.3386 51.0485 77.1635 49.5291C78.596 46.9461 78.1836 43.3863 75.9913 41.3677C74.5805 40.0654 72.5184 39.5227 70.6517 40.0002Z" fill="#9E9E9E"/>
<path d="M93.0133 35.8777C96.2908 35.2483 99.8723 36.1599 102.325 38.4607C106.319 42.0422 106.753 48.7493 103.345 52.8734C101.283 55.478 97.9405 56.9106 94.6412 56.7587C91.4939 56.6719 88.3899 55.109 86.5232 52.5261C84.4178 49.6826 83.962 45.7756 85.1558 42.4546C86.3496 39.0685 89.4752 36.4855 93.0133 35.8777ZM93.6644 40.0018C92.4923 40.3057 91.407 40.9786 90.6256 41.9119C88.5419 44.3864 88.6287 48.4237 90.8644 50.7896C92.1884 52.2005 94.2505 52.8951 96.1606 52.5044C97.8536 52.1788 99.3731 51.0501 100.198 49.5307C101.609 46.926 101.196 43.3662 98.9823 41.3476C97.5715 40.0452 95.5094 39.5243 93.6644 40.0018Z" fill="#9E9E9E"/>
<path d="M112.525 37.1373C115.021 35.5745 118.342 35.1404 121.034 36.4862C121.88 36.8552 122.575 37.4846 123.248 38.1141C123.269 37.5281 123.248 36.9203 123.269 36.3125C124.724 36.3342 126.178 36.3125 127.654 36.3342V55.4787C127.632 58.3656 126.894 61.4261 124.811 63.5316C122.531 65.8541 119.037 66.5704 115.889 66.0928C112.525 65.5936 109.595 63.1409 108.292 60.0369C109.595 59.4075 110.962 58.9082 112.308 58.3222C113.068 60.102 114.609 61.6214 116.541 61.9687C118.472 62.316 120.708 61.8385 121.967 60.2323C123.313 58.5826 123.313 56.3252 123.248 54.3066C122.249 55.2834 121.099 56.1516 119.71 56.4772C116.693 57.3237 113.372 56.2818 111.049 54.2415C108.705 52.2011 107.316 49.0538 107.446 45.9282C107.511 42.3901 109.508 38.9823 112.525 37.1373ZM117.018 39.9157C115.694 40.1327 114.457 40.8707 113.61 41.8909C111.57 44.322 111.57 48.2073 113.632 50.5949C114.804 52.0058 116.693 52.7872 118.516 52.5919C120.231 52.4182 121.815 51.3329 122.662 49.8352C124.094 47.2956 123.855 43.8444 121.924 41.6304C120.73 40.263 118.82 39.5901 117.018 39.9157Z" fill="#9E9E9E"/>
<path d="M141.197 38.2442C143.802 35.8132 147.818 34.9884 151.16 36.269C154.329 37.4628 156.348 40.4799 157.368 43.5838C152.658 45.5374 147.969 47.4692 143.259 49.4227C143.911 50.6599 144.909 51.7886 146.255 52.2444C148.143 52.9173 150.401 52.6786 151.985 51.4196C152.615 50.9421 153.114 50.3126 153.591 49.7049C154.785 50.508 155.979 51.2894 157.173 52.0925C155.48 54.6321 152.636 56.4119 149.576 56.6941C146.19 57.1065 142.586 55.8042 140.394 53.1561C136.791 48.9886 137.138 41.9993 141.197 38.2442ZM143.52 42.2598C142.782 43.3234 142.478 44.6257 142.5 45.9064C145.647 44.604 148.794 43.3017 151.942 41.9776C151.421 40.7621 150.162 40.0241 148.881 39.8287C146.819 39.4597 144.67 40.5667 143.52 42.2598Z" fill="#9E9E9E"/>
</g>
<defs>
<clipPath id="clip0_3038_55366">
<rect width="129.366" height="42.2252" fill="white" transform="translate(28 24)"/>
</clipPath>
</defs>
</svg>
