<svg width="42" height="42" viewBox="0 0 42 42" fill="none" xmlns="http://www.w3.org/2000/svg">
<rect width="42" height="42" rx="21" fill="#BCEB0F"/>
<g clip-path="url(#clip0_3094_59603)">
<path d="M9 21C15.6274 21 21 26.3726 21 33H15C15 29.6863 12.3137 27 9 27V21ZM33 27C29.6863 27 27 29.6863 27 33H21C21 26.3726 26.3726 21 33 21V27ZM21 9C21 15.6274 15.6274 21 9 21V15C12.3137 15 15 12.3137 15 9H21ZM27 9C27 12.3137 29.6863 15 33 15V21C26.3726 21 21 15.6274 21 9H27Z" fill="#0A0A0A"/>
</g>
<defs>
<clipPath id="clip0_3094_59603">
<rect width="24" height="24" fill="white" transform="translate(9 9)"/>
</clipPath>
</defs>
</svg>
