<svg width="186" height="90" viewBox="0 0 186 90" fill="none" xmlns="http://www.w3.org/2000/svg">
<rect width="186" height="90" fill="#F0F2F4"/>
<g clip-path="url(#clip0_3038_55362)">
<path d="M150.186 56.4763L143.194 46.9869L136.21 56.4763H133.332L141.738 45.011L134.061 34.5893H136.939L143.194 43.0887L149.449 34.59H152.324L144.653 45.0117L153.061 56.4763H150.186ZM95.7036 56.4727L87.2877 45.0096L94.9641 34.5879H92.0874L85.8301 43.0894L79.5785 34.59H76.709L84.3818 45.0117L75.9688 56.4727H78.8497L85.8337 46.9876L92.8233 56.4727H95.7036Z" fill="#9E9E9E"/>
<path d="M111.701 45.837C111.268 45.4676 110.785 45.1603 110.266 44.9241C111.062 44.5015 111.727 43.8702 112.191 43.098C112.654 42.3258 112.899 41.4419 112.898 40.5412C112.898 39.1407 112.382 34.5873 105.784 34.5873H96.8965V44.0218H93.9363C93.553 44.5215 92.68 45.725 92.3481 46.2182H96.8958V56.4715H105.785C110.6 56.4715 113.59 54.0274 113.59 50.0821C113.611 49.2781 113.452 48.4796 113.125 47.7448C112.798 47.01 112.312 46.3575 111.7 45.8349M99.3513 36.8694H105.783C107.522 36.8694 110.438 37.3027 110.438 40.3471C110.438 42.6491 108.741 44.0204 105.783 44.0204H99.3513V36.8708V36.8694ZM105.781 54.1887H99.3499V46.2239H105.781C108.219 46.2239 111.135 46.8971 111.135 50.0357C111.135 53.6497 107.78 54.1908 105.781 54.1908M125.151 34.0841C119.003 34.0841 114.706 38.7853 114.706 45.5187C114.706 52.2521 119.003 56.959 125.151 56.959C131.299 56.959 135.577 52.2607 135.577 45.5187C135.577 38.7767 131.294 34.0841 125.149 34.0841M125.149 54.6419C120.465 54.6419 117.183 50.888 117.183 45.5173C117.183 40.1465 120.467 36.3947 125.149 36.3947C129.832 36.3947 133.088 40.1465 133.088 45.5173C133.088 50.888 129.826 54.6419 125.149 54.6419ZM38.4451 32.2467L38.4265 32.2617C35.2705 35.3767 33.3574 39.5348 33.0453 43.9582C32.7331 48.3815 34.0432 52.7671 36.7305 56.2944C36.7408 56.31 36.7561 56.3215 36.7739 56.3271C36.7917 56.3327 36.8109 56.332 36.8283 56.3251C36.843 56.315 36.8534 56.2996 36.8573 56.2822C36.8613 56.2647 36.8586 56.2464 36.8497 56.2309C35.4585 51.9309 42.5666 41.5078 46.2406 37.1363C46.2552 37.1219 46.2647 37.1031 46.2678 37.0828C46.2666 37.0711 46.2629 37.0597 46.257 37.0495C46.2511 37.0393 46.2431 37.0305 46.2335 37.0236C40.0547 30.8748 38.4051 32.2824 38.4265 32.2617M64.0453 32.2467L64.0624 32.2617C67.2179 35.377 69.1306 39.535 69.4427 43.9582C69.7549 48.3814 68.4451 52.7669 65.7585 56.2944C65.7483 56.3101 65.7329 56.3217 65.7151 56.3273C65.6972 56.3329 65.678 56.3321 65.6607 56.3251C65.647 56.3141 65.6375 56.2988 65.6336 56.2817C65.6297 56.2646 65.6317 56.2467 65.6393 56.2309C67.0298 51.9302 59.9287 41.4992 56.2555 37.1278C56.2406 37.1142 56.2309 37.0957 56.2283 37.0757C56.2288 37.0635 56.2322 37.0516 56.2381 37.0409C56.2441 37.0302 56.2525 37.0211 56.2626 37.0143C62.4435 30.8655 64.0817 32.2824 64.061 32.2617M51.2452 27.0002C54.5999 26.9867 57.8915 27.9117 60.7482 29.6706C60.7635 29.6792 60.775 29.6931 60.7807 29.7097C60.7864 29.7263 60.7857 29.7444 60.7789 29.7605C60.7703 29.7754 60.7566 29.7868 60.7404 29.7924C60.7241 29.798 60.7064 29.7976 60.6904 29.7912C57.1591 29.0274 51.7898 32.0797 51.2837 32.3845C51.273 32.3944 51.259 32.3999 51.2445 32.3999C51.2299 32.3999 51.2159 32.3944 51.2052 32.3845C49.8582 31.6114 44.8965 29.0103 41.7714 29.8105C41.7565 29.8123 41.7413 29.8094 41.7282 29.8022C41.715 29.7949 41.7044 29.7837 41.698 29.77C41.6916 29.7564 41.6896 29.7411 41.6924 29.7263C41.6952 29.7115 41.7027 29.698 41.7136 29.6877C44.5763 27.9166 47.879 26.9854 51.2452 27.0002ZM51.2452 41.6334C51.267 41.6365 51.2873 41.6465 51.303 41.6619C56.7623 45.8121 66.1054 56.0739 63.253 58.9791L63.2565 58.9755V58.9791H63.253C59.929 61.8888 55.6617 63.4927 51.2441 63.4927C46.8265 63.4927 42.5592 61.8888 39.2352 58.9791C36.3871 56.0739 45.7288 45.8121 51.1824 41.6605C51.2003 41.645 51.2224 41.635 51.2459 41.632" fill="#9E9E9E"/>
</g>
<defs>
<clipPath id="clip0_3038_55362">
<rect width="120.059" height="36.4895" fill="white" transform="translate(33 27)"/>
</clipPath>
</defs>
</svg>
