<svg width="186" height="90" viewBox="0 0 186 90" fill="none" xmlns="http://www.w3.org/2000/svg">
<rect width="186" height="90" fill="#F0F2F4"/>
<path d="M100.624 12.1392C102.818 12.1701 104.912 12.5931 106.867 13.6034C108.591 14.4999 109.996 15.7534 110.956 17.481C111.579 18.6215 111.988 19.87 112.162 21.1626C112.518 23.644 112.158 26.0445 111.352 28.3918C110.879 29.7685 110.224 31.0597 109.514 32.328C108.069 34.9097 106.212 37.1472 104.052 39.1308C101.281 41.6781 98.2421 43.9078 94.9906 45.7794C93.731 46.5021 92.4249 47.1089 91.0201 47.4801C90.1595 47.7162 89.2709 47.8304 88.3795 47.8195C87.2061 47.7953 86.2879 47.2524 85.5738 46.3377C84.9145 45.5168 84.5748 44.4785 84.6192 43.4199C84.6269 43.1254 84.6688 42.8329 84.7438 42.5484C85.1688 41.0147 85.7462 39.5457 86.6094 38.206C87.269 37.1829 88.0553 36.2743 89.0836 35.6243C90.2272 34.9009 91.4703 34.5918 92.8148 34.8902C93.2351 34.9903 93.6307 35.1771 93.977 35.4391C94.862 36.0817 94.8156 37.09 94.3906 37.7339C94.0266 38.2934 93.6196 38.8229 93.1734 39.3174C92.4177 40.1445 91.6148 40.9265 90.8312 41.7266C90.1377 42.4345 89.486 43.1775 88.9576 44.0241C88.6838 44.4632 88.4312 44.9112 88.3556 45.4385C88.2602 46.1 88.5983 46.5506 89.2553 46.6125C89.5952 46.6407 89.9374 46.6058 90.265 46.5095C91.2747 46.2259 92.2121 45.7686 93.133 45.2755C94.5531 44.5124 95.8638 43.5796 97.1413 42.5955C98.69 41.4027 100.196 40.1586 101.583 38.7752C103.164 37.2011 104.573 35.4903 105.65 33.5161C106.438 32.0747 107.018 30.5525 107.276 28.9199C107.504 27.4818 107.377 26.0809 106.721 24.7607C106.405 24.1082 105.912 23.5618 105.298 23.1866C105.015 23.0135 104.703 22.8952 104.378 22.8377C103.193 22.6242 102.047 22.7994 100.92 23.1813C99.7461 23.58 98.6568 24.1619 97.5981 24.7978C95.3002 26.1826 92.9997 27.5667 90.81 29.126C89.7121 29.9073 88.648 30.7384 87.572 31.5507C86.6001 32.2849 85.6348 33.0278 84.5728 33.6279C83.7109 34.1265 82.778 34.4862 81.8075 34.6942C80.6049 34.942 79.4964 34.7117 78.4781 34.0476C77.4213 33.3585 76.6814 32.4129 76.3566 31.1614C76.1497 30.3713 76.2313 29.588 76.4096 28.808C76.6702 27.663 77.1647 26.6258 77.7813 25.6424C79.3061 23.2136 81.2234 21.1532 83.453 19.3919C86.7572 16.7819 90.393 14.772 94.3257 13.3179C96.3448 12.5675 98.4741 12.169 100.624 12.1392Z" fill="#9E9E9E"/>
<path d="M73.4562 67.6696C73.4449 66.9072 73.3594 66.2215 72.9258 65.6267C72.7147 65.3394 72.4224 65.1242 72.0878 65.0098C71.226 64.6959 70.3482 64.733 69.4923 65.0017C68.8061 65.2172 68.1445 65.5109 67.4729 65.7729C67.3403 65.8228 67.2196 65.8867 67.0592 65.9595C66.743 65.1627 66.432 64.3894 66.1065 63.5812C66.5779 63.3542 67.0221 63.1225 67.4802 62.9238C68.5356 62.4651 69.6302 62.1506 70.7811 62.0799C71.932 62.0091 73.0677 62.0711 74.1152 62.6382C75.2999 63.2754 76.1551 64.1955 76.5131 65.5345C76.5648 65.7097 76.5957 65.8906 76.6053 66.0733C76.651 67.8117 76.7127 69.5502 76.72 71.2886C76.7246 72.4767 76.6477 73.6655 76.6132 74.8543C76.6071 75.0173 76.5403 75.1719 76.4263 75.2868C75.6075 76.2028 74.6058 76.8359 73.4708 77.2609C72.2537 77.7121 70.9576 77.9013 69.6647 77.8166C68.4713 77.7492 67.4411 77.2528 66.5699 76.4291C65.6988 75.6053 65.0902 74.6105 64.9205 73.3914C64.6884 71.7217 65.1625 70.2729 66.3439 69.0807C67.1036 68.3142 68.0397 67.9182 69.0945 67.7781C70.2613 67.6238 71.4321 67.6649 72.6029 67.6683L73.4562 67.6696ZM73.303 70.384C73.2343 70.3702 73.1648 70.3606 73.0949 70.355C72.6971 70.347 72.2947 70.3328 71.8949 70.3389C71.4156 70.3463 70.9343 70.3483 70.4576 70.3941C69.965 70.4419 69.487 70.5881 69.1051 70.9222C68.4713 71.4772 68.283 72.2019 68.4375 73.0189C68.6298 74.0292 69.1853 74.7351 70.1758 75.0355C70.6865 75.1907 71.2273 75.2139 71.749 75.1029C72.234 75.0127 72.6863 74.7922 73.0591 74.4644C73.1222 74.4146 73.174 74.3518 73.2112 74.28C73.2484 74.2082 73.27 74.1291 73.2745 74.0481C73.2898 73.6931 73.3349 73.3389 73.3375 72.9839C73.3428 72.1709 73.3309 71.358 73.3243 70.545C73.3203 70.491 73.3132 70.4372 73.303 70.384Z" fill="#9E9E9E"/>
<path d="M113.336 70.3116C110.492 70.3116 107.701 70.2497 104.87 70.3251C104.885 70.5272 104.894 70.7185 104.912 70.905C104.984 71.6682 105.146 72.4097 105.464 73.1095C105.711 73.6804 106.094 74.1795 106.579 74.5617C107.348 75.1551 108.226 75.2521 109.147 75.1315C109.908 75.0318 110.616 74.7489 111.323 74.464C111.647 74.334 111.969 74.1946 112.318 74.0498C112.649 74.7543 112.974 75.4467 113.312 76.1593C113.25 76.2051 113.191 76.2563 113.126 76.294C111.747 77.1252 110.266 77.6607 108.667 77.8021C107.208 77.9308 105.816 77.6876 104.556 76.8679C103.698 76.3095 103.098 75.5208 102.595 74.6385C101.976 73.5407 101.601 72.3186 101.497 71.0579C101.287 68.7593 101.767 66.6193 102.939 64.6377C103.755 63.2603 104.975 62.512 106.501 62.254C107.903 62.0034 109.348 62.2478 110.596 62.9464C111.295 63.331 111.781 63.9366 112.182 64.6155C112.713 65.5106 112.992 66.4974 113.126 67.5198C113.234 68.3442 113.269 69.1787 113.334 70.0119C113.342 70.0975 113.336 70.1864 113.336 70.3116ZM109.888 67.6949C109.723 66.9264 109.611 66.1411 109.115 65.4897C108.867 65.166 108.518 64.9372 108.126 64.8404C107.081 64.5596 106.032 65.0486 105.583 66.0528C105.423 66.4105 105.329 66.7991 105.212 67.1756C105.159 67.346 105.126 67.5232 105.084 67.6949C105.364 67.7704 109.601 67.7737 109.89 67.6969L109.888 67.6949Z" fill="#9E9E9E"/>
<path d="M94.7059 58.5525L98.0996 58.019V62.2536C98.8528 62.2994 99.5701 62.2496 100.291 62.3284V64.9371C99.5622 64.9492 98.8481 64.927 98.1036 64.9728C98.1036 65.1196 98.1036 65.2294 98.1036 65.3392C98.0974 67.8501 98.0921 70.3614 98.0877 72.8728C98.0877 73.2682 98.1189 73.6642 98.154 74.0582C98.2097 74.6644 98.5405 75.049 99.1186 75.1965C99.4375 75.2787 99.765 75.3252 100.089 75.3878L100.413 75.4552V77.6691C100.377 77.6875 100.338 77.7006 100.298 77.7082C99.3348 77.752 98.3754 77.7264 97.444 77.4388C96.5344 77.1599 95.7759 76.6548 95.2615 75.8223C94.9691 75.3508 94.8206 74.8207 94.7563 74.2731C94.7174 73.9301 94.6984 73.5851 94.6992 73.2399C94.6992 68.4712 94.7019 63.7029 94.7072 58.9351L94.7059 58.5525Z" fill="#9E9E9E"/>
<path d="M115.202 58.5725L118.484 57.9946V58.4547C118.484 62.7856 118.485 67.1164 118.489 71.4473C118.489 72.2401 118.496 73.0329 118.501 73.8263C118.507 74.6089 118.788 75.0077 119.524 75.2407C119.774 75.311 120.028 75.3663 120.284 75.4064C120.441 75.4361 120.599 75.4502 120.789 75.4738V77.7355C120.772 77.7504 120.751 77.7608 120.728 77.7659C119.796 77.8042 118.868 77.7888 117.962 77.5193C117.413 77.3588 116.901 77.0865 116.459 76.7192C115.635 76.0342 115.299 75.1161 115.213 74.0809C115.188 73.7778 115.191 73.4713 115.192 73.1669C115.192 68.4292 115.195 63.6919 115.202 58.9551V58.5725Z" fill="#9E9E9E"/>
<path d="M88.0941 77.5353H84.7793C84.7753 77.3945 84.7687 77.2659 84.768 77.1386C84.7645 75.1153 84.7616 73.0919 84.7594 71.0686C84.7554 69.4521 84.7455 67.8356 84.7461 66.2191C84.7472 65.926 84.7693 65.6333 84.8124 65.3435C84.8615 65.0128 85.0319 64.7373 85.2685 64.5049C86.5706 63.2171 88.1306 62.4452 89.9093 62.1125C91.024 61.9048 92.1665 61.9032 93.2818 62.1078C93.3408 62.1186 93.3998 62.132 93.4575 62.1469C93.486 62.1543 93.5132 62.1684 93.5682 62.19C93.1916 63.1626 92.7329 64.0921 92.3006 65.0108C91.7842 65.0108 91.2949 64.9953 90.807 65.0141C89.9643 65.0426 89.1371 65.2519 88.3798 65.6284C88.165 65.7355 88.0848 65.8689 88.0855 66.1201C88.0948 69.8021 88.097 73.4842 88.0921 77.1662L88.0941 77.5353Z" fill="#9E9E9E"/>
<path d="M82.3486 62.4126C82.3838 67.4588 82.3453 72.4754 82.3771 77.5229H79.1332C79.1253 77.401 79.1094 77.2737 79.1094 77.1464C79.1094 73.974 79.1094 70.8012 79.1094 67.6279C79.1094 66.1737 79.1213 64.7195 79.1273 63.2653C79.1273 63.1548 79.1273 63.0444 79.1273 62.9056L82.3486 62.4126Z" fill="#9E9E9E"/>
<path d="M80.5266 60.9389C78.9428 60.9349 77.951 59.3332 78.608 57.8211C79.0117 56.8936 79.7052 56.5414 80.7056 56.5474C82.0462 56.5589 83.04 57.9134 82.7204 59.2369C82.4652 60.2943 81.6298 60.9416 80.5266 60.9389Z" fill="#9E9E9E"/>
</svg>
