<svg width="64" height="64" viewBox="0 0 64 64" fill="none" xmlns="http://www.w3.org/2000/svg">
<circle cx="32" cy="32" r="32" fill="#BCEB0F"/>
<path d="M35.8007 21.2658V26.3324H33.8007V21.2658C33.8007 20.9058 33.4807 20.7324 33.2673 20.7324C33.2007 20.7324 33.134 20.7458 33.0673 20.7724L22.494 24.7591C21.7873 25.0258 21.334 25.6924 21.334 26.4524V27.3458C20.1207 28.2524 19.334 29.7058 19.334 31.3458V26.4524C19.334 24.8658 20.3073 23.4524 21.7873 22.8924L32.374 18.8924C32.6673 18.7858 32.974 18.7324 33.2673 18.7324C34.6007 18.7324 35.8007 19.8124 35.8007 21.2658Z" fill="#0A0A0A"/>
<path d="M44.6663 35.3327V36.666C44.6663 37.026 44.3863 37.3193 44.0129 37.3327H42.0663C41.3596 37.3327 40.7196 36.8127 40.6663 36.1193C40.6263 35.706 40.7863 35.3193 41.0529 35.0527C41.2929 34.7993 41.6263 34.666 41.9863 34.666H43.9996C44.3863 34.6793 44.6663 34.9727 44.6663 35.3327Z" fill="#0A0A0A"/>
<path d="M41.974 33.2673H43.334C44.0673 33.2673 44.6673 32.6673 44.6673 31.934V31.3473C44.6673 28.5873 42.414 26.334 39.654 26.334H24.3473C23.214 26.334 22.174 26.7073 21.334 27.3473C20.1207 28.254 19.334 29.7073 19.334 31.3473V40.3207C19.334 43.0807 21.5873 45.334 24.3473 45.334H39.654C42.414 45.334 44.6673 43.0807 44.6673 40.3207V40.0673C44.6673 39.334 44.0673 38.734 43.334 38.734H42.174C40.894 38.734 39.6673 37.9473 39.334 36.7073C39.054 35.694 39.3873 34.7207 40.054 34.0673C40.5473 33.5607 41.2273 33.2673 41.974 33.2673ZM34.6673 33.0007H25.334C24.7873 33.0007 24.334 32.5473 24.334 32.0007C24.334 31.454 24.7873 31.0007 25.334 31.0007H34.6673C35.214 31.0007 35.6673 31.454 35.6673 32.0007C35.6673 32.5473 35.214 33.0007 34.6673 33.0007Z" fill="#0A0A0A"/>
</svg>
