<svg width="186" height="90" viewBox="0 0 186 90" fill="none" xmlns="http://www.w3.org/2000/svg">
<rect width="186" height="90" fill="#F0F2F4"/>
<g clip-path="url(#clip0_3038_55337)">
<path d="M40.2997 42.9726C41.0756 42.8128 47.9405 39.6674 48.5532 39.3137C49.9521 38.506 50.4314 36.7172 49.6237 35.3183C48.8161 33.9195 47.0273 33.4401 45.6284 34.2478C45.0156 34.6016 38.8592 38.974 38.3329 39.5661C37.7298 40.2447 37.6255 41.2152 38.0716 41.9879C38.5179 42.7607 39.4105 43.1557 40.2997 42.9726Z" fill="#9E9E9E"/>
<path d="M48.5531 49.92C47.9403 49.5662 41.0755 46.4208 40.2997 46.2611C39.4104 46.078 38.5178 46.473 38.0716 47.2458C37.6255 48.0186 37.7298 48.9891 38.3329 49.6676C38.8592 50.2597 45.0156 54.6321 45.6284 54.9859C47.0273 55.7936 48.8161 55.3143 49.6237 53.9154C50.4314 52.5165 49.952 50.7276 48.5531 49.92Z" fill="#9E9E9E"/>
<path d="M33.5381 49.8906C32.6457 49.8906 31.8574 50.4662 31.5713 51.3279C31.3217 52.0797 30.6133 59.5975 30.6133 60.305C30.6133 61.9203 31.9228 63.2298 33.5381 63.2298C35.1534 63.2298 36.4629 61.9203 36.4629 60.305C36.4629 59.5975 35.7544 52.0797 35.5048 51.3279C35.2188 50.4662 34.4304 49.8906 33.5381 49.8906Z" fill="#9E9E9E"/>
<path d="M26.7164 46.2611C25.9405 46.4209 19.0756 49.5663 18.4629 49.92C17.064 50.7276 16.5847 52.5164 17.3923 53.9153C18.2 55.3142 19.9888 55.7935 21.3877 54.9859C22.0004 54.6321 28.1568 50.2597 28.6831 49.6676C29.2863 48.989 29.3905 48.0185 28.9443 47.2457C28.4982 46.473 27.6056 46.078 26.7164 46.2611Z" fill="#9E9E9E"/>
<path d="M21.3877 34.2477C19.9888 33.4401 18.2001 33.9194 17.3923 35.3183C16.5847 36.7172 17.064 38.506 18.4629 39.3136C19.0756 39.6674 25.9405 42.8128 26.7163 42.9725C27.6056 43.1556 28.4982 42.7606 28.9444 41.9878C29.3906 41.215 29.2863 40.2446 28.6831 39.566C28.1569 38.9739 22.0004 34.6015 21.3877 34.2477Z" fill="#9E9E9E"/>
<path d="M33.5381 26C31.9227 26 30.6133 27.3095 30.6133 28.9248C30.6133 29.6323 31.3217 37.1501 31.5713 37.902C31.8574 38.7636 32.6458 39.3392 33.5381 39.3392C34.4304 39.3392 35.2188 38.7636 35.5048 37.902C35.7544 37.1501 36.4629 29.6323 36.4629 28.9248C36.4629 27.3095 35.1534 26 33.5381 26Z" fill="#9E9E9E"/>
</g>
<g clip-path="url(#clip1_3038_55337)">
<path d="M79.7524 34.1077L77.0677 47.5589L74.0542 34.1077H68.8216L65.8081 47.5589L63.1234 34.1077H57.7812L62.1371 54.6543H68.3559L71.3968 41.0113L74.4377 54.6543H80.5195L84.848 34.1077H79.7524Z" fill="#9E9E9E"/>
<path d="M91.3541 37.8889C88.0392 37.8889 85.7106 39.0122 84.8614 39.8066V44.1899C85.8476 43.3132 87.9297 42.0256 90.6692 42.0256C92.3677 42.0256 92.9978 42.4913 92.9978 43.4502C92.9978 44.2721 92.1211 44.6008 89.6829 45.1214C85.9845 45.8884 83.8477 47.2308 83.8477 50.4361C83.8477 53.3949 85.7927 55.1207 88.6145 55.1207C90.9773 55.1207 92.3889 54.0247 93.1622 52.5515V54.655H98.2577V44.5734C98.2577 39.9436 95.8469 37.8889 91.3541 37.8889ZM90.6418 51.8059C89.4364 51.8059 88.7789 51.0662 88.7789 50.0525C88.7789 48.7375 89.8199 48.217 91.1349 47.7513C91.8206 47.4942 92.5062 47.2263 92.9704 46.8203V49.0938C92.9704 50.8196 92.0664 51.8059 90.6418 51.8059Z" fill="#9E9E9E"/>
<path d="M105.459 34.1077H100.172V54.6543H105.459V34.1077Z" fill="#9E9E9E"/>
<path d="M126.7 37.9593C124.135 37.9593 122.478 39.5009 121.61 41.5539C121.145 39.3542 119.599 37.9593 117.441 37.9593C114.995 37.9593 113.4 39.3858 112.592 41.3901V38.425H107.387V54.6705H112.674V45.6574C112.674 43.4384 113.414 42.1782 115.003 42.1782C116.29 42.1782 116.729 43.0548 116.729 44.4246V54.6705H122.016V45.6574C122.016 43.4384 122.756 42.1782 124.345 42.1782C125.632 42.1782 126.07 43.0548 126.07 44.4246V54.6705H131.358V43.6849C131.358 40.2605 129.741 37.9593 126.7 37.9593Z" fill="#9E9E9E"/>
<path d="M139.995 37.8889C136.68 37.8889 134.351 39.0122 133.502 39.8066V44.1899C134.488 43.3132 136.57 42.0256 139.31 42.0256C141.008 42.0256 141.638 42.4913 141.638 43.4502C141.638 44.2721 140.762 44.6008 138.324 45.1214C134.625 45.8884 132.488 47.2308 132.488 50.4361C132.488 53.3949 134.433 55.1207 137.255 55.1207C139.618 55.1207 141.029 54.0247 141.803 52.5515V54.655H146.898V44.5734C146.898 39.9436 144.488 37.8889 139.995 37.8889ZM139.282 51.8059C138.077 51.8059 137.42 51.0662 137.42 50.0525C137.42 48.7375 138.461 48.217 139.776 47.7513C140.461 47.4942 141.147 47.2263 141.611 46.8203V49.0938C141.611 50.8196 140.707 51.8059 139.282 51.8059Z" fill="#9E9E9E"/>
<path d="M153.865 42.9924V38.4026H148.688V54.6481H153.975V47.7445C153.975 44.5666 155.947 43.7174 157.838 43.7174C158.468 43.7174 159.07 43.7996 159.344 43.8817V38.293C156.369 38.1494 154.562 40.0497 153.865 42.9924Z" fill="#9E9E9E"/>
<path d="M169.43 42.5316V38.4223H166.061V35.2718H160.773V49.2434C160.773 53.161 162.992 54.9965 166.526 54.9965C168.17 54.9965 169.047 54.6678 169.43 54.4212V50.3393C169.129 50.5585 168.636 50.7228 168.006 50.7228C166.828 50.7502 166.061 50.2297 166.061 48.5038V42.5316H169.43Z" fill="#9E9E9E"/>
</g>
<defs>
<clipPath id="clip0_3038_55337">
<rect width="33.0248" height="37.2277" fill="white" transform="translate(17 26)"/>
</clipPath>
<clipPath id="clip1_3038_55337">
<rect width="111.683" height="21.0123" fill="white" transform="translate(57.7812 34.1077)"/>
</clipPath>
</defs>
</svg>
