<svg width="186" height="90" viewBox="0 0 186 90" fill="none" xmlns="http://www.w3.org/2000/svg">
<rect width="186" height="90" fill="#F0F2F4"/>
<path d="M93.5001 69.5292C126.912 69.5292 154 58.4426 154 44.7647C154 31.0864 126.914 19.9998 93.5001 19.9998C60.0857 19.9998 33 31.0892 33 44.7591C33 58.4286 60.0857 69.5237 93.5001 69.5237" fill="#9E9E9E"/>
<path d="M108.651 38.6795L110.231 32.4073H89.5821L88 38.6795H94.765L91.4432 51.8663H98.5591L101.884 38.6795H108.651Z" fill="white"/>
<path d="M87.8097 32.4072H77.51L70.952 46.8319V32.4072H60.967L54.7266 57.1721H61.5856L65.6502 41.1882V57.1721H70.952L78.7524 41.1882L75.011 57.1721H81.569L87.8097 32.4072Z" fill="white"/>
<path d="M132.251 32.4072H125.701L122.268 45.58L119.146 32.4072H111.961L105.723 57.1721H112.281L115.713 43.6944L119.146 57.1721H126.01L132.251 32.4072Z" fill="white"/>
<path d="M90.931 53.5693L90.0391 57.1075H97.1549L98.0469 53.5693H90.931Z" fill="white"/>
</svg>
