<svg width="186" height="90" viewBox="0 0 186 90" fill="none" xmlns="http://www.w3.org/2000/svg">
<rect width="186" height="90" fill="#F0F2F4"/>
<path fill-rule="evenodd" clip-rule="evenodd" d="M56.5133 51.3219C55.635 51.3219 54.9474 51.9363 54.9474 52.8329C54.9474 53.73 55.6385 54.3409 56.5133 54.3409C57.3874 54.3409 58.0791 53.7259 58.0791 52.8329C58.0791 51.9363 57.3909 51.3219 56.5133 51.3219ZM56.5133 53.9088C55.887 53.9088 55.4225 53.4514 55.4225 52.8329C55.4225 52.2149 55.8835 51.754 56.5133 51.754C57.1353 51.754 57.6034 52.222 57.6034 52.8329C57.6034 53.4402 57.1312 53.9088 56.5133 53.9088ZM71.7498 46.0371H64.1271L64.9935 32.7878L60.0434 46.0371H52.9648L64.1962 16.0898H71.728L70.8586 29.5209L75.9026 16.0898H82.9817L71.7498 46.0371ZM72.6694 46.0371L83.9001 16.0898H90.9786L79.7479 46.0371H72.6694Z" fill="#9E9E9E"/>
<path fill-rule="evenodd" clip-rule="evenodd" d="M52.1481 35.7161C42.2566 47.3323 32.9258 62.7884 41.1676 69.9059C49.1539 76.8032 59.1363 72.7195 65.9427 69.9968C72.7492 67.2741 147.981 34.6041 147.981 34.6041C148.706 34.2412 148.571 33.7873 147.663 34.0139C147.297 34.1054 65.7615 56.2021 65.7615 56.2021C55.415 59.1066 43.6176 52.7765 52.1481 35.7161Z" fill="#9E9E9E"/>
<path fill-rule="evenodd" clip-rule="evenodd" d="M56.7828 52.9408C57.0023 52.9301 57.1741 52.8168 57.1741 52.5128C57.1741 52.1209 56.9179 52.0224 56.49 52.0224H55.875V53.6473H56.2852V52.9555H56.3543L56.7279 53.6473H57.1995L56.7828 52.9408ZM56.5195 52.6775H56.2858V52.3004H56.4829C56.6039 52.3004 56.7426 52.3145 56.7426 52.4721C56.7426 52.6409 56.6624 52.6775 56.5195 52.6775ZM127.672 16C126.794 16 126.106 16.615 126.106 17.511C126.106 18.4075 126.798 19.0184 127.672 19.0184C128.546 19.0184 129.238 18.4034 129.238 17.511C129.238 16.615 128.551 16 127.672 16ZM127.672 18.5875C127.046 18.5875 126.581 18.1301 126.581 17.5116C126.581 16.8936 127.042 16.4326 127.672 16.4326C128.294 16.4326 128.763 16.9007 128.763 17.5116C128.763 18.1189 128.29 18.5875 127.672 18.5875Z" fill="#9E9E9E"/>
<path fill-rule="evenodd" clip-rule="evenodd" d="M127.938 17.6156C128.158 17.6049 128.33 17.4916 128.33 17.1877C128.33 16.7957 128.073 16.6972 127.646 16.6972H127.031V18.3215H127.441V17.6303H127.51L127.883 18.3215H128.355L127.938 17.6156ZM127.674 17.3523H127.441V16.9752H127.638C127.759 16.9752 127.898 16.9899 127.898 17.1475C127.898 17.3157 127.817 17.3523 127.674 17.3523ZM123.007 21.0813L124.909 16.0898H103.31L95.8944 25.0742L99.3182 16.0898H92.1488L81.0078 46.0371H88.0863L92.8429 33.5138L93.1687 46.0371L114.888 45.9899L116.956 40.2293H108.698L111.411 32.9696H118.217L120.311 27.3884H113.505L115.839 21.0813H123.007ZM100.191 44.0404L99.7373 28.432L110.44 16.6812L100.191 44.0404Z" fill="#9E9E9E"/>
</svg>
