<svg width="42" height="42" viewBox="0 0 42 42" fill="none" xmlns="http://www.w3.org/2000/svg">
<rect width="42" height="42" rx="21" fill="#BCEB0F"/>
<g clip-path="url(#clip0_3094_59616)">
<path d="M24 9C25.631 9 26.9579 10.3015 26.999 11.9226L27.001 12.0774C27.0414 13.6728 28.3272 14.9586 29.9226 14.999L30.0774 15.001C31.6985 15.0421 33 16.369 33 18C33 19.6568 31.6568 21 30 21C31.6568 21 33 22.3432 33 24C33 25.631 31.6985 26.9579 30.0774 26.999L29.9226 27.001C28.3272 27.0414 27.0414 28.3272 27.001 29.9226L26.999 30.0774C26.9579 31.6985 25.631 33 24 33C22.3432 33 21 31.6568 21 30C21 31.6568 19.6568 33 18 33C16.369 33 15.0421 31.6985 15.0009 30.0774L14.9991 29.9226C14.9586 28.3272 13.6728 27.0414 12.0774 27.001L11.9226 26.999C10.3015 26.9579 9 25.631 9 24C9 22.3432 10.3432 21 12 21C10.3432 21 9 19.6568 9 18C9 16.369 10.3015 15.0421 11.9226 15.0009L12.0774 14.9991C13.6728 14.9586 14.9586 13.6728 14.999 12.0774L15.001 11.9226C15.0421 10.3015 16.369 9 18 9C19.6568 9 21 10.3432 21 12C21 10.3432 22.3432 9 24 9ZM21 15C21 18.3137 18.3137 21 15 21C18.3137 21 21 23.6863 21 27C21 23.6863 23.6863 21 27 21C23.6863 21 21 18.3137 21 15Z" fill="#0A0A0A"/>
</g>
<defs>
<clipPath id="clip0_3094_59616">
<rect width="24" height="24" fill="white" transform="translate(9 9)"/>
</clipPath>
</defs>
</svg>
