<svg width="111" height="58" viewBox="0 0 111 58" fill="none" xmlns="http://www.w3.org/2000/svg">
<path fill-rule="evenodd" clip-rule="evenodd" d="M18.5133 35.3219C17.635 35.3219 16.9474 35.9363 16.9474 36.8329C16.9474 37.73 17.6385 38.3409 18.5133 38.3409C19.3874 38.3409 20.0791 37.7259 20.0791 36.8329C20.0791 35.9363 19.3909 35.3219 18.5133 35.3219ZM18.5133 37.9088C17.887 37.9088 17.4225 37.4514 17.4225 36.8329C17.4225 36.2149 17.8835 35.754 18.5133 35.754C19.1353 35.754 19.6034 36.222 19.6034 36.8329C19.6034 37.4402 19.1312 37.9088 18.5133 37.9088ZM33.7498 30.0371H26.1271L26.9935 16.7878L22.0434 30.0371H14.9648L26.1962 0.0898438H33.728L32.8586 13.5209L37.9026 0.0898438H44.9817L33.7498 30.0371ZM34.6694 30.0371L45.9001 0.0898438H52.9786L41.7479 30.0371H34.6694Z" fill="#9E9E9E"/>
<path fill-rule="evenodd" clip-rule="evenodd" d="M14.1481 19.7161C4.25656 31.3323 -5.07424 46.7884 3.16761 53.9059C11.1539 60.8032 21.1363 56.7195 27.9427 53.9968C34.7492 51.2741 109.981 18.6041 109.981 18.6041C110.706 18.2412 110.571 17.7873 109.663 18.0139C109.297 18.1054 27.7615 40.2021 27.7615 40.2021C17.415 43.1066 5.61762 36.7765 14.1481 19.7161Z" fill="#9E9E9E"/>
<path fill-rule="evenodd" clip-rule="evenodd" d="M18.7828 36.9408C19.0023 36.9301 19.1741 36.8168 19.1741 36.5128C19.1741 36.1209 18.9179 36.0224 18.49 36.0224H17.875V37.6473H18.2852V36.9555H18.3543L18.7279 37.6473H19.1995L18.7828 36.9408ZM18.5195 36.6775H18.2858V36.3004H18.4829C18.6039 36.3004 18.7426 36.3145 18.7426 36.4721C18.7426 36.6409 18.6624 36.6775 18.5195 36.6775ZM89.6719 0C88.7936 0 88.106 0.615009 88.106 1.51096C88.106 2.40751 88.7977 3.01839 89.6719 3.01839C90.546 3.01839 91.2377 2.40338 91.2377 1.51096C91.2383 0.615009 90.5507 0 89.6719 0ZM89.6719 2.58753C89.0456 2.58753 88.5811 2.13011 88.5811 1.51156C88.5811 0.893595 89.0421 0.432631 89.6719 0.432631C90.2939 0.432631 90.7626 0.900678 90.7626 1.51156C90.7626 2.11889 90.2904 2.58753 89.6719 2.58753Z" fill="#9E9E9E"/>
<path fill-rule="evenodd" clip-rule="evenodd" d="M89.9381 1.61556C90.1576 1.60494 90.33 1.49162 90.33 1.18766C90.33 0.795749 90.0732 0.697181 89.6459 0.697181H89.0309V2.32147H89.4405V1.63032H89.5102L89.8832 2.32147H90.3554L89.9381 1.61556ZM89.6742 1.35233H89.4405V0.975175H89.6382C89.7586 0.975175 89.8979 0.989931 89.8979 1.14752C89.8979 1.31573 89.8171 1.35233 89.6742 1.35233ZM85.0068 5.08134L86.909 0.0898438H65.3105L57.8944 9.07419L61.3182 0.0898438H54.1488L43.0078 30.0371H50.0863L54.8429 17.5138L55.1687 30.0371L76.8883 29.9899L78.9558 24.2293H70.698L73.4113 16.9696H80.2171L82.3112 11.3884H75.5054L77.8385 5.08134H85.0068ZM62.1912 28.0404L61.7373 12.432L72.4398 0.681245L62.1912 28.0404Z" fill="#9E9E9E"/>
</svg>
