<svg width="186" height="90" viewBox="0 0 186 90" fill="none" xmlns="http://www.w3.org/2000/svg">
<rect width="186" height="90" fill="#F0F2F4"/>
<g clip-path="url(#clip0_3038_55323)">
<path d="M52.8398 33.3672C45.291 33.3672 39 36.5701 39 46.2325C39 53.8872 43.2304 58.7076 53.0348 58.7076C64.5756 58.7076 65.3157 51.1058 65.3157 51.1058H59.7231C59.7231 51.1058 58.5239 55.1997 52.6937 55.1997C47.9448 55.1997 44.5292 51.9904 44.5292 47.4951H65.9001V44.6736C65.9001 40.2257 63.0761 33.368 52.8398 33.368V33.3672ZM52.6447 36.9738C57.1657 36.9738 60.2481 39.7432 60.2481 43.8933H44.6536C44.6528 39.4872 48.6752 36.9738 52.6447 36.9738Z" fill="#9E9E9E"/>
<path d="M65.9064 24.0008V53.8453C65.9064 55.5391 65.7852 57.9175 65.7852 57.9175H71.1177C71.1177 57.9175 71.3095 56.2093 71.3095 54.6488C71.3095 54.6488 73.9449 58.7708 81.11 58.7708C88.6556 58.7708 93.7802 53.5322 93.7802 46.0268C93.7802 39.0455 89.0722 33.4296 81.122 33.4296C73.6767 33.4296 71.3633 37.4497 71.3633 37.4497V24H65.9064V24.0008ZM79.7453 37.1221C84.8691 37.1221 88.1274 40.9247 88.1274 46.0276C88.1274 51.4997 84.3642 55.0799 79.7823 55.0799C74.3141 55.0799 71.3641 50.8102 71.3641 46.0765C71.3641 41.6664 74.0115 37.1221 79.7453 37.1221Z" fill="#9E9E9E"/>
<path d="M107.032 33.368C95.6758 33.368 94.9462 39.5867 94.9462 40.5805H100.599C100.599 40.5805 100.895 36.9506 106.642 36.9506C110.375 36.9506 113.269 38.6596 113.269 41.9451V43.1147H106.642C97.8432 43.1147 93.1914 45.6882 93.1914 50.9115C93.1914 56.0514 97.4892 58.8481 103.298 58.8481C111.213 58.8481 113.762 54.4748 113.762 54.4748C113.762 56.2143 113.896 57.929 113.896 57.929H118.922C118.922 57.929 118.727 55.8033 118.727 54.4451V42.6932C118.727 34.9887 112.512 33.3672 107.031 33.3672L107.032 33.368ZM113.269 46.6234V48.1831C113.269 50.2172 112.015 55.2736 104.625 55.2736C100.579 55.2736 98.8442 53.2547 98.8442 50.9131C98.845 46.6515 104.687 46.6242 113.269 46.6242V46.6234Z" fill="#9E9E9E"/>
<path d="M115.676 34.3281H122.035L131.162 52.6134L140.267 34.3281H146.028L129.443 66.881H123.4L128.185 57.807L115.676 34.3281Z" fill="#9E9E9E"/>
<path d="M52.8398 33.3672C45.291 33.3672 39 36.5701 39 46.2325C39 53.8872 43.2304 58.7076 53.0348 58.7076C64.5756 58.7076 65.3157 51.1058 65.3157 51.1058H59.7231C59.7231 51.1058 58.5239 55.1997 52.6937 55.1997C47.9448 55.1997 44.5292 51.9904 44.5292 47.4951H65.9001V44.6736C65.9001 40.2257 63.0761 33.368 52.8398 33.368V33.3672ZM52.6447 36.9738C57.1657 36.9738 60.2481 39.7432 60.2481 43.8933H44.6536C44.6528 39.4872 48.6752 36.9738 52.6447 36.9738Z" fill="#9E9E9E"/>
<path d="M65.9064 24.0008V53.8453C65.9064 55.5391 65.7852 57.9175 65.7852 57.9175H71.1177C71.1177 57.9175 71.3095 56.2093 71.3095 54.6488C71.3095 54.6488 73.9449 58.7708 81.11 58.7708C88.6556 58.7708 93.7802 53.5322 93.7802 46.0268C93.7802 39.0455 89.0722 33.4296 81.122 33.4296C73.6767 33.4296 71.3633 37.4497 71.3633 37.4497V24H65.9064V24.0008ZM79.7453 37.1221C84.8691 37.1221 88.1274 40.9247 88.1274 46.0276C88.1274 51.4997 84.3642 55.0799 79.7823 55.0799C74.3141 55.0799 71.3641 50.8102 71.3641 46.0765C71.3641 41.6664 74.0115 37.1221 79.7453 37.1221Z" fill="#9E9E9E"/>
<path d="M107.032 33.368C95.6758 33.368 94.9462 39.5867 94.9462 40.5805H100.599C100.599 40.5805 100.895 36.9506 106.642 36.9506C110.375 36.9506 113.269 38.6596 113.269 41.9451V43.1147H106.642C97.8432 43.1147 93.1914 45.6882 93.1914 50.9115C93.1914 56.0514 97.4892 58.8481 103.298 58.8481C111.213 58.8481 113.762 54.4748 113.762 54.4748C113.762 56.2143 113.896 57.929 113.896 57.929H118.922C118.922 57.929 118.727 55.8033 118.727 54.4451V42.6932C118.727 34.9887 112.512 33.3672 107.031 33.3672L107.032 33.368ZM113.269 46.6234V48.1831C113.269 50.2172 112.015 55.2736 104.625 55.2736C100.579 55.2736 98.8442 53.2547 98.8442 50.9131C98.845 46.6515 104.687 46.6242 113.269 46.6242V46.6234Z" fill="#9E9E9E"/>
<path d="M115.676 34.3281H122.035L131.162 52.6134L140.267 34.3281H146.028L129.443 66.881H123.4L128.185 57.807L115.676 34.3281Z" fill="#9E9E9E"/>
</g>
<defs>
<clipPath id="clip0_3038_55323">
<rect width="107.03" height="42.8848" fill="white" transform="translate(39 24)"/>
</clipPath>
</defs>
</svg>
