<svg width="186" height="90" viewBox="0 0 186 90" fill="none" xmlns="http://www.w3.org/2000/svg">
<rect width="186" height="90" fill="#F0F2F4"/>
<g clip-path="url(#clip0_3038_55310)">
<path fill-rule="evenodd" clip-rule="evenodd" d="M37.7267 54.1104C37.4337 54.3645 37.013 54.4069 36.6754 54.2169C35.1986 52.9884 34.9308 52.4214 34.1278 51.2517C31.6824 53.7405 29.9536 54.4847 26.7918 54.4847C23.0467 54.4842 20.1328 52.1726 20.1328 47.5499C20.1328 43.9391 22.1015 41.4857 24.8581 40.2806C27.2717 39.2214 30.6426 39.0283 33.2219 38.737V38.1621C33.2219 37.1029 33.3046 35.8505 32.6824 34.9332C32.1388 34.1139 31.1074 33.7794 30.1856 33.7794C28.4883 33.7794 26.9765 34.6495 26.6062 36.4493C26.5594 36.8691 26.2364 37.205 25.8188 37.2686L21.5425 36.8002C21.329 36.7697 21.1377 36.653 21.0126 36.4772C20.8876 36.3017 20.8399 36.0825 20.881 35.8709C21.8695 30.6414 26.5947 29.0625 30.8277 29.0625C32.9935 29.0625 35.8208 29.6374 37.5221 31.2755C39.6839 33.2995 39.4908 36.0008 39.4908 38.9346V45.8609C39.4908 47.948 40.3569 48.8615 41.1722 49.9839C41.4559 50.3776 41.5186 50.8699 41.1722 51.1651C40.2628 51.9252 38.648 53.3269 37.762 54.1183L37.7267 54.1104ZM33.2418 43.2657C33.2418 44.9984 33.2812 46.4434 32.411 47.9909C31.7022 49.2433 30.5798 50.0148 29.3279 50.0148C27.623 50.0148 26.6266 48.7152 26.6266 46.7858C26.6266 42.9979 30.0248 42.3085 33.2418 42.3085V43.2732V43.2657Z" fill="#9E9E9E"/>
<path fill-rule="evenodd" clip-rule="evenodd" d="M49.8975 53.9363H45.4515C45.0392 53.9147 44.7043 53.5951 44.6641 53.1842V30.3449C44.6791 29.8871 45.0569 29.5252 45.5147 29.5296H49.6611C50.0858 29.5531 50.4251 29.8924 50.4486 30.3171V33.2982H50.5312C51.6103 30.4117 53.6462 29.0692 56.3868 29.0692C59.1275 29.0692 60.9115 30.4121 62.1594 33.2982C62.9928 31.0767 64.9593 29.4775 67.3036 29.1147C69.6479 28.7514 72.0063 29.6808 73.4725 31.546C74.8862 33.4679 74.5949 36.2713 74.5949 38.7048V53.113C74.591 53.3362 74.4977 53.5483 74.3369 53.703C74.1756 53.8572 73.9599 53.9412 73.7368 53.9363H69.2908C68.8533 53.9133 68.5091 53.5549 68.5033 53.117V41.0124C68.5033 40.0518 68.586 37.6496 68.3774 36.7362C68.0468 35.2006 67.0504 34.7671 65.7627 34.7671C64.5823 34.8033 63.5372 35.5386 63.1046 36.6376C62.6477 37.7954 62.687 39.7133 62.687 41.0124V53.1135C62.683 53.3358 62.5907 53.5474 62.4303 53.7021C62.2699 53.8563 62.0551 53.9407 61.8324 53.9367H57.3754C56.9388 53.912 56.5954 53.5545 56.5879 53.1175V41.0129C56.5879 38.4653 56.9816 34.7123 53.8313 34.7123C50.681 34.7123 50.7597 38.3624 50.7597 41.0129V53.1139C50.7557 53.3371 50.6624 53.5492 50.5016 53.7039C50.3403 53.8581 50.1242 53.942 49.9015 53.9372" fill="#9E9E9E"/>
<path fill-rule="evenodd" clip-rule="evenodd" d="M99.4688 49.9839C98.6539 48.8615 97.7873 47.948 97.7873 45.8649V38.9346C97.7873 35.9968 97.9959 33.2995 95.8187 31.2755C94.1134 29.6374 91.2861 29.0625 89.1243 29.0625C84.8913 29.0625 80.1661 30.6374 79.1736 35.8709C79.1316 36.0839 79.1789 36.3044 79.3048 36.4811C79.4308 36.6579 79.6239 36.7746 79.8391 36.8042L84.1511 37.2686C84.5683 37.2041 84.8904 36.8687 84.9386 36.4493C85.3129 34.6499 86.8171 33.7794 88.514 33.7794C89.4314 33.7794 90.4832 34.1179 91.0108 34.9371C91.637 35.8505 91.5543 37.1029 91.5543 38.1621V38.7251C88.9749 39.0124 85.6006 39.2055 83.1905 40.2647C80.4025 41.4698 78.4453 43.9228 78.4453 47.538C78.4453 52.1572 81.3592 54.4683 85.1039 54.4683C88.2542 54.4683 89.9944 53.7241 92.4359 51.2354C93.2472 52.4166 93.5111 52.972 94.9875 54.2005C95.3251 54.3892 95.744 54.3486 96.0387 54.098C96.9248 53.3105 98.539 51.9048 99.4489 51.1448C99.8311 50.8739 99.7684 50.3935 99.4688 49.9839ZM90.7271 47.9874C90.0222 49.2358 88.8958 50.0073 87.6479 50.0073C85.9431 50.0073 84.9466 48.7077 84.9466 46.7823C84.9466 42.9904 88.3448 42.305 91.5618 42.305V43.2657C91.5618 45.0028 91.5932 46.4438 90.7271 47.9874Z" fill="#9E9E9E"/>
<path fill-rule="evenodd" clip-rule="evenodd" d="M103.241 33.5317V30.2674C103.231 30.0447 103.315 29.8281 103.473 29.6713C103.631 29.5144 103.849 29.4322 104.071 29.4446H118.693C118.915 29.4371 119.131 29.5206 119.29 29.6761C119.449 29.8317 119.538 30.0451 119.535 30.2678V33.0677C119.535 33.5361 119.142 34.1508 118.437 35.1195L110.86 45.9324C113.672 45.8656 116.645 46.2868 119.2 47.7243C119.672 47.9762 119.973 48.4614 119.988 48.9961V52.4928C119.988 52.9732 119.464 53.5282 118.909 53.241C114.059 50.7482 108.302 50.7584 103.461 53.2684C102.953 53.5401 102.421 52.9926 102.421 52.5123V49.1848C102.375 48.4004 102.564 47.62 102.964 46.9443L111.742 34.3435H104.087C103.864 34.3523 103.647 34.2688 103.487 34.1137C103.327 33.9582 103.238 33.7438 103.24 33.5207" fill="#9E9E9E"/>
<path fill-rule="evenodd" clip-rule="evenodd" d="M132.182 33.6801C128.902 33.6801 128.693 38.1455 128.693 40.9335C128.693 43.7214 128.654 49.6752 132.139 49.6752C135.624 49.6752 135.754 44.8712 135.754 41.9414C135.754 40.0196 135.671 37.7124 135.088 35.8891C134.588 34.3142 133.592 33.6801 132.182 33.6801ZM132.139 29.0176C138.743 29.0176 142.314 34.6881 142.314 41.8942C142.314 48.8603 138.376 54.3849 132.139 54.3849C125.661 54.3849 122.133 48.7145 122.133 41.6542C122.133 34.5939 125.704 29.0176 132.139 29.0176Z" fill="#9E9E9E"/>
<path fill-rule="evenodd" clip-rule="evenodd" d="M150.932 53.8874H146.498C146.061 53.8645 145.716 53.5061 145.711 53.0682V30.2289C145.758 29.7954 146.129 29.4702 146.566 29.4808H150.692C151.068 29.4927 151.39 29.7534 151.48 30.1184V33.6112H151.567C152.811 30.4888 154.555 29 157.627 29C159.619 29 161.565 29.7207 162.821 31.6894C163.983 33.5167 163.983 36.5919 163.983 38.8009V53.1698C163.918 53.5892 163.552 53.8954 163.128 53.8866H158.655C158.253 53.8693 157.922 53.5675 157.867 53.1698V40.7696C157.867 38.2729 158.158 34.6188 155.083 34.6188C153.941 34.6714 152.935 35.3855 152.508 36.446C151.886 37.8398 151.803 39.234 151.803 40.7776V53.0673C151.786 53.5308 151.4 53.8954 150.937 53.8866" fill="#9E9E9E"/>
<path fill-rule="evenodd" clip-rule="evenodd" d="M109.277 62.8836C100.925 69.0464 88.8003 72.3341 78.3886 72.3341C64.4599 72.4052 51.0066 67.2726 40.6648 57.9414C39.8773 57.2365 40.5782 56.2719 41.5195 56.8189C52.2616 63.0683 65.5399 66.8329 79.2671 66.8329C89.1613 66.779 98.9477 64.7714 108.064 60.9264C109.474 60.3276 110.659 61.8557 109.277 62.8951M112.75 58.9299C113.821 60.2963 111.568 65.9354 110.556 68.4516C110.249 69.2116 110.907 69.5187 111.596 68.9438C116.074 65.1952 117.231 57.343 116.321 56.2091C115.412 55.0752 107.58 54.1141 102.799 57.4729C102.063 57.9886 102.189 58.7014 103.008 58.6029C105.697 58.2799 111.691 57.5596 112.758 58.9299" fill="#9E9E9E"/>
</g>
<defs>
<clipPath id="clip0_3038_55310">
<rect width="151.703" height="43.3437" fill="white" transform="translate(17.6836 29)"/>
</clipPath>
</defs>
</svg>
