<svg width="186" height="90" viewBox="0 0 186 90" fill="none" xmlns="http://www.w3.org/2000/svg">
<rect width="186" height="90" fill="#F0F2F4"/>
<path d="M104.196 55.7263C104.08 56.3427 103.926 56.8819 103.926 57.4405C103.907 58.3456 104.099 59.1931 104.6 59.9827C104.716 60.156 104.87 60.2909 104.542 60.4449C99.9586 62.4672 93.9111 61.9665 90.3481 57.6523C89.4814 56.6123 88.8844 55.4182 88.5184 54.1085C88.3258 54.1856 88.3836 54.3204 88.3836 54.3974C88.4414 56.1693 88.4799 57.9412 88.5569 59.7131C88.5762 60.1175 88.6725 60.5412 88.7303 60.9457C88.7881 61.3309 88.6725 61.562 88.2295 61.5427C86.7465 61.485 85.2443 61.485 83.7613 61.5427C83.3569 61.562 83.1835 61.3501 83.2413 61.0035C83.7421 56.7471 83.5687 52.4907 83.6265 48.2151C83.665 45.6728 83.7035 43.1113 83.5495 40.5691C83.5302 40.2994 83.5687 40.2031 83.8576 40.2031C85.2443 40.2224 86.6117 40.2224 87.9984 40.2031C88.4414 40.2031 88.3644 40.4535 88.3644 40.7231C88.3451 43.4387 88.3451 46.1543 88.3258 48.8699C88.3258 49.0625 88.3258 49.2744 88.3258 49.4862C88.5762 49.4477 88.5377 49.2551 88.5762 49.1203C90.5022 42.7454 98.129 40.3957 103.31 44.5943C103.772 44.9602 104.196 45.3647 104.677 45.7114C104.985 45.9425 104.947 46.0966 104.716 46.3662C101.962 49.6211 99.2075 52.8952 96.4726 56.1501C96.0682 56.6315 96.0682 56.6508 96.6845 56.8434C99.1112 57.5945 101.422 57.2286 103.618 56.0345C103.772 55.9575 103.965 55.8612 104.196 55.7263ZM92.9289 53.6271C94.8163 51.3737 96.646 49.2166 98.5142 46.9825C96.4341 46.6743 94.7971 47.2329 93.5837 48.8122C92.4666 50.2374 92.274 51.8359 92.9289 53.6271Z" fill="#9E9E9E"/>
<path d="M95.7966 29.0199C96.2588 27.8066 96.2588 27.8258 94.9491 27.691C93.5624 27.5369 92.1565 27.5755 90.712 27.5947C90.8854 27.1517 91.0394 26.7665 91.1743 26.3621C91.2128 26.208 91.3861 26.0154 91.2128 25.8999C91.1165 25.8421 90.9239 25.8999 90.7891 25.9384C89.4216 26.4391 88.0735 26.9784 86.8216 27.691C86.3594 27.9606 85.8971 28.2303 85.3579 28.5577C85.6853 28.654 85.8971 28.5577 86.109 28.4999C87.4186 28.1147 88.7476 27.8643 90.0957 27.691C90.2305 27.6718 90.4231 27.5947 90.5002 27.7488C90.5772 27.8643 90.4424 27.9992 90.3846 28.0955C89.6335 29.3666 89.2098 30.734 88.8824 32.1592C88.6127 33.3341 88.2661 33.5844 87.072 33.5844C86.109 33.5844 85.146 33.5844 84.183 33.5652C83.4704 33.5459 83.0852 33.3148 82.9504 32.6407C82.5845 30.6377 81.66 28.8658 80.7741 27.0747C79.3681 24.2435 80.7163 20.8153 83.663 19.5827C86.552 18.3694 89.9994 19.7753 91.0202 22.645C91.3283 23.4924 91.5595 24.3591 91.3283 25.2836C91.2706 25.4762 91.2128 25.8614 91.6557 25.7073C92.715 25.3606 93.8321 25.2258 94.9106 24.9754C95.3151 24.9369 95.7003 24.8984 96.1047 24.8599C96.2395 24.8599 96.3743 24.8406 96.5092 24.8406C96.6632 24.8213 96.8173 24.8213 96.9521 24.8021C97.5107 24.8021 98.0884 24.8021 98.647 24.7828C99.0129 24.7636 99.0707 24.8791 98.8974 25.2065C98.4929 25.9576 98.1077 26.7088 97.7225 27.4599C97.4529 27.9992 97.5299 28.1147 98.1077 28.2688C101.228 29.1162 104.059 30.5222 106.563 32.5829C106.64 32.66 106.755 32.6985 106.775 32.8526C106.524 32.9296 106.351 32.7563 106.158 32.66C102.903 31.2926 99.5329 30.7725 96.0277 31.177C95.8351 31.1963 95.6617 31.254 95.4884 31.2926C95.3343 31.2926 95.1995 31.2926 95.0454 31.2926C94.9299 31.0807 95.161 30.9266 95.1225 30.7148C95.3343 30.1755 95.5654 29.5977 95.7966 29.0199Z" fill="#9E9E9E"/>
<path d="M76.5944 66.5665C72.5498 63.7738 69.6416 60.2493 67.6964 55.8967C67.3883 55.2226 67.3883 55.2226 68.1587 55.2804C68.9483 55.3382 69.7379 55.3574 70.5276 55.4344C70.9706 55.473 71.1246 55.3767 71.0283 54.8759C70.4313 51.6018 70.5854 48.3277 71.4135 45.1113C71.452 44.938 71.5098 44.7839 71.5483 44.6298C71.5676 44.5528 71.6061 44.495 71.6639 44.418C71.6061 48.7321 72.6461 52.7188 75.0536 56.3782C73.9943 56.5322 72.9928 56.6093 71.9721 56.6285C71.4906 56.6285 71.4135 56.7826 71.5483 57.2256C72.4728 60.4034 73.9943 63.2731 76.1321 65.7961C76.3055 65.9887 76.5173 66.162 76.5944 66.5665Z" fill="#9E9E9E"/>
<path d="M103.505 70.9523C100.269 73.7835 93.3741 76.2487 89.6377 75.9791C90.0422 75.0161 90.4274 74.0531 90.8511 73.1286C91.0437 72.7049 90.9474 72.5894 90.5044 72.5123C87.057 71.9346 83.9369 70.6056 81.125 68.5063C85.0732 69.8353 89.0792 70.2205 93.22 69.1997C93.0467 70.2397 92.7385 71.1834 92.4496 72.1272C92.257 72.7435 92.257 72.7627 92.9119 72.8012C96.3016 72.9938 99.5757 72.4931 102.734 71.2605C102.946 71.1642 103.158 71.0871 103.505 70.9523Z" fill="#9E9E9E"/>
<path d="M82.1736 65.7006C81.3455 66.394 80.5943 66.991 79.8432 67.6073C79.3039 68.0503 79.2847 68.0503 79.824 68.474C82.4818 70.5733 85.4477 72.0563 88.7411 72.8652C88.9337 72.923 89.1456 72.9615 89.3189 73.0771C84.2537 73.2697 79.5928 71.96 75.2209 69.2251C75.9913 68.7436 76.7039 68.3199 77.4165 67.877C78.3795 67.2799 78.3602 67.2799 77.6091 66.4903C75.5291 64.3332 73.9498 61.8487 72.852 59.0561C72.7364 58.7672 72.5053 58.4975 72.5246 57.9775C75.0668 61.4443 78.1291 64.1021 82.1736 65.7006Z" fill="#9E9E9E"/>
<path d="M106.469 67.7034C107.028 66.933 107.644 66.1819 108.164 65.373C109.898 62.6959 110.822 60.0573 111.284 56.5521C112.016 57.0721 112.729 57.5536 113.422 58.0351C114.308 58.6706 114.308 58.6706 114.713 57.6691C116.003 54.472 116.562 51.1594 116.407 47.7119C118.006 52.5076 117.929 57.3224 116.484 62.2529C115.772 61.5981 115.117 61.001 114.462 60.404C113.75 59.7684 113.75 59.7684 113.287 60.5581C111.67 63.3122 109.551 65.6233 106.951 67.4722C106.797 67.5685 106.681 67.7419 106.469 67.7034C106.469 67.7034 106.45 67.6841 106.469 67.7034Z" fill="#9E9E9E"/>
<path d="M104.275 65.7291C104.718 66.7114 105.065 67.6744 105.353 68.6373C105.488 69.1188 105.662 69.1188 106.047 68.8684C108.936 67.0773 111.324 64.8047 113.211 61.9735C113.288 61.8387 113.385 61.7231 113.462 61.6076C113.481 61.5883 113.52 61.5691 113.558 61.5498C113.404 64.3617 108.377 71.507 105.296 73.2982C105.065 72.2774 104.833 71.2759 104.641 70.2744C104.564 69.8507 104.429 69.7736 104.005 69.9662C100.635 71.5263 97.4185 72.2196 93.8555 72.1233C97.9192 71.0255 101.424 68.9647 104.275 65.7291Z" fill="#9E9E9E"/>
<path d="M114.193 57.0287C114.367 54.3516 114.174 51.7323 113.423 49.1708C113.057 47.9382 112.595 46.7441 111.959 45.627C111.651 45.107 111.882 45.0878 112.306 45.0878C113.153 45.0878 114.001 45.0685 114.848 45.0878C115.272 45.107 115.368 44.9915 115.272 44.5678C114.559 41.2166 113.211 38.1543 111.131 35.4002C111.092 35.3424 111.054 35.2846 110.996 35.2076C111.15 35.0343 111.227 35.1883 111.324 35.2654C114.964 38.1928 117.506 41.8907 119.085 46.2626C119.22 46.6478 119.124 46.7248 118.738 46.667C117.853 46.5322 116.986 46.4552 116.1 46.3204C115.599 46.2433 115.541 46.4167 115.58 46.8596C115.907 50.1145 115.503 53.2923 114.424 56.3931C114.347 56.6435 114.27 56.8361 114.193 57.0287Z" fill="#9E9E9E"/>
<path d="M114.322 43.9063C112.165 40.2278 109.333 37.4351 105.462 35.5862C106.348 34.9699 107.119 34.3536 107.966 33.8336C108.467 33.5254 108.371 33.3521 108.005 33.0054C105.559 30.7328 102.747 29.0957 99.5881 28.0557C99.357 27.9787 99.1067 27.9594 98.9141 27.7668C103.96 27.9594 108.467 29.5772 112.608 32.601C111.953 32.9476 111.336 33.2558 110.72 33.5832C110.277 33.8336 109.584 34.0069 109.468 34.3728C109.353 34.758 110.008 35.1432 110.296 35.5477C112.107 37.8588 113.417 40.4396 114.206 43.2708C114.245 43.4248 114.283 43.5597 114.322 43.7137C114.341 43.6945 114.322 43.733 114.322 43.9063Z" fill="#9E9E9E"/>
<path d="M86.7109 15.1462C89.1762 14.6647 91.4873 15.0691 93.7792 16.1862C93.3362 16.5329 92.9703 16.8603 92.5466 17.1492C92.1614 17.4188 92.0651 17.5921 92.4888 17.9773C93.4903 18.8633 94.2414 19.9418 94.7807 21.1744C94.8385 21.29 94.9348 21.4055 94.8385 21.5404C94.6459 21.5789 94.5881 21.4055 94.4918 21.3092C93.3748 20.1729 92.0651 19.3448 90.5243 18.9211C90.1969 18.8248 90.0814 18.7477 90.3703 18.4781C90.6784 18.1699 90.948 17.8425 91.2755 17.5536C91.5644 17.3032 91.5066 17.1684 91.2177 16.9566C89.8502 16.0129 88.348 15.4158 86.7109 15.1462Z" fill="#9E9E9E"/>
<path d="M80.1953 16.8379C80.1953 16.6646 80.3301 16.5876 80.4457 16.472C82.025 14.912 83.9124 13.9297 86.0887 13.4482C86.1658 13.4482 86.2428 13.4482 86.3776 13.4482C86.2428 14.0068 86.1273 14.546 85.9539 15.0853C85.8384 15.4512 85.9347 15.5668 86.3391 15.5861C87.8221 15.7209 89.2088 16.1831 90.4992 16.9535C90.5762 16.992 90.6533 17.069 90.8459 17.2231C89.3821 16.8957 88.0532 16.8379 86.7436 17.1461C86.3006 17.2424 85.8769 17.3772 85.4532 17.5313C85.145 17.6468 85.0295 17.6083 85.068 17.2616C85.1258 16.8957 85.1065 16.5105 85.2028 16.1446C85.3569 15.5475 85.0872 15.509 84.6058 15.5475C83.2191 15.6438 81.9094 16.0098 80.6575 16.6261C80.4842 16.6839 80.3301 16.7609 80.1953 16.8379Z" fill="#9E9E9E"/>
<path d="M75.6325 28.4992C75.3436 28.4029 75.3244 28.191 75.2473 28.037C74.3614 26.3036 73.9955 24.4547 74.0725 22.5095C74.0918 21.8354 74.111 21.8354 74.6503 22.1821C74.9392 22.3554 75.2473 22.5095 75.517 22.7021C75.8636 22.9332 76.0562 22.9332 76.2296 22.471C76.7303 21.1613 77.52 20.0442 78.5215 19.062C78.6178 18.9657 78.7141 18.8887 78.9452 18.7153C78.7526 19.139 78.6178 19.4279 78.4829 19.7168C77.9244 21.0457 77.674 22.4324 77.8281 23.8576C77.8666 24.2621 77.7703 24.3391 77.4237 24.1658C77.0577 23.9925 76.6725 23.8769 76.3259 23.7036C75.9599 23.511 75.8059 23.5687 75.7288 23.9925C75.4399 25.3214 75.3821 26.6503 75.594 27.9792C75.6133 28.1525 75.6133 28.2873 75.6325 28.4992Z" fill="#9E9E9E"/>
<path d="M75.8438 22.2119C76.1134 19.7081 77.0571 17.6474 78.5786 15.8562C78.7905 15.5866 78.8675 15.6636 78.9638 15.9525C79.1179 16.357 79.3105 16.7422 79.4453 17.1659C79.5801 17.5511 79.7149 17.6088 80.0809 17.3777C81.429 16.5496 82.912 16.0873 84.5106 15.991C82.7387 16.8385 81.3135 18.0518 80.3312 19.7852C79.946 19.3807 79.6957 18.9185 79.4838 18.4563C79.2527 17.9748 79.0601 18.0326 78.7134 18.3407C77.6542 19.2652 76.826 20.3244 76.1712 21.5763C76.0941 21.7304 76.0171 21.923 75.8438 22.2119Z" fill="#9E9E9E"/>
<path d="M79.2679 34.1237C77.0723 33.1414 75.4545 31.6777 74.1641 29.6554C74.7804 29.5784 75.3196 29.5014 75.8782 29.4628C76.2441 29.4243 76.3404 29.328 76.2441 28.9236C75.8589 27.6332 75.7819 26.3235 75.9745 24.9946C76.013 24.7635 76.013 24.5516 76.1671 24.3013C76.3211 25.2642 76.5715 26.1502 76.976 26.9976C77.3804 27.845 77.9197 28.6154 78.613 29.328C78.093 29.5591 77.5923 29.694 77.1108 29.771C76.5715 29.848 76.5715 30.0599 76.7834 30.4836C77.3226 31.6199 78.016 32.6407 78.9019 33.5459C79.0175 33.6807 79.2293 33.7577 79.2679 34.1237Z" fill="#9E9E9E"/>
<path d="M95.0218 31.319C95.1758 31.319 95.3107 31.319 95.4647 31.319C94.9447 33.3991 93.8277 35.1324 92.3254 36.6347C92.1328 36.8273 92.0173 36.885 91.9402 36.5384C91.8247 36.0954 91.6513 35.6909 91.5358 35.248C91.4395 34.882 91.3239 34.805 90.958 34.9976C90.0721 35.4791 89.1283 35.768 88.1268 35.9413C88.0883 35.6909 87.9728 35.4983 87.7031 35.4213C87.7994 35.3057 88.0305 35.3057 87.992 35.0746L87.9728 35.0939C88.2039 35.2095 88.3194 35.0169 88.4735 34.9206C89.3209 34.3813 90.0721 33.7072 90.6306 32.879C90.9002 32.4746 91.0158 32.6094 91.1506 32.9368C91.3239 33.3605 91.5358 33.7457 91.7284 34.1694C91.8054 34.3428 91.8825 34.4776 92.0943 34.3235C93.2691 33.5146 94.3284 32.6094 95.0218 31.319Z" fill="#9E9E9E"/>
<path d="M83.5074 36.5709C82.8911 36.9369 82.2362 36.6865 81.6392 36.5902C80.7918 36.4554 79.9443 36.2628 79.1354 35.9354C79.0584 35.8969 78.9814 35.8583 78.9236 35.8198C79.3088 35.4154 79.6554 35.0109 80.0406 34.6257C80.291 34.3754 80.368 34.2405 80.0214 33.9902C78.8851 33.1235 77.9991 32.0257 77.3828 30.6968C78.1725 31.159 78.8465 31.7368 79.6362 32.122C80.4451 32.5072 81.2732 32.7576 82.2555 32.9116C81.851 33.4316 81.5044 33.8939 81.1192 34.3368C80.9073 34.5872 80.9458 34.7028 81.2155 34.8376C81.9281 35.2228 82.6599 35.5695 83.4496 35.7813C83.4688 36.0317 83.4881 36.3013 83.5074 36.5709Z" fill="#9E9E9E"/>
<path d="M96.0714 24.8676C95.667 24.9062 95.2818 24.9447 94.8773 24.9832C94.6077 24.3284 94.2803 23.7121 93.8373 23.1728C93.5099 22.7683 93.664 22.7106 94.0684 22.672C94.4344 22.6335 94.8196 22.518 95.1855 22.4987C95.6092 22.4794 95.6863 22.3254 95.5514 21.9402C95.0314 20.4957 94.2803 19.2053 93.2018 18.1075C93.1632 18.069 93.144 18.0305 93.1055 17.992C93.3366 17.9149 93.4907 18.0305 93.6447 18.1268C95.4359 19.2053 96.8033 20.6883 97.8048 22.4987C97.9781 22.7876 98.0359 22.9609 97.5737 22.9417C97.0344 22.9224 96.3218 22.7298 95.9944 23.0765C95.6863 23.3846 96.0907 24.0587 96.0714 24.5787C96.0714 24.675 96.0714 24.7713 96.0714 24.8676Z" fill="#9E9E9E"/>
<path d="M95.7879 29.0254C95.5567 29.6032 95.3449 30.181 95.1138 30.7395C94.9212 30.7202 94.9212 30.8743 94.8441 30.9706C94.1893 31.9914 93.3804 32.8773 92.3789 33.5707C92.8411 32.7425 93.2648 31.9143 93.5345 31.0091C93.8041 30.0847 93.9389 29.1217 93.8812 28.1009C94.5938 28.3321 95.1523 28.7558 95.7879 29.0254Z" fill="#9E9E9E"/>
<path d="M87.9992 35.1031L88.0185 35.0838C86.6318 35.3342 85.2451 35.2187 83.8584 35.1609C83.4155 35.1416 83.454 34.7949 83.454 34.4868C83.454 34.1786 83.5888 34.0053 83.9355 34.0053C85.0718 34.0053 86.2081 34.0053 87.3251 34.0246C88.1918 34.0246 88.3074 34.2364 87.9992 35.1031Z" fill="#9E9E9E"/>
<path d="M85.8025 38.125C85.1862 38.1058 84.5507 38.1636 83.9343 38.0865C83.4336 38.0287 83.4336 37.7206 83.4336 37.3739C83.4336 37.008 83.6454 36.8924 83.9921 36.9117C85.1862 36.931 86.3611 36.931 87.5551 36.931C87.9211 36.931 88.1329 37.008 88.1329 37.4317C88.1329 37.8169 88.0752 38.0673 87.5937 38.125C87.0159 38.1443 86.3996 38.1058 85.8025 38.125Z" fill="#9E9E9E"/>
<path d="M83.5109 36.5889C83.4916 36.3192 83.4724 36.0496 83.4531 35.78C83.5687 35.4718 83.8191 35.4718 84.1079 35.4718C85.3213 35.4718 86.5347 35.4718 87.748 35.4525C88.0176 35.5296 88.1139 35.7222 88.1717 35.9725C88.2102 36.5311 87.9406 36.6852 87.4013 36.6852C86.0917 36.6466 84.8013 36.7429 83.5109 36.5889Z" fill="#9E9E9E"/>
<path d="M85.8359 38.3767C86.1633 38.3767 86.4714 38.3767 86.7989 38.3767C86.9337 38.3767 87.0685 38.3382 87.1648 38.473C87.2611 38.6271 87.1263 38.7619 87.0492 38.8774C86.5485 39.6285 85.027 39.6093 84.5262 38.8582C84.3336 38.5693 84.3336 38.3574 84.7573 38.3767C85.1233 38.3767 85.4699 38.3767 85.8359 38.3767Z" fill="#9E9E9E"/>
<path d="M96.9455 24.8101C96.7914 24.8294 96.6374 24.8294 96.5025 24.8487C96.464 24.4635 96.4448 24.0783 96.4062 23.6738C96.6759 24.0012 96.7722 24.425 96.9455 24.8101Z" fill="#9E9E9E"/>
<path d="M106.442 67.6864C106.422 67.7061 106.422 67.7257 106.402 67.7649C106.402 67.7453 106.402 67.7453 106.402 67.7257C106.422 67.7257 106.442 67.7061 106.442 67.6864C106.461 67.7061 106.442 67.6864 106.442 67.6864Z" fill="#9E9E9E"/>
</svg>
