<svg width="186" height="120" viewBox="0 0 186 120" fill="none" xmlns="http://www.w3.org/2000/svg">
<foreignObject x="-0.000648499" y="0.000172138" width="185.57" height="119.556"><div xmlns="http://www.w3.org/1999/xhtml" style="backdrop-filter:blur(1.39px);clip-path:url(#bgblur_0_2608_50022_clip_path);height:100%;width:100%"></div></foreignObject><g filter="url(#filter0_d_2608_50022)" data-figma-bg-blur-radius="2.77052">
<path d="M41.1592 13.1602C34.4935 13.1602 29.0898 18.5638 29.0898 25.2295V67.0703C29.0901 73.7358 34.4936 79.1396 41.1592 79.1396H154.373L166.585 91.1582L166.637 77.7588C170.479 75.7398 173.101 71.7123 173.102 67.0703V25.2295C173.102 18.5638 167.698 13.1602 161.032 13.1602H41.1592Z" fill="white"/>
</g>
<g clip-path="url(#clip1_2608_50022)">
<g clip-path="url(#clip2_2608_50022)">
<path d="M54.3897 46.6076C60.3878 46.6076 65.2502 41.7452 65.2502 35.7472C65.2502 29.7491 60.3878 24.8867 54.3897 24.8867C48.3917 24.8867 43.5293 29.7491 43.5293 35.7472C43.5293 41.7452 48.3917 46.6076 54.3897 46.6076Z" fill="#F7931A"/>
<path d="M58.0403 35.1753C58.4382 34.7971 58.741 34.2051 58.6532 33.2853C58.4796 31.5035 56.6985 31.1396 55.7847 31.0328V29.4321C55.7847 29.3439 55.7497 29.2593 55.6873 29.197C55.625 29.1346 55.5404 29.0996 55.4522 29.0996H54.2711C54.1829 29.0996 54.0984 29.1346 54.036 29.197C53.9737 29.2593 53.9386 29.3439 53.9386 29.4321V30.9652H53.6596V29.4321C53.6596 29.3439 53.6246 29.2593 53.5622 29.197C53.4999 29.1346 53.4153 29.0996 53.3271 29.0996H52.1549C52.0667 29.0996 51.9821 29.1346 51.9198 29.197C51.8574 29.2593 51.8224 29.3439 51.8224 29.4321V31.0137H49.7591C49.671 31.0137 49.5864 31.0487 49.524 31.1111C49.4617 31.1734 49.4267 31.258 49.4267 31.3462V32.592C49.4227 32.7738 49.5851 32.9296 49.7649 32.9245C50.0818 32.9187 50.4577 32.9156 50.5588 32.9194C50.7326 32.9141 50.9123 32.9396 50.9567 33.1333L50.9573 38.3232C50.956 38.3427 50.9467 38.3607 50.9256 38.3786C50.6894 38.4354 50.4323 38.3884 49.9876 38.3968C49.8163 38.39 49.6805 38.5134 49.6543 38.6765L49.4307 40.068C49.395 40.263 49.5601 40.4583 49.7589 40.4532H51.7998V42.0657C51.7998 42.1538 51.8348 42.2384 51.8972 42.3007C51.9595 42.3631 52.0441 42.3981 52.1323 42.3981H53.3134C53.4016 42.3981 53.4861 42.3631 53.5485 42.3007C53.6108 42.2384 53.6458 42.1538 53.6458 42.0657V40.4818H53.9249V42.0568C53.9249 42.145 53.9599 42.2295 54.0223 42.2919C54.0846 42.3542 54.1692 42.3893 54.2574 42.3893H55.4407C55.5289 42.3893 55.6134 42.3542 55.6758 42.2919C55.7381 42.2295 55.7732 42.145 55.7732 42.0568V40.4439C57.4676 40.3049 59.1339 39.8195 59.333 37.7197C59.4513 36.475 59.0169 35.6221 58.0403 35.1753Z" fill="white"/>
<path d="M53.688 32.9961C54.3886 33.0078 55.759 32.9008 55.788 33.8412C55.7552 34.7395 54.3589 34.6586 53.688 34.6755V32.9961ZM56.1458 37.9316C55.6559 38.4146 54.3784 38.4203 53.6855 38.4104V36.4996C54.3831 36.4845 55.6402 36.4641 56.1349 36.9482C56.3936 37.1829 56.4117 37.6891 56.1458 37.9316Z" fill="#F7931A"/>
</g>
</g>
<path d="M71.1675 32.0539C70.5299 32.0539 69.9704 31.9039 69.489 31.6038C69.0108 31.3038 68.6389 30.8896 68.3732 30.3614C68.1075 29.8301 67.9747 29.2206 67.9747 28.5329C67.9747 27.8641 68.1013 27.2702 68.3545 26.7514C68.6107 26.2325 68.9764 25.8246 69.4515 25.5277C69.9266 25.2276 70.4955 25.0776 71.1581 25.0776C71.8301 25.0776 72.4177 25.2511 72.9209 25.598C73.4242 25.9449 73.7586 26.4732 73.9243 27.1827L73.0288 27.3937C72.8944 26.8373 72.66 26.4279 72.3255 26.1653C71.9942 25.9028 71.6004 25.7715 71.144 25.7715C70.669 25.7715 70.2626 25.8918 69.9251 26.1325C69.5906 26.3732 69.3343 26.7029 69.1562 27.1217C68.978 27.5406 68.8889 28.0203 68.8889 28.5611C68.8889 29.1112 68.9796 29.5972 69.1609 30.0192C69.3453 30.4411 69.6031 30.7709 69.9344 31.0084C70.2658 31.2428 70.6565 31.36 71.1065 31.36C71.5973 31.36 72.0208 31.2116 72.3771 30.9146C72.7334 30.6177 72.96 30.2051 73.0569 29.6769L73.9805 29.9301C73.7961 30.624 73.4507 31.1522 72.9444 31.5148C72.438 31.8742 71.8457 32.0539 71.1675 32.0539ZM75.0589 31.9414V26.8779H75.7996V27.9516L75.7715 27.8297C75.9215 27.4796 76.1466 27.2155 76.4466 27.0373C76.7498 26.8561 77.0561 26.7654 77.3655 26.7654C77.4562 26.7654 77.5437 26.7732 77.6281 26.7889C77.7156 26.8045 77.7969 26.8311 77.8719 26.8686L77.7688 27.6093C77.5968 27.5562 77.4265 27.5296 77.2577 27.5296C77.1514 27.5296 77.0186 27.5515 76.8592 27.5953C76.7029 27.6359 76.5466 27.7203 76.3904 27.8484C76.2372 27.9735 76.1075 28.161 76.0012 28.411C75.8981 28.6611 75.8465 28.994 75.8465 29.4097V31.9414H75.0589ZM79.1659 33.7699V33.1135H79.9348C79.9911 33.1135 80.0348 33.0948 80.0661 33.0572C80.0973 33.0229 80.127 32.9666 80.1551 32.8885L80.5208 31.8429L80.4411 32.204L78.4064 26.8779H79.2878L80.9006 31.5429L80.7271 31.5007L82.3352 26.8779H83.2073L80.7928 33.2026C80.7271 33.3745 80.6162 33.512 80.4599 33.6152C80.3036 33.7183 80.1411 33.7699 79.9723 33.7699H79.1659ZM84.1637 33.7699V26.8779H84.9045V27.9328L84.881 27.8578C85.0186 27.489 85.2467 27.2155 85.5656 27.0373C85.8844 26.8561 86.2235 26.7654 86.5829 26.7654C86.9955 26.7654 87.3581 26.8732 87.6706 27.0889C87.9832 27.3046 88.227 27.6109 88.402 28.0078C88.5771 28.4048 88.6646 28.8736 88.6646 29.4144C88.6646 29.9551 88.5755 30.4239 88.3973 30.8209C88.2223 31.2147 87.9785 31.5195 87.666 31.7351C87.3534 31.9477 86.9924 32.0539 86.5829 32.0539C86.2516 32.0539 85.9234 31.9711 85.5984 31.8054C85.2733 31.6398 85.028 31.36 84.8623 30.9662L84.9326 30.9287V33.7699H84.1637ZM86.3673 31.3976C86.7861 31.3976 87.1299 31.2256 87.3987 30.8818C87.6675 30.5349 87.8019 30.0395 87.8019 29.3956C87.8019 28.7705 87.6722 28.286 87.4128 27.9422C87.1534 27.5953 86.808 27.4218 86.3766 27.4218C86.1141 27.4218 85.8719 27.4906 85.6499 27.6281C85.4312 27.7656 85.2561 27.9797 85.1248 28.2704C84.9936 28.5611 84.9279 28.9361 84.9279 29.3956C84.9279 30.0739 85.0686 30.5771 85.3499 30.9053C85.6312 31.2335 85.9703 31.3976 86.3673 31.3976ZM90.8916 31.9414C90.6915 31.9414 90.5165 31.8758 90.3665 31.7445C90.2164 31.6101 90.1414 31.4413 90.1414 31.2381V27.5343H89.3256V26.8779H90.1414V25.8184L90.9291 25.6496V26.8779H91.9324V27.5343H90.9291V31.0272C90.9291 31.1303 90.9431 31.1991 90.9713 31.2335C91.0025 31.2678 91.0666 31.285 91.1635 31.285H91.9371V31.9414H90.8916ZM94.9658 32.0539C94.4907 32.0539 94.0719 31.943 93.7093 31.7211C93.3467 31.496 93.0639 31.185 92.8607 30.7881C92.6575 30.3911 92.556 29.9316 92.556 29.4097C92.556 28.8877 92.6575 28.4282 92.8607 28.0313C93.0639 27.6343 93.3467 27.3249 93.7093 27.103C94.0719 26.8779 94.4907 26.7654 94.9658 26.7654C95.4409 26.7654 95.8597 26.8779 96.2223 27.103C96.5849 27.3249 96.8677 27.6343 97.0709 28.0313C97.274 28.4282 97.3756 28.8877 97.3756 29.4097C97.3756 29.9316 97.274 30.3911 97.0709 30.7881C96.8677 31.185 96.5849 31.496 96.2223 31.7211C95.8597 31.943 95.4409 32.0539 94.9658 32.0539ZM94.9658 31.3976C95.444 31.3976 95.8206 31.2194 96.0957 30.8631C96.3739 30.5068 96.513 30.0223 96.513 29.4097C96.513 28.7939 96.3739 28.3095 96.0957 27.9563C95.8206 27.6 95.444 27.4218 94.9658 27.4218C94.4876 27.4218 94.1094 27.6 93.8312 27.9563C93.5561 28.3095 93.4186 28.7939 93.4186 29.4097C93.4186 30.0223 93.5561 30.5068 93.8312 30.8631C94.1094 31.2194 94.4876 31.3976 94.9658 31.3976ZM103.883 32.0539C103.245 32.0539 102.686 31.9039 102.205 31.6038C101.726 31.3038 101.355 30.8896 101.089 30.3614C100.823 29.8301 100.69 29.2206 100.69 28.5329C100.69 27.8641 100.817 27.2702 101.07 26.7514C101.326 26.2325 101.692 25.8246 102.167 25.5277C102.642 25.2276 103.211 25.0776 103.874 25.0776C104.546 25.0776 105.133 25.2511 105.637 25.598C106.14 25.9449 106.474 26.4732 106.64 27.1827L105.744 27.3937C105.61 26.8373 105.376 26.4279 105.041 26.1653C104.71 25.9028 104.316 25.7715 103.86 25.7715C103.385 25.7715 102.978 25.8918 102.641 26.1325C102.306 26.3732 102.05 26.7029 101.872 27.1217C101.694 27.5406 101.605 28.0203 101.605 28.5611C101.605 29.1112 101.695 29.5972 101.876 30.0192C102.061 30.4411 102.319 30.7709 102.65 31.0084C102.981 31.2428 103.372 31.36 103.822 31.36C104.313 31.36 104.736 31.2116 105.093 30.9146C105.449 30.6177 105.676 30.2051 105.773 29.6769L106.696 29.9301C106.512 30.624 106.166 31.1522 105.66 31.5148C105.154 31.8742 104.561 32.0539 103.883 32.0539ZM107.774 31.9414V26.8779H108.515V27.9516L108.487 27.8297C108.637 27.4796 108.862 27.2155 109.162 27.0373C109.465 26.8561 109.772 26.7654 110.081 26.7654C110.172 26.7654 110.259 26.7732 110.344 26.7889C110.431 26.8045 110.513 26.8311 110.588 26.8686L110.484 27.6093C110.312 27.5562 110.142 27.5296 109.973 27.5296C109.867 27.5296 109.734 27.5515 109.575 27.5953C109.419 27.6359 109.262 27.7203 109.106 27.8484C108.953 27.9735 108.823 28.161 108.717 28.411C108.614 28.6611 108.562 28.994 108.562 29.4097V31.9414H107.774ZM113.401 32.0539C112.919 32.0539 112.502 31.9461 112.149 31.7304C111.799 31.5148 111.528 31.21 111.338 30.8162C111.147 30.4192 111.052 29.952 111.052 29.4144C111.052 28.8736 111.147 28.4048 111.338 28.0078C111.528 27.6109 111.797 27.3046 112.144 27.0889C112.491 26.8732 112.899 26.7654 113.368 26.7654C113.637 26.7654 113.905 26.8092 114.174 26.8967C114.446 26.9811 114.693 27.1295 114.915 27.3421C115.14 27.5515 115.32 27.8406 115.454 28.2094C115.592 28.5751 115.66 29.0377 115.66 29.5972H111.558V28.9596H114.976L114.751 29.255C114.735 28.8111 114.663 28.4548 114.535 28.186C114.407 27.9172 114.24 27.7234 114.034 27.6046C113.83 27.4827 113.604 27.4218 113.354 27.4218C113.057 27.4218 112.8 27.4999 112.585 27.6562C112.369 27.8094 112.203 28.0344 112.088 28.3313C111.972 28.6283 111.914 28.9908 111.914 29.419C111.914 30.0504 112.042 30.538 112.299 30.8818C112.558 31.2256 112.925 31.3976 113.401 31.3976C113.741 31.3976 114.027 31.3116 114.259 31.1397C114.493 30.9678 114.665 30.7193 114.774 30.3942L115.548 30.6568C115.426 30.9506 115.263 31.2022 115.06 31.4116C114.857 31.6179 114.615 31.7773 114.334 31.8898C114.055 31.9992 113.744 32.0539 113.401 32.0539ZM118.778 32.0539C118.369 32.0539 118.006 31.9461 117.69 31.7304C117.378 31.5148 117.134 31.2085 116.959 30.8115C116.784 30.4146 116.697 29.9457 116.697 29.405C116.697 28.8643 116.784 28.397 116.959 28.0032C117.137 27.6062 117.383 27.3015 117.695 27.0889C118.008 26.8732 118.369 26.7654 118.778 26.7654C119.109 26.7654 119.438 26.8482 119.763 27.0139C120.088 27.1796 120.333 27.4593 120.499 27.8531L120.41 27.8906V24.9088H121.197V31.9414H120.457V30.8865L120.48 30.9615C120.343 31.3304 120.114 31.6054 119.796 31.7867C119.477 31.9648 119.138 32.0539 118.778 32.0539ZM118.984 31.3976C119.25 31.3976 119.492 31.3288 119.711 31.1913C119.93 31.0537 120.105 30.8396 120.236 30.549C120.368 30.2551 120.433 29.8801 120.433 29.4237C120.433 28.7424 120.293 28.2391 120.011 27.9141C119.73 27.5859 119.391 27.4218 118.994 27.4218C118.575 27.4218 118.231 27.5953 117.962 27.9422C117.694 28.286 117.559 28.7799 117.559 29.4237C117.559 30.0489 117.689 30.5349 117.948 30.8818C118.208 31.2256 118.553 31.3976 118.984 31.3976ZM122.735 31.9414V26.8779H123.523V31.9414H122.735ZM123.129 26.0293C122.948 26.0293 122.793 25.9653 122.665 25.8371C122.537 25.709 122.473 25.5542 122.473 25.373C122.473 25.1886 122.537 25.0338 122.665 24.9088C122.793 24.7807 122.948 24.7166 123.129 24.7166C123.313 24.7166 123.468 24.7807 123.593 24.9088C123.721 25.0338 123.785 25.1886 123.785 25.373C123.785 25.5542 123.721 25.709 123.593 25.8371C123.468 25.9653 123.313 26.0293 123.129 26.0293ZM126.176 31.9414C125.976 31.9414 125.801 31.8758 125.651 31.7445C125.501 31.6101 125.426 31.4413 125.426 31.2381V27.5343H124.611V26.8779H125.426V25.8184L126.214 25.6496V26.8779H127.217V27.5343H126.214V31.0272C126.214 31.1303 126.228 31.1991 126.256 31.2335C126.287 31.2678 126.351 31.285 126.448 31.285H127.222V31.9414H126.176Z" fill="#777F89"/>
<path d="M68.4023 45.5566V37.4551H71.7948C72.6687 37.4551 73.3401 37.622 73.8089 37.9558C74.2815 38.2859 74.5178 38.7678 74.5178 39.4017C74.5178 39.803 74.4334 40.1312 74.2646 40.3863C74.0959 40.6376 73.8821 40.8289 73.6233 40.9601C73.3645 41.0877 73.1 41.1702 72.83 41.2077L72.8469 41.1852C73.4357 41.2789 73.9083 41.504 74.2646 41.8603C74.621 42.2166 74.7991 42.7117 74.7991 43.3456C74.7991 43.8969 74.6697 44.3339 74.4109 44.6565C74.1521 44.979 73.8089 45.2097 73.3813 45.3485C72.9575 45.4873 72.4943 45.5566 71.9917 45.5566H68.4023ZM69.8594 44.4089H71.8004C72.2017 44.4089 72.5131 44.347 72.7344 44.2233C72.9556 44.0957 73.1094 43.9326 73.1957 43.7338C73.282 43.535 73.3251 43.325 73.3251 43.1037C73.3251 42.8149 73.2595 42.5711 73.1282 42.3723C73.0007 42.1735 72.8056 42.0216 72.5431 41.9166C72.2843 41.8115 71.958 41.759 71.5641 41.759H69.8594V44.4089ZM69.8594 40.6563H71.6992C72.093 40.6563 72.4155 40.5757 72.6668 40.4144C72.9181 40.2531 73.0438 39.9887 73.0438 39.6211C73.0438 39.3211 72.9444 39.0773 72.7456 38.8897C72.5468 38.6985 72.2093 38.6028 71.7329 38.6028H69.8594V40.6563ZM76.1438 45.5566V39.4805H77.5334V45.5566H76.1438ZM76.8358 38.6422C76.547 38.6422 76.3107 38.5503 76.1269 38.3665C75.9431 38.1827 75.8512 37.9464 75.8512 37.6576C75.8512 37.3651 75.9431 37.1288 76.1269 36.9487C76.3107 36.765 76.547 36.6731 76.8358 36.6731C77.1283 36.6731 77.3646 36.765 77.5446 36.9487C77.7284 37.1288 77.8203 37.3651 77.8203 37.6576C77.8203 37.9464 77.7284 38.1827 77.5446 38.3665C77.3646 38.5503 77.1283 38.6422 76.8358 38.6422ZM80.8246 45.5566C80.4571 45.5566 80.1645 45.4591 79.947 45.2641C79.7294 45.0653 79.6207 44.7934 79.6207 44.4483V40.5382H78.7092V39.4805H79.6207V38.2596L81.0103 37.9333V39.4805H82.1693V40.5382H81.0103V44.1895C81.0103 44.3133 81.0272 44.3958 81.0609 44.4371C81.0985 44.4783 81.1753 44.4989 81.2916 44.4989H82.2199V45.5566H80.8246ZM85.8937 45.6973C85.2786 45.6973 84.7479 45.5679 84.3016 45.3091C83.8552 45.0503 83.5102 44.6827 83.2664 44.2064C83.0263 43.73 82.9063 43.1674 82.9063 42.5186C82.9063 41.8659 83.0263 41.3015 83.2664 40.8251C83.5102 40.3488 83.8552 39.9831 84.3016 39.728C84.7479 39.4692 85.2768 39.3398 85.8881 39.3398C86.3345 39.3398 86.7452 39.4205 87.1202 39.5817C87.4953 39.743 87.8141 39.9812 88.0767 40.2963C88.3392 40.6113 88.523 40.9976 88.628 41.4552L87.2778 41.759C87.1877 41.3127 87.0227 40.9751 86.7827 40.7463C86.5464 40.5138 86.2463 40.3975 85.8825 40.3975C85.3874 40.3975 85.0142 40.5888 84.7629 40.9714C84.5116 41.354 84.386 41.8734 84.386 42.5298C84.386 43.1862 84.5097 43.7019 84.7573 44.077C85.0086 44.4521 85.3836 44.6396 85.8825 44.6396C86.2388 44.6396 86.537 44.5327 86.777 44.3189C87.0171 44.1051 87.1877 43.7863 87.289 43.3625L88.6055 43.6438C88.523 43.9888 88.3955 44.2908 88.2229 44.5496C88.0504 44.8046 87.8422 45.0184 87.5984 45.1909C87.3584 45.3597 87.094 45.4854 86.8052 45.5679C86.5164 45.6542 86.2126 45.6973 85.8937 45.6973ZM92.4988 45.6973C91.9024 45.6973 91.3754 45.5641 90.9178 45.2978C90.464 45.0278 90.1096 44.6546 89.8545 44.1783C89.6032 43.6982 89.4776 43.1449 89.4776 42.5186C89.4776 41.8922 89.6032 41.3408 89.8545 40.8645C90.1096 40.3844 90.464 40.0112 90.9178 39.7449C91.3754 39.4749 91.9024 39.3398 92.4988 39.3398C93.0951 39.3398 93.6202 39.4749 94.0741 39.7449C94.5279 40.0112 94.8823 40.3844 95.1374 40.8645C95.3924 41.3408 95.52 41.8922 95.52 42.5186C95.52 43.1449 95.3924 43.6982 95.1374 44.1783C94.8823 44.6546 94.526 45.0278 94.0684 45.2978C93.6146 45.5641 93.0914 45.6973 92.4988 45.6973ZM92.4988 44.6396C92.9751 44.6396 93.352 44.4502 93.6296 44.0714C93.9072 43.6888 94.0459 43.1712 94.0459 42.5186C94.0459 41.8622 93.9072 41.3446 93.6296 40.9658C93.352 40.5869 92.9751 40.3975 92.4988 40.3975C92.0187 40.3975 91.6398 40.5869 91.3623 40.9658C91.0885 41.3446 90.9516 41.8622 90.9516 42.5186C90.9516 43.1712 91.0885 43.6888 91.3623 44.0714C91.6398 44.4502 92.0187 44.6396 92.4988 44.6396ZM96.7802 45.5566V39.4805H98.1698V45.5566H96.7802ZM97.4722 38.6422C97.1834 38.6422 96.9471 38.5503 96.7633 38.3665C96.5795 38.1827 96.4876 37.9464 96.4876 37.6576C96.4876 37.3651 96.5795 37.1288 96.7633 36.9487C96.9471 36.765 97.1834 36.6731 97.4722 36.6731C97.7648 36.6731 98.0011 36.765 98.1811 36.9487C98.3649 37.1288 98.4568 37.3651 98.4568 37.6576C98.4568 37.9464 98.3649 38.1827 98.1811 38.3665C98.0011 38.5503 97.7648 38.6422 97.4722 38.6422ZM99.8352 45.5566V39.4805H101.169V40.8701L101.129 40.6226C101.305 40.24 101.564 39.9306 101.906 39.6943C102.247 39.458 102.661 39.3398 103.149 39.3398C103.603 39.3398 103.982 39.443 104.285 39.6493C104.593 39.8518 104.824 40.1387 104.977 40.51C105.135 40.8776 105.214 41.309 105.214 41.804V45.5566H103.818V41.8997C103.818 41.4421 103.734 41.082 103.565 40.8195C103.4 40.5532 103.121 40.42 102.727 40.42C102.273 40.42 101.909 40.6038 101.636 40.9714C101.362 41.339 101.225 41.8884 101.225 42.6198V45.5566H99.8352ZM109.416 45.5566V37.4551H112.95C114.859 37.4551 115.813 38.209 115.813 39.7168C115.813 41.2321 114.816 41.9897 112.82 41.9897H110.874V45.5566H109.416ZM114.249 45.5566L111.987 41.5903H113.613L115.892 45.5566H114.249ZM110.874 40.8364H112.888C113.357 40.8364 113.717 40.7426 113.968 40.5551C114.223 40.3638 114.35 40.0881 114.35 39.728C114.35 39.368 114.221 39.0904 113.962 38.8954C113.707 38.7003 113.343 38.6028 112.871 38.6028H110.874V40.8364ZM119.6 45.6973C119.011 45.6973 118.489 45.5679 118.036 45.3091C117.582 45.0503 117.225 44.6827 116.967 44.2064C116.708 43.73 116.578 43.1674 116.578 42.5186C116.578 41.8697 116.706 41.3071 116.961 40.8307C117.216 40.3544 117.569 39.9868 118.019 39.728C118.469 39.4692 118.988 39.3398 119.577 39.3398C119.907 39.3398 120.239 39.3905 120.573 39.4917C120.91 39.593 121.218 39.773 121.496 40.0318C121.777 40.2869 122.004 40.6413 122.176 41.0952C122.349 41.5452 122.435 42.1172 122.435 42.8111H117.473V41.9278H121.197L120.984 42.2485C120.961 41.7947 120.882 41.4309 120.747 41.157C120.616 40.8795 120.445 40.6788 120.235 40.5551C120.029 40.4275 119.798 40.3638 119.543 40.3638C119.221 40.3638 118.949 40.4519 118.728 40.6282C118.506 40.8007 118.337 41.0502 118.221 41.3765C118.109 41.699 118.052 42.0816 118.052 42.5242C118.052 43.1843 118.182 43.7019 118.441 44.077C118.699 44.4483 119.082 44.634 119.588 44.634C119.933 44.634 120.228 44.5458 120.472 44.3695C120.715 44.1933 120.897 43.9307 121.017 43.5819L122.311 43.942C122.165 44.3358 121.957 44.6621 121.687 44.9209C121.417 45.1797 121.102 45.3747 120.742 45.506C120.382 45.6335 120.001 45.6973 119.6 45.6973ZM126.458 45.6973C125.843 45.6973 125.312 45.5679 124.866 45.3091C124.419 45.0503 124.074 44.6827 123.83 44.2064C123.59 43.73 123.47 43.1674 123.47 42.5186C123.47 41.8659 123.59 41.3015 123.83 40.8251C124.074 40.3488 124.419 39.9831 124.866 39.728C125.312 39.4692 125.841 39.3398 126.452 39.3398C126.898 39.3398 127.309 39.4205 127.684 39.5817C128.059 39.743 128.378 39.9812 128.641 40.2963C128.903 40.6113 129.087 40.9976 129.192 41.4552L127.842 41.759C127.752 41.3127 127.587 40.9751 127.347 40.7463C127.11 40.5138 126.81 40.3975 126.447 40.3975C125.951 40.3975 125.578 40.5888 125.327 40.9714C125.076 41.354 124.95 41.8734 124.95 42.5298C124.95 43.1862 125.074 43.7019 125.321 44.077C125.573 44.4521 125.948 44.6396 126.447 44.6396C126.803 44.6396 127.101 44.5327 127.341 44.3189C127.581 44.1051 127.752 43.7863 127.853 43.3625L129.17 43.6438C129.087 43.9888 128.959 44.2908 128.787 44.5496C128.614 44.8046 128.406 45.0184 128.162 45.1909C127.922 45.3597 127.658 45.4854 127.369 45.5679C127.08 45.6542 126.777 45.6973 126.458 45.6973ZM133.068 45.6973C132.48 45.6973 131.958 45.5679 131.504 45.3091C131.051 45.0503 130.694 44.6827 130.435 44.2064C130.177 43.73 130.047 43.1674 130.047 42.5186C130.047 41.8697 130.175 41.3071 130.43 40.8307C130.685 40.3544 131.037 39.9868 131.487 39.728C131.938 39.4692 132.457 39.3398 133.046 39.3398C133.376 39.3398 133.708 39.3905 134.042 39.4917C134.379 39.593 134.687 39.773 134.964 40.0318C135.246 40.2869 135.473 40.6413 135.645 41.0952C135.818 41.5452 135.904 42.1172 135.904 42.8111H130.942V41.9278H134.666L134.452 42.2485C134.43 41.7947 134.351 41.4309 134.216 41.157C134.085 40.8795 133.914 40.6788 133.704 40.5551C133.498 40.4275 133.267 40.3638 133.012 40.3638C132.69 40.3638 132.418 40.4519 132.196 40.6282C131.975 40.8007 131.806 41.0502 131.69 41.3765C131.577 41.699 131.521 42.0816 131.521 42.5242C131.521 43.1843 131.651 43.7019 131.909 44.077C132.168 44.4483 132.551 44.634 133.057 44.634C133.402 44.634 133.697 44.5458 133.94 44.3695C134.184 44.1933 134.366 43.9307 134.486 43.5819L135.78 43.942C135.634 44.3358 135.426 44.6621 135.156 44.9209C134.886 45.1797 134.571 45.3747 134.21 45.506C133.85 45.6335 133.47 45.6973 133.068 45.6973ZM137.198 45.5566V39.4805H138.588V45.5566H137.198ZM137.89 38.6422C137.601 38.6422 137.365 38.5503 137.181 38.3665C136.997 38.1827 136.905 37.9464 136.905 37.6576C136.905 37.3651 136.997 37.1288 137.181 36.9487C137.365 36.765 137.601 36.6731 137.89 36.6731C138.183 36.6731 138.419 36.765 138.599 36.9487C138.783 37.1288 138.875 37.3651 138.875 37.6576C138.875 37.9464 138.783 38.1827 138.599 38.3665C138.419 38.5503 138.183 38.6422 137.89 38.6422ZM141.856 45.5566L139.567 39.4805H141.119L142.785 44.6171H142.621L144.281 39.4805H145.834L143.55 45.5566H141.856ZM149.339 45.6973C148.75 45.6973 148.229 45.5679 147.775 45.3091C147.321 45.0503 146.965 44.6827 146.706 44.2064C146.447 43.73 146.318 43.1674 146.318 42.5186C146.318 41.8697 146.445 41.3071 146.7 40.8307C146.955 40.3544 147.308 39.9868 147.758 39.728C148.208 39.4692 148.728 39.3398 149.317 39.3398C149.647 39.3398 149.979 39.3905 150.312 39.4917C150.65 39.593 150.957 39.773 151.235 40.0318C151.516 40.2869 151.743 40.6413 151.916 41.0952C152.088 41.5452 152.175 42.1172 152.175 42.8111H147.212V41.9278H150.937L150.723 42.2485C150.701 41.7947 150.622 41.4309 150.487 41.157C150.355 40.8795 150.185 40.6788 149.975 40.5551C149.768 40.4275 149.538 40.3638 149.283 40.3638C148.96 40.3638 148.688 40.4519 148.467 40.6282C148.246 40.8007 148.077 41.0502 147.961 41.3765C147.848 41.699 147.792 42.0816 147.792 42.5242C147.792 43.1843 147.921 43.7019 148.18 44.077C148.439 44.4483 148.821 44.634 149.328 44.634C149.673 44.634 149.967 44.5458 150.211 44.3695C150.455 44.1933 150.637 43.9307 150.757 43.5819L152.051 43.942C151.905 44.3358 151.696 44.6621 151.426 44.9209C151.156 45.1797 150.841 45.3747 150.481 45.506C150.121 45.6335 149.74 45.6973 149.339 45.6973ZM155.719 45.6973C155.22 45.6973 154.781 45.5698 154.402 45.3147C154.027 45.0597 153.737 44.694 153.53 44.2176C153.328 43.7375 153.227 43.1674 153.227 42.5073C153.227 41.8472 153.33 41.2808 153.536 40.8082C153.742 40.3356 154.033 39.9737 154.408 39.7224C154.787 39.4674 155.23 39.3398 155.736 39.3398C156.163 39.3398 156.561 39.4411 156.929 39.6436C157.296 39.8462 157.585 40.1837 157.795 40.6563L157.649 40.6788V37.1175H159.044V45.5566H157.722V44.3189L157.744 44.4033C157.557 44.8459 157.281 45.1722 156.917 45.3822C156.557 45.5923 156.158 45.6973 155.719 45.6973ZM156.192 44.6171C156.477 44.6171 156.734 44.5421 156.962 44.392C157.191 44.242 157.373 44.0132 157.508 43.7057C157.643 43.3944 157.711 43.0024 157.711 42.5298C157.711 41.8209 157.564 41.2921 157.272 40.9433C156.979 40.5944 156.623 40.42 156.203 40.42C155.76 40.42 155.4 40.6057 155.123 40.977C154.849 41.3446 154.712 41.8659 154.712 42.5411C154.712 43.1937 154.845 43.7038 155.111 44.0714C155.378 44.4352 155.738 44.6171 156.192 44.6171Z" fill="#0A0A0A"/>
<path d="M51.6216 67.4014C55.4469 67.4014 58.5479 64.3004 58.5479 60.4751C58.5479 56.6498 55.4469 53.5488 51.6216 53.5488C47.7963 53.5488 44.6953 56.6498 44.6953 60.4751C44.6953 64.3004 47.7963 67.4014 51.6216 67.4014Z" stroke="#2E7D32" stroke-width="1.03895" stroke-linecap="round" stroke-linejoin="round"/>
<path d="M51.623 62.8999V58.7441" stroke="#2E7D32" stroke-width="1.03895" stroke-linecap="round" stroke-linejoin="round"/>
<path d="M49.5449 60.1287L51.6228 58.0508L53.7007 60.1287" stroke="#2E7D32" stroke-width="1.03895" stroke-linecap="round" stroke-linejoin="round"/>
<path d="M70.133 66.2215C69.3779 66.2215 68.6977 66.104 68.0926 65.8689C67.4875 65.6339 66.9899 65.2813 66.5998 64.8112C66.2098 64.3362 65.9572 63.7485 65.8422 63.0484L67.8226 62.6433C67.8576 63.3335 68.0676 63.8536 68.4527 64.2036C68.8378 64.5487 69.3804 64.7212 70.0805 64.7212C70.5356 64.7212 70.9031 64.6587 71.1832 64.5337C71.4683 64.4037 71.6783 64.2286 71.8133 64.0086C71.9533 63.7835 72.0234 63.5335 72.0234 63.2584C72.0234 62.8484 71.8858 62.5358 71.6108 62.3208C71.3407 62.1007 70.9607 61.9407 70.4706 61.8407L69.3754 61.6156C69.0753 61.5606 68.7527 61.4806 68.4077 61.3756C68.0626 61.2656 67.7325 61.1105 67.4175 60.9105C67.1024 60.7105 66.8449 60.4429 66.6448 60.1078C66.4498 59.7728 66.3523 59.3477 66.3523 58.8326C66.3523 58.1875 66.5173 57.6524 66.8474 57.2273C67.1774 56.7972 67.6225 56.4746 68.1826 56.2596C68.7427 56.0446 69.3629 55.937 70.043 55.937C70.7431 55.937 71.3632 56.0446 71.9033 56.2596C72.4434 56.4746 72.886 56.7872 73.2311 57.1973C73.5812 57.6074 73.8112 58.1025 73.9212 58.6826L71.9784 59.0876C71.9383 58.7526 71.8508 58.4625 71.7158 58.2175C71.5808 57.9724 71.3807 57.7824 71.1157 57.6474C70.8506 57.5073 70.5031 57.4373 70.073 57.4373C69.7129 57.4373 69.3954 57.4873 69.1203 57.5874C68.8453 57.6874 68.6327 57.8349 68.4827 58.0299C68.3327 58.22 68.2576 58.45 68.2576 58.7201C68.2576 59.0801 68.4127 59.3577 68.7227 59.5527C69.0328 59.7428 69.4704 59.8978 70.0355 60.0178L71.1532 60.2504C71.6283 60.3454 72.0809 60.5004 72.511 60.7155C72.946 60.9305 73.2986 61.2331 73.5687 61.6231C73.8437 62.0132 73.9812 62.5233 73.9812 63.1534C73.9812 63.8086 73.8212 64.3662 73.5011 64.8262C73.1811 65.2863 72.731 65.6339 72.1509 65.8689C71.5758 66.104 70.9031 66.2215 70.133 66.2215ZM69.6379 67.5268V54.6243H70.5081V67.5268H69.6379ZM75.1065 66.4766V65.2763L78.9322 62.1257C79.3923 61.7407 79.7648 61.3856 80.0499 61.0605C80.34 60.7355 80.55 60.4079 80.68 60.0778C80.815 59.7428 80.8826 59.3752 80.8826 58.9751C80.8826 58.52 80.805 58.1475 80.65 57.8574C80.5 57.5674 80.2874 57.3548 80.0124 57.2198C79.7373 57.0798 79.4098 57.0098 79.0297 57.0098C78.5396 57.0098 78.152 57.1123 77.867 57.3173C77.5869 57.5223 77.3819 57.7874 77.2519 58.1125C77.1218 58.4325 77.0443 58.7776 77.0193 59.1477L75.0314 58.5851C75.0864 58.065 75.2865 57.5699 75.6316 57.0998C75.9766 56.6247 76.4392 56.2371 77.0193 55.937C77.6044 55.637 78.2746 55.487 79.0297 55.487C79.4748 55.487 79.9224 55.5495 80.3725 55.6745C80.8275 55.7945 81.2451 55.9871 81.6252 56.2521C82.0103 56.5172 82.3203 56.8622 82.5554 57.2873C82.7904 57.7124 82.9079 58.225 82.9079 58.8251C82.9079 59.6753 82.6554 60.4454 82.1503 61.1355C81.6452 61.8257 80.9326 62.5008 80.0124 63.1609L77.2369 65.2313L76.5617 64.9013H82.983V66.4766H75.1065ZM88.3015 66.6641C87.6263 66.6641 86.9887 66.5341 86.3886 66.274C85.7885 66.014 85.2884 65.6314 84.8883 65.1263C84.4932 64.6212 84.2632 64.0011 84.1982 63.2659L86.1861 62.8009C86.2211 63.481 86.4136 64.0411 86.7637 64.4812C87.1137 64.9213 87.6238 65.1413 88.294 65.1413C88.7241 65.1413 89.0941 65.0413 89.4042 64.8412C89.7142 64.6362 89.9543 64.3587 90.1243 64.0086C90.2994 63.6535 90.3869 63.2509 90.3869 62.8009C90.3869 62.1307 90.1968 61.6081 89.8168 61.2331C89.4417 60.853 88.9466 60.663 88.3315 60.663C87.8414 60.663 87.4513 60.7805 87.1613 61.0155C86.8712 61.2456 86.6487 61.5256 86.4936 61.8557L84.5358 61.6981L85.0233 55.6745H91.7146V57.2498H86.6062L86.3286 60.8355L85.991 60.7155C86.2711 60.2504 86.6537 59.8828 87.1388 59.6127C87.6238 59.3377 88.194 59.2002 88.8491 59.2002C89.5742 59.2002 90.1993 59.3527 90.7244 59.6578C91.2495 59.9628 91.6546 60.3829 91.9397 60.918C92.2247 61.4531 92.3673 62.0632 92.3673 62.7483C92.3673 63.5735 92.1772 64.2786 91.7971 64.8638C91.4221 65.4489 90.9245 65.8965 90.3044 66.2065C89.6892 66.5116 89.0216 66.6641 88.3015 66.6641ZM97.9783 66.6641C96.6581 66.6641 95.6354 66.1765 94.9102 65.2013C94.1901 64.2261 93.83 62.8509 93.83 61.0755C93.83 59.3002 94.1901 57.9249 94.9102 56.9497C95.6354 55.9746 96.6581 55.487 97.9783 55.487C99.3036 55.487 100.326 55.9746 101.046 56.9497C101.767 57.9249 102.127 59.3002 102.127 61.0755C102.127 62.8509 101.767 64.2261 101.046 65.2013C100.326 66.1765 99.3036 66.6641 97.9783 66.6641ZM97.9783 65.1413C98.6835 65.1413 99.2136 64.7987 99.5686 64.1136C99.9287 63.4235 100.109 62.4108 100.109 61.0755C100.109 59.7403 99.9287 58.7301 99.5686 58.0449C99.2136 57.3548 98.6835 57.0098 97.9783 57.0098C97.2732 57.0098 96.7406 57.3548 96.3805 58.0449C96.0205 58.7301 95.8404 59.7403 95.8404 61.0755C95.8404 62.4108 96.0205 63.4235 96.3805 64.1136C96.7406 64.7987 97.2732 65.1413 97.9783 65.1413ZM107.91 66.6641C106.59 66.6641 105.567 66.1765 104.842 65.2013C104.122 64.2261 103.762 62.8509 103.762 61.0755C103.762 59.3002 104.122 57.9249 104.842 56.9497C105.567 55.9746 106.59 55.487 107.91 55.487C109.235 55.487 110.258 55.9746 110.978 56.9497C111.698 57.9249 112.059 59.3002 112.059 61.0755C112.059 62.8509 111.698 64.2261 110.978 65.2013C110.258 66.1765 109.235 66.6641 107.91 66.6641ZM107.91 65.1413C108.615 65.1413 109.145 64.7987 109.501 64.1136C109.861 63.4235 110.041 62.4108 110.041 61.0755C110.041 59.7403 109.861 58.7301 109.501 58.0449C109.145 57.3548 108.615 57.0098 107.91 57.0098C107.205 57.0098 106.672 57.3548 106.312 58.0449C105.952 58.7301 105.772 59.7403 105.772 61.0755C105.772 62.4108 105.952 63.4235 106.312 64.1136C106.672 64.7987 107.205 65.1413 107.91 65.1413ZM114.519 66.6641C114.114 66.6641 113.781 66.5366 113.521 66.2815C113.261 66.0215 113.131 65.6864 113.131 65.2763C113.131 64.8713 113.261 64.5387 113.521 64.2786C113.781 64.0186 114.114 63.8886 114.519 63.8886C114.924 63.8886 115.257 64.0186 115.517 64.2786C115.777 64.5387 115.907 64.8713 115.907 65.2763C115.907 65.6864 115.777 66.0215 115.517 66.2815C115.257 66.5366 114.924 66.6641 114.519 66.6641ZM121.158 66.6641C119.838 66.6641 118.815 66.1765 118.09 65.2013C117.37 64.2261 117.009 62.8509 117.009 61.0755C117.009 59.3002 117.37 57.9249 118.09 56.9497C118.815 55.9746 119.838 55.487 121.158 55.487C122.483 55.487 123.506 55.9746 124.226 56.9497C124.946 57.9249 125.306 59.3002 125.306 61.0755C125.306 62.8509 124.946 64.2261 124.226 65.2013C123.506 66.1765 122.483 66.6641 121.158 66.6641ZM121.158 65.1413C121.863 65.1413 122.393 64.7987 122.748 64.1136C123.108 63.4235 123.288 62.4108 123.288 61.0755C123.288 59.7403 123.108 58.7301 122.748 58.0449C122.393 57.3548 121.863 57.0098 121.158 57.0098C120.453 57.0098 119.92 57.3548 119.56 58.0449C119.2 58.7301 119.02 59.7403 119.02 61.0755C119.02 62.4108 119.2 63.4235 119.56 64.1136C119.92 64.7987 120.453 65.1413 121.158 65.1413ZM131.09 66.6641C129.769 66.6641 128.747 66.1765 128.022 65.2013C127.301 64.2261 126.941 62.8509 126.941 61.0755C126.941 59.3002 127.301 57.9249 128.022 56.9497C128.747 55.9746 129.769 55.487 131.09 55.487C132.415 55.487 133.438 55.9746 134.158 56.9497C134.878 57.9249 135.238 59.3002 135.238 61.0755C135.238 62.8509 134.878 64.2261 134.158 65.2013C133.438 66.1765 132.415 66.6641 131.09 66.6641ZM131.09 65.1413C131.795 65.1413 132.325 64.7987 132.68 64.1136C133.04 63.4235 133.22 62.4108 133.22 61.0755C133.22 59.7403 133.04 58.7301 132.68 58.0449C132.325 57.3548 131.795 57.0098 131.09 57.0098C130.385 57.0098 129.852 57.3548 129.492 58.0449C129.132 58.7301 128.952 59.7403 128.952 61.0755C128.952 62.4108 129.132 63.4235 129.492 64.1136C129.852 64.7987 130.385 65.1413 131.09 65.1413Z" fill="#2E7D32"/>
<defs>
<filter id="filter0_d_2608_50022" x="-0.000648499" y="0.000172138" width="185.57" height="119.556" filterUnits="userSpaceOnUse" color-interpolation-filters="sRGB">
<feFlood flood-opacity="0" result="BackgroundImageFix"/>
<feColorMatrix in="SourceAlpha" type="matrix" values="0 0 0 0 0 0 0 0 0 0 0 0 0 0 0 0 0 0 127 0" result="hardAlpha"/>
<feOffset dx="-8.31157" dy="7.61894"/>
<feGaussianBlur stdDeviation="10.3895"/>
<feComposite in2="hardAlpha" operator="out"/>
<feColorMatrix type="matrix" values="0 0 0 0 0 0 0 0 0 0 0 0 0 0 0 0 0 0 0.15 0"/>
<feBlend mode="normal" in2="BackgroundImageFix" result="effect1_dropShadow_2608_50022"/>
<feBlend mode="normal" in="SourceGraphic" in2="effect1_dropShadow_2608_50022" result="shape"/>
</filter>
<clipPath id="bgblur_0_2608_50022_clip_path" transform="translate(0.000648499 -0.000172138)"><path d="M41.1592 13.1602C34.4935 13.1602 29.0898 18.5638 29.0898 25.2295V67.0703C29.0901 73.7358 34.4936 79.1396 41.1592 79.1396H154.373L166.585 91.1582L166.637 77.7588C170.479 75.7398 173.101 71.7123 173.102 67.0703V25.2295C173.102 18.5638 167.698 13.1602 161.032 13.1602H41.1592Z"/>
</clipPath><clipPath id="clip1_2608_50022">
<rect width="22.1642" height="22.1642" fill="white" transform="translate(43.3105 24.666)"/>
</clipPath>
<clipPath id="clip2_2608_50022">
<rect width="22.1642" height="22.1642" fill="white" transform="translate(43.3105 24.666)"/>
</clipPath>
</defs>
</svg>
