<svg width="186" height="90" viewBox="0 0 186 90" fill="none" xmlns="http://www.w3.org/2000/svg">
<rect width="186" height="90" fill="#F0F2F4"/>
<g clip-path="url(#clip0_3038_55358)">
<path d="M135.468 59.491C137.14 59.653 138.81 59.827 140.477 60.0071L144.157 50.9208L147.655 60.8452C149.449 61.07 151.243 61.3061 153.032 61.5525L146.899 44.1493L153.034 29.0012H147.838L147.784 29.0756L144.471 37.2589L141.561 29.0024H136.432L141.727 44.0308L135.469 59.491H135.468ZM131.589 59.1349V29.0012H126.461V58.712C128.172 58.8441 129.883 58.9861 131.589 59.1349ZM93.0706 57.4498C94.4548 57.4498 95.8375 57.4602 97.2177 57.4714V46.4008H103.377V41.6865H97.2181V33.7212H104.312V29.0012H92.0705V57.4538C92.4029 57.4538 92.737 57.4486 93.0706 57.4498ZM77.1504 57.7379C78.8587 57.6771 80.5686 57.6259 82.2809 57.5843V33.722H87.0736V29.0024H72.3576V33.722H77.1512V57.7379H77.1504ZM37.9344 60.9152V42.9623L44.0058 60.1903C45.8729 59.9806 47.7428 59.7834 49.6179 59.597V29.0016H44.6979V47.5978L38.1465 29.0016H33.0156V61.5605H33.0464C34.6719 61.3357 36.303 61.122 37.9344 60.9152ZM67.4132 33.7208V29.0016H55.17V59.0869C59.2435 58.7353 63.3216 58.4404 67.4032 58.2024V53.4788C65.0364 53.6164 62.6745 53.7748 60.3181 53.9513V46.4028H66.4779V41.6857H60.3181V33.7208H67.4132ZM114.475 53.2532V29H109.324V57.7551C113.421 57.9055 117.502 58.1151 121.569 58.3792V53.6528C119.208 53.5004 116.844 53.3684 114.475 53.2532Z" fill="#9E9E9E"/>
</g>
<defs>
<clipPath id="clip0_3038_55358">
<rect width="120.059" height="32.5601" fill="white" transform="translate(33 29)"/>
</clipPath>
</defs>
</svg>
