<svg width="130" height="43" viewBox="0 0 130 43" fill="none" xmlns="http://www.w3.org/2000/svg">
<g clip-path="url(#clip0_3307_49320)">
<path d="M15.9288 0.00195312H17.0792C21.073 0.0887762 25.0018 1.695 27.8235 4.53846C26.7816 5.60204 25.7181 6.62221 24.6979 7.68579C23.1134 6.25321 21.2033 5.14622 19.1195 4.75552C16.0373 4.10434 12.7163 4.6904 10.1333 6.44857C7.31157 8.29356 5.40146 11.4192 4.98905 14.7619C4.53323 18.0611 5.46658 21.5341 7.61545 24.0954C9.6775 26.5915 12.8248 28.1543 16.0807 28.2629C19.1195 28.4365 22.2885 27.5032 24.5025 25.376C26.239 23.8783 27.0421 21.5992 27.3026 19.3852C23.6994 19.3852 20.0963 19.4069 16.4931 19.3852V14.9138H31.6654C32.4468 19.7108 31.3181 25.1155 27.6716 28.545C25.2405 30.9761 21.8761 32.4087 18.4466 32.6908C15.1256 33.0164 11.6961 32.387 8.74415 30.7807C5.20611 28.8923 2.38436 25.7016 0.99519 21.9465C-0.307155 18.4953 -0.328861 14.5882 0.886662 11.1153C1.99366 7.94626 4.12082 5.14622 6.85575 3.1927C9.48214 1.26089 12.6729 0.197305 15.9288 0.00195312Z" fill="#9E9E9E"/>
<path d="M102.973 1.13086H107.618V32.1267C106.077 32.1267 104.514 32.1484 102.973 32.105C102.994 21.7947 102.973 11.4628 102.973 1.13086Z" fill="#9E9E9E"/>
<path d="M42.0005 11.8761C44.8657 11.3335 47.9696 11.9413 50.3356 13.656C52.4844 15.1754 53.9821 17.563 54.438 20.1677C55.024 23.1848 54.286 26.4841 52.3325 28.8717C50.227 31.5416 46.7758 32.9741 43.4114 32.7571C40.3292 32.5834 37.3338 31.0423 35.5105 28.5245C33.4485 25.7461 32.9492 21.9259 34.0779 18.67C35.2066 15.1754 38.3974 12.5056 42.0005 11.8761ZM42.6517 16.0002C41.4796 16.3041 40.3943 16.977 39.6129 17.932C37.5075 20.4499 37.6377 24.5523 39.9602 26.8965C41.2843 28.2423 43.2812 28.8717 45.1262 28.5028C46.8409 28.1989 48.3386 27.0485 49.1635 25.5291C50.596 22.9461 50.1836 19.3863 47.9913 17.3677C46.5805 16.0654 44.5184 15.5227 42.6517 16.0002Z" fill="#9E9E9E"/>
<path d="M65.0133 11.8777C68.2908 11.2483 71.8723 12.1599 74.325 14.4607C78.3189 18.0422 78.753 24.7493 75.3452 28.8734C73.2832 31.478 69.9405 32.9106 66.6412 32.7587C63.4939 32.6719 60.3899 31.109 58.5232 28.5261C56.4178 25.6826 55.962 21.7756 57.1558 18.4546C58.3496 15.0685 61.4752 12.4855 65.0133 11.8777ZM65.6644 16.0018C64.4923 16.3057 63.407 16.9786 62.6256 17.9119C60.5419 20.3864 60.6287 24.4237 62.8644 26.7896C64.1884 28.2005 66.2505 28.8951 68.1606 28.5044C69.8536 28.1788 71.3731 27.0501 72.1979 25.5307C73.6087 22.926 73.1963 19.3662 70.9823 17.3476C69.5715 16.0452 67.5094 15.5243 65.6644 16.0018Z" fill="#9E9E9E"/>
<path d="M84.5251 13.1373C87.0212 11.5745 90.3422 11.1404 93.0337 12.4862C93.8802 12.8552 94.5748 13.4846 95.2477 14.1141C95.2694 13.5281 95.2477 12.9203 95.2694 12.3125C96.7237 12.3342 98.178 12.3125 99.654 12.3342V31.4787C99.6323 34.3656 98.8943 37.4261 96.8105 39.5316C94.5314 41.8541 91.0368 42.5704 87.8895 42.0928C84.5251 41.5936 81.5948 39.1409 80.2924 36.0369C81.5948 35.4075 82.9622 34.9082 84.308 34.3222C85.0677 36.102 86.6088 37.6214 88.5406 37.9687C90.4724 38.316 92.7081 37.8385 93.9671 36.2323C95.3128 34.5826 95.3128 32.3252 95.2477 30.3066C94.2492 31.2834 93.0988 32.1516 91.7097 32.4772C88.6926 33.3237 85.3716 32.2818 83.0491 30.2415C80.7049 28.2011 79.3157 25.0538 79.4459 21.9282C79.511 18.3901 81.508 14.9823 84.5251 13.1373ZM89.0182 15.9157C87.6941 16.1327 86.4569 16.8707 85.6104 17.8909C83.57 20.322 83.57 24.2073 85.6321 26.5949C86.8042 28.0058 88.6926 28.7872 90.5159 28.5919C92.2306 28.4182 93.8151 27.3329 94.6617 25.8352C96.0942 23.2956 95.8555 19.8444 93.9237 17.6304C92.7298 16.263 90.8197 15.5901 89.0182 15.9157Z" fill="#9E9E9E"/>
<path d="M113.197 14.2442C115.802 11.8132 119.818 10.9884 123.16 12.269C126.329 13.4628 128.348 16.4799 129.368 19.5838C124.658 21.5374 119.969 23.4692 115.259 25.4227C115.911 26.6599 116.909 27.7886 118.255 28.2444C120.143 28.9173 122.401 28.6786 123.985 27.4196C124.615 26.9421 125.114 26.3126 125.591 25.7049C126.785 26.508 127.979 27.2894 129.173 28.0925C127.48 30.6321 124.636 32.4119 121.576 32.6941C118.19 33.1065 114.586 31.8042 112.394 29.1561C108.791 24.9886 109.138 17.9993 113.197 14.2442ZM115.52 18.2598C114.782 19.3234 114.478 20.6257 114.5 21.9064C117.647 20.604 120.794 19.3017 123.942 17.9776C123.421 16.7621 122.162 16.0241 120.881 15.8287C118.819 15.4597 116.67 16.5667 115.52 18.2598Z" fill="#9E9E9E"/>
</g>
<defs>
<clipPath id="clip0_3307_49320">
<rect width="129.366" height="42.2252" fill="white"/>
</clipPath>
</defs>
</svg>
