<svg width="760" height="620" viewBox="0 0 760 620" fill="none" xmlns="http://www.w3.org/2000/svg">
<path d="M380.663 173.925C380.663 223.087 361.487 265.667 321.938 262.942C277.776 259.899 263.212 221.725 263.212 172.562C258.417 108.525 289.504 84 321.937 84C354.37 84 380.663 108.525 380.663 173.925Z" fill="white"/>
<path d="M126.61 296V221.008L129.636 215.964V87.6708L142.415 94.5646L43.8834 216.468L35.6444 199.99H208.495V241.017H7.73263V200.831L128.459 53.874H177.725V296H126.61ZM319.477 300.372C288.874 300.372 265.222 289.498 248.52 267.752C231.93 245.893 223.635 214.955 223.635 174.937C223.635 135.031 231.93 104.149 248.52 82.2902C265.222 60.4316 288.874 49.5023 319.477 49.5023C350.191 49.5023 373.843 60.4316 390.433 82.2902C407.023 104.149 415.318 135.031 415.318 174.937C415.318 214.843 407.023 245.725 390.433 267.584C373.843 289.442 350.191 300.372 319.477 300.372ZM319.477 260.017C333.488 260.017 344.025 252.843 351.087 238.495C358.262 224.147 361.849 202.961 361.849 174.937C361.849 146.913 358.262 125.783 351.087 111.547C344.025 97.1989 333.488 90.0248 319.477 90.0248C305.465 90.0248 294.872 97.1989 287.697 111.547C280.635 125.783 277.104 146.913 277.104 174.937C277.104 202.961 280.635 224.147 287.697 238.495C294.872 252.843 305.465 260.017 319.477 260.017ZM549.335 296V221.008L552.361 215.964V87.6708L565.14 94.5646L466.608 216.468L458.369 199.99H631.22V241.017H430.458V200.831L551.184 53.874H600.45V296H549.335Z" fill="white"/>
<rect x="288.723" y="155" width="63" height="59" rx="20" fill="#777F89"/>
<circle cx="305.723" cy="184" r="8" fill="white"/>
<circle cx="336.723" cy="184" r="8" fill="white"/>
<path d="M422.783 406.498C425.081 407.6 426.941 409.434 428.264 411.614C433.811 420.742 454.229 450.824 469.668 427.187C472.647 422.411 480.016 386.055 508.824 399.723C510.944 400.717 512.88 402.063 514.55 403.706C521.087 410.178 532.225 424.761 532.003 435.598C531.735 448.692 527.897 438.393 527.897 438.393C527.897 438.393 514.404 402.688 494.238 405.008C491.994 405.266 489.516 406.447 487.735 407.825C484.645 410.214 482.171 415.031 480.553 419.778C478.364 426.203 469.165 455.771 441.073 438.174C434.654 434.071 426.028 427.434 420.527 413.427C417.318 405.256 419.994 405.159 422.783 406.498Z" fill="white"/>
<path d="M420.487 418.707L416.504 409.584C415.128 406.436 416.566 402.768 419.714 401.393L420.923 400.865C424.071 399.49 427.739 400.927 429.114 404.075L433.1 413.198C434.475 416.346 433.038 420.014 429.888 421.39L428.681 421.917C425.531 423.294 421.863 421.856 420.487 418.707Z" fill="#B9B9B9"/>
<path d="M387.901 370.595L374.76 340.511C374.071 338.936 374.79 337.102 376.365 336.415L376.682 336.277C378.256 335.589 380.09 336.307 380.779 337.882L393.919 367.966C394.607 369.542 393.888 371.375 392.314 372.062L391.996 372.201C390.422 372.889 388.589 372.17 387.901 370.595Z" fill="white"/>
<path d="M410.337 360.794L397.195 330.71C396.508 329.135 397.226 327.302 398.801 326.615L399.117 326.475C400.692 325.788 402.526 326.507 403.213 328.081L416.356 358.165C417.043 359.74 416.324 361.574 414.75 362.262L414.433 362.4C412.859 363.088 411.024 362.369 410.337 360.794Z" fill="white"/>
<path d="M402.402 408.027L391.751 383.645C390.374 380.496 391.813 376.827 394.961 375.452L417.205 365.737C420.353 364.362 424.021 365.799 425.396 368.948L436.048 393.33C437.423 396.479 435.986 400.146 432.837 401.523L410.594 411.239C407.445 412.614 403.778 411.176 402.402 408.027Z" fill="#515151"/>
<path d="M391.127 387.834L380.476 363.45C379.101 360.301 380.538 356.634 383.688 355.258L410.224 343.666C413.373 342.291 417.04 343.729 418.416 346.877L429.068 371.26C430.443 374.408 429.006 378.076 425.856 379.452L399.32 391.043C396.17 392.42 392.502 390.982 391.127 387.834Z" fill="#515151"/>
<path d="M389.896 394.466L389.812 394.275C388.896 392.176 389.854 389.73 391.953 388.813L429.129 372.574C431.228 371.657 433.673 372.615 434.59 374.714L434.673 374.906C435.59 377.006 434.632 379.45 432.533 380.367L395.358 396.606C393.259 397.523 390.813 396.565 389.896 394.466Z" fill="white"/>
<path d="M525.296 423.745C529.16 432.748 545.563 471.432 554.58 496.51C565.85 527.857 581.545 570.516 598.144 604.246C614.792 638.074 653.296 689.675 664.583 703.392" stroke="white" stroke-width="6.54999" stroke-linecap="round"/>
<path d="M421.989 301.549L414.51 304.771L413.846 292.966L409.181 313.492L416.66 310.271L417.324 322.075L421.989 301.549Z" fill="#BCEB0F"/>
<path d="M362.103 339.332L350.849 344.179L364.566 360.582L335.009 339.144L346.262 334.297L332.545 317.894L362.103 339.332Z" fill="#BCEB0F"/>
</svg>
