<svg width="186" height="90" viewBox="0 0 186 90" fill="none" xmlns="http://www.w3.org/2000/svg">
<rect width="186" height="90" fill="#F0F2F4"/>
<path d="M51.9047 19C53.0093 19.5523 54.2819 19.4562 55.4585 19.8164C61.2455 21.5453 64.7273 25.5794 66.2401 31.1983C67.4887 35.7846 66.2641 40.2269 64.5112 44.5251C63.0224 48.175 61.0534 51.5607 58.388 54.5383C56.9953 56.0991 55.3145 56.8675 53.1774 56.5553C51.3764 56.2912 50.1278 55.0665 49.9837 53.2416C49.7676 50.5282 50.2719 47.8628 50.608 45.1975C50.8001 43.7087 51.8327 42.7482 52.9132 41.8597C54.5701 40.491 56.5151 39.5065 58.22 38.2339C59.0364 37.6336 59.8288 36.9852 60.0449 35.7126C59.1805 35.8807 58.5801 36.3129 57.9558 36.7211C56.7792 37.4895 55.5786 38.3539 54.33 39.1223C51.1603 41.0914 48.3269 40.8512 45.4454 38.498C44.0287 37.3454 42.8281 35.9047 41.3153 34.8962C41.0031 34.6801 40.5949 34.2478 40.2587 34.512C39.8505 34.8241 40.2107 35.3044 40.3548 35.6886C40.5949 36.4089 41.1712 36.8652 41.7235 37.2974C42.4679 37.8977 43.2123 38.498 44.0047 39.0263C46.2138 40.491 47.5825 42.436 47.9427 45.1014C48.3029 47.6947 48.7111 50.3121 48.0627 52.9054C47.2223 56.3872 43.9086 57.5158 41.0511 55.3307C39.8745 54.4422 38.9381 53.2896 38.1216 52.065C35.1201 47.4786 33.4632 42.436 33.055 37.0093C32.8389 34.0077 33.2471 31.0302 34.4958 28.2688C36.7529 23.2742 40.9791 20.8009 46.0457 19.4802C46.646 19.3362 47.2943 19.4082 47.8226 19C49.1913 19 50.56 19 51.9047 19ZM35.1201 36.2889C35.0481 38.1618 35.3602 40.2749 35.9125 42.364C37.0171 46.5422 38.77 50.3601 41.9396 53.4097C42.684 54.1301 43.5724 54.6103 44.629 54.2261C45.6615 53.8659 45.9497 52.9534 46.1658 51.993C46.7181 49.5197 46.2858 47.0944 45.7816 44.6932C45.4694 43.2765 44.701 42.1479 43.5244 41.2835C42.3478 40.419 41.1472 39.5306 40.0186 38.5941C39.1061 37.8497 38.4098 36.9372 38.1216 35.7606C37.8335 34.584 37.9535 33.4314 38.9621 32.591C39.9226 31.7986 40.9071 32.2548 41.8435 32.7831C43.3083 33.5755 44.4369 34.7521 45.6615 35.8326C49.2874 39.0743 50.9442 39.1464 54.8582 36.2168C56.2029 35.2083 57.5476 34.2238 59.1805 33.6956C59.9969 33.4314 60.8613 33.2633 61.5337 33.9837C62.206 34.7281 62.4221 35.6406 62.11 36.6491C61.8458 37.4655 61.3656 38.1378 60.7413 38.7141C59.9729 39.4585 59.0844 40.0828 58.1719 40.6831C56.8753 41.5476 55.5306 42.316 54.33 43.3245C53.6576 43.9008 52.8892 44.4771 52.7211 45.3415C52.2409 47.7188 51.9047 50.12 51.9768 52.5452C52.0248 54.2501 53.3935 54.9945 55.0503 54.4422C56.0348 54.1301 56.8032 53.4817 57.4035 52.6653C60.261 48.8954 62.5422 44.8373 63.8148 40.2509C64.6553 37.2254 65.1595 34.1518 64.151 31.1022C62.182 25.2912 58.268 21.9775 51.9768 21.2812C44.1968 20.4167 34.7119 25.1712 35.1201 36.2889Z" fill="#9E9E9E"/>
<path d="M152.747 67.7253C148.545 72.6238 140.525 71.6153 137.235 67.4132C134.425 63.8353 134.113 59.8253 135.866 55.7672C137.547 51.8772 140.813 50.1723 144.991 50.0282C146.696 49.9802 148.305 50.2924 149.841 51.0367C151.066 51.613 152.123 52.4054 152.771 53.6301C152.771 53.9422 152.771 54.2784 152.771 54.5906C151.306 56.0793 150.874 56.1033 149.025 54.8547C147.152 53.6061 145.159 53.2699 143.022 54.0383C140.501 54.9507 139.228 56.8717 138.916 59.393C138.58 62.2505 139.276 64.8438 141.941 66.3806C144.246 67.7493 146.648 67.6053 148.929 66.1405C150.922 64.8438 151.594 64.8919 152.771 66.5247C152.747 66.9329 152.747 67.3171 152.747 67.7253Z" fill="#9E9E9E"/>
<path d="M89.1366 59.6305C89.8569 60.0387 90.4813 60.3268 91.0095 60.735C93.6029 62.7761 93.5789 66.8822 91.0095 68.9232C89.5928 70.0518 87.936 70.5561 86.135 70.5801C83.7098 70.6281 81.2605 70.6041 78.8353 70.5801C77.2745 70.5801 76.5781 69.9077 76.5781 68.3469C76.5781 63.0882 76.5781 57.8536 76.5781 52.5949C76.5781 51.2021 77.0584 50.4578 78.355 50.3857C81.4526 50.2416 84.5982 50.0255 87.6478 50.6258C89.8329 51.0581 91.4177 52.3067 91.826 54.6359C92.2342 56.8931 91.0816 58.4058 89.1366 59.6305ZM83.8058 61.7436C82.9414 61.7436 82.0529 61.7676 81.1885 61.7195C80.6122 61.6955 80.4201 61.8876 80.4441 62.4639C80.4681 63.7366 80.4681 65.0092 80.4441 66.2579C80.4201 66.8342 80.6122 67.0263 81.1885 67.0023C82.9414 66.9782 84.6943 67.0263 86.4232 66.9782C87.984 66.9302 89.0405 65.7776 89.0165 64.3129C88.9925 62.9202 87.936 61.8396 86.4232 61.7436C85.5587 61.6955 84.6943 61.7436 83.8058 61.7436ZM83.4216 58.1417C84.142 58.1417 84.8624 58.1657 85.5828 58.1417C87.0235 58.0937 87.8879 57.2532 87.8639 55.9566C87.8639 54.6839 87.0715 53.9395 85.6068 53.8915C84.3341 53.8435 83.0374 53.9636 81.7888 53.8675C80.6842 53.7715 80.3721 54.1316 80.4201 55.2362C80.4921 58.1417 80.4441 58.1417 83.4216 58.1417Z" fill="#9E9E9E"/>
<path d="M114.675 60.4003C114.675 57.807 114.675 55.2376 114.675 52.6443C114.675 51.2516 115.323 50.3872 116.692 50.3631C119.381 50.2911 122.119 50.075 124.784 50.6993C129.346 51.8039 131.988 55.0696 132.228 59.8C132.468 64.7705 130.091 68.5645 125.792 70.0292C123.943 70.6536 122.047 70.6296 120.126 70.6055C119.045 70.5815 117.964 70.6055 116.884 70.6055C115.419 70.5815 114.699 69.8371 114.675 68.3964C114.651 65.707 114.675 63.0417 114.675 60.4003ZM118.541 60.4723C118.541 61.4568 118.541 62.4654 118.541 63.4499C118.541 67.1718 118.541 67.1718 122.263 66.9557C125.672 66.7636 127.954 64.7225 128.29 61.5049C128.698 57.807 127.017 55.0215 123.823 54.2291C122.383 53.8689 120.894 54.1091 119.429 54.013C118.637 53.965 118.517 54.3012 118.517 54.9975C118.565 56.8225 118.541 58.6474 118.541 60.4723Z" fill="#9E9E9E"/>
<path d="M96.4576 60.3965C96.4576 57.8032 96.4576 55.2339 96.4576 52.6406C96.4576 51.1518 97.1059 50.3594 98.5707 50.3354C102.076 50.2633 105.606 50.2633 109.112 50.3354C110.457 50.3594 111.129 51.1278 111.105 52.2323C111.081 53.3369 110.361 53.9612 108.992 53.9852C106.471 54.0093 103.973 54.0333 101.452 53.9852C100.588 53.9612 100.204 54.1293 100.3 55.0898C100.396 56.1944 99.9394 57.6591 100.516 58.3315C101.164 59.0999 102.701 58.4996 103.829 58.5956C104.31 58.6196 104.79 58.5956 105.27 58.6196C106.303 58.6677 106.903 59.2439 106.999 60.2285C107.095 61.237 106.567 61.8853 105.582 62.1254C104.286 62.4136 102.965 62.2695 101.644 62.2215C100.564 62.1735 100.156 62.4616 100.276 63.5662C100.42 64.6707 99.8433 66.0875 100.492 66.7838C101.164 67.5042 102.605 66.9759 103.709 66.9999C105.654 67.048 107.623 66.9999 109.568 67.0239C110.769 67.0239 111.537 67.7203 111.537 68.7768C111.561 69.8334 110.793 70.6018 109.64 70.6018C105.894 70.6258 102.149 70.6258 98.3786 70.6018C97.13 70.6018 96.4336 69.8334 96.4336 68.5367C96.4336 65.7993 96.4576 63.0859 96.4576 60.3965Z" fill="#9E9E9E"/>
<path d="M72.1289 60.5695C72.1289 63.1388 72.1289 65.7322 72.1289 68.3015C72.1289 69.8863 71.4325 70.8228 70.2799 70.8468C69.0793 70.8708 68.2148 69.8383 68.2148 68.3015C68.2148 63.0188 68.2148 57.7361 68.2148 52.4534C68.2148 50.7005 69.5595 49.6919 71.0243 50.2922C71.9368 50.6764 72.1529 51.4448 72.1529 52.3333C72.1289 55.0947 72.1289 57.8321 72.1289 60.5695Z" fill="#9E9E9E"/>
<path d="M47.0789 58.4599C50.0564 58.604 52.7217 58.724 55.3631 59.1082C56.8519 59.3243 57.6203 59.9486 57.6443 61.0532C57.6923 62.8301 57.14 63.5265 55.4592 63.8867C52.1455 64.607 48.8077 64.2709 45.47 64.0067C44.4135 63.9107 43.3329 63.9827 42.2764 63.6706C41.2198 63.3584 40.4755 62.8301 40.3794 61.6775C40.2834 60.4769 41.0277 59.2523 42.1803 58.8921C43.8852 58.3398 45.6621 58.5079 47.0789 58.4599ZM55.7473 61.5815C55.2911 61.1252 54.8588 61.1012 54.4266 61.0292C51.1129 60.621 47.7752 60.4289 44.4135 60.549C43.9332 60.573 43.477 60.669 42.9968 60.741C42.6606 60.8131 42.3484 61.0532 42.3964 61.3654C42.4445 61.6055 42.8287 61.6535 43.1168 61.7015C46.3585 62.0857 49.6242 62.3019 52.8898 62.1098C53.8023 62.0857 54.7868 62.1338 55.7473 61.5815Z" fill="#9E9E9E"/>
<path d="M48.327 70.5814C46.8142 70.7014 45.0613 70.3893 43.3084 70.3413C41.6275 70.2692 40.667 69.3567 40.643 67.916C40.595 66.1151 41.2673 65.3947 43.1163 65.0585C44.7971 64.7464 46.454 65.0826 48.1349 65.1306C50.6802 65.2266 53.2255 65.4908 55.7468 65.8029C57.1875 65.995 57.6437 66.6674 57.5477 67.964C57.4516 69.3808 56.9234 69.933 55.5066 70.1011C53.1775 70.3893 50.8963 70.6294 48.327 70.5814ZM55.3626 67.7479C53.7778 67.6038 52.217 67.4117 50.6321 67.3157C48.3029 67.1716 45.9497 66.9075 43.5965 66.9795C43.0923 66.9795 42.6841 67.1476 42.636 67.6519C42.588 68.2042 43.0923 68.2042 43.4765 68.2762C43.7886 68.3242 44.1008 68.3963 44.4129 68.3963C47.0303 68.3963 49.6717 68.4683 52.289 68.3722C53.3215 68.3242 54.4261 68.3482 55.3626 67.7479Z" fill="#9E9E9E"/>
<path d="M50.3144 36.9195C47.9372 36.8955 46.3044 35.4067 46.3284 33.2456C46.3524 31.0605 48.1773 29.4276 50.5305 29.4756C52.7157 29.4997 54.4205 31.1325 54.3965 33.1976C54.3965 35.3587 52.6436 36.9435 50.3144 36.9195ZM50.4345 34.8544C51.491 34.8544 52.3315 34.086 52.3075 33.1255C52.2834 32.2611 51.5151 31.5887 50.5305 31.5887C49.474 31.5887 48.4415 32.4051 48.4175 33.2936C48.3694 34.158 49.2579 34.8544 50.4345 34.8544Z" fill="#9E9E9E"/>
</svg>
