<svg width="32" height="32" viewBox="0 0 32 32" fill="none" xmlns="http://www.w3.org/2000/svg">
<path d="M26.9706 3.2002H5.02208C4.01636 3.2002 3.19922 4.02877 3.19922 5.04591V26.9545C3.19922 27.9716 4.01636 28.8002 5.02208 28.8002H26.9706C27.9764 28.8002 28.7992 27.9716 28.7992 26.9545V5.04591C28.7992 4.02877 27.9764 3.2002 26.9706 3.2002ZM10.9364 25.1431H7.14208V12.9259H10.9421V25.1431H10.9364ZM9.03922 11.2573C7.82208 11.2573 6.83922 10.2688 6.83922 9.05734C6.83922 7.84591 7.82208 6.85734 9.03922 6.85734C10.2506 6.85734 11.2392 7.84591 11.2392 9.05734C11.2392 10.2745 10.2564 11.2573 9.03922 11.2573ZM25.1592 25.1431H21.3649V19.2002C21.3649 17.7831 21.3364 15.9602 19.3935 15.9602C17.4164 15.9602 17.1135 17.5031 17.1135 19.0973V25.1431H13.3192V12.9259H16.9592V14.5945H17.0106C17.5192 13.6345 18.7592 12.6231 20.6049 12.6231C24.4449 12.6231 25.1592 15.1545 25.1592 18.4459V25.1431Z" fill="white"/>
</svg>
