<svg width="138" height="21" viewBox="0 0 138 21" fill="none" xmlns="http://www.w3.org/2000/svg">
<path d="M1.44292 20.6032C1.03662 20.6032 0.694879 20.4629 0.417687 20.1862C0.140495 19.9095 0 19.5683 0 19.1627C0 18.757 0.140495 18.4348 0.417687 18.1581L15.7012 2.89999H0V0.0189542H19.1756C19.5819 0.0189542 19.9237 0.159215 20.2009 0.435946C20.4781 0.712676 20.6186 1.05385 20.6186 1.45947C20.6186 1.86509 20.4781 2.18731 20.2009 2.46404L4.91732 17.7221H20.6186V20.6032H1.44292ZM0 0.833983C0 0.606533 0.0797477 0.413193 0.235431 0.257769C0.394912 0.0985542 0.584758 0.0227487 0.812587 0.0227487H2.06565C2.29348 0.0227487 2.48714 0.102345 2.64282 0.257769C2.8023 0.416984 2.87824 0.606533 2.87824 0.833983V2.08496C2.87824 2.31241 2.79851 2.50575 2.64282 2.66117C2.48334 2.82039 2.29348 2.89619 2.06565 2.89619H0.812587C0.584758 2.89619 0.391114 2.8166 0.235431 2.66117C0.0759505 2.50196 0 2.31241 0 2.08496V0.833983Z" fill="white"/>
<path d="M70.8359 20.641L81.1452 0.056807H82.9109C84.0614 2.35784 85.1816 4.59822 86.2714 6.78553C86.7384 7.70671 87.2207 8.66958 87.7143 9.66657C88.2079 10.6636 88.6977 11.6454 89.1876 12.6045C89.6736 13.5635 90.1407 14.4885 90.5849 15.3718C91.0292 16.255 91.4279 17.0511 91.781 17.76H112.4V20.641H90.0154L85.4398 11.5051C84.3766 9.39363 83.2374 7.12671 82.0224 4.70058C81.8325 5.07966 81.6312 5.48907 81.4148 5.9326C81.225 6.31168 81.0047 6.75521 80.7503 7.25939C80.4959 7.76357 80.2263 8.30945 79.9339 8.88945L75.4912 17.76H84.4905C84.9955 18.7835 85.4778 19.7426 85.9334 20.641H70.8359ZM91.7772 5.7241C91.8038 4.92803 91.9709 4.18503 92.2785 3.4951C92.5898 2.80517 93.0075 2.20622 93.5315 1.69445C94.0555 1.18269 94.6707 0.780852 95.3731 0.488958C96.0756 0.197064 96.8237 0.0530124 97.6211 0.0530124H112.392V2.93405H97.6211C97.2148 2.93405 96.835 3.00986 96.4819 3.16149C96.1288 3.31313 95.8136 3.52162 95.5402 3.78698C95.2668 4.05234 95.0542 4.36319 94.8947 4.71574C94.7352 5.06828 94.6593 5.44737 94.6593 5.85299V11.7856H91.7734V5.72031L91.7772 5.7241ZM96.049 9.70448C96.049 9.4884 96.1288 9.30265 96.2845 9.14344C96.4402 8.98422 96.6338 8.9084 96.8616 8.9084H98.1337C98.3501 8.9084 98.5362 8.98802 98.6957 9.14344C98.8551 9.30265 98.9311 9.4884 98.9311 9.70448V10.9744C98.9311 11.2019 98.8513 11.3952 98.6957 11.5506C98.54 11.706 98.3501 11.7856 98.1337 11.7856H96.8616C96.6338 11.7856 96.4402 11.706 96.2845 11.5506C96.125 11.3914 96.049 11.2019 96.049 10.9744V9.70448ZM109.529 8.9084V11.7894H96.049V8.9084H109.529Z" fill="white"/>
<path d="M70.8359 2.91894C70.4182 2.91894 70.0309 2.99476 69.6664 3.14639C69.3019 3.29802 68.9905 3.50652 68.7171 3.77188C68.4437 4.03724 68.2311 4.34808 68.0716 4.70063C67.9121 5.05318 67.8362 5.43226 67.8362 5.83788V20.6221H65.8047L50.1035 4.94704V20.6221H47.2176V0.0379083H49.2491L64.9503 15.713V5.89474C64.9503 5.09867 65.106 4.3443 65.4136 3.62783C65.725 2.91516 66.1426 2.29345 66.6742 1.76274C67.2058 1.23202 67.8286 0.811231 68.5424 0.504173C69.2563 0.193325 70.0195 0.0417029 70.8283 0.0417029" fill="white"/>
<path d="M135.919 20.5842H133.888L114.693 0H118.262L138 20.6297" fill="white"/>
<path d="M118.186 20.6221H114.693L132.388 0L135.927 0.00758907" fill="white"/>
<path d="M48.034 20.6221C47.8062 20.6221 47.6125 20.5425 47.4568 20.3871C47.2973 20.2278 47.2214 20.0383 47.2214 19.8109V18.5599C47.2214 18.3324 47.3011 18.1391 47.4568 17.9837C47.6163 17.8245 47.8062 17.7486 48.034 17.7486H49.2871C49.5149 17.7486 49.7085 17.8282 49.8642 17.9837C50.0237 18.1429 50.0996 18.3324 50.0996 18.5599V19.8109C50.0996 20.0383 50.0199 20.2316 49.8642 20.3871C49.7048 20.5463 49.5149 20.6221 49.2871 20.6221H48.034Z" fill="white"/>
<path d="M22.8635 17.7449H43.4821V20.6259H22.8408V17.6993C22.8484 17.7145 22.856 17.7297 22.8635 17.7449Z" fill="white"/>
<path d="M40.6115 11.7743H27.1316V8.89331H40.6115V11.7743Z" fill="white"/>
<path d="M43.4745 2.91894H28.7036C28.2973 2.91894 27.9176 2.99476 27.5644 3.14639C27.2113 3.29802 26.8961 3.50652 26.6227 3.77188C26.3493 4.03724 26.1367 4.34808 25.9772 4.70063C25.8177 5.05318 25.7418 5.43226 25.7418 5.83788L25.7494 17.7449H22.8635L22.8559 5.7052L22.8598 5.70902C22.8863 4.91294 23.0534 4.16994 23.361 3.48001C23.6724 2.79008 24.09 2.19113 24.6141 1.67937C25.1381 1.16761 25.7532 0.765748 26.4557 0.473854C27.1581 0.181964 27.9062 0.0379083 28.7036 0.0379083H43.4745V2.91894Z" fill="white"/>
<path d="M29.2162 8.89331C29.4326 8.89331 29.6187 8.97293 29.7782 9.12835C29.9377 9.28757 30.0136 9.47332 30.0136 9.68939V10.9593C30.0136 11.1868 29.9339 11.3801 29.7782 11.5355C29.6225 11.691 29.4326 11.7705 29.2162 11.7705H27.9441C27.7163 11.7705 27.5227 11.6909 27.367 11.5355C27.2075 11.3763 27.1316 11.1868 27.1316 10.9593V9.68939C27.1316 9.47331 27.2113 9.28757 27.367 9.12835C27.5227 8.96914 27.7163 8.89331 27.9441 8.89331H29.2162Z" fill="white"/>
</svg>
