<svg width="32" height="32" viewBox="0 0 32 32" fill="none" xmlns="http://www.w3.org/2000/svg">
<path opacity="0.4" d="M21.586 2.66602H10.4127C5.55935 2.66602 2.66602 5.55935 2.66602 10.4127V21.5727C2.66602 26.4394 5.55935 29.3327 10.4127 29.3327H21.5727C26.426 29.3327 29.3193 26.4394 29.3193 21.586V10.4127C29.3327 5.55935 26.4394 2.66602 21.586 2.66602Z" fill="#E6E6E6"/>
<path d="M21.3327 17H10.666C10.1193 17 9.66602 16.5467 9.66602 16C9.66602 15.4533 10.1193 15 10.666 15H21.3327C21.8793 15 22.3327 15.4533 22.3327 16C22.3327 16.5467 21.8793 17 21.3327 17Z" fill="#667085"/>
</svg>
