<svg width="20" height="20" viewBox="0 0 20 20" fill="none" xmlns="http://www.w3.org/2000/svg">
<path d="M14.166 17.0827H5.83268C3.33268 17.0827 1.66602 15.8327 1.66602 12.916V7.08268C1.66602 4.16602 3.33268 2.91602 5.83268 2.91602H14.166C16.666 2.91602 18.3327 4.16602 18.3327 7.08268V12.916C18.3327 15.8327 16.666 17.0827 14.166 17.0827Z" stroke="#777F89" stroke-width="1.14583" stroke-miterlimit="10" stroke-linecap="round" stroke-linejoin="round"/>
<path d="M10 12.5C11.3807 12.5 12.5 11.3807 12.5 10C12.5 8.61929 11.3807 7.5 10 7.5C8.61929 7.5 7.5 8.61929 7.5 10C7.5 11.3807 8.61929 12.5 10 12.5Z" stroke="#777F89" stroke-width="1.14583" stroke-miterlimit="10" stroke-linecap="round" stroke-linejoin="round"/>
<path d="M15.834 5.83398H13.334" stroke="#777F89" stroke-width="1.14583" stroke-miterlimit="10" stroke-linecap="round" stroke-linejoin="round"/>
<path d="M6.66602 14.166H4.16602" stroke="#777F89" stroke-width="1.14583" stroke-miterlimit="10" stroke-linecap="round" stroke-linejoin="round"/>
</svg>
