<svg width="121" height="33" viewBox="0 0 121 33" fill="none" xmlns="http://www.w3.org/2000/svg">
<path d="M102.453 30.491C104.124 30.653 105.795 30.827 107.462 31.0071L111.141 21.9208L114.639 31.8452C116.434 32.07 118.228 32.3061 120.016 32.5525L113.884 15.1493L120.018 0.0012002H114.823L114.769 0.0756123L111.455 8.25895L108.546 0.00240039H103.416L108.712 15.0308L102.453 30.491H102.453ZM98.5733 30.1349V0.0012002H93.4456V29.712C95.1559 29.8441 96.867 29.9861 98.5733 30.1349ZM60.055 28.4498C61.4392 28.4498 62.8218 28.4602 64.2021 28.4714V17.4008H70.3619V12.6865H64.2025V4.72117H71.2968V0.0012002H59.0548V28.4538C59.3873 28.4538 59.7213 28.4486 60.055 28.4498ZM44.1348 28.7379C45.8431 28.6771 47.553 28.6259 49.2652 28.5843V4.72197H54.058V0.00240039H39.342V4.72197H44.1356V28.7379H44.1348ZM4.9188 31.9152V13.9623L10.9902 31.1903C12.8573 30.9806 14.7272 30.7834 16.6023 30.597V0.00160026H11.6823V18.5978L5.13084 0.00160026H0V32.5605H0.030805C1.65627 32.3357 3.28734 32.122 4.9188 31.9152ZM34.3976 4.72077V0.00160026H22.1544V30.0869C26.2278 29.7353 30.306 29.4404 34.3876 29.2024V24.4788C32.0208 24.6164 29.6588 24.7748 27.3025 24.9513V17.4028H33.4623V12.6857H27.3025V4.72077H34.3976ZM81.4589 24.2532V0H76.3088V28.7551C80.4055 28.9055 84.4862 29.1151 88.5532 29.3792V24.6528C86.1928 24.5004 83.8285 24.3684 81.4589 24.2532Z" fill="#9E9E9E"/>
</svg>
