<svg width="32" height="32" viewBox="0 0 32 32" fill="none" xmlns="http://www.w3.org/2000/svg">
<path d="M17.3151 3.20117C18.755 3.20501 19.4858 3.21269 20.1169 3.23061L20.3652 3.23957C20.6519 3.24981 20.9347 3.26261 21.2765 3.27797C22.6383 3.34196 23.5676 3.55699 24.3829 3.87314C25.2276 4.19824 25.9393 4.63854 26.6509 5.3489C27.302 5.98853 27.8057 6.76256 28.1267 7.61695C28.4428 8.43227 28.6579 9.3615 28.7219 10.7246C28.7372 11.0651 28.75 11.348 28.7603 11.6359L28.7679 11.8843C28.7871 12.514 28.7948 13.2448 28.7974 14.6848L28.7987 15.6396V17.3163C28.8018 18.2499 28.792 19.1835 28.7692 20.1168L28.7615 20.3651C28.7513 20.6531 28.7385 20.936 28.7231 21.2764C28.6591 22.6395 28.4416 23.5675 28.1267 24.3841C27.8057 25.2385 27.302 26.0125 26.6509 26.6521C26.0113 27.3032 25.2373 27.8069 24.3829 28.1279C23.5676 28.4441 22.6383 28.6591 21.2765 28.7231L20.3652 28.7615L20.1169 28.7692C19.4858 28.7871 18.755 28.796 17.3151 28.7986L16.3602 28.7999H14.6848C13.7508 28.8032 12.8168 28.7934 11.883 28.7704L11.6347 28.7628C11.3309 28.7513 11.0271 28.738 10.7234 28.7231C9.36156 28.6591 8.43232 28.4441 7.61572 28.1279C6.76179 27.8067 5.98821 27.3031 5.34896 26.6521C4.6974 26.0126 4.19332 25.2386 3.87191 24.3841C3.55577 23.5688 3.34074 22.6395 3.27674 21.2764L3.23834 20.3651L3.23195 20.1168C3.20835 19.1835 3.19768 18.2499 3.19995 17.3163V14.6848C3.1964 13.7512 3.20579 12.8176 3.22811 11.8843L3.23706 11.6359C3.2473 11.348 3.2601 11.0651 3.27546 10.7246C3.33946 9.3615 3.55449 8.43355 3.87063 7.61695C4.19279 6.76221 4.69776 5.98815 5.35024 5.3489C5.98912 4.69812 6.76225 4.1945 7.61572 3.87314C8.43232 3.55699 9.36028 3.34196 10.7234 3.27797C11.0639 3.26261 11.348 3.24981 11.6347 3.23957L11.883 3.23189C12.8163 3.20915 13.7499 3.19934 14.6835 3.20245L17.3151 3.20117ZM15.9993 9.60085C14.302 9.60085 12.6742 10.2751 11.474 11.4753C10.2739 12.6754 9.59962 14.3032 9.59962 16.0005C9.59962 17.6978 10.2739 19.3256 11.474 20.5258C12.6742 21.726 14.302 22.4002 15.9993 22.4002C17.6966 22.4002 19.3244 21.726 20.5246 20.5258C21.7247 19.3256 22.399 17.6978 22.399 16.0005C22.399 14.3032 21.7247 12.6754 20.5246 11.4753C19.3244 10.2751 17.6966 9.60085 15.9993 9.60085ZM15.9993 12.1607C16.5036 12.1606 17.0029 12.2599 17.4688 12.4528C17.9347 12.6457 18.358 12.9284 18.7146 13.2849C19.0713 13.6414 19.3542 14.0647 19.5472 14.5305C19.7403 14.9963 19.8397 15.4956 19.8397 15.9999C19.8398 16.5041 19.7406 17.0035 19.5477 17.4694C19.3548 17.9353 19.072 18.3586 18.7155 18.7152C18.359 19.0718 17.9358 19.3548 17.47 19.5478C17.0041 19.7408 16.5048 19.8402 16.0006 19.8403C14.9822 19.8403 14.0055 19.4358 13.2854 18.7157C12.5653 17.9956 12.1608 17.0189 12.1608 16.0005C12.1608 14.9821 12.5653 14.0055 13.2854 13.2854C14.0055 12.5653 14.9822 12.1607 16.0006 12.1607M22.7202 7.68095C22.2959 7.68095 21.889 7.84951 21.5889 8.14955C21.2889 8.44959 21.1203 8.85654 21.1203 9.28086C21.1203 9.70519 21.2889 10.1121 21.5889 10.4122C21.889 10.7122 22.2959 10.8808 22.7202 10.8808C23.1446 10.8808 23.5515 10.7122 23.8516 10.4122C24.1516 10.1121 24.3202 9.70519 24.3202 9.28086C24.3202 8.85654 24.1516 8.44959 23.8516 8.14955C23.5515 7.84951 23.1446 7.68095 22.7202 7.68095Z" fill="white"/>
</svg>
