<svg width="186" height="90" viewBox="0 0 186 90" fill="none" xmlns="http://www.w3.org/2000/svg">
<rect width="186" height="90" fill="#F0F2F4"/>
<path d="M72.5695 43.0027C71.707 41.5286 70.5336 40.3551 69.0801 39.515C67.6248 38.6748 65.9806 38.2487 64.1955 38.2487C62.4103 38.2487 60.7661 38.6748 59.3109 39.515C57.8574 40.3551 56.6839 41.5269 55.8214 43.0027C54.959 44.4803 54.5208 46.2001 54.5208 48.1158C54.5208 50.0314 54.959 51.7514 55.8214 53.2288C56.6839 54.7064 57.8591 55.8748 59.316 56.7029C60.7696 57.531 62.4121 57.9502 64.1955 57.9502C65.9788 57.9502 67.6213 57.531 69.0748 56.7029C70.5301 55.8748 71.707 54.7047 72.5695 53.2288C73.4319 51.7514 73.8701 50.0314 73.8701 48.1158C73.8701 46.2001 73.4319 44.4803 72.5695 43.0027ZM67.5216 50.4317C67.1678 51.0795 66.709 51.5693 66.1215 51.9266C65.5407 52.2804 64.9102 52.4523 64.1955 52.4523C63.4808 52.4523 62.8501 52.2804 62.2694 51.9266C61.6802 51.5693 61.2231 51.0795 60.8691 50.4317C60.5153 49.7857 60.3366 49.0057 60.3366 48.1158C60.3366 47.2259 60.5153 46.4131 60.8691 45.7671C61.2231 45.1194 61.6819 44.6298 62.2694 44.2724C62.8501 43.9185 63.4808 43.7467 64.1955 43.7467C64.9102 43.7467 65.5407 43.9185 66.1215 44.2724C66.709 44.6298 67.1678 45.1194 67.5216 45.7671C67.8756 46.4148 68.0544 47.2052 68.0544 48.1158C68.0544 49.0265 67.8756 49.7857 67.5216 50.4317ZM124.501 42.5887C125.241 43.8566 125.618 45.3325 125.618 46.9751V54.8542C125.618 56.3988 124.365 57.6513 122.821 57.6513H120.915C120.297 57.6513 119.797 57.1496 119.797 56.5328V46.8358C119.797 46.2482 119.682 45.7397 119.453 45.3222C119.225 44.9047 118.929 44.5903 118.551 44.36C118.177 44.1315 117.771 44.0216 117.311 44.0216C116.85 44.0216 116.445 44.1315 116.07 44.36C115.69 44.5903 115.397 44.9064 115.168 45.3222C114.94 45.7379 114.824 46.2482 114.824 46.8358V54.8542C114.824 56.3988 113.572 57.6513 112.027 57.6513H110.122C109.504 57.6513 109.004 57.1496 109.004 56.5328V46.8358C109.004 46.25 108.888 45.7397 108.66 45.3239C108.431 44.9064 108.136 44.592 107.758 44.3617C107.383 44.1332 106.978 44.0233 106.518 44.0233C106.057 44.0233 105.652 44.1332 105.277 44.3617C104.897 44.592 104.604 44.9081 104.375 45.3239C104.146 45.7397 104.031 46.25 104.031 46.8375V54.856C104.031 56.4005 102.779 57.6531 101.234 57.6531H99.3307C98.7122 57.6531 98.2122 57.1513 98.2122 56.5345V46.9767C98.2122 45.3342 98.5884 43.8584 99.3289 42.5904C100.068 41.3241 101.076 40.3173 102.324 39.5975C103.574 38.8758 104.985 38.5099 106.518 38.5099C108.05 38.5099 109.461 38.8758 110.711 39.5975C111.136 39.8431 111.531 40.1215 111.899 40.4324C111.907 40.4393 111.917 40.4393 111.926 40.4324C112.294 40.1215 112.689 39.8431 113.113 39.5992C114.364 38.8776 115.775 38.5116 117.307 38.5116C118.84 38.5116 120.25 38.8776 121.501 39.5992C122.748 40.3191 123.757 41.3259 124.496 42.5921L124.501 42.5887ZM162.596 50.2634L165.27 52.9368C166.385 54.0518 166.467 55.8679 165.393 57.0208C164.265 58.232 162.368 58.2577 161.208 57.0964L158.485 54.3731C157.722 53.6103 157.722 52.375 158.485 51.6121L159.835 50.2618C160.598 49.4988 161.834 49.4988 162.596 50.2618V50.2634ZM158.466 41.8086L161.143 39.1318C162.258 38.0168 164.074 37.9343 165.227 39.0081C166.437 40.1369 166.464 42.0337 165.302 43.1934L162.577 45.9184C161.815 46.6811 160.579 46.6811 159.816 45.9184L158.466 44.5679C157.703 43.8051 157.703 42.5698 158.466 41.8069V41.8086ZM147.678 56.8713C146.467 55.7425 146.441 53.8457 147.602 52.686L152.188 48.1003L147.601 43.513C146.441 42.3533 146.467 40.4565 147.676 39.3277C148.829 38.2539 150.645 38.3364 151.76 39.4514L159.325 47.0163C159.925 47.6158 159.925 48.5865 159.325 49.1845L151.762 56.7475C150.647 57.8626 148.831 57.9451 147.678 56.8695V56.8713ZM42.5302 54.8628C42.5302 56.4023 41.2828 57.6513 39.7417 57.6513H37.8295C37.2127 57.6513 36.7144 57.1513 36.7144 56.5363V34.7885C36.7144 33.2491 37.9635 32 39.5029 32H41.4152C42.032 32 42.5302 32.5 42.5302 33.115V39.96C44.2243 38.8346 45.384 38.5666 46.676 38.5666C49.5383 38.5666 53.2545 39.7435 53.2545 46.5455V54.8611C53.2545 56.4005 52.0055 57.6495 50.4661 57.6495H48.5538C47.937 57.6495 47.4388 57.1496 47.4388 56.5345V46.5455C47.4388 45.8652 47.1982 45.2569 46.7429 44.7878C46.2808 44.3136 45.8342 44.0628 45.1434 44.0628C44.4527 44.0628 43.6831 44.3136 43.2225 44.7878C42.7673 45.2552 42.5267 45.8634 42.5267 46.5455V54.8611L42.5302 54.8628ZM144.268 38.6714H142.525C141.708 38.6714 140.981 38.9635 140.441 39.5304C140.367 39.6095 140.314 39.6765 140.254 39.7572C139.691 39.3483 139.033 38.9978 138.295 38.7143C137.491 38.4051 136.615 38.2487 135.689 38.2487C134.036 38.2487 132.514 38.6817 131.167 39.5356C129.83 40.3826 128.763 41.563 127.994 43.044C127.231 44.5095 126.844 46.2208 126.844 48.0987C126.844 49.9765 127.231 51.6878 127.994 53.1533C128.763 54.6342 129.832 55.8163 131.167 56.6617C132.514 57.5155 134.036 57.9486 135.689 57.9486C136.615 57.9486 137.491 57.7922 138.295 57.4829C139.033 57.1994 139.691 56.8489 140.254 56.44C140.337 56.5551 140.429 56.6651 140.531 56.7698C141.077 57.3317 141.797 57.6289 142.615 57.6289H144.268C144.96 57.6289 145.522 57.0671 145.522 56.3748V39.9256C145.522 39.2332 144.96 38.6714 144.268 38.6714ZM139.569 50.4317C139.215 51.0795 138.756 51.5693 138.168 51.9266C137.588 52.2804 136.957 52.4523 136.242 52.4523C135.528 52.4523 134.897 52.2804 134.316 51.9266C133.729 51.5693 133.27 51.0795 132.916 50.4317C132.562 49.7857 132.384 48.9904 132.384 48.0987C132.384 47.2069 132.562 46.4115 132.916 45.7654C133.27 45.1177 133.729 44.6281 134.316 44.2707C134.897 43.9168 135.528 43.745 136.242 43.745C136.957 43.745 137.588 43.9168 138.168 44.2707C138.756 44.6281 139.215 45.1177 139.569 45.7654C139.923 46.4131 140.101 47.2086 140.101 48.0987C140.101 48.9886 139.923 49.7841 139.569 50.4317ZM20.3735 54.7957C19.8907 54.2873 19.9955 53.868 20.0454 53.6515C20.0969 53.4333 20.3254 52.5467 21.0797 51.6792C21.9456 50.6809 22.918 50.6466 23.5658 50.784C23.9059 50.8562 24.2255 51.0057 24.509 51.2084C25.0657 51.6087 26.6343 52.6482 28.1101 52.7255C29.0517 52.7288 29.5156 52.2994 29.5688 52.0554C29.8197 50.9266 27.3748 50.686 25.2839 49.9439C23.2204 49.2119 20.767 47.7292 20.767 44.2827C20.767 40.8362 23.8664 38.4498 27.3404 38.2608C31.3419 38.0426 34.1132 40.4015 34.5891 40.8465C35.0771 41.3035 35.0014 41.709 34.9654 41.9186C34.9293 42.1282 34.761 42.9855 34.0926 43.8549C33.3246 44.8531 32.4002 44.9408 31.7766 44.848C31.4484 44.7981 31.1357 44.6744 30.8539 44.4975C30.3007 44.1487 28.751 43.257 27.3387 43.2656C26.8405 43.2897 26.5037 43.4958 26.3903 43.7982C25.9161 45.0627 28.8489 45.25 31.213 46.1864C33.5771 47.1211 35.5804 48.5143 35.51 51.8768C35.4207 56.0793 31.5962 57.9519 27.7974 57.9486C23.5967 57.9296 20.8426 55.2906 20.3718 54.7957H20.3735ZM98.2636 41.0974L92.4737 56.9194C92.3122 57.3591 91.8947 57.6513 91.4257 57.6513H89.7901C88.8244 57.6513 87.9688 57.0293 87.6698 56.1119L85.8882 50.6483L84.1082 56.1101C83.8093 57.0277 82.9537 57.6495 81.9881 57.6495H80.3507C79.8835 57.6495 79.4642 57.3575 79.3044 56.9176L73.499 41.0956C73.1056 40.0218 73.8804 38.8793 75.023 38.8466L77.8664 38.7676C78.3458 38.7539 78.7805 39.0494 78.9453 39.5012L81.8403 47.4492L83.6857 42.4856C83.921 41.8516 84.5275 41.4307 85.2043 41.4307H86.615C87.2971 41.4307 87.9053 41.8568 88.139 42.4993L89.9343 47.4509L92.8139 39.5047C92.9771 39.0528 93.4135 38.7556 93.8945 38.7693L96.7414 38.8484C97.8841 38.881 98.6588 40.0218 98.2654 41.0956L98.2636 41.0974Z" fill="#9E9E9E"/>
</svg>
