<svg width="32" height="32" viewBox="0 0 32 32" fill="none" xmlns="http://www.w3.org/2000/svg">
<path fill-rule="evenodd" clip-rule="evenodd" d="M7.84986 3.2002C6.6154 3.2002 5.43149 3.69058 4.5586 4.56348C3.6857 5.43638 3.19531 6.62028 3.19531 7.85474V24.1456C3.19531 25.3801 3.6857 26.564 4.5586 27.4369C5.43149 28.3098 6.6154 28.8002 7.84986 28.8002H24.1408C25.3752 28.8002 26.5591 28.3098 27.432 27.4369C28.3049 26.564 28.7953 25.3801 28.7953 24.1456V7.85474C28.7953 6.62028 28.3049 5.43638 27.432 4.56348C26.5591 3.69058 25.3752 3.2002 24.1408 3.2002H7.84986ZM7.4612 7.27292C7.33382 7.32026 7.21925 7.39669 7.12663 7.49613C7.034 7.59557 6.96588 7.71526 6.92768 7.84567C6.88948 7.97609 6.88227 8.11362 6.90661 8.24732C6.93095 8.38101 6.98618 8.50718 7.06789 8.61576L13.6005 17.2848L6.71764 24.6681L6.66644 24.7275H9.0484L14.6688 18.701L18.9882 24.4354C19.0884 24.5681 19.2245 24.6695 19.3803 24.7275H24.5259C24.6531 24.6799 24.7675 24.6033 24.8598 24.5037C24.9522 24.4042 25.0201 24.2844 25.058 24.1541C25.096 24.0237 25.103 23.8862 25.0785 23.7526C25.054 23.6191 24.9987 23.4931 24.9169 23.3846L18.3843 14.7155L25.3242 7.27292H22.9387L17.3184 13.3006L12.9966 7.56616C12.8966 7.43299 12.7605 7.33124 12.6045 7.27292H7.4612ZM20.1216 23.0379L9.51502 8.96252H11.8644L22.4698 23.0367L20.1216 23.0379Z" fill="white"/>
</svg>
