<svg width="32" height="32" viewBox="0 0 32 32" fill="none" xmlns="http://www.w3.org/2000/svg">
<path fill-rule="evenodd" clip-rule="evenodd" d="M27.3861 3.2002H4.61234C3.83154 3.2002 3.19922 3.83252 3.19922 4.61332V27.3871C3.19922 28.1679 3.83154 28.8002 4.61234 28.8002H16.8722V18.8866H13.5365V15.0236H16.8722V12.173C16.8722 8.86548 18.892 7.0658 21.8424 7.0658C23.2555 7.0658 24.469 7.17076 24.8235 7.21812V10.6741H22.7781C21.173 10.6741 20.8632 11.437 20.8632 12.5557V15.0223H24.6891L24.1899 18.8853H20.8619V28.8002H27.3861C28.1669 28.8002 28.7992 28.1679 28.7992 27.3871V4.61332C28.7992 3.83252 28.1669 3.2002 27.3861 3.2002Z" fill="white"/>
</svg>
