<svg width="121" height="37" viewBox="0 0 121 37" fill="none" xmlns="http://www.w3.org/2000/svg">
<g clip-path="url(#clip0_3307_49316)">
<path d="M117.186 29.4763L110.194 19.9869L103.21 29.4763H100.332L108.738 18.011L101.061 7.58932H103.939L110.194 16.0887L116.449 7.59003H119.324L111.653 18.0117L120.061 29.4763H117.186ZM62.7036 29.4727L54.2877 18.0096L61.9641 7.58789H59.0874L52.8301 16.0894L46.5785 7.59003H43.709L51.3818 18.0117L42.9688 29.4727H45.8497L52.8337 19.9876L59.8233 29.4727H62.7036Z" fill="#9E9E9E"/>
<path d="M78.701 18.837C78.2675 18.4676 77.7846 18.1603 77.2663 17.9241C78.0617 17.5015 78.7269 16.8702 79.1906 16.098C79.6543 15.3258 79.8989 14.4419 79.8981 13.5412C79.8981 12.1407 79.382 7.58731 72.7835 7.58731H63.8965V17.0218H60.9363C60.553 17.5215 59.68 18.725 59.3481 19.2182H63.8958V29.4715H72.7849C77.5996 29.4715 80.5898 27.0274 80.5898 23.0821C80.6109 22.2781 80.4522 21.4796 80.1253 20.7448C79.7984 20.01 79.3116 19.3575 78.7003 18.8349M66.3513 9.86938H72.7828C74.5224 9.86938 77.4383 10.3027 77.4383 13.3471C77.4383 15.6491 75.7408 17.0204 72.7828 17.0204H66.3513V9.87081V9.86938ZM72.7814 27.1887H66.3499V19.2239H72.7814C75.219 19.2239 78.135 19.8971 78.135 23.0357C78.135 26.6497 74.7801 27.1908 72.7814 27.1908M92.1507 7.08407C86.0026 7.08407 81.7062 11.7853 81.7062 18.5187C81.7062 25.2521 86.0026 29.959 92.1507 29.959C98.2988 29.959 102.577 25.2607 102.577 18.5187C102.577 11.7767 98.2938 7.08407 92.1493 7.08407M92.1493 27.6419C87.4653 27.6419 84.1831 23.888 84.1831 18.5173C84.1831 13.1465 87.4667 9.39469 92.1493 9.39469C96.8319 9.39469 100.088 13.1465 100.088 18.5173C100.088 23.888 96.8255 27.6419 92.1493 27.6419ZM5.44506 5.24671L5.4265 5.2617C2.27047 8.37668 0.357435 12.5348 0.0452717 16.9582C-0.266891 21.3815 1.0432 25.7671 3.73047 29.2944C3.74078 29.31 3.75612 29.3215 3.77393 29.3271C3.79173 29.3327 3.81091 29.332 3.82826 29.3251C3.84299 29.315 3.85337 29.2996 3.85734 29.2822C3.8613 29.2647 3.85857 29.2464 3.84968 29.2309C2.45845 24.9309 9.56662 14.5078 13.2406 10.1363C13.2552 10.1219 13.2647 10.1031 13.2678 10.0828C13.2666 10.0711 13.2629 10.0597 13.257 10.0495C13.2511 10.0393 13.2431 10.0305 13.2335 10.0236C7.05471 3.87476 5.40508 5.2824 5.4265 5.2617M31.0453 5.24671L31.0624 5.2617C34.2179 8.37699 36.1306 12.535 36.4427 16.9582C36.7549 21.3814 35.4451 25.7669 32.7585 29.2944C32.7483 29.3101 32.7329 29.3217 32.7151 29.3273C32.6972 29.3329 32.678 29.3321 32.6607 29.3251C32.647 29.3141 32.6375 29.2988 32.6336 29.2817C32.6297 29.2646 32.6317 29.2467 32.6393 29.2309C34.0298 24.9302 26.9287 14.4992 23.2555 10.1278C23.2406 10.1142 23.2309 10.0957 23.2283 10.0757C23.2288 10.0635 23.2322 10.0516 23.2381 10.0409C23.2441 10.0302 23.2525 10.0211 23.2626 10.0143C29.4435 3.86548 31.0817 5.2824 31.061 5.2617M18.2452 0.000173032C21.5999 -0.0132572 24.8915 0.9117 27.7482 2.67056C27.7635 2.67916 27.775 2.69309 27.7807 2.70968C27.7864 2.72626 27.7857 2.74435 27.7789 2.7605C27.7703 2.77543 27.7566 2.78675 27.7404 2.7924C27.7241 2.79804 27.7064 2.79761 27.6904 2.79119C24.1591 2.02741 18.7898 5.07968 18.2837 5.38448C18.273 5.39436 18.259 5.39985 18.2445 5.39985C18.2299 5.39985 18.2159 5.39436 18.2052 5.38448C16.8582 4.61142 11.8965 2.01028 8.77143 2.81046C8.75649 2.81233 8.74135 2.80943 8.72816 2.80217C8.71496 2.79491 8.70441 2.78367 8.69799 2.77005C8.69158 2.75642 8.68963 2.74112 8.69244 2.72633C8.69525 2.71154 8.70266 2.69801 8.71361 2.68769C11.5763 0.916618 14.879 -0.014598 18.2452 0.000173032ZM18.2452 14.6334C18.267 14.6365 18.2873 14.6465 18.303 14.6619C23.7623 18.8121 33.1054 29.0739 30.253 31.9791L30.2565 31.9755V31.9791H30.253C26.929 34.8888 22.6617 36.4927 18.2441 36.4927C13.8265 36.4927 9.55921 34.8888 6.23525 31.9791C3.38713 29.0739 12.7288 18.8121 18.1824 14.6605C18.2003 14.645 18.2224 14.635 18.2459 14.632" fill="#9E9E9E"/>
</g>
<defs>
<clipPath id="clip0_3307_49316">
<rect width="120.059" height="36.4895" fill="white"/>
</clipPath>
</defs>
</svg>
